<svg version="1.1" id="Layer_1" xmlns="http://www.w3.org/2000/svg" xmlns:xlink="http://www.w3.org/1999/xlink" x="0px" y="0px"
	 width="100%" viewBox="0 0 1080 1080" enable-background="new 0 0 1080 1080" xml:space="preserve">
<path fill="#FFFFFF" opacity="1.000000" stroke="none" 
	d="
M634.000000,1081.000000 
	C422.691010,1081.000000 211.881989,1081.000000 1.036494,1081.000000 
	C1.036494,721.065857 1.036494,361.131744 1.036494,1.098807 
	C360.892548,1.098807 720.785156,1.098807 1080.838867,1.098807 
	C1080.838867,360.999939 1080.838867,720.999939 1080.838867,1081.000000 
	C932.131287,1081.000000 783.315613,1081.000000 634.000000,1081.000000 
M298.207672,453.369568 
	C299.804169,452.907288 301.397705,452.434570 302.997559,451.984283 
	C333.386505,443.431488 364.586823,439.590118 395.823090,435.924316 
	C398.960510,435.556152 400.617676,436.488739 401.876526,439.456512 
	C412.590149,464.714111 418.271851,491.369110 423.810760,518.057800 
	C424.083435,519.371521 423.183350,521.230591 422.286591,522.429871 
	C419.297394,526.427429 415.843445,530.085510 412.954071,534.148499 
	C393.742218,561.163757 378.641693,590.360840 367.202332,621.447571 
	C366.159698,624.281067 364.867035,625.627075 361.787415,626.209961 
	C356.249969,627.257935 350.774017,628.794434 345.415588,630.561157 
	C342.340851,631.575012 340.192902,631.386230 337.985352,628.832764 
	C332.900269,622.950867 327.581909,617.270752 321.397125,610.448547 
	C325.577545,627.320923 332.269012,641.665344 339.354401,655.253967 
	C349.995117,653.231079 360.040161,650.834229 370.226044,649.591370 
	C375.286896,648.973877 377.270203,646.592163 379.640076,642.580200 
	C398.550262,610.567078 390.175934,616.062744 424.963776,607.838440 
	C425.125671,607.800171 425.288239,607.734497 425.450775,607.733582 
	C427.727570,607.720947 430.152557,607.194397 432.258575,607.791260 
	C457.049530,614.817810 481.781342,622.052856 506.566132,629.101440 
	C509.035797,629.803833 511.816864,630.123474 514.340454,629.783203 
	C520.594116,628.939941 526.819336,627.782410 532.990051,626.446655 
	C554.525940,621.784973 576.270691,623.961121 599.171753,623.894104 
	C576.317566,631.100586 554.667114,637.927490 533.016602,644.754395 
	C561.009033,645.630615 588.664795,645.719727 616.318726,645.536499 
	C620.568054,645.508362 623.427856,646.913574 626.223145,649.961182 
	C638.652893,663.512756 649.848816,677.978333 659.109802,693.867798 
	C660.318237,695.941101 660.759399,698.936218 660.425903,701.348206 
	C659.222656,710.050964 657.717651,718.723389 655.991150,727.340027 
	C653.132080,741.609497 650.012939,755.826843 647.003357,770.066162 
	C645.921997,762.692932 645.795532,755.414978 644.824219,748.251587 
	C643.446350,738.089050 642.906433,727.364014 636.774719,718.745667 
	C624.140930,700.988220 610.904907,683.655640 597.677734,666.330688 
	C596.570251,664.880066 593.663818,664.193848 591.589233,664.186035 
	C573.258789,664.117188 554.927368,664.274902 536.596436,664.390869 
	C534.998657,664.401001 533.402039,664.590759 531.059570,664.746582 
	C532.380371,666.453796 533.142212,667.496765 533.963074,668.490967 
	C555.212463,694.227112 574.314758,721.461548 591.031982,750.354553 
	C592.183899,752.345520 593.614502,754.471191 593.844116,756.647339 
	C594.733582,765.073547 595.771301,773.551636 595.681702,781.999084 
	C595.508850,798.294739 594.345154,814.579956 594.177490,830.875488 
	C594.130310,835.457031 592.427307,837.914429 588.874451,839.950806 
	C574.579407,848.144043 560.315918,856.392395 546.020508,864.584961 
	C545.555664,864.851379 544.870911,864.733826 543.756531,864.851379 
	C544.513855,857.393127 545.601257,850.332458 545.880676,843.239990 
	C546.686584,822.782471 547.302917,802.314392 547.642151,781.844604 
	C547.699463,778.392639 546.687988,774.539551 545.022461,771.500854 
	C524.421570,733.914917 497.949951,700.530457 470.468628,667.873413 
	C468.529999,665.569702 466.695374,665.265076 464.010101,666.138611 
	C458.003632,668.092529 451.997894,670.172852 445.841583,671.510010 
	C438.537323,673.096619 432.871124,676.684387 427.924255,682.258789 
	C421.675720,689.299927 414.810028,695.793396 408.162231,702.572449 
	C409.039093,703.678833 409.499756,704.370789 410.067078,704.960083 
	C434.729156,730.576355 454.363068,759.860718 472.166962,790.446106 
	C473.820709,793.287048 475.019836,796.984497 474.847961,800.199646 
	C473.783600,820.107910 472.379028,840.000671 470.831604,859.878662 
	C470.360809,865.926392 469.081360,871.911194 468.082825,878.516357 
	C449.216339,873.123535 431.061371,867.934082 412.841736,862.726135 
	C413.778137,851.418091 414.443878,840.643799 415.618988,829.925354 
	C416.900116,818.239746 416.543823,807.147034 408.886932,797.252136 
	C399.825989,785.542725 391.253143,773.456116 382.217468,761.726501 
	C378.611542,757.045471 374.334290,752.881653 370.075592,748.164429 
	C367.714813,750.830994 365.728546,752.829712 364.020294,755.043030 
	C350.588989,772.445435 337.082458,789.792969 323.924500,807.400574 
	C321.288055,810.928528 319.081177,811.546570 315.277435,809.854797 
	C301.140625,803.566711 286.883179,797.550049 272.743622,791.268005 
	C262.874878,786.883362 253.124527,782.232300 243.023605,777.274658 
	C242.777557,777.303284 242.531525,777.331848 242.285507,777.360474 
	C242.497559,777.597778 242.709625,777.835022 243.114288,778.718384 
	C268.625458,804.121887 294.278900,829.385376 319.540802,855.034424 
	C325.344269,860.926758 331.789368,865.094238 339.390015,867.866821 
	C344.234680,869.634216 349.005768,871.605469 353.863525,873.334412 
	C402.342377,890.588379 452.055725,903.570129 501.954803,915.875671 
	C504.199036,916.429077 507.267792,915.761841 509.336700,914.582642 
	C536.671448,899.002869 564.121521,883.604614 591.078918,867.389954 
	C614.483154,853.312378 637.528137,838.549561 657.724609,819.941528 
	C660.590637,817.301025 662.880493,813.419067 664.060303,809.677551 
	C667.904663,797.486450 671.380432,785.162048 674.507019,772.765137 
	C681.095886,746.640625 687.314148,720.417358 688.088623,693.305847 
	C688.169067,690.491028 687.333679,687.342346 685.997253,684.843994 
	C676.070557,666.287659 664.316040,648.939697 650.917175,632.697144 
	C649.627258,631.133484 648.485657,629.039368 648.249939,627.074524 
	C643.807983,590.052795 636.506409,553.591370 626.943054,517.574890 
	C626.391174,515.496460 625.023376,513.226990 623.351257,511.924591 
	C616.262024,506.402985 608.845642,501.303223 601.698059,495.853668 
	C599.171204,493.927155 597.299500,494.364349 594.555481,495.612061 
	C577.616821,503.313843 560.540527,510.713074 543.493713,518.175781 
	C542.616577,518.559753 541.590332,518.603088 540.281067,518.879333 
	C550.502563,506.928284 560.802490,495.778534 570.112976,483.856049 
	C634.828857,400.985168 691.899170,313.525055 730.406982,215.005051 
	C730.896423,213.752853 732.430481,212.327515 733.708679,212.049927 
	C767.809998,204.644470 800.474121,192.818787 832.843079,180.064102 
	C833.845093,179.669266 834.921570,179.463440 835.907410,179.185303 
	C838.040588,186.732803 840.376831,193.844727 841.955383,201.121078 
	C842.639709,204.275040 842.758240,208.238571 841.437134,211.032196 
	C830.698669,233.741486 820.103088,256.547363 808.413696,278.771393 
	C790.233032,313.336761 769.939880,346.682312 747.711853,378.995667 
	C749.628418,378.141846 751.395081,377.085541 752.760681,375.648132 
	C777.774353,349.318176 803.523499,323.631470 827.487793,296.376160 
	C849.903259,270.882324 870.450256,243.742798 891.675537,217.212326 
	C892.896301,215.686417 893.715210,212.870392 893.212341,211.078064 
	C884.316650,179.372177 878.942200,147.125900 877.670837,114.205879 
	C877.464172,108.853958 877.112671,103.507629 876.803772,97.700104 
	C869.604492,101.636307 863.138062,105.385574 856.487793,108.773903 
	C804.510742,135.256393 750.020020,154.937927 693.360718,168.654587 
	C690.338928,169.386124 688.965698,170.530075 688.085388,173.495132 
	C682.694885,191.651855 677.969116,210.072693 671.382324,227.796204 
	C638.280090,316.866180 592.176025,398.846375 535.656616,475.142090 
	C526.455872,487.562164 513.090942,492.499908 499.723480,500.010986 
	C500.125336,497.410797 500.321136,495.965942 500.574768,494.531311 
	C502.335297,484.573608 504.393860,474.658966 505.824982,464.654449 
	C510.920776,429.031555 513.648499,393.162628 513.486938,357.223114 
	C513.350952,326.965515 511.507294,296.699219 509.793701,266.472229 
	C508.976501,252.056488 507.211365,237.641266 504.903198,223.383224 
	C503.519379,214.834915 504.293793,207.804596 511.304626,202.152328 
	C512.448120,201.230438 513.267761,199.895920 514.195862,198.719574 
	C523.755310,186.603088 533.306274,174.479904 542.341675,163.015701 
	C558.127441,176.992386 573.395569,191.389023 589.685425,204.518112 
	C596.571838,210.068344 599.086853,215.617432 598.937439,224.173126 
	C598.392944,255.339325 595.121887,286.217865 590.596069,317.004425 
	C589.596558,323.803680 588.649780,330.610687 587.678711,337.414154 
	C589.139282,336.898499 589.653809,336.122589 589.997803,335.277313 
	C609.588745,287.130310 626.471558,238.207184 632.334473,186.173721 
	C632.507446,184.638809 631.585693,182.241776 630.373047,181.397461 
	C599.487976,159.892502 573.474121,133.230576 549.024292,104.903831 
	C543.634827,98.659775 538.411255,92.272560 532.956970,85.767181 
	C526.017090,96.720047 519.742065,107.515343 512.605957,117.707703 
	C495.704895,141.847305 478.368927,165.682190 461.308990,189.711426 
	C460.171875,191.313065 458.940277,193.727554 459.326660,195.400421 
	C466.477295,226.358521 471.216675,257.713654 474.206909,289.296844 
	C476.668854,315.299683 478.713074,341.374054 479.809753,367.464294 
	C480.725037,389.239594 480.489990,411.098785 479.830292,432.892548 
	C479.368286,448.156128 477.362732,463.374786 475.942505,478.603821 
	C475.833405,479.773651 475.189331,481.438629 474.295258,481.893707 
	C470.835846,483.654633 467.174377,485.018524 464.039001,486.340240 
	C464.039001,476.126556 463.548706,466.468750 464.206024,456.889648 
	C464.668152,450.154846 462.395538,445.142517 457.507477,441.233093 
	C444.130768,430.534485 430.602203,420.024475 417.041138,409.559784 
	C415.841064,408.633759 413.989685,408.328339 412.398376,408.175018 
	C407.757385,407.727783 403.088531,407.192566 398.442871,407.288391 
	C394.539673,407.368896 393.047882,405.689362 392.051544,402.153534 
	C384.847290,376.587585 375.129547,352.023071 361.345276,329.255737 
	C355.808472,320.110657 349.341858,311.528412 342.558624,301.608002 
	C334.267761,323.818726 324.658875,343.354889 312.341431,361.654602 
	C303.123138,353.809601 294.517334,346.485779 285.494324,338.806946 
	C261.041626,375.869110 229.029495,403.620819 189.847183,423.297150 
	C227.885117,418.367554 261.432129,404.207062 288.838348,376.667358 
	C289.877808,377.345825 290.874847,377.917267 291.785095,378.603729 
	C297.395081,382.834473 297.663086,383.075592 293.008026,388.572662 
	C287.206970,395.423004 280.937927,401.880981 274.780609,408.423340 
	C272.786896,410.541687 270.508514,412.392181 268.360352,414.365173 
	C305.686554,409.961731 328.466888,385.610626 348.721497,355.363220 
	C356.538452,373.616302 363.752655,390.461945 371.277771,408.033569 
	C367.628845,408.527985 365.207550,408.430145 363.124695,409.222229 
	C357.935394,411.195679 355.101196,408.954224 351.995178,404.917633 
	C346.576355,397.875244 340.405060,391.411774 334.875580,385.079498 
	C328.356293,390.891296 322.432281,396.172394 316.381348,401.566650 
	C321.833740,407.842255 327.447418,414.303558 332.380920,419.981934 
	C320.220428,431.217865 308.522797,442.026154 296.350189,453.048248 
	C296.348633,453.269623 296.347046,453.490967 296.345490,453.712341 
	C296.712097,453.633301 297.078705,453.554260 298.207672,453.369568 
M512.500000,996.702515 
	C564.163757,996.702454 615.827576,996.672119 667.491150,996.771790 
	C670.885803,996.778320 672.924011,995.877075 674.614929,992.783386 
	C679.723267,983.436890 685.177673,974.279480 690.504089,965.052307 
	C738.783386,881.415466 787.036499,797.763489 835.439758,714.198425 
	C837.500610,710.640503 837.230530,708.213928 835.281860,704.845520 
	C787.590637,622.407593 740.010803,539.905090 692.403748,457.418457 
	C688.106689,449.973114 683.760071,442.556396 679.248047,434.802582 
	C671.205933,440.417908 663.607605,445.723328 655.843933,451.144196 
	C656.834656,452.957184 657.587708,454.404541 658.402344,455.816406 
	C706.415955,539.026306 754.413147,622.245667 802.535217,705.392822 
	C804.376709,708.574768 804.365845,710.823303 802.549622,713.930237 
	C788.936646,737.217651 775.494934,760.605164 762.010376,783.967651 
	C727.553467,843.665344 693.071838,903.348755 658.723694,963.108948 
	C656.659668,966.700073 654.488037,968.103394 650.203125,968.096863 
	C554.375244,967.950684 458.546997,967.963684 362.718964,968.064575 
	C358.983276,968.068481 356.843262,967.158630 354.903656,963.710571 
	C343.965942,944.266296 332.127319,925.306702 321.775726,905.563232 
	C315.723633,894.020142 308.234344,885.542664 295.317993,882.268250 
	C291.173523,881.217651 287.336884,878.971497 283.337067,877.326599 
	C278.964783,875.528564 274.566650,873.793396 269.364655,871.703369 
	C270.180054,873.532104 270.496307,874.453430 270.973755,875.281799 
	C293.674164,914.664307 316.432861,954.013306 339.016754,993.462463 
	C340.813629,996.601257 343.093201,996.728760 346.008942,996.726990 
	C401.172607,996.693604 456.336304,996.702332 512.500000,996.702515 
M355.321716,551.836792 
	C357.121002,550.355103 358.963654,548.922668 360.712463,547.383667 
	C371.143372,538.203613 380.809479,528.423828 386.534943,515.410889 
	C388.266113,511.476288 388.279663,507.936920 386.388306,503.983154 
	C379.824738,490.262054 370.358124,478.791107 359.520844,468.008209 
	C348.415314,478.080109 337.541412,488.111969 326.440582,497.886139 
	C323.770264,500.237366 322.768463,502.588959 323.109497,506.058197 
	C324.556854,520.780701 325.726593,535.530701 327.201355,550.250244 
	C327.791718,556.142822 328.907410,561.982727 329.966858,569.069885 
	C338.839966,563.044922 346.791260,557.645935 355.321716,551.836792 
M305.972137,563.418945 
	C302.209198,547.270447 298.408630,531.130493 294.714050,514.966370 
	C293.946564,511.608582 294.533356,507.535034 292.810486,504.888733 
	C289.508911,499.817444 284.998199,495.533325 279.713684,489.455658 
	C276.168182,500.716248 272.704651,510.506104 270.115448,520.521973 
	C269.045685,524.660156 268.575592,529.763062 270.020355,533.604370 
	C277.050873,552.297058 291.731262,563.917480 309.261749,573.977905 
	C308.035828,570.124695 307.092896,567.161133 305.972137,563.418945 
M587.474060,340.555481 
	C587.557678,340.165985 587.641296,339.776520 587.724976,339.387024 
	C587.546570,339.624512 587.368103,339.862030 587.474060,340.555481 
z"/>
<path fill="#F6E709" opacity="1.000000" stroke="none" 
	d="
M243.321289,777.700195 
	C253.124527,782.232300 262.874878,786.883362 272.743622,791.268005 
	C286.883179,797.550049 301.140625,803.566711 315.277435,809.854797 
	C319.081177,811.546570 321.288055,810.928528 323.924500,807.400574 
	C337.082458,789.792969 350.588989,772.445435 364.020294,755.043030 
	C365.728546,752.829712 367.714813,750.830994 370.075592,748.164429 
	C374.334290,752.881653 378.611542,757.045471 382.217468,761.726501 
	C391.253143,773.456116 399.825989,785.542725 408.886932,797.252136 
	C416.543823,807.147034 416.900116,818.239746 415.618988,829.925354 
	C414.443878,840.643799 413.778137,851.418091 412.841736,862.726135 
	C431.061371,867.934082 449.216339,873.123535 468.082825,878.516357 
	C469.081360,871.911194 470.360809,865.926392 470.831604,859.878662 
	C472.379028,840.000671 473.783600,820.107910 474.847961,800.199646 
	C475.019836,796.984497 473.820709,793.287048 472.166962,790.446106 
	C454.363068,759.860718 434.729156,730.576355 410.067078,704.960083 
	C409.499756,704.370789 409.039093,703.678833 408.162231,702.572449 
	C414.810028,695.793396 421.675720,689.299927 427.924255,682.258789 
	C432.871124,676.684387 438.537323,673.096619 445.841583,671.510010 
	C451.997894,670.172852 458.003632,668.092529 464.010101,666.138611 
	C466.695374,665.265076 468.529999,665.569702 470.468628,667.873413 
	C497.949951,700.530457 524.421570,733.914917 545.022461,771.500854 
	C546.687988,774.539551 547.699463,778.392639 547.642151,781.844604 
	C547.302917,802.314392 546.686584,822.782471 545.880676,843.239990 
	C545.601257,850.332458 544.513855,857.393127 543.756531,864.851379 
	C544.870911,864.733826 545.555664,864.851379 546.020508,864.584961 
	C560.315918,856.392395 574.579407,848.144043 588.874451,839.950806 
	C592.427307,837.914429 594.130310,835.457031 594.177490,830.875488 
	C594.345154,814.579956 595.508850,798.294739 595.681702,781.999084 
	C595.771301,773.551636 594.733582,765.073547 593.844116,756.647339 
	C593.614502,754.471191 592.183899,752.345520 591.031982,750.354553 
	C574.314758,721.461548 555.212463,694.227112 533.963074,668.490967 
	C533.142212,667.496765 532.380371,666.453796 531.059570,664.746582 
	C533.402039,664.590759 534.998657,664.401001 536.596436,664.390869 
	C554.927368,664.274902 573.258789,664.117188 591.589233,664.186035 
	C593.663818,664.193848 596.570251,664.880066 597.677734,666.330688 
	C610.904907,683.655640 624.140930,700.988220 636.774719,718.745667 
	C642.906433,727.364014 643.446350,738.089050 644.824219,748.251587 
	C645.795532,755.414978 645.921997,762.692932 647.003357,770.066162 
	C650.012939,755.826843 653.132080,741.609497 655.991150,727.340027 
	C657.717651,718.723389 659.222656,710.050964 660.425903,701.348206 
	C660.759399,698.936218 660.318237,695.941101 659.109802,693.867798 
	C649.848816,677.978333 638.652893,663.512756 626.223145,649.961182 
	C623.427856,646.913574 620.568054,645.508362 616.318726,645.536499 
	C588.664795,645.719727 561.009033,645.630615 533.016602,644.754395 
	C554.667114,637.927490 576.317566,631.100586 599.171753,623.894104 
	C576.270691,623.961121 554.525940,621.784973 532.990051,626.446655 
	C526.819336,627.782410 520.594116,628.939941 514.340454,629.783203 
	C511.816864,630.123474 509.035797,629.803833 506.566132,629.101440 
	C481.781342,622.052856 457.049530,614.817810 432.258575,607.791260 
	C430.152557,607.194397 427.727570,607.720947 425.450775,607.733582 
	C425.288239,607.734497 425.125671,607.800171 424.963776,607.838440 
	C390.175934,616.062744 398.550262,610.567078 379.640076,642.580200 
	C377.270203,646.592163 375.286896,648.973877 370.226044,649.591370 
	C360.040161,650.834229 349.995117,653.231079 339.354401,655.253967 
	C332.269012,641.665344 325.577545,627.320923 321.397125,610.448547 
	C327.581909,617.270752 332.900269,622.950867 337.985352,628.832764 
	C340.192902,631.386230 342.340851,631.575012 345.415588,630.561157 
	C350.774017,628.794434 356.249969,627.257935 361.787415,626.209961 
	C364.867035,625.627075 366.159698,624.281067 367.202332,621.447571 
	C378.641693,590.360840 393.742218,561.163757 412.954071,534.148499 
	C415.843445,530.085510 419.297394,526.427429 422.286591,522.429871 
	C423.183350,521.230591 424.083435,519.371521 423.810760,518.057800 
	C418.271851,491.369110 412.590149,464.714111 401.876526,439.456512 
	C400.617676,436.488739 398.960510,435.556152 395.823090,435.924316 
	C364.586823,439.590118 333.386505,443.431488 302.997559,451.984283 
	C301.397705,452.434570 299.804169,452.907288 297.675171,453.258606 
	C297.142670,453.147644 296.825165,452.834412 296.825165,452.834412 
	C308.522797,442.026154 320.220428,431.217865 332.380920,419.981934 
	C327.447418,414.303558 321.833740,407.842255 316.381348,401.566650 
	C322.432281,396.172394 328.356293,390.891296 334.875580,385.079498 
	C340.405060,391.411774 346.576355,397.875244 351.995178,404.917633 
	C355.101196,408.954224 357.935394,411.195679 363.124695,409.222229 
	C365.207550,408.430145 367.628845,408.527985 371.277771,408.033569 
	C363.752655,390.461945 356.538452,373.616302 348.721497,355.363220 
	C328.466888,385.610626 305.686554,409.961731 268.360352,414.365173 
	C270.508514,412.392181 272.786896,410.541687 274.780609,408.423340 
	C280.937927,401.880981 287.206970,395.423004 293.008026,388.572662 
	C297.663086,383.075592 297.395081,382.834473 291.785095,378.603729 
	C290.874847,377.917267 289.877808,377.345825 288.838348,376.667358 
	C261.432129,404.207062 227.885117,418.367554 189.847183,423.297150 
	C229.029495,403.620819 261.041626,375.869110 285.494324,338.806946 
	C294.517334,346.485779 303.123138,353.809601 312.341431,361.654602 
	C324.658875,343.354889 334.267761,323.818726 342.558624,301.608002 
	C349.341858,311.528412 355.808472,320.110657 361.345276,329.255737 
	C375.129547,352.023071 384.847290,376.587585 392.051544,402.153534 
	C393.047882,405.689362 394.539673,407.368896 398.442871,407.288391 
	C403.088531,407.192566 407.757385,407.727783 412.398376,408.175018 
	C413.989685,408.328339 415.841064,408.633759 417.041138,409.559784 
	C430.602203,420.024475 444.130768,430.534485 457.507477,441.233093 
	C462.395538,445.142517 464.668152,450.154846 464.206024,456.889648 
	C463.548706,466.468750 464.039001,476.126556 464.039001,486.340240 
	C467.174377,485.018524 470.835846,483.654633 474.295258,481.893707 
	C475.189331,481.438629 475.833405,479.773651 475.942505,478.603821 
	C477.362732,463.374786 479.368286,448.156128 479.830292,432.892548 
	C480.489990,411.098785 480.725037,389.239594 479.809753,367.464294 
	C478.713074,341.374054 476.668854,315.299683 474.206909,289.296844 
	C471.216675,257.713654 466.477295,226.358521 459.326660,195.400421 
	C458.940277,193.727554 460.171875,191.313065 461.308990,189.711426 
	C478.368927,165.682190 495.704895,141.847305 512.605957,117.707703 
	C519.742065,107.515343 526.017090,96.720047 532.956970,85.767181 
	C538.411255,92.272560 543.634827,98.659775 549.024292,104.903831 
	C573.474121,133.230576 599.487976,159.892502 630.373047,181.397461 
	C631.585693,182.241776 632.507446,184.638809 632.334473,186.173721 
	C626.471558,238.207184 609.588745,287.130310 589.997803,335.277313 
	C589.653809,336.122589 589.139282,336.898499 587.678711,337.414154 
	C588.649780,330.610687 589.596558,323.803680 590.596069,317.004425 
	C595.121887,286.217865 598.392944,255.339325 598.937439,224.173126 
	C599.086853,215.617432 596.571838,210.068344 589.685425,204.518112 
	C573.395569,191.389023 558.127441,176.992386 542.341675,163.015701 
	C533.306274,174.479904 523.755310,186.603088 514.195862,198.719574 
	C513.267761,199.895920 512.448120,201.230438 511.304626,202.152328 
	C504.293793,207.804596 503.519379,214.834915 504.903198,223.383224 
	C507.211365,237.641266 508.976501,252.056488 509.793701,266.472229 
	C511.507294,296.699219 513.350952,326.965515 513.486938,357.223114 
	C513.648499,393.162628 510.920776,429.031555 505.824982,464.654449 
	C504.393860,474.658966 502.335297,484.573608 500.574768,494.531311 
	C500.321136,495.965942 500.125336,497.410797 499.723480,500.010986 
	C513.090942,492.499908 526.455872,487.562164 535.656616,475.142090 
	C592.176025,398.846375 638.280090,316.866180 671.382324,227.796204 
	C677.969116,210.072693 682.694885,191.651855 688.085388,173.495132 
	C688.965698,170.530075 690.338928,169.386124 693.360718,168.654587 
	C750.020020,154.937927 804.510742,135.256393 856.487793,108.773903 
	C863.138062,105.385574 869.604492,101.636307 876.803772,97.700104 
	C877.112671,103.507629 877.464172,108.853958 877.670837,114.205879 
	C878.942200,147.125900 884.316650,179.372177 893.212341,211.078064 
	C893.715210,212.870392 892.896301,215.686417 891.675537,217.212326 
	C870.450256,243.742798 849.903259,270.882324 827.487793,296.376160 
	C803.523499,323.631470 777.774353,349.318176 752.760681,375.648132 
	C751.395081,377.085541 749.628418,378.141846 747.711853,378.995667 
	C769.939880,346.682312 790.233032,313.336761 808.413696,278.771393 
	C820.103088,256.547363 830.698669,233.741486 841.437134,211.032196 
	C842.758240,208.238571 842.639709,204.275040 841.955383,201.121078 
	C840.376831,193.844727 838.040588,186.732803 835.907410,179.185303 
	C834.921570,179.463440 833.845093,179.669266 832.843079,180.064102 
	C800.474121,192.818787 767.809998,204.644470 733.708679,212.049927 
	C732.430481,212.327515 730.896423,213.752853 730.406982,215.005051 
	C691.899170,313.525055 634.828857,400.985168 570.112976,483.856049 
	C560.802490,495.778534 550.502563,506.928284 540.281067,518.879333 
	C541.590332,518.603088 542.616577,518.559753 543.493713,518.175781 
	C560.540527,510.713074 577.616821,503.313843 594.555481,495.612061 
	C597.299500,494.364349 599.171204,493.927155 601.698059,495.853668 
	C608.845642,501.303223 616.262024,506.402985 623.351257,511.924591 
	C625.023376,513.226990 626.391174,515.496460 626.943054,517.574890 
	C636.506409,553.591370 643.807983,590.052795 648.249939,627.074524 
	C648.485657,629.039368 649.627258,631.133484 650.917175,632.697144 
	C664.316040,648.939697 676.070557,666.287659 685.997253,684.843994 
	C687.333679,687.342346 688.169067,690.491028 688.088623,693.305847 
	C687.314148,720.417358 681.095886,746.640625 674.507019,772.765137 
	C671.380432,785.162048 667.904663,797.486450 664.060303,809.677551 
	C662.880493,813.419067 660.590637,817.301025 657.724609,819.941528 
	C637.528137,838.549561 614.483154,853.312378 591.078918,867.389954 
	C564.121521,883.604614 536.671448,899.002869 509.336700,914.582642 
	C507.267792,915.761841 504.199036,916.429077 501.954803,915.875671 
	C452.055725,903.570129 402.342377,890.588379 353.863525,873.334412 
	C349.005768,871.605469 344.234680,869.634216 339.390015,867.866821 
	C331.789368,865.094238 325.344269,860.926758 319.540802,855.034424 
	C294.278900,829.385376 268.625458,804.121887 243.117462,778.301880 
	C243.120636,777.885315 243.321289,777.700195 243.321289,777.700195 
z"/>
<path fill="#F6E70A" opacity="1.000000" stroke="none" 
	d="
M512.000000,996.702393 
	C456.336304,996.702332 401.172607,996.693604 346.008942,996.726990 
	C343.093201,996.728760 340.813629,996.601257 339.016754,993.462463 
	C316.432861,954.013306 293.674164,914.664307 270.973755,875.281799 
	C270.496307,874.453430 270.180054,873.532104 269.364655,871.703369 
	C274.566650,873.793396 278.964783,875.528564 283.337067,877.326599 
	C287.336884,878.971497 291.173523,881.217651 295.317993,882.268250 
	C308.234344,885.542664 315.723633,894.020142 321.775726,905.563232 
	C332.127319,925.306702 343.965942,944.266296 354.903656,963.710571 
	C356.843262,967.158630 358.983276,968.068481 362.718964,968.064575 
	C458.546997,967.963684 554.375244,967.950684 650.203125,968.096863 
	C654.488037,968.103394 656.659668,966.700073 658.723694,963.108948 
	C693.071838,903.348755 727.553467,843.665344 762.010376,783.967651 
	C775.494934,760.605164 788.936646,737.217651 802.549622,713.930237 
	C804.365845,710.823303 804.376709,708.574768 802.535217,705.392822 
	C754.413147,622.245667 706.415955,539.026306 658.402344,455.816406 
	C657.587708,454.404541 656.834656,452.957184 655.843933,451.144196 
	C663.607605,445.723328 671.205933,440.417908 679.248047,434.802582 
	C683.760071,442.556396 688.106689,449.973114 692.403748,457.418457 
	C740.010803,539.905090 787.590637,622.407593 835.281860,704.845520 
	C837.230530,708.213928 837.500610,710.640503 835.439758,714.198425 
	C787.036499,797.763489 738.783386,881.415466 690.504089,965.052307 
	C685.177673,974.279480 679.723267,983.436890 674.614929,992.783386 
	C672.924011,995.877075 670.885803,996.778320 667.491150,996.771790 
	C615.827576,996.672119 564.163757,996.702454 512.000000,996.702393 
z"/>
<path fill="#F6E709" opacity="1.000000" stroke="none" 
	d="
M355.032135,552.041870 
	C346.791260,557.645935 338.839966,563.044922 329.966858,569.069885 
	C328.907410,561.982727 327.791718,556.142822 327.201355,550.250244 
	C325.726593,535.530701 324.556854,520.780701 323.109497,506.058197 
	C322.768463,502.588959 323.770264,500.237366 326.440582,497.886139 
	C337.541412,488.111969 348.415314,478.080109 359.520844,468.008209 
	C370.358124,478.791107 379.824738,490.262054 386.388306,503.983154 
	C388.279663,507.936920 388.266113,511.476288 386.534943,515.410889 
	C380.809479,528.423828 371.143372,538.203613 360.712463,547.383667 
	C358.963654,548.922668 357.121002,550.355103 355.032135,552.041870 
z"/>
<path fill="#F6E70B" opacity="1.000000" stroke="none" 
	d="
M306.061066,563.808228 
	C307.092896,567.161133 308.035828,570.124695 309.261749,573.977905 
	C291.731262,563.917480 277.050873,552.297058 270.020355,533.604370 
	C268.575592,529.763062 269.045685,524.660156 270.115448,520.521973 
	C272.704651,510.506104 276.168182,500.716248 279.713684,489.455658 
	C284.998199,495.533325 289.508911,499.817444 292.810486,504.888733 
	C294.533356,507.535034 293.946564,511.608582 294.714050,514.966370 
	C298.408630,531.130493 302.209198,547.270447 306.061066,563.808228 
z"/>
<path fill="#F6E709" opacity="1.000000" stroke="none" 
	d="
M587.331909,340.327515 
	C587.368103,339.862030 587.546570,339.624512 587.724976,339.387024 
	C587.641296,339.776520 587.557678,340.165985 587.331909,340.327515 
z"/>
<path fill="#F6E709" opacity="1.000000" stroke="none" 
	d="
M297.294006,453.311432 
	C297.078705,453.554260 296.712097,453.633301 296.345490,453.712341 
	C296.347046,453.490967 296.348633,453.269623 296.587677,452.941345 
	C296.825165,452.834412 297.142670,453.147644 297.294006,453.311432 
z"/>
<path fill="#F6E709" opacity="1.000000" stroke="none" 
	d="
M243.021164,777.978821 
	C242.709625,777.835022 242.497559,777.597778 242.285492,777.360474 
	C242.531525,777.331848 242.777557,777.303284 243.172455,777.487427 
	C243.321289,777.700195 243.120636,777.885315 243.021164,777.978821 
z"/>
</svg>