<svg version="1.1" id="Layer_1" xmlns="http://www.w3.org/2000/svg" xmlns:xlink="http://www.w3.org/1999/xlink" x="0px" y="0px"
	 width="100%" viewBox="0 0 1024 1024" enable-background="new 0 0 1024 1024" xml:space="preserve">
<path fill="#000000" opacity="1.000000" stroke="none" 
	d="
M722.393311,514.315735 
	C701.090210,567.860413 679.906555,621.035400 658.783142,674.234253 
	C650.496216,695.104797 642.333618,716.024780 634.137268,736.931152 
	C631.700317,743.147034 630.952515,743.356934 625.397827,739.374023 
	C594.933838,717.530212 564.470215,695.685913 533.979309,673.879639 
	C526.999390,668.887817 524.111694,669.756287 521.013428,677.609680 
	C498.664307,734.259033 476.544586,791.000610 453.776703,847.481079 
	C449.867737,857.178101 448.947937,866.433105 449.730591,876.588257 
	C451.278168,896.668335 451.940887,916.815369 453.078278,936.928650 
	C454.055573,954.210571 455.173706,971.484680 456.251556,988.760803 
	C456.656311,995.248657 456.675415,995.275696 449.795593,995.276306 
	C368.134186,995.283081 286.472778,995.281799 204.811371,995.286865 
	C173.313400,995.288757 141.815430,995.309326 110.317474,995.291931 
	C108.206291,995.290771 106.014122,995.675598 104.005638,994.697571 
	C103.343513,991.878418 105.520027,990.620178 106.817978,989.078064 
	C139.754440,949.944153 172.754700,910.863892 205.709045,871.745056 
	C215.798996,859.767639 225.846878,847.753601 235.794296,835.657898 
	C240.334122,830.137573 241.615845,823.022217 244.283264,816.621155 
	C250.807495,800.964966 256.604218,785.006226 263.084015,769.330566 
	C264.852356,765.052490 264.025665,762.914124 260.362000,760.376648 
	C224.525192,735.556152 192.583618,706.515686 165.582947,672.178162 
	C146.172882,647.493774 131.523758,620.113037 119.726891,591.133850 
	C112.265289,572.804382 105.742043,554.142944 101.362701,534.813538 
	C98.431511,521.875854 96.394737,508.779755 94.291649,495.670776 
	C90.909195,474.587189 90.905525,453.458130 92.033188,432.437653 
	C93.784096,399.799530 100.341072,367.915802 112.011887,337.218048 
	C131.301788,286.479889 158.393784,240.204590 192.636200,198.223236 
	C233.964645,147.554352 284.461182,108.537422 344.231964,81.756996 
	C374.818024,68.052887 406.623749,57.777588 438.929474,49.100037 
	C458.668304,43.798038 478.770844,39.850468 498.997803,36.977158 
	C534.331604,31.957859 569.865295,30.419302 605.527710,32.750202 
	C626.766235,34.138355 647.855042,36.774101 668.676270,41.102169 
	C732.045227,54.274548 791.123108,77.435928 842.564209,117.642441 
	C869.590332,138.766129 893.037415,163.140594 908.285217,194.435913 
	C908.504028,194.885086 908.885437,195.299332 908.961609,195.767197 
	C910.610168,205.904053 917.141357,207.635147 926.219727,206.829987 
	C934.873718,206.062439 934.785767,206.605270 931.829224,214.633484 
	C927.690247,225.872406 921.589478,236.532516 919.380310,248.289734 
	C917.167542,260.066559 910.822021,269.710388 906.328552,280.338104 
	C893.826416,309.907318 882.435303,339.946594 870.626526,369.808563 
	C859.497437,397.951599 848.397766,426.106323 837.274353,454.251648 
	C836.607483,455.939209 836.062988,457.731781 833.619263,459.210663 
	C810.916382,443.000549 787.946228,426.599548 764.097961,409.571564 
	C750.029114,444.906525 736.282959,479.431030 722.393311,514.315735 
M213.535660,925.017090 
	C205.509354,934.574402 197.483063,944.131714 189.456772,953.688965 
	C189.735779,954.083862 190.014786,954.478760 190.293808,954.873657 
	C192.266617,954.873657 194.239426,954.873718 196.212234,954.873718 
	C251.210251,954.874756 306.208282,954.875122 361.206299,954.877075 
	C377.039062,954.877625 392.872040,954.844238 408.704468,954.916199 
	C412.073700,954.931519 413.869293,954.352600 413.560760,950.162170 
	C412.448730,935.058044 411.730957,919.924561 410.889862,904.800781 
	C410.252350,893.338196 409.443146,881.879272 409.119171,870.407227 
	C408.934265,863.859375 406.477875,857.410217 409.178345,850.695312 
	C424.450165,812.721252 439.538025,774.673035 454.648407,736.634216 
	C467.915131,703.236694 481.165741,669.832520 494.316803,636.389343 
	C495.839447,632.517212 497.809418,630.570251 502.359467,630.694702 
	C514.183472,631.018127 526.023865,630.907288 537.854187,630.733154 
	C541.411072,630.680786 544.259888,631.739868 547.061584,633.797363 
	C562.639709,645.237488 578.272827,656.603027 593.920410,667.948120 
	C599.779968,672.196411 605.729004,676.321228 612.253235,680.938354 
	C638.409607,614.755798 664.203125,549.491211 690.250183,483.585205 
	C685.759583,483.593475 683.202576,485.298096 680.539185,486.480225 
	C648.895386,500.524811 617.279358,514.631897 585.669739,528.753235 
	C583.821533,529.578918 582.013428,530.251282 579.938782,530.245178 
	C566.939392,530.206665 553.939453,530.175110 540.940430,530.254639 
	C537.078857,530.278259 535.798462,529.185547 537.373291,525.200256 
	C553.515747,484.349579 569.508545,443.439758 585.645874,402.587006 
	C590.287415,390.836700 595.784485,379.391998 594.036377,366.124207 
	C593.475281,361.865265 594.153931,357.457672 593.900940,353.139465 
	C593.619263,348.331482 595.594910,346.812408 600.349182,346.826477 
	C647.180359,346.964874 694.012268,346.940704 740.843750,346.875549 
	C744.369141,346.870636 747.184387,347.929901 750.038696,349.969879 
	C770.503540,364.595856 791.052063,379.105225 811.620667,393.585297 
	C816.120239,396.752930 816.869507,396.449524 818.767273,391.550842 
	C829.282593,364.408081 839.859314,337.288666 850.237427,310.093475 
	C852.111328,305.182861 855.004333,300.535034 855.197937,294.595123 
	C847.164856,291.988007 839.027954,289.650879 831.553833,285.612213 
	C829.730652,284.627014 828.514038,286.238434 827.290649,287.381836 
	C811.900940,301.765259 793.905579,304.745972 773.954834,299.805328 
	C758.377991,295.947784 744.650696,288.133942 730.883301,280.339142 
	C728.471191,278.973480 726.198303,277.262421 723.309265,276.639648 
	C722.569214,277.595428 721.915344,278.337036 721.374695,279.153564 
	C712.950745,291.876221 700.715942,297.539246 685.860046,297.925018 
	C672.772522,298.264801 660.149414,294.609100 650.381226,286.586121 
	C639.436279,277.596588 627.829590,275.810974 614.798218,276.906189 
	C613.639893,277.003510 612.460815,276.987549 611.300537,276.901031 
	C608.506775,276.692841 606.654358,277.922577 605.096252,280.219910 
	C597.509460,291.406342 586.195679,295.493042 573.376831,296.166077 
	C556.884277,297.032013 541.540588,292.023041 526.397217,286.286682 
	C509.055573,279.717651 493.299103,269.842804 476.434814,262.278503 
	C474.070160,261.217896 471.888031,259.463806 469.146301,259.785858 
	C468.040527,260.866791 468.371948,262.068665 468.432678,263.202057 
	C469.332489,279.992645 469.871918,296.814087 471.288055,313.561279 
	C472.159485,323.866638 471.663452,334.208282 472.859161,344.471588 
	C473.159546,347.049805 472.568146,349.415710 471.626434,351.768036 
	C465.935883,365.982056 460.206055,380.180756 454.599731,394.427979 
	C432.055481,451.718750 409.579926,509.036591 387.024017,566.322754 
	C368.187531,614.162537 349.280212,661.974487 330.393311,709.794434 
	C312.487030,755.131470 294.595947,800.474731 276.604187,845.777893 
	C274.904633,850.057373 273.185883,854.277283 270.023132,857.982178 
	C251.205444,880.024902 232.645996,902.288147 213.535660,925.017090 
M450.081268,348.505615 
	C451.010406,345.819031 451.952911,343.099976 451.648956,340.218292 
	C450.407745,328.450409 450.027313,316.637451 449.498932,304.825317 
	C448.732697,287.695374 447.676666,270.578033 446.678955,253.459091 
	C446.483093,250.097580 447.527588,248.638733 451.207306,248.812988 
	C456.902466,249.082657 460.452576,246.379120 461.467957,241.446960 
	C462.494385,236.461456 459.669678,233.537918 455.553680,231.701111 
	C449.627045,229.056274 443.668182,226.454346 437.597504,224.167328 
	C422.301025,218.404587 406.748993,213.529037 390.409912,211.669174 
	C385.665070,211.129089 384.988220,211.856125 386.314453,216.404114 
	C387.388367,220.086899 387.261169,223.620377 385.656616,227.118439 
	C381.718781,235.703354 374.405975,240.613754 366.215454,244.166306 
	C358.168243,247.656677 349.289978,247.271622 340.765106,248.593750 
	C311.861267,253.076553 287.946075,267.093689 268.003296,288.219910 
	C266.488586,289.824493 265.364532,291.585724 265.220306,293.918121 
	C264.840790,300.056091 263.509918,306.065643 262.996674,312.220154 
	C260.652100,340.334961 260.070374,368.271240 264.781677,396.319000 
	C268.932678,421.031128 276.895172,444.260925 287.222900,466.933472 
	C291.859222,477.111633 299.217896,481.291870 310.007782,481.067993 
	C317.981506,480.902557 325.997620,480.333893 333.934845,481.921722 
	C335.726593,482.280212 337.930542,482.369019 339.181427,480.955841 
	C344.625549,474.805573 351.821686,470.764984 357.733521,465.172729 
	C363.720032,459.509766 368.066528,452.628815 372.926117,446.114716 
	C374.664307,443.784729 376.739838,441.432098 379.947205,442.484467 
	C383.111664,443.522797 384.724731,446.632324 384.584290,449.601440 
	C384.287323,455.880981 384.898590,462.350189 382.599976,468.386627 
	C379.702271,475.996124 377.035767,483.807739 373.599365,491.072815 
	C368.001526,502.907349 369.158295,515.481995 367.154327,527.681335 
	C366.823212,529.697083 367.064362,532.337891 369.355225,533.389954 
	C371.899628,534.558533 373.194397,532.137939 374.725250,530.730652 
	C376.451263,529.143860 377.927460,527.365234 378.868958,525.160645 
	C385.138062,510.481262 391.639526,495.911987 397.464539,481.031769 
	C414.693542,437.019318 432.304657,393.156403 450.081268,348.505615 
M344.350342,127.949692 
	C341.516571,129.351761 338.665985,130.720963 335.851532,132.160812 
	C287.943939,156.670181 247.394714,190.135925 214.220947,232.478729 
	C192.519287,260.178619 175.013000,290.311829 162.272903,323.183350 
	C150.506531,353.542480 143.512741,384.905212 142.379913,417.461548 
	C141.720901,436.401398 146.337509,454.666473 149.689529,473.170746 
	C154.065338,497.326843 163.621002,518.841248 177.455887,538.768250 
	C198.720551,569.396729 225.625443,594.289795 255.861954,615.775879 
	C259.247375,618.181580 262.398315,621.058838 266.541748,622.261902 
	C266.271423,621.539917 265.820679,621.088562 265.336060,620.677063 
	C248.420044,606.313293 232.423645,591.035950 218.131882,574.001587 
	C195.916061,547.522522 179.459518,517.884277 168.526154,485.108734 
	C163.671982,470.557098 159.518860,455.817261 158.935486,440.452515 
	C158.037613,416.803436 158.333740,393.176300 163.735077,369.913361 
	C166.296692,358.880798 169.004517,347.901367 173.444519,337.447021 
	C175.564392,332.455597 177.750732,332.146942 181.528870,335.972839 
	C183.076859,337.540405 184.174911,339.380432 185.153763,341.326813 
	C186.426163,343.856964 187.578613,346.473175 189.105255,348.844696 
	C192.991470,354.881683 197.493301,354.881653 201.046326,348.877106 
	C214.791168,325.648315 228.602600,302.487579 246.640839,282.174805 
	C268.555847,257.496399 294.482300,239.358383 327.250641,232.391251 
	C337.820526,230.143890 348.566132,228.780365 358.820007,225.094955 
	C363.707916,223.338165 366.008301,220.289505 366.122375,215.079071 
	C366.256531,208.951096 363.484283,204.542175 358.765991,201.148315 
	C354.811646,198.303955 350.415619,196.353226 345.645569,195.224442 
	C343.623474,194.745941 341.348969,194.621445 339.993225,192.615646 
	C340.851654,191.129288 342.277374,191.251724 343.545837,191.098770 
	C364.373535,188.587189 385.098053,189.469055 405.720459,193.127411 
	C414.742981,194.728012 414.909027,194.709930 418.504669,186.723373 
	C420.655334,185.984665 422.955078,187.906235 426.192505,185.811264 
	C418.788300,185.546341 415.778320,179.778915 410.941956,176.950546 
	C395.253784,167.775925 378.632324,161.803802 359.975647,166.111588 
	C353.405914,167.628525 346.916656,168.177460 340.220428,166.456573 
	C337.240417,165.690720 333.701019,165.407623 330.822632,166.267776 
	C323.125519,168.567886 316.279968,161.732498 308.636505,165.714127 
	C308.470428,164.782547 308.304352,163.850967 308.138275,162.919388 
	C376.797363,113.459953 453.856232,90.648170 538.675232,92.377945 
	C537.314453,91.936989 536.012329,91.680611 534.697876,91.567970 
	C532.872803,91.411568 531.039490,91.331360 529.207947,91.272995 
	C492.801300,90.112724 456.751434,92.482826 421.161102,100.939613 
	C394.815918,107.199623 369.522400,116.221748 344.350342,127.949692 
M685.270508,208.734756 
	C681.039368,211.728973 676.889587,214.894882 673.816956,219.079742 
	C671.020020,222.889053 668.730164,222.497192 665.214539,219.835800 
	C641.200684,201.656830 614.316772,189.060242 585.835510,179.663803 
	C564.320068,172.565521 542.290771,167.671600 519.888733,164.419281 
	C508.385406,162.749237 496.866730,161.166733 485.169769,161.349854 
	C486.846802,162.006088 488.562531,162.553421 490.306061,162.664368 
	C504.124664,163.543808 517.650085,166.289459 531.151733,169.111389 
	C575.536987,178.388138 615.840820,196.559082 651.709473,224.458344 
	C658.662476,229.866470 665.748718,235.193710 673.873962,238.843079 
	C680.818420,241.962097 683.583618,241.630264 687.018311,234.962524 
	C693.288147,222.791031 703.720642,219.443466 716.125854,219.873932 
	C728.156250,220.291382 739.195129,224.445938 749.878174,229.726624 
	C757.931580,233.707458 765.523560,238.623245 774.013062,241.717773 
	C781.602417,244.484207 788.554382,240.818497 790.704163,232.991806 
	C791.276489,230.908081 791.859314,228.821732 792.567383,226.781723 
	C795.004272,219.761368 799.287231,216.903290 806.835510,216.690964 
	C821.349548,216.282684 833.784851,221.768417 845.238892,230.023621 
	C849.036621,232.760788 852.745667,235.661316 857.229980,237.103577 
	C860.394958,238.121536 863.878845,238.763855 866.697998,236.234009 
	C869.276428,233.920227 868.746643,230.945160 867.977844,227.874771 
	C865.163391,216.634552 860.768860,206.070618 854.625916,196.266418 
	C836.429932,167.225601 809.922485,147.794281 780.142029,132.227081 
	C777.713745,130.957733 775.519348,128.809341 771.949646,128.819565 
	C777.538452,132.500565 782.776855,135.704971 787.755615,139.271866 
	C811.300964,156.140350 830.867310,176.429230 842.215393,203.617584 
	C843.556030,206.829483 845.385498,210.130447 843.971741,213.872620 
	C841.305420,214.225876 839.591980,212.712753 837.689270,211.794556 
	C825.207947,205.771362 812.527222,200.364716 798.410645,199.711441 
	C789.355591,199.292404 781.045532,200.703323 776.138489,209.679581 
	C775.768555,210.356155 775.062073,210.848724 774.000244,211.964874 
	C730.664368,160.959030 672.294861,140.361649 609.261230,129.238449 
	C610.314636,130.025620 611.583862,130.350555 612.868103,130.598175 
	C650.180725,137.792786 684.410706,152.311249 715.653748,173.901291 
	C729.852173,183.712875 742.668030,195.047791 753.306030,208.706009 
	C754.805908,210.631744 757.001587,212.518753 755.974426,215.619354 
	C752.967468,215.511139 751.233643,213.487457 749.123779,212.269592 
	C728.686829,200.473160 707.837036,195.622299 685.270508,208.734756 
M657.500305,387.385437 
	C651.669006,387.381256 645.835144,387.478027 640.007446,387.330780 
	C637.044617,387.255951 635.570557,388.489868 634.485779,391.217834 
	C624.590393,416.102081 614.476257,440.899719 604.685242,465.824524 
	C603.239563,469.504852 600.638794,473.003082 601.001709,478.027710 
	C653.568481,454.065979 705.643005,430.328674 758.933411,406.037140 
	C750.733459,400.099548 743.733032,395.102264 736.819153,389.988098 
	C734.143066,388.008606 731.295044,387.293579 727.975342,387.308105 
	C704.817261,387.409393 681.658691,387.375427 657.500305,387.385437 
M602.787231,107.396683 
	C603.698242,106.221573 604.901855,105.171890 605.468689,103.849289 
	C607.738342,98.553413 611.903015,95.558624 617.056824,93.505707 
	C623.162170,91.073730 629.362244,89.466148 636.025635,89.856316 
	C639.506836,90.060158 643.030090,89.990036 646.506897,89.706787 
	C650.622986,89.371475 653.690308,88.231422 653.538696,82.770416 
	C653.455261,79.765442 653.120728,78.088417 650.287476,77.112152 
	C645.260925,75.380150 640.433044,73.082497 635.057617,72.409729 
	C606.343872,68.815994 577.624329,68.412704 548.881348,72.040230 
	C546.855530,72.295898 545.013916,72.960388 543.238708,73.929329 
	C540.324768,75.519821 539.760071,77.455421 541.534119,80.468277 
	C543.546814,83.886330 545.759277,86.680824 549.774536,87.945839 
	C552.871033,88.921387 555.213562,90.243668 555.525330,94.669151 
	C556.044006,102.032730 561.213013,106.087944 568.887817,106.007019 
	C574.500427,105.947830 579.748596,106.882263 584.985596,108.797417 
	C590.773621,110.914085 596.660217,111.763718 602.787231,107.396683 
M220.411911,468.106049 
	C223.708405,473.312012 227.171890,478.420624 230.272934,483.740540 
	C244.792679,508.649658 263.311279,530.044067 286.070129,547.763184 
	C294.828308,554.581909 303.990295,560.759583 313.958618,565.741638 
	C311.454987,562.871216 308.626648,560.380127 306.064453,557.640198 
	C304.129517,555.571228 304.341309,552.454102 301.762054,550.303467 
	C253.949860,510.436646 225.497971,459.149811 212.919556,398.615417 
	C211.382828,391.219849 210.082413,383.775146 208.672470,376.353210 
	C203.908203,383.935791 200.269836,391.704834 196.750275,399.527374 
	C196.385223,400.338776 196.586014,401.493652 196.760529,402.445892 
	C200.965790,425.393372 208.385559,447.190155 220.411911,468.106049 
M251.964752,568.517273 
	C217.158936,528.440857 199.034592,481.014069 190.531448,429.320435 
	C190.164520,427.089783 190.346207,424.352722 187.225250,422.425964 
	C184.381378,430.134369 181.726166,437.451874 178.975311,444.733185 
	C177.741058,448.000153 177.846603,451.334656 178.557312,454.584717 
	C181.613739,468.561584 185.494339,482.290253 191.196854,495.462341 
	C208.200821,534.739441 235.194107,565.790344 269.606110,590.717285 
	C273.555969,593.578491 277.199310,596.975647 281.987061,598.630859 
	C271.444153,589.423096 261.606354,579.567383 251.964752,568.517273 
M173.301437,621.200806 
	C179.767807,632.106384 187.227585,642.293701 195.356308,652.016602 
	C219.451767,680.837585 247.260330,705.914917 274.964661,731.098694 
	C275.537933,731.619751 276.313293,731.918579 277.203247,732.444519 
	C278.966309,729.305359 282.083221,725.587891 280.165497,723.263550 
	C277.378174,719.885315 275.956757,715.569031 272.298309,712.781311 
	C234.467331,683.954651 201.496750,650.309937 172.925140,612.304077 
	C170.265244,608.765930 168.104568,604.717957 163.608337,601.099304 
	C166.364716,608.678528 169.726105,614.586731 173.301437,621.200806 
M241.472443,322.718323 
	C240.224548,322.022034 239.604858,323.044922 239.036514,323.752197 
	C233.544540,330.587036 228.392380,337.511627 231.463440,347.179901 
	C232.054794,349.041534 231.925293,351.133545 232.117813,353.120300 
	C233.996475,372.506989 236.824890,391.739899 242.372803,410.452301 
	C245.721039,421.745514 249.761276,432.720581 254.947678,443.436035 
	C258.253387,450.265961 261.385376,454.563141 269.337341,454.425781 
	C269.099823,453.599457 268.948914,452.794312 268.639313,452.055695 
	C267.996826,450.522644 267.306091,449.007263 266.572662,447.515350 
	C251.633713,417.126678 242.526260,385.301086 241.414902,351.211884 
	C241.110062,341.861664 242.401535,332.605194 241.472443,322.718323 
M477.852478,207.588043 
	C494.943542,215.400726 511.557373,224.297546 529.295715,230.636322 
	C535.989563,233.028336 542.754333,235.430511 550.136475,234.732620 
	C557.173828,234.067337 561.366516,227.406540 558.398987,221.183609 
	C556.884888,218.008423 554.818176,215.179260 552.166565,212.831894 
	C550.755432,211.582703 549.123108,210.415466 547.248840,211.612747 
	C545.540894,212.703751 546.132629,214.580322 546.422913,216.192657 
	C547.731812,223.461655 545.025940,226.540421 537.701416,225.866226 
	C533.555176,225.484589 529.506348,224.609177 525.626099,222.984848 
	C501.714081,212.975037 478.125183,202.134201 453.226074,194.650406 
	C447.154663,192.825562 441.275970,190.266068 434.837646,189.713516 
	C449.338715,194.666550 463.351166,200.732758 477.852478,207.588043 
z"/>
</svg>