<svg version="1.1" id="Layer_1" xmlns="http://www.w3.org/2000/svg" xmlns:xlink="http://www.w3.org/1999/xlink" x="0px" y="0px"
	 width="100%" viewBox="0 0 1080 1080" enable-background="new 0 0 1080 1080" xml:space="preserve">
<path fill="#FFFFFF" opacity="1.000000" stroke="none" 
	d="
M575.000000,1081.000000 
	C383.355408,1081.000000 192.210785,1081.000000 1.033089,1081.000000 
	C1.033089,721.063599 1.033089,361.127197 1.033089,1.095402 
	C360.894836,1.095402 720.789673,1.095402 1080.842285,1.095402 
	C1080.842285,360.999939 1080.842285,720.999939 1080.842285,1081.000000 
	C912.460022,1081.000000 743.980042,1081.000000 575.000000,1081.000000 
M691.811218,396.187927 
	C708.659790,427.628693 729.001587,456.340149 757.007751,479.193115 
	C754.077148,470.685181 751.146484,462.177246 748.003540,453.052979 
	C757.296631,456.727753 765.675598,460.304169 774.249451,463.327911 
	C779.016357,465.008972 784.108337,465.768524 788.997009,467.302216 
	C789.125916,467.276031 789.254822,467.249878 789.383728,467.223694 
	C789.247559,467.151611 789.111328,467.079529 788.733826,466.381958 
	C777.072449,457.279327 765.411133,448.176697 753.388794,438.792297 
	C755.388489,437.247589 756.719299,436.280945 757.982483,435.232849 
	C762.599121,431.402222 763.797546,426.958008 761.326660,421.472534 
	C760.177979,418.922363 758.708557,416.391785 756.875732,414.297577 
	C750.843750,407.405487 744.634277,400.665649 738.393188,393.960205 
	C722.307190,376.677368 708.749023,357.924713 703.617065,334.284454 
	C702.542480,329.334747 701.841553,324.303894 701.083679,319.969360 
	C689.020996,324.319061 677.258789,328.560425 665.496643,332.801788 
	C665.148865,332.283600 664.801086,331.765442 664.453308,331.247284 
	C676.350220,315.767090 685.722290,298.949036 692.733887,280.231171 
	C661.892944,284.822540 632.007629,292.085083 600.616516,290.484406 
	C602.449524,292.011108 604.040527,293.389709 605.687012,294.698669 
	C615.467957,302.474609 625.415588,310.049530 635.014648,318.043365 
	C648.991943,329.683258 662.547119,341.790649 672.192871,357.526947 
	C673.065491,358.950653 673.505127,360.639893 674.145874,362.205841 
	C660.375793,348.355774 645.941528,335.787750 630.197815,324.803101 
	C614.081055,313.558228 597.539429,302.922119 581.430664,291.666229 
	C569.937805,283.635681 559.409546,274.509125 552.642029,260.181427 
	C555.228333,261.410065 556.886963,261.947449 558.266724,262.892090 
	C572.427551,272.587769 588.356812,276.763031 605.216919,278.022461 
	C629.745850,279.854675 653.647461,275.520142 677.470642,270.528595 
	C687.471252,268.433228 697.445251,266.210724 708.426941,263.830170 
	C704.348877,285.666046 691.488403,302.098450 681.151550,319.901642 
	C686.006775,318.085510 690.538025,316.062592 694.856995,313.658356 
	C715.900330,301.944336 731.815247,284.973450 744.734375,264.904144 
	C745.846313,263.176788 748.061401,260.889038 749.676697,260.956390 
	C763.089661,261.515625 776.482056,262.567871 791.082153,263.552032 
	C784.301697,288.563354 771.876282,309.110138 759.624878,330.167206 
	C767.295898,326.653198 774.896912,323.019196 781.877808,318.439758 
	C805.415222,302.999359 821.217346,280.951660 833.996155,256.383270 
	C835.493896,253.503677 837.591064,250.816925 839.861267,248.478531 
	C849.883240,238.155380 858.010620,226.689560 861.450439,212.507812 
	C865.285767,196.695847 858.565308,185.166580 842.619202,181.954834 
	C831.585144,179.732437 820.204590,178.909348 808.932800,178.252319 
	C781.711243,176.665558 759.796448,165.444122 742.795532,144.046692 
	C736.604187,136.254318 729.832336,128.761612 722.434631,122.125053 
	C709.517395,110.536804 694.397766,109.807060 678.003296,116.447319 
	C685.718323,120.545692 693.433350,124.644066 701.148376,128.742432 
	C696.974792,128.337585 692.811951,127.784729 688.959412,126.380386 
	C681.159363,123.537033 672.991516,121.138016 665.921997,116.955612 
	C639.906372,101.564407 612.336121,100.371452 583.781433,106.626091 
	C555.689026,112.779449 529.833618,124.591965 505.066071,138.846695 
	C491.757172,146.506516 478.568542,154.270737 463.392731,157.679565 
	C452.197083,160.194336 440.999207,162.726227 429.736206,164.909378 
	C398.695801,170.926025 367.550598,176.474335 338.238708,189.050613 
	C303.457672,203.973450 272.209961,223.811157 248.634460,254.081131 
	C223.948776,285.776550 214.520477,321.504730 222.137924,361.135071 
	C228.264618,393.009613 244.130692,420.213989 264.489410,444.979431 
	C293.608002,480.400879 329.360504,508.054749 367.862152,532.380188 
	C413.068207,560.941467 458.284821,589.488586 501.347504,621.252197 
	C526.162964,639.556396 550.817627,658.134644 571.138306,681.624451 
	C585.881470,698.666809 593.820251,718.240356 592.332703,741.193848 
	C591.226990,758.254272 585.213623,773.646423 576.700867,788.139954 
	C559.205566,817.926697 534.828796,841.552673 508.114166,862.831787 
	C452.716492,906.957642 391.415863,940.875671 325.679321,966.933777 
	C317.017609,970.367249 308.165833,973.321350 298.658966,976.766785 
	C300.122070,977.308655 300.881714,977.885742 301.539032,977.786194 
	C306.293091,977.066711 311.031525,976.238586 315.765625,975.393005 
	C357.987579,967.851868 399.021698,956.009033 439.142975,940.975464 
	C489.546387,922.089233 537.737793,898.857117 581.528870,867.207703 
	C610.368164,846.364319 636.261597,822.535095 655.449036,792.187012 
	C681.746948,750.592651 687.403992,706.401917 671.328186,659.747986 
	C660.086243,627.122375 639.350220,600.838196 615.003357,577.107971 
	C588.046509,550.833801 557.499207,529.094910 526.755066,507.615936 
	C496.856537,486.727844 466.195099,466.860657 438.679413,442.755341 
	C426.194794,431.818115 415.014282,419.725952 408.444031,404.120697 
	C401.016724,386.479736 405.803009,369.714874 421.662506,358.946747 
	C426.303894,355.795441 431.441071,353.212311 436.642883,351.081207 
	C448.476868,346.233185 460.978607,344.276337 473.708496,343.946930 
	C481.950500,343.733612 490.202545,343.906799 498.450073,343.906799 
	C498.600464,343.569519 498.750854,343.232269 498.901215,342.894989 
	C493.838348,340.394531 488.775482,337.894073 483.712616,335.393616 
	C486.479034,335.333466 489.174591,335.690613 491.776276,336.394562 
	C536.947510,348.615997 578.679626,367.694153 615.550720,397.046661 
	C633.939758,411.685852 653.436646,424.960419 675.733765,433.129517 
	C686.574524,437.101227 697.878845,439.807648 708.607422,442.978729 
	C702.407288,426.875610 696.525757,411.600067 690.953491,396.046631 
	C690.953491,396.046631 691.266663,395.773163 691.811218,396.187927 
M314.500000,587.943115 
	C277.774170,587.943115 241.048325,587.943115 204.451492,587.943115 
	C204.451492,593.167175 204.451492,597.400146 204.451492,602.020752 
	C207.196350,602.020752 209.526962,602.195984 211.820801,601.980347 
	C215.395599,601.644287 217.519333,602.568665 218.942169,606.371704 
	C221.617813,613.523254 225.079529,620.380127 228.200836,627.365662 
	C242.040329,658.338318 255.897034,689.303284 269.696411,720.293823 
	C273.302887,728.393188 273.749390,728.852905 282.674713,727.967651 
	C284.115479,727.824707 286.129211,726.507690 286.661194,725.227661 
	C292.017761,712.338684 297.121277,699.344604 302.294067,686.379272 
	C306.703796,675.326538 311.111115,664.272888 315.519501,653.219604 
	C316.028717,653.135132 316.537933,653.050659 317.047150,652.966248 
	C327.931244,677.692383 338.815308,702.418579 349.979431,727.781006 
	C362.657501,729.783691 362.726624,729.640442 367.161987,716.765930 
	C379.561279,680.774170 392.203094,644.864990 404.366821,608.794250 
	C406.193726,603.376709 408.544495,601.614319 414.165314,601.877991 
	C424.760101,602.374817 424.694763,602.026306 424.104431,591.437805 
	C423.962585,588.893799 423.172577,587.900024 420.580383,587.915466 
	C405.750366,588.003906 390.919708,587.975952 376.089386,588.027649 
	C375.491669,588.029724 374.895416,588.436401 374.390686,588.620850 
	C374.390686,593.086609 374.390686,597.325073 374.390686,602.073975 
	C379.692596,602.073975 384.626099,602.073975 390.682220,602.073975 
	C384.581268,619.579224 378.765228,636.267090 372.949158,652.954956 
	C372.477936,652.913757 372.006683,652.872498 371.535431,652.831299 
	C364.200104,636.237183 356.864746,619.643066 349.394531,602.743896 
	C350.915863,602.351440 351.562683,601.981567 352.142426,602.067078 
	C356.966919,602.778137 358.459717,600.426575 357.889343,596.025757 
	C357.783142,595.206299 357.766815,594.344788 357.892090,593.530884 
	C358.548584,589.266174 357.074036,587.711609 352.491028,587.832642 
	C340.168274,588.157959 327.831329,587.943237 314.500000,587.943115 
M813.193787,714.001831 
	C810.936523,714.001831 808.679260,714.001831 806.029968,714.001831 
	C806.029968,718.082397 806.118530,721.389954 806.002075,724.690369 
	C805.908813,727.333130 807.116638,728.118835 809.613708,728.111572 
	C829.942505,728.052307 850.271851,728.117371 870.599731,727.969971 
	C871.753174,727.961548 873.704834,726.588501 873.917175,725.566467 
	C875.927551,715.889771 874.189209,713.630432 864.812073,713.013794 
	C864.355713,712.983765 863.917664,712.674316 863.398132,712.465759 
	C863.398132,675.712769 863.398132,639.027100 863.398132,602.225952 
	C867.099060,602.052856 870.354248,601.900635 873.659973,601.745972 
	C873.659973,596.995300 873.659973,592.755127 873.659973,587.945740 
	C867.552917,587.945740 861.763062,587.945618 855.973267,587.945679 
	C840.809814,587.945923 825.645630,587.876953 810.484253,588.055420 
	C808.996338,588.072937 806.394653,589.451721 806.251221,590.471680 
	C805.734009,594.148376 806.047974,597.942017 806.047974,602.017517 
	C808.360535,602.017517 809.845276,602.008606 811.329895,602.019043 
	C817.978882,602.065552 817.988708,602.067566 817.992859,608.636597 
	C817.999756,619.634216 817.858032,630.634399 818.062744,641.628174 
	C818.137024,645.617493 816.522461,646.977844 812.784119,646.939636 
	C803.953552,646.849365 795.117371,646.754089 786.291992,646.986572 
	C782.614502,647.083435 781.802551,645.597107 781.867615,642.290588 
	C782.034546,633.795715 781.923279,625.295288 781.923340,616.797119 
	C781.923401,612.032654 781.923401,607.268127 781.923401,602.270996 
	C785.920715,602.083618 789.174500,601.931030 792.571655,601.771790 
	C792.571655,597.030579 792.571655,592.676758 792.571655,587.945862 
	C790.337646,587.945862 788.524902,587.945862 786.712097,587.945862 
	C768.882568,587.945862 751.052856,587.901489 733.223572,587.963928 
	C723.862854,587.996643 725.274597,586.708191 724.890259,596.155212 
	C724.711731,600.543518 725.743713,602.855469 730.580811,602.028870 
	C735.632446,601.165588 737.114441,603.340515 737.081665,608.393799 
	C736.874878,640.218994 736.976990,672.046204 736.976990,703.872742 
	C736.976990,713.539307 736.976135,713.527588 727.549072,714.048218 
	C726.780090,714.090698 726.028137,714.442261 724.982727,714.728333 
	C724.982727,718.217041 724.699829,721.570190 725.130798,724.828979 
	C725.289001,726.025513 727.127869,727.926147 728.214478,727.936096 
	C748.708374,728.123169 769.204651,728.115234 789.699036,727.962463 
	C790.799438,727.954346 792.726257,726.405334 792.831055,725.420715 
	C793.212097,721.840393 792.981445,718.194946 792.981445,714.307190 
	C789.074646,714.077576 785.693115,713.878845 782.313721,713.680237 
	C782.313721,695.940186 782.313721,678.713318 782.313721,661.022034 
	C793.327881,661.022034 803.961792,660.885803 814.581299,661.213806 
	C815.759644,661.250244 817.817261,663.917480 817.841919,665.391785 
	C818.086914,680.051208 817.936523,694.716736 818.034729,709.379578 
	C818.054321,712.298950 816.903015,713.729248 813.193787,714.001831 
M927.179138,603.735962 
	C933.269653,597.889343 940.461548,599.781860 947.475037,600.967834 
	C964.526428,603.851379 973.719727,613.389648 976.169434,630.452881 
	C976.515381,632.862610 977.095520,635.238770 977.634216,637.969666 
	C981.177429,637.969666 984.521851,638.253479 987.771484,637.822571 
	C988.981384,637.662231 990.903870,635.842651 990.918274,634.758545 
	C991.124512,619.269043 991.114075,603.775330 990.942200,588.284973 
	C990.930115,587.195801 989.329956,585.302856 988.317200,585.194458 
	C984.748718,584.812622 981.114441,585.046021 977.585388,585.046021 
	C977.026062,588.040833 976.591248,590.368896 976.135010,592.811829 
	C968.161865,590.666260 960.893738,588.257996 953.438782,586.815430 
	C943.490479,584.890503 933.393982,583.801331 923.381348,586.809448 
	C903.415771,592.807922 891.040649,607.535156 889.160767,628.221802 
	C887.785034,643.360535 892.874268,656.191101 906.271545,663.871277 
	C921.251953,672.459106 937.027222,679.653015 952.360168,687.638794 
	C955.687195,689.371521 958.892883,691.579712 961.642334,694.122498 
	C965.813660,697.980286 965.791809,702.959106 963.912781,707.970764 
	C962.104187,712.794556 958.381714,715.478271 953.394287,716.000061 
	C930.262329,718.420410 909.608154,705.167908 902.585876,682.990356 
	C900.718506,677.092957 900.376465,670.712585 899.235352,663.970642 
	C896.202820,663.970642 893.070801,664.147034 889.967224,663.925293 
	C886.216919,663.657349 885.029480,665.244019 885.053284,668.879395 
	C885.171997,687.036255 885.166870,705.194641 885.063354,723.351685 
	C885.039734,727.493652 886.832581,729.132996 890.808838,728.879333 
	C892.468018,728.773560 894.143433,728.785767 895.804321,728.875549 
	C898.730530,729.033630 899.825867,727.813538 900.060974,724.799744 
	C900.513733,718.994812 902.403625,717.931763 907.903931,720.416382 
	C919.913025,725.841125 932.086548,730.207275 945.433655,731.419739 
	C960.531677,732.791260 974.552368,730.101196 986.327454,720.764221 
	C1005.236572,705.770020 1010.553955,669.703552 987.644958,652.595337 
	C979.873474,646.791809 970.894043,642.520081 962.210083,638.046387 
	C951.878662,632.723999 941.061829,628.324158 930.850403,622.794922 
	C922.901672,618.490906 921.906616,612.168091 927.179138,603.735962 
M197.499237,660.898621 
	C202.445129,652.883728 204.218063,644.197449 204.090546,634.777954 
	C203.809372,614.007568 192.679123,598.465698 173.021072,592.108337 
	C160.209991,587.965332 147.107422,587.370178 133.751862,587.794373 
	C118.601692,588.275513 103.425316,587.934631 88.260330,587.944885 
	C78.703323,587.951294 78.842308,587.943176 79.050049,597.556152 
	C79.127197,601.126709 80.550461,602.303101 83.893318,602.052673 
	C86.132515,601.884827 88.394463,602.020813 90.676315,602.020813 
	C90.676315,639.427795 90.676315,675.999329 90.676315,713.098328 
	C88.363274,713.098328 86.382095,713.264587 84.438950,713.063477 
	C80.464340,712.652100 78.936485,714.512939 79.103470,718.271179 
	C79.155083,719.432861 79.137764,720.614258 78.987671,721.765259 
	C78.385887,726.379883 79.959213,728.261047 84.997650,728.191345 
	C103.992081,727.928345 122.992348,728.093994 141.990402,728.070984 
	C143.571213,728.069031 145.151779,727.856628 146.603424,727.751465 
	C146.603424,722.886108 146.603424,718.644836 146.603424,714.253662 
	C142.973145,714.064453 139.722000,713.894958 136.005219,713.701233 
	C136.005219,704.126953 135.895935,694.992798 136.161758,685.869507 
	C136.190689,684.876282 138.299133,683.259399 139.587204,683.100525 
	C146.801590,682.210449 154.123550,682.078186 161.290390,680.941101 
	C175.432556,678.697327 187.912140,673.065735 197.499237,660.898621 
z"/>
<path fill="#AAD817" opacity="1.000000" stroke="none" 
	d="
M789.053772,466.943390 
	C784.108337,465.768524 779.016357,465.008972 774.249451,463.327911 
	C765.675598,460.304169 757.296631,456.727753 748.003540,453.052979 
	C751.146484,462.177246 754.077148,470.685181 757.007751,479.193115 
	C729.001587,456.340149 708.659790,427.628693 691.490356,395.675293 
	C690.910034,394.866241 690.650452,394.569855 690.390930,394.273468 
	C690.475403,394.957153 690.559814,395.640839 690.644226,396.324524 
	C696.525757,411.600067 702.407288,426.875610 708.607422,442.978729 
	C697.878845,439.807648 686.574524,437.101227 675.733765,433.129517 
	C653.436646,424.960419 633.939758,411.685852 615.550720,397.046661 
	C578.679626,367.694153 536.947510,348.615997 491.776276,336.394562 
	C489.174591,335.690613 486.479034,335.333466 483.712616,335.393616 
	C488.775482,337.894073 493.838348,340.394531 498.901215,342.894989 
	C498.750854,343.232269 498.600464,343.569519 498.450073,343.906799 
	C490.202545,343.906799 481.950500,343.733612 473.708496,343.946930 
	C460.978607,344.276337 448.476868,346.233185 436.642883,351.081207 
	C431.441071,353.212311 426.303894,355.795441 421.662506,358.946747 
	C405.803009,369.714874 401.016724,386.479736 408.444031,404.120697 
	C415.014282,419.725952 426.194794,431.818115 438.679413,442.755341 
	C466.195099,466.860657 496.856537,486.727844 526.755066,507.615936 
	C557.499207,529.094910 588.046509,550.833801 615.003357,577.107971 
	C639.350220,600.838196 660.086243,627.122375 671.328186,659.747986 
	C687.403992,706.401917 681.746948,750.592651 655.449036,792.187012 
	C636.261597,822.535095 610.368164,846.364319 581.528870,867.207703 
	C537.737793,898.857117 489.546387,922.089233 439.142975,940.975464 
	C399.021698,956.009033 357.987579,967.851868 315.765625,975.393005 
	C311.031525,976.238586 306.293091,977.066711 301.539032,977.786194 
	C300.881714,977.885742 300.122070,977.308655 298.658966,976.766785 
	C308.165833,973.321350 317.017609,970.367249 325.679321,966.933777 
	C391.415863,940.875671 452.716492,906.957642 508.114166,862.831787 
	C534.828796,841.552673 559.205566,817.926697 576.700867,788.139954 
	C585.213623,773.646423 591.226990,758.254272 592.332703,741.193848 
	C593.820251,718.240356 585.881470,698.666809 571.138306,681.624451 
	C550.817627,658.134644 526.162964,639.556396 501.347504,621.252197 
	C458.284821,589.488586 413.068207,560.941467 367.862152,532.380188 
	C329.360504,508.054749 293.608002,480.400879 264.489410,444.979431 
	C244.130692,420.213989 228.264618,393.009613 222.137924,361.135071 
	C214.520477,321.504730 223.948776,285.776550 248.634460,254.081131 
	C272.209961,223.811157 303.457672,203.973450 338.238708,189.050613 
	C367.550598,176.474335 398.695801,170.926025 429.736206,164.909378 
	C440.999207,162.726227 452.197083,160.194336 463.392731,157.679565 
	C478.568542,154.270737 491.757172,146.506516 505.066071,138.846695 
	C529.833618,124.591965 555.689026,112.779449 583.781433,106.626091 
	C612.336121,100.371452 639.906372,101.564407 665.921997,116.955612 
	C672.991516,121.138016 681.159363,123.537033 688.959412,126.380386 
	C692.811951,127.784729 696.974792,128.337585 701.148376,128.742432 
	C693.433350,124.644066 685.718323,120.545692 678.003296,116.447319 
	C694.397766,109.807060 709.517395,110.536804 722.434631,122.125053 
	C729.832336,128.761612 736.604187,136.254318 742.795532,144.046692 
	C759.796448,165.444122 781.711243,176.665558 808.932800,178.252319 
	C820.204590,178.909348 831.585144,179.732437 842.619202,181.954834 
	C858.565308,185.166580 865.285767,196.695847 861.450439,212.507812 
	C858.010620,226.689560 849.883240,238.155380 839.861267,248.478531 
	C837.591064,250.816925 835.493896,253.503677 833.996155,256.383270 
	C821.217346,280.951660 805.415222,302.999359 781.877808,318.439758 
	C774.896912,323.019196 767.295898,326.653198 759.624878,330.167206 
	C771.876282,309.110138 784.301697,288.563354 791.082153,263.552032 
	C776.482056,262.567871 763.089661,261.515625 749.676697,260.956390 
	C748.061401,260.889038 745.846313,263.176788 744.734375,264.904144 
	C731.815247,284.973450 715.900330,301.944336 694.856995,313.658356 
	C690.538025,316.062592 686.006775,318.085510 681.151550,319.901642 
	C691.488403,302.098450 704.348877,285.666046 708.426941,263.830170 
	C697.445251,266.210724 687.471252,268.433228 677.470642,270.528595 
	C653.647461,275.520142 629.745850,279.854675 605.216919,278.022461 
	C588.356812,276.763031 572.427551,272.587769 558.266724,262.892090 
	C556.886963,261.947449 555.228333,261.410065 552.642029,260.181427 
	C559.409546,274.509125 569.937805,283.635681 581.430664,291.666229 
	C597.539429,302.922119 614.081055,313.558228 630.197815,324.803101 
	C645.941528,335.787750 660.375793,348.355774 674.145874,362.205841 
	C673.505127,360.639893 673.065491,358.950653 672.192871,357.526947 
	C662.547119,341.790649 648.991943,329.683258 635.014648,318.043365 
	C625.415588,310.049530 615.467957,302.474609 605.687012,294.698669 
	C604.040527,293.389709 602.449524,292.011108 600.616516,290.484406 
	C632.007629,292.085083 661.892944,284.822540 692.733887,280.231171 
	C685.722290,298.949036 676.350220,315.767090 664.453308,331.247284 
	C664.801086,331.765442 665.148865,332.283600 665.496643,332.801788 
	C677.258789,328.560425 689.020996,324.319061 701.083679,319.969360 
	C701.841553,324.303894 702.542480,329.334747 703.617065,334.284454 
	C708.749023,357.924713 722.307190,376.677368 738.393188,393.960205 
	C744.634277,400.665649 750.843750,407.405487 756.875732,414.297577 
	C758.708557,416.391785 760.177979,418.922363 761.326660,421.472534 
	C763.797546,426.958008 762.599121,431.402222 757.982483,435.232849 
	C756.719299,436.280945 755.388489,437.247589 753.388794,438.792297 
	C765.411133,448.176697 777.072449,457.279327 788.875366,466.680145 
	C789.016846,466.978333 789.053772,466.943390 789.053772,466.943390 
M599.603638,152.760559 
	C603.306335,160.774414 609.062500,166.310196 617.957642,168.175827 
	C629.849304,170.669968 639.973694,166.941635 648.791443,159.194565 
	C650.878113,157.361237 652.337646,157.074905 654.855591,158.156067 
	C662.373718,161.384140 670.288269,162.457962 678.629089,161.810760 
	C671.155884,158.365295 663.937256,155.071640 656.748413,151.714279 
	C647.407471,147.351929 638.209290,142.659454 628.730713,138.623108 
	C618.402466,134.224945 607.651306,131.407104 596.220032,132.989899 
	C587.191772,134.239990 579.881897,138.410324 574.496582,145.917160 
	C576.339355,145.763275 577.957275,145.152527 579.534363,144.450043 
	C581.805969,143.438202 583.959900,142.062332 586.318787,141.365097 
	C593.552063,139.226990 595.892090,140.626541 597.895569,147.796158 
	C598.297974,149.236496 598.803345,150.648041 599.603638,152.760559 
z"/>
<path fill="#C6C7C2" opacity="1.000000" stroke="none" 
	d="
M315.000000,587.942993 
	C327.831329,587.943237 340.168274,588.157959 352.491028,587.832642 
	C357.074036,587.711609 358.548584,589.266174 357.892090,593.530884 
	C357.766815,594.344788 357.783142,595.206299 357.889343,596.025757 
	C358.459717,600.426575 356.966919,602.778137 352.142426,602.067078 
	C351.562683,601.981567 350.915863,602.351440 349.394531,602.743896 
	C356.864746,619.643066 364.200104,636.237183 371.535431,652.831299 
	C372.006683,652.872498 372.477936,652.913757 372.949158,652.954956 
	C378.765228,636.267090 384.581268,619.579224 390.682220,602.073975 
	C384.626099,602.073975 379.692596,602.073975 374.390686,602.073975 
	C374.390686,597.325073 374.390686,593.086609 374.390686,588.620850 
	C374.895416,588.436401 375.491669,588.029724 376.089386,588.027649 
	C390.919708,587.975952 405.750366,588.003906 420.580383,587.915466 
	C423.172577,587.900024 423.962585,588.893799 424.104431,591.437805 
	C424.694763,602.026306 424.760101,602.374817 414.165314,601.877991 
	C408.544495,601.614319 406.193726,603.376709 404.366821,608.794250 
	C392.203094,644.864990 379.561279,680.774170 367.161987,716.765930 
	C362.726624,729.640442 362.657501,729.783691 349.979431,727.781006 
	C338.815308,702.418579 327.931244,677.692383 317.047150,652.966248 
	C316.537933,653.050659 316.028717,653.135132 315.519501,653.219604 
	C311.111115,664.272888 306.703796,675.326538 302.294067,686.379272 
	C297.121277,699.344604 292.017761,712.338684 286.661194,725.227661 
	C286.129211,726.507690 284.115479,727.824707 282.674713,727.967651 
	C273.749390,728.852905 273.302887,728.393188 269.696411,720.293823 
	C255.897034,689.303284 242.040329,658.338318 228.200836,627.365662 
	C225.079529,620.380127 221.617813,613.523254 218.942169,606.371704 
	C217.519333,602.568665 215.395599,601.644287 211.820801,601.980347 
	C209.526962,602.195984 207.196350,602.020752 204.451492,602.020752 
	C204.451492,597.400146 204.451492,593.167175 204.451492,587.943115 
	C241.048325,587.943115 277.774170,587.943115 315.000000,587.942993 
M294.115997,660.403320 
	C284.918488,639.651855 275.720947,618.900330 266.072235,597.130859 
	C269.407532,597.130859 271.565094,597.406677 273.602600,597.031189 
	C274.899872,596.791992 276.019104,595.586914 277.218201,594.814941 
	C275.957520,593.932129 274.702881,592.290100 273.435181,592.279968 
	C253.276917,592.119080 233.116577,592.117615 212.958389,592.285217 
	C211.690720,592.295715 210.437119,593.998901 209.176987,594.914612 
	C210.443039,595.653442 211.866714,597.206665 212.949249,596.997192 
	C219.346481,595.759094 221.538757,599.569336 223.734406,604.546570 
	C240.659515,642.912964 257.749817,681.206726 274.941498,719.454468 
	C275.647247,721.024658 277.893341,722.882019 279.380035,722.846741 
	C280.872986,722.811279 282.997345,720.859314 283.668152,719.255188 
	C288.673553,707.285217 293.366394,695.184875 298.196716,683.141235 
	C303.924408,668.860168 309.691681,654.594971 315.914581,639.149475 
	C317.444366,642.228333 318.521210,644.210388 319.435852,646.264709 
	C330.265411,670.588318 341.016052,694.947510 352.000366,719.200928 
	C352.768158,720.896179 355.117340,722.595398 356.926453,722.838196 
	C358.076447,722.992676 360.273346,720.697327 360.836060,719.092285 
	C373.655396,682.524963 386.308594,645.899414 399.010284,609.290833 
	C400.316925,605.524841 400.707703,600.391235 403.382355,598.438721 
	C406.176147,596.399292 411.238403,597.591797 415.264557,597.044495 
	C416.571259,596.866882 417.737915,595.658813 418.968658,594.922058 
	C417.691956,594.003845 416.430847,592.315002 415.136169,592.288879 
	C404.477600,592.073730 393.811157,592.077942 383.151947,592.275696 
	C381.755737,592.301575 380.386841,593.798706 379.005249,594.614319 
	C380.321075,595.453369 381.594604,596.924622 382.960419,597.015930 
	C387.519775,597.320862 392.112152,597.131470 397.612793,597.131470 
	C389.313568,620.983765 381.356171,643.853577 373.398804,666.723328 
	C372.953857,666.705444 372.508881,666.687561 372.063934,666.669678 
	C362.027283,643.786621 351.990662,620.903503 341.563934,597.131042 
	C344.733368,597.131042 346.897308,597.414795 348.934479,597.028992 
	C350.240570,596.781555 351.359650,595.546875 352.562561,594.754761 
	C351.396759,593.892639 350.237122,592.289001 349.064270,592.279297 
	C330.238892,592.123657 311.411316,592.117126 292.586273,592.293579 
	C291.327423,592.305420 290.084808,594.053040 288.834656,594.993347 
	C290.083984,595.706360 291.384857,597.097595 292.573090,597.007263 
	C296.388519,596.717163 298.214111,598.283264 299.543945,601.796814 
	C301.778320,607.700317 304.022583,613.732910 307.292145,619.081909 
	C312.658997,627.862122 312.775635,636.049011 307.982849,645.143372 
	C304.184784,652.350220 301.663269,660.229919 298.081787,669.021240 
	C296.479034,665.516174 295.464203,663.296753 294.115997,660.403320 
M283.985474,625.509705 
	C288.396179,635.350464 292.806885,645.191223 297.822662,656.382019 
	C301.000854,648.649963 303.778259,642.646545 305.875031,636.414062 
	C306.692413,633.984497 306.744598,630.737976 305.820160,628.384033 
	C302.728455,620.511658 299.095947,612.847290 295.516602,605.175110 
	C294.949219,603.958923 293.626495,602.281738 292.587036,602.233337 
	C286.562164,601.952759 280.517548,602.096191 274.484741,602.096191 
	C274.484741,603.198547 274.381897,603.563660 274.499786,603.831787 
	C277.574066,610.822083 280.671295,617.802429 283.985474,625.509705 
z"/>
<path fill="#C6C7C1" opacity="1.000000" stroke="none" 
	d="
M813.642029,713.991089 
	C816.903015,713.729248 818.054321,712.298950 818.034729,709.379578 
	C817.936523,694.716736 818.086914,680.051208 817.841919,665.391785 
	C817.817261,663.917480 815.759644,661.250244 814.581299,661.213806 
	C803.961792,660.885803 793.327881,661.022034 782.313721,661.022034 
	C782.313721,678.713318 782.313721,695.940186 782.313721,713.680237 
	C785.693115,713.878845 789.074646,714.077576 792.981445,714.307190 
	C792.981445,718.194946 793.212097,721.840393 792.831055,725.420715 
	C792.726257,726.405334 790.799438,727.954346 789.699036,727.962463 
	C769.204651,728.115234 748.708374,728.123169 728.214478,727.936096 
	C727.127869,727.926147 725.289001,726.025513 725.130798,724.828979 
	C724.699829,721.570190 724.982727,718.217041 724.982727,714.728333 
	C726.028137,714.442261 726.780090,714.090698 727.549072,714.048218 
	C736.976135,713.527588 736.976990,713.539307 736.976990,703.872742 
	C736.976990,672.046204 736.874878,640.218994 737.081665,608.393799 
	C737.114441,603.340515 735.632446,601.165588 730.580811,602.028870 
	C725.743713,602.855469 724.711731,600.543518 724.890259,596.155212 
	C725.274597,586.708191 723.862854,587.996643 733.223572,587.963928 
	C751.052856,587.901489 768.882568,587.945862 786.712097,587.945862 
	C788.524902,587.945862 790.337646,587.945862 792.571655,587.945862 
	C792.571655,592.676758 792.571655,597.030579 792.571655,601.771790 
	C789.174500,601.931030 785.920715,602.083618 781.923401,602.270996 
	C781.923401,607.268127 781.923401,612.032654 781.923340,616.797119 
	C781.923279,625.295288 782.034546,633.795715 781.867615,642.290588 
	C781.802551,645.597107 782.614502,647.083435 786.291992,646.986572 
	C795.117371,646.754089 803.953552,646.849365 812.784119,646.939636 
	C816.522461,646.977844 818.137024,645.617493 818.062744,641.628174 
	C817.858032,630.634399 817.999756,619.634216 817.992859,608.636597 
	C817.988708,602.067566 817.978882,602.065552 811.329895,602.019043 
	C809.845276,602.008606 808.360535,602.017517 806.047974,602.017517 
	C806.047974,597.942017 805.734009,594.148376 806.251221,590.471680 
	C806.394653,589.451721 808.996338,588.072937 810.484253,588.055420 
	C825.645630,587.876953 840.809814,587.945923 855.973267,587.945679 
	C861.763062,587.945618 867.552917,587.945740 873.659973,587.945740 
	C873.659973,592.755127 873.659973,596.995300 873.659973,601.745972 
	C870.354248,601.900635 867.099060,602.052856 863.398132,602.225952 
	C863.398132,639.027100 863.398132,675.712769 863.398132,712.465759 
	C863.917664,712.674316 864.355713,712.983765 864.812073,713.013794 
	C874.189209,713.630432 875.927551,715.889771 873.917175,725.566467 
	C873.704834,726.588501 871.753174,727.961548 870.599731,727.969971 
	C850.271851,728.117371 829.942505,728.052307 809.613708,728.111572 
	C807.116638,728.118835 805.908813,727.333130 806.002075,724.690369 
	C806.118530,721.389954 806.029968,718.082397 806.029968,714.001831 
	C808.679260,714.001831 810.936523,714.001831 813.642029,713.991089 
M864.452759,718.862000 
	C857.817322,718.837280 857.807007,718.837280 857.806335,712.447083 
	C857.802673,677.299011 857.795044,642.150940 857.821411,607.002869 
	C857.823669,604.023438 857.082825,600.356873 858.524902,598.294556 
	C859.570801,596.798950 863.689270,597.589539 866.368042,597.028381 
	C867.395874,596.813110 868.230530,595.675598 869.153198,594.958252 
	C868.212830,594.042419 867.412170,592.830017 866.289490,592.301331 
	C865.329834,591.849304 864.000732,592.168945 862.835083,592.168762 
	C848.009583,592.165710 833.182312,592.051697 818.360352,592.279785 
	C815.890198,592.317810 811.763489,590.074402 811.418945,594.977539 
	C811.380066,595.530334 815.912903,596.973328 818.334839,596.994995 
	C821.842468,597.026550 823.009094,598.140991 822.862610,601.647949 
	C822.612610,607.634338 822.792786,613.638733 822.792664,619.635559 
	C822.792542,629.921875 822.792664,640.208130 822.792664,650.753418 
	C821.041321,650.901123 819.761536,651.100342 818.481323,651.102844 
	C806.154541,651.126709 793.825378,650.983521 781.502319,651.198669 
	C777.761353,651.263916 776.637756,650.132080 776.689880,646.397522 
	C776.885315,632.407654 776.766357,618.413391 776.767700,604.420776 
	C776.768372,597.361877 776.770691,597.361572 783.953857,597.129517 
	C784.286682,597.118713 784.705444,597.252808 784.938721,597.098938 
	C786.012756,596.390381 787.035156,595.603577 788.076111,594.844849 
	C787.106384,593.963135 786.143188,592.320984 785.165894,592.312500 
	C767.677124,592.161438 750.186646,592.208191 732.696533,592.214355 
	C732.530518,592.214417 732.281982,592.175171 732.211365,592.264526 
	C731.477417,593.192261 730.439453,594.069824 730.209290,595.119934 
	C730.105408,595.594177 731.529480,596.670410 732.435547,597.022217 
	C733.308044,597.361023 734.406433,597.122559 735.405701,597.129761 
	C741.818726,597.175964 741.826172,597.175232 741.826721,603.812439 
	C741.829407,638.627319 741.828125,673.442261 741.827881,708.257141 
	C741.827881,710.422668 741.741272,712.592163 741.843628,714.752747 
	C741.983459,717.703735 740.780640,719.126587 737.731934,718.879333 
	C736.408020,718.771973 734.994019,718.594116 733.755737,718.936279 
	C732.437134,719.300659 731.278015,720.242126 730.049255,720.931641 
	C731.237793,721.661987 732.414185,723.001648 733.616821,723.025635 
	C742.608459,723.205139 751.605347,723.125793 760.600586,723.125122 
	C768.762939,723.124512 776.927063,723.200378 785.085388,723.017029 
	C786.093811,722.994324 787.070984,721.584656 788.062683,720.817688 
	C787.119263,720.168030 786.254822,719.260376 785.210449,718.940552 
	C784.143799,718.614014 782.879578,718.721924 781.738098,718.888367 
	C777.660645,719.482605 776.661804,717.602356 776.697327,713.775513 
	C776.859619,696.286316 776.869873,678.793640 776.691345,661.304749 
	C776.650635,657.310852 777.619202,655.702759 781.941711,655.800110 
	C793.762817,656.066345 805.596375,656.033264 817.419373,655.813782 
	C821.504822,655.737976 822.937317,656.941101 822.880798,661.175171 
	C822.665161,677.330444 822.792847,693.490234 822.792786,709.648376 
	C822.792786,718.321533 822.787720,718.254761 814.385620,718.945068 
	C813.240051,719.039185 812.181335,720.191223 811.082397,720.853394 
	C812.247375,721.609741 813.406921,723.015137 814.578125,723.024902 
	C831.567993,723.167236 848.559692,723.167236 865.549561,723.027893 
	C866.757385,723.018005 867.954041,721.655151 869.155823,720.921326 
	C867.897034,720.234741 866.638245,719.548096 864.452759,718.862000 
z"/>
<path fill="#C7C8C2" opacity="1.000000" stroke="none" 
	d="
M926.969727,604.054871 
	C921.906616,612.168091 922.901672,618.490906 930.850403,622.794922 
	C941.061829,628.324158 951.878662,632.723999 962.210083,638.046387 
	C970.894043,642.520081 979.873474,646.791809 987.644958,652.595337 
	C1010.553955,669.703552 1005.236572,705.770020 986.327454,720.764221 
	C974.552368,730.101196 960.531677,732.791260 945.433655,731.419739 
	C932.086548,730.207275 919.913025,725.841125 907.903931,720.416382 
	C902.403625,717.931763 900.513733,718.994812 900.060974,724.799744 
	C899.825867,727.813538 898.730530,729.033630 895.804321,728.875549 
	C894.143433,728.785767 892.468018,728.773560 890.808838,728.879333 
	C886.832581,729.132996 885.039734,727.493652 885.063354,723.351685 
	C885.166870,705.194641 885.171997,687.036255 885.053284,668.879395 
	C885.029480,665.244019 886.216919,663.657349 889.967224,663.925293 
	C893.070801,664.147034 896.202820,663.970642 899.235352,663.970642 
	C900.376465,670.712585 900.718506,677.092957 902.585876,682.990356 
	C909.608154,705.167908 930.262329,718.420410 953.394287,716.000061 
	C958.381714,715.478271 962.104187,712.794556 963.912781,707.970764 
	C965.791809,702.959106 965.813660,697.980286 961.642334,694.122498 
	C958.892883,691.579712 955.687195,689.371521 952.360168,687.638794 
	C937.027222,679.653015 921.251953,672.459106 906.271545,663.871277 
	C892.874268,656.191101 887.785034,643.360535 889.160767,628.221802 
	C891.040649,607.535156 903.415771,592.807922 923.381348,586.809448 
	C933.393982,583.801331 943.490479,584.890503 953.438782,586.815430 
	C960.893738,588.257996 968.161865,590.666260 976.135010,592.811829 
	C976.591248,590.368896 977.026062,588.040833 977.585388,585.046021 
	C981.114441,585.046021 984.748718,584.812622 988.317200,585.194458 
	C989.329956,585.302856 990.930115,587.195801 990.942200,588.284973 
	C991.114075,603.775330 991.124512,619.269043 990.918274,634.758545 
	C990.903870,635.842651 988.981384,637.662231 987.771484,637.822571 
	C984.521851,638.253479 981.177429,637.969666 977.634216,637.969666 
	C977.095520,635.238770 976.515381,632.862610 976.169434,630.452881 
	C973.719727,613.389648 964.526428,603.851379 947.475037,600.967834 
	C940.461548,599.781860 933.269653,597.889343 926.969727,604.054871 
M973.833191,722.521545 
	C991.327637,714.324280 1000.534180,696.243164 997.147705,677.277039 
	C994.791443,664.081116 986.308655,655.725769 975.232727,649.835022 
	C965.553101,644.686768 955.293274,640.640442 945.397705,635.882812 
	C938.667297,632.646973 931.888428,629.401001 925.563782,625.464478 
	C919.625183,621.768250 917.588440,613.972290 919.694641,606.815369 
	C921.595093,600.357239 927.581299,595.544861 934.338867,594.995056 
	C958.551758,593.025330 980.507812,607.548157 981.867004,630.198181 
	C981.921631,631.108215 983.235596,631.942749 983.962769,632.812500 
	C984.682373,631.941589 986.019104,631.077454 986.028625,630.198792 
	C986.164246,617.705200 986.153320,605.209290 986.045776,592.715088 
	C986.038452,591.866211 984.977844,591.026428 984.407043,590.182373 
	C983.524109,590.887512 982.195618,591.414124 981.830078,592.326538 
	C979.318115,598.596191 978.488098,598.814026 971.756775,597.083618 
	C962.294861,594.651245 952.804016,592.123108 943.172363,590.612915 
	C931.625122,588.802490 920.790955,591.294861 910.883667,597.996094 
	C893.910767,609.476379 884.745911,642.365479 907.240112,658.623047 
	C913.398560,663.073914 920.332031,666.536072 927.154907,669.964233 
	C937.114685,674.968445 947.415710,679.297424 957.340515,684.366150 
	C963.857300,687.694336 969.468689,692.308899 970.031555,700.449890 
	C970.865540,712.513977 962.482727,721.395813 950.098633,721.822876 
	C922.020935,722.791260 897.936523,701.160339 895.042664,672.513245 
	C894.917358,671.272705 893.586914,670.153931 892.817993,668.978455 
	C892.141541,670.084351 890.884949,671.185547 890.875977,672.296814 
	C890.748291,688.122986 890.749939,703.950806 890.875793,719.777039 
	C890.884399,720.865723 892.124817,721.944641 892.792419,723.028076 
	C893.596313,722.227844 894.761719,721.570862 895.144836,720.603882 
	C897.428101,714.841919 900.939087,712.822876 906.831787,714.598938 
	C909.833801,715.503784 912.676453,716.983765 915.526062,718.340454 
	C934.158569,727.211609 953.291260,729.509094 973.833191,722.521545 
z"/>
<path fill="#C7C8C3" opacity="1.000000" stroke="none" 
	d="
M197.277740,661.187988 
	C187.912140,673.065735 175.432556,678.697327 161.290390,680.941101 
	C154.123550,682.078186 146.801590,682.210449 139.587204,683.100525 
	C138.299133,683.259399 136.190689,684.876282 136.161758,685.869507 
	C135.895935,694.992798 136.005219,704.126953 136.005219,713.701233 
	C139.722000,713.894958 142.973145,714.064453 146.603424,714.253662 
	C146.603424,718.644836 146.603424,722.886108 146.603424,727.751465 
	C145.151779,727.856628 143.571213,728.069031 141.990402,728.070984 
	C122.992348,728.093994 103.992081,727.928345 84.997650,728.191345 
	C79.959213,728.261047 78.385887,726.379883 78.987671,721.765259 
	C79.137764,720.614258 79.155083,719.432861 79.103470,718.271179 
	C78.936485,714.512939 80.464340,712.652100 84.438950,713.063477 
	C86.382095,713.264587 88.363274,713.098328 90.676315,713.098328 
	C90.676315,675.999329 90.676315,639.427795 90.676315,602.020813 
	C88.394463,602.020813 86.132515,601.884827 83.893318,602.052673 
	C80.550461,602.303101 79.127197,601.126709 79.050049,597.556152 
	C78.842308,587.943176 78.703323,587.951294 88.260330,587.944885 
	C103.425316,587.934631 118.601692,588.275513 133.751862,587.794373 
	C147.107422,587.370178 160.209991,587.965332 173.021072,592.108337 
	C192.679123,598.465698 203.809372,614.007568 204.090546,634.777954 
	C204.218063,644.197449 202.445129,652.883728 197.277740,661.187988 
M106.500061,723.131714 
	C116.326492,723.131531 126.155235,723.245789 135.977646,723.047058 
	C138.295441,723.000183 142.630112,721.658508 142.590118,721.320618 
	C142.055984,716.809509 138.313446,718.956909 136.042908,719.007446 
	C131.880768,719.100342 130.982285,717.400452 131.057510,713.635742 
	C131.260437,703.480286 131.288376,693.314148 131.045273,683.160400 
	C130.952209,679.273132 132.020737,678.128784 136.055634,678.000488 
	C145.170135,677.710571 154.390274,677.392944 163.336380,675.793945 
	C188.676086,671.264587 200.479645,656.270081 199.065887,630.727356 
	C198.186600,614.841370 189.782043,603.450562 174.978363,598.346436 
	C165.075729,594.932190 154.342926,592.924927 143.872757,592.380249 
	C125.934982,591.447083 107.911980,592.150696 89.924767,592.174011 
	C88.927391,592.175293 87.754402,591.922974 86.976494,592.354187 
	C85.964149,592.915222 85.265549,594.042297 84.431923,594.925842 
	C85.361740,595.657227 86.198349,596.613708 87.250580,597.049438 
	C88.105942,597.403503 89.242958,597.274536 90.215225,597.115845 
	C95.134354,596.313049 96.268555,598.496948 96.244057,603.194641 
	C96.059082,638.668823 96.143234,674.144470 96.143242,709.619629 
	C96.143250,718.143372 96.135811,718.072693 87.678787,718.940918 
	C86.521164,719.059753 85.478050,720.294067 84.381927,721.011963 
	C85.592079,721.718628 86.781281,722.989868 88.015961,723.035645 
	C93.837196,723.251648 99.670898,723.131897 106.500061,723.131714 
z"/>
<path fill="#AAD817" opacity="1.000000" stroke="none" 
	d="
M788.995972,466.992889 
	C789.111328,467.079529 789.247559,467.151611 789.383728,467.223694 
	C789.254822,467.249878 789.125916,467.276031 789.025391,467.122803 
	C789.053772,466.943390 789.016846,466.978333 788.995972,466.992889 
z"/>
<path fill="#FDFEFA" opacity="1.000000" stroke="none" 
	d="
M599.432495,152.416718 
	C598.803345,150.648041 598.297974,149.236496 597.895569,147.796158 
	C595.892090,140.626541 593.552063,139.226990 586.318787,141.365097 
	C583.959900,142.062332 581.805969,143.438202 579.534363,144.450043 
	C577.957275,145.152527 576.339355,145.763275 574.496582,145.917160 
	C579.881897,138.410324 587.191772,134.239990 596.220032,132.989899 
	C607.651306,131.407104 618.402466,134.224945 628.730713,138.623108 
	C638.209290,142.659454 647.407471,147.351929 656.748413,151.714279 
	C663.937256,155.071640 671.155884,158.365295 678.629089,161.810760 
	C670.288269,162.457962 662.373718,161.384140 654.855591,158.156067 
	C652.337646,157.074905 650.878113,157.361237 648.791443,159.194565 
	C639.973694,166.941635 629.849304,170.669968 617.957642,168.175827 
	C609.062500,166.310196 603.306335,160.774414 599.432495,152.416718 
z"/>
<path fill="#FFFFFF" opacity="1.000000" stroke="none" 
	d="
M690.798828,396.185577 
	C690.559814,395.640839 690.475403,394.957153 690.390930,394.273468 
	C690.650452,394.569855 690.910034,394.866241 691.218140,395.467896 
	C691.266663,395.773163 690.953491,396.046631 690.798828,396.185577 
z"/>
<path fill="#AAD819" opacity="1.000000" stroke="none" 
	d="
M294.282684,660.740356 
	C295.464203,663.296753 296.479034,665.516174 298.081787,669.021240 
	C301.663269,660.229919 304.184784,652.350220 307.982849,645.143372 
	C312.775635,636.049011 312.658997,627.862122 307.292145,619.081909 
	C304.022583,613.732910 301.778320,607.700317 299.543945,601.796814 
	C298.214111,598.283264 296.388519,596.717163 292.573090,597.007263 
	C291.384857,597.097595 290.083984,595.706360 288.834656,594.993347 
	C290.084808,594.053040 291.327423,592.305420 292.586273,592.293579 
	C311.411316,592.117126 330.238892,592.123657 349.064270,592.279297 
	C350.237122,592.289001 351.396759,593.892639 352.562561,594.754761 
	C351.359650,595.546875 350.240570,596.781555 348.934479,597.028992 
	C346.897308,597.414795 344.733368,597.131042 341.563934,597.131042 
	C351.990662,620.903503 362.027283,643.786621 372.063934,666.669678 
	C372.508881,666.687561 372.953857,666.705444 373.398804,666.723328 
	C381.356171,643.853577 389.313568,620.983765 397.612793,597.131470 
	C392.112152,597.131470 387.519775,597.320862 382.960419,597.015930 
	C381.594604,596.924622 380.321075,595.453369 379.005249,594.614380 
	C380.386841,593.798706 381.755737,592.301575 383.151947,592.275696 
	C393.811157,592.077942 404.477600,592.073730 415.136169,592.288879 
	C416.430847,592.315002 417.691956,594.003845 418.968658,594.922058 
	C417.737915,595.658813 416.571259,596.866882 415.264557,597.044495 
	C411.238403,597.591797 406.176147,596.399292 403.382355,598.438721 
	C400.707703,600.391235 400.316925,605.524841 399.010284,609.290833 
	C386.308594,645.899414 373.655396,682.524963 360.836060,719.092285 
	C360.273346,720.697327 358.076447,722.992676 356.926453,722.838196 
	C355.117340,722.595398 352.768158,720.896179 352.000366,719.200928 
	C341.016052,694.947510 330.265411,670.588318 319.435852,646.264709 
	C318.521210,644.210388 317.444366,642.228333 315.914581,639.149475 
	C309.691681,654.594971 303.924408,668.860168 298.196716,683.141235 
	C293.366394,695.184875 288.673553,707.285217 283.668152,719.255188 
	C282.997345,720.859314 280.872986,722.811279 279.380035,722.846741 
	C277.893341,722.882019 275.647247,721.024658 274.941498,719.454468 
	C257.749817,681.206726 240.659515,642.912964 223.734406,604.546570 
	C221.538757,599.569336 219.346481,595.759094 212.949249,596.997192 
	C211.866714,597.206665 210.443039,595.653442 209.176971,594.914612 
	C210.437119,593.998901 211.690720,592.295715 212.958389,592.285217 
	C233.116577,592.117615 253.276917,592.119080 273.435181,592.279968 
	C274.702881,592.290100 275.957520,593.932129 277.218201,594.814941 
	C276.019104,595.586914 274.899872,596.791992 273.602600,597.031189 
	C271.565094,597.406677 269.407532,597.130859 266.072235,597.130859 
	C275.720947,618.900330 284.918488,639.651855 294.282684,660.740356 
z"/>
<path fill="#FEFEFE" opacity="1.000000" stroke="none" 
	d="
M283.875000,625.147095 
	C280.671295,617.802429 277.574066,610.822083 274.499786,603.831787 
	C274.381897,603.563660 274.484741,603.198547 274.484741,602.096191 
	C280.517548,602.096191 286.562164,601.952759 292.587036,602.233337 
	C293.626495,602.281738 294.949219,603.958923 295.516602,605.175110 
	C299.095947,612.847290 302.728455,620.511658 305.820160,628.384033 
	C306.744598,630.737976 306.692413,633.984497 305.875031,636.414062 
	C303.778259,642.646545 301.000854,648.649963 297.822662,656.382019 
	C292.806885,645.191223 288.396179,635.350464 283.875000,625.147095 
z"/>
<path fill="#AAD819" opacity="1.000000" stroke="none" 
	d="
M864.916138,718.861694 
	C866.638245,719.548096 867.897034,720.234741 869.155823,720.921387 
	C867.954041,721.655151 866.757385,723.018005 865.549561,723.027893 
	C848.559692,723.167236 831.567993,723.167236 814.578125,723.024902 
	C813.406921,723.015137 812.247375,721.609741 811.082397,720.853394 
	C812.181335,720.191223 813.240051,719.039185 814.385620,718.945068 
	C822.787720,718.254761 822.792786,718.321533 822.792786,709.648376 
	C822.792847,693.490234 822.665161,677.330444 822.880798,661.175171 
	C822.937317,656.941101 821.504822,655.737976 817.419373,655.813782 
	C805.596375,656.033264 793.762817,656.066345 781.941711,655.800110 
	C777.619202,655.702759 776.650635,657.310852 776.691345,661.304749 
	C776.869873,678.793640 776.859619,696.286316 776.697327,713.775513 
	C776.661804,717.602356 777.660645,719.482605 781.738098,718.888367 
	C782.879578,718.721924 784.143799,718.614014 785.210449,718.940552 
	C786.254822,719.260376 787.119263,720.168030 788.062683,720.817688 
	C787.070984,721.584656 786.093811,722.994324 785.085388,723.017029 
	C776.927063,723.200378 768.762939,723.124512 760.600586,723.125122 
	C751.605347,723.125793 742.608459,723.205139 733.616821,723.025635 
	C732.414185,723.001648 731.237793,721.661987 730.049255,720.931641 
	C731.278015,720.242126 732.437134,719.300659 733.755737,718.936279 
	C734.994019,718.594116 736.408020,718.771973 737.731934,718.879333 
	C740.780640,719.126587 741.983459,717.703735 741.843628,714.752747 
	C741.741272,712.592163 741.827881,710.422668 741.827881,708.257141 
	C741.828125,673.442261 741.829407,638.627319 741.826721,603.812439 
	C741.826172,597.175232 741.818726,597.175964 735.405701,597.129761 
	C734.406433,597.122559 733.308044,597.361023 732.435547,597.022217 
	C731.529480,596.670410 730.105408,595.594177 730.209290,595.119934 
	C730.439453,594.069824 731.477417,593.192261 732.211365,592.264526 
	C732.281982,592.175171 732.530518,592.214417 732.696533,592.214355 
	C750.186646,592.208191 767.677124,592.161438 785.165894,592.312500 
	C786.143188,592.320984 787.106384,593.963135 788.076111,594.844849 
	C787.035156,595.603577 786.012756,596.390381 784.938721,597.098938 
	C784.705444,597.252808 784.286682,597.118713 783.953857,597.129517 
	C776.770691,597.361572 776.768372,597.361877 776.767700,604.420776 
	C776.766357,618.413391 776.885315,632.407654 776.689880,646.397522 
	C776.637756,650.132080 777.761353,651.263916 781.502319,651.198669 
	C793.825378,650.983521 806.154541,651.126709 818.481323,651.102844 
	C819.761536,651.100342 821.041321,650.901123 822.792664,650.753418 
	C822.792664,640.208130 822.792542,629.921875 822.792664,619.635559 
	C822.792786,613.638733 822.612610,607.634338 822.862610,601.647949 
	C823.009094,598.140991 821.842468,597.026550 818.334839,596.994995 
	C815.912903,596.973328 811.380066,595.530334 811.418945,594.977539 
	C811.763489,590.074402 815.890198,592.317810 818.360352,592.279785 
	C833.182312,592.051697 848.009583,592.165710 862.835083,592.168762 
	C864.000732,592.168945 865.329834,591.849304 866.289490,592.301331 
	C867.412170,592.830017 868.212830,594.042419 869.153198,594.958252 
	C868.230530,595.675598 867.395874,596.813110 866.368042,597.028381 
	C863.689270,597.589539 859.570801,596.798950 858.524902,598.294556 
	C857.082825,600.356873 857.823669,604.023438 857.821411,607.002869 
	C857.795044,642.150940 857.802673,677.299011 857.806335,712.447083 
	C857.807007,718.837280 857.817322,718.837280 864.916138,718.861694 
z"/>
<path fill="#AAD819" opacity="1.000000" stroke="none" 
	d="
M973.482239,722.680908 
	C953.291260,729.509094 934.158569,727.211609 915.526062,718.340454 
	C912.676453,716.983765 909.833801,715.503784 906.831787,714.598938 
	C900.939087,712.822876 897.428101,714.841919 895.144836,720.603882 
	C894.761719,721.570862 893.596313,722.227844 892.792419,723.028076 
	C892.124817,721.944641 890.884399,720.865723 890.875793,719.777039 
	C890.749939,703.950806 890.748291,688.122986 890.875977,672.296814 
	C890.884949,671.185547 892.141541,670.084351 892.817993,668.978394 
	C893.586914,670.153931 894.917358,671.272705 895.042664,672.513245 
	C897.936523,701.160339 922.020935,722.791260 950.098633,721.822876 
	C962.482727,721.395813 970.865540,712.513977 970.031555,700.449890 
	C969.468689,692.308899 963.857300,687.694336 957.340515,684.366150 
	C947.415710,679.297424 937.114685,674.968445 927.154907,669.964233 
	C920.332031,666.536072 913.398560,663.073914 907.240112,658.623047 
	C884.745911,642.365479 893.910767,609.476379 910.883667,597.996094 
	C920.790955,591.294861 931.625122,588.802490 943.172363,590.612915 
	C952.804016,592.123108 962.294861,594.651245 971.756775,597.083618 
	C978.488098,598.814026 979.318115,598.596191 981.830078,592.326538 
	C982.195618,591.414124 983.524109,590.887512 984.407043,590.182373 
	C984.977844,591.026428 986.038452,591.866211 986.045776,592.715088 
	C986.153320,605.209290 986.164246,617.705200 986.028625,630.198792 
	C986.019104,631.077454 984.682373,631.941589 983.962769,632.812500 
	C983.235596,631.942749 981.921631,631.108215 981.867004,630.198181 
	C980.507812,607.548157 958.551758,593.025330 934.338867,594.995056 
	C927.581299,595.544861 921.595093,600.357239 919.694641,606.815369 
	C917.588440,613.972290 919.625183,621.768250 925.563782,625.464478 
	C931.888428,629.401001 938.667297,632.646973 945.397705,635.882812 
	C955.293274,640.640442 965.553101,644.686768 975.232727,649.835022 
	C986.308655,655.725769 994.791443,664.081116 997.147705,677.277039 
	C1000.534180,696.243164 991.327637,714.324280 973.482239,722.680908 
z"/>
<path fill="#AAD818" opacity="1.000000" stroke="none" 
	d="
M106.000107,723.131836 
	C99.670898,723.131897 93.837196,723.251648 88.015961,723.035645 
	C86.781281,722.989868 85.592079,721.718628 84.381927,721.011963 
	C85.478050,720.294067 86.521164,719.059753 87.678787,718.940918 
	C96.135811,718.072693 96.143250,718.143372 96.143242,709.619629 
	C96.143234,674.144470 96.059082,638.668823 96.244057,603.194641 
	C96.268555,598.496948 95.134354,596.313049 90.215225,597.115845 
	C89.242958,597.274536 88.105942,597.403503 87.250580,597.049438 
	C86.198349,596.613708 85.361740,595.657227 84.431931,594.925842 
	C85.265549,594.042297 85.964149,592.915222 86.976494,592.354187 
	C87.754402,591.922974 88.927391,592.175293 89.924767,592.174011 
	C107.911980,592.150696 125.934982,591.447083 143.872757,592.380249 
	C154.342926,592.924927 165.075729,594.932190 174.978363,598.346436 
	C189.782043,603.450562 198.186600,614.841370 199.065887,630.727356 
	C200.479645,656.270081 188.676086,671.264587 163.336380,675.793945 
	C154.390274,677.392944 145.170135,677.710571 136.055634,678.000488 
	C132.020737,678.128784 130.952209,679.273132 131.045273,683.160400 
	C131.288376,693.314148 131.260437,703.480286 131.057510,713.635742 
	C130.982285,717.400452 131.880768,719.100342 136.042908,719.007446 
	C138.313446,718.956909 142.055984,716.809509 142.590118,721.320618 
	C142.630112,721.658508 138.295441,723.000183 135.977646,723.047058 
	C126.155235,723.245789 116.326492,723.131531 106.000107,723.131836 
M131.119949,610.518677 
	C131.119949,631.264404 131.119949,652.010132 131.119949,672.897583 
	C134.595459,672.897583 137.259995,673.071228 139.895493,672.868042 
	C152.299866,671.911865 160.019409,665.413940 162.678268,653.397949 
	C165.302139,641.539978 165.219574,629.578064 162.575150,617.752930 
	C159.932114,605.933960 153.126419,599.614136 142.157089,598.003235 
	C131.118332,596.382202 131.118347,596.382141 131.120148,607.529114 
	C131.120255,608.195618 131.120132,608.862061 131.119949,610.518677 
z"/>
<path fill="#C6C8C0" opacity="1.000000" stroke="none" 
	d="
M131.120026,610.023621 
	C131.120132,608.862061 131.120255,608.195618 131.120148,607.529114 
	C131.118347,596.382141 131.118332,596.382202 142.157089,598.003235 
	C153.126419,599.614136 159.932114,605.933960 162.575150,617.752930 
	C165.219574,629.578064 165.302139,641.539978 162.678268,653.397949 
	C160.019409,665.413940 152.299866,671.911865 139.895493,672.868042 
	C137.259995,673.071228 134.595459,672.897583 131.119949,672.897583 
	C131.119949,652.010132 131.119949,631.264404 131.120026,610.023621 
M135.982834,623.500183 
	C135.983475,636.804321 135.908798,650.109436 136.086761,663.411194 
	C136.107407,664.952820 137.267456,667.566772 138.346115,667.826294 
	C144.317902,669.263123 153.742416,663.951599 155.870377,658.016968 
	C160.853622,644.119324 160.215958,629.969910 156.802902,615.903198 
	C154.828506,607.765869 148.525620,604.327515 140.785645,603.000732 
	C137.596695,602.454163 135.724792,603.154053 135.920578,607.037537 
	C136.179794,612.179749 135.983398,617.345032 135.982834,623.500183 
z"/>
<path fill="#FEFEFE" opacity="1.000000" stroke="none" 
	d="
M135.982819,623.000244 
	C135.983398,617.345032 136.179794,612.179749 135.920578,607.037537 
	C135.724792,603.154053 137.596695,602.454163 140.785645,603.000732 
	C148.525620,604.327515 154.828506,607.765869 156.802902,615.903198 
	C160.215958,629.969910 160.853622,644.119324 155.870377,658.016968 
	C153.742416,663.951599 144.317902,669.263123 138.346115,667.826294 
	C137.267456,667.566772 136.107407,664.952820 136.086761,663.411194 
	C135.908798,650.109436 135.983475,636.804321 135.982819,623.000244 
z"/>
</svg>