<svg version="1.1" id="Layer_1" xmlns="http://www.w3.org/2000/svg" xmlns:xlink="http://www.w3.org/1999/xlink" x="0px" y="0px"
	 width="100%" viewBox="0 0 1024 1024" enable-background="new 0 0 1024 1024" xml:space="preserve">
<path fill="#000000" opacity="1.000000" stroke="none" 
	d="
M874.382690,461.180847 
	C880.767334,513.521484 874.145447,563.584167 852.045410,611.189148 
	C836.793213,644.043335 811.608154,667.350098 779.723511,683.817078 
	C779.158081,684.109192 778.619324,684.452820 778.005676,684.808533 
	C778.785767,686.620361 780.486084,687.145996 781.740601,688.118591 
	C793.692749,697.384949 793.013123,711.856201 780.175049,719.994202 
	C775.216553,723.137268 769.689453,725.066528 764.286804,727.249939 
	C759.186707,729.311157 754.076050,731.353455 749.433655,734.356628 
	C743.671082,738.084412 740.360962,743.086609 741.396423,750.265442 
	C741.467651,750.759216 741.801758,751.463989 741.591064,751.713074 
	C736.430542,757.813110 741.658081,763.900208 741.820801,769.935852 
	C742.041138,778.111145 742.420776,786.219482 741.127808,794.325439 
	C740.205383,800.108643 737.183167,804.061279 731.421021,805.797852 
	C716.413513,810.320801 701.173584,809.911743 685.871765,807.981018 
	C683.075256,807.628174 682.295837,805.992188 683.627747,803.344421 
	C684.736328,801.140564 686.100403,798.989685 686.129639,796.401001 
	C685.408813,795.049561 684.107361,795.315369 683.010681,795.310852 
	C678.953430,795.294312 675.056335,794.374268 671.285828,793.057983 
	C668.353638,792.034363 664.221558,791.606934 663.379883,788.496399 
	C662.455322,785.079102 666.827515,784.196777 668.921143,782.341614 
	C677.789917,774.483215 683.754822,764.406006 690.414185,754.852234 
	C690.696716,754.446899 691.209473,753.848633 691.088196,753.567078 
	C688.349243,747.207031 694.201111,744.827087 697.064392,741.424438 
	C705.309326,731.626160 714.848694,723.144653 725.598206,715.807495 
	C713.136597,715.406555 701.010925,713.910339 688.961304,711.553894 
	C679.927368,709.787170 671.137512,707.293030 662.676880,703.723999 
	C660.055176,702.618103 657.694885,702.341309 654.998596,703.248230 
	C652.483398,704.094116 649.860168,704.966553 647.246399,705.104309 
	C640.349304,705.467773 636.893188,708.992798 635.543640,715.647278 
	C634.187500,722.334656 632.466492,728.932678 632.136169,735.792297 
	C631.959717,739.456360 633.171875,743.531677 628.551697,745.828796 
	C627.075378,746.562805 628.170044,748.648743 628.486694,750.022156 
	C630.707031,759.652649 631.377869,769.409973 631.339233,779.264832 
	C631.326111,782.608948 630.067871,784.380432 626.859375,785.448425 
	C612.462158,790.240723 598.060120,790.081116 583.643005,785.782776 
	C576.506531,783.655029 576.446838,783.295593 580.125488,777.310547 
	C578.833984,775.553772 576.766052,776.315063 575.101685,775.902954 
	C571.208496,774.939026 567.357300,773.935181 563.774780,772.076477 
	C556.541321,768.323730 556.385620,766.967957 562.663208,762.072571 
	C569.508118,756.734741 575.886902,750.881226 581.887268,744.616211 
	C583.784363,742.635498 586.255737,741.002502 585.065247,737.431702 
	C584.553345,735.896118 586.464172,734.940247 587.502502,733.918335 
	C593.204590,728.307495 598.947876,722.735962 603.886353,716.414185 
	C604.977783,715.017090 605.938721,713.518066 607.325684,711.545532 
	C555.004089,714.628540 503.538910,715.185974 451.781189,705.837646 
	C452.476318,715.928345 454.737976,725.410400 457.626953,734.732056 
	C459.496918,740.765625 461.695374,746.720642 464.146393,752.542480 
	C465.684601,756.196167 465.044861,758.757996 461.602051,760.397461 
	C458.837036,761.714111 458.805145,763.450928 459.603760,766.055664 
	C463.583130,779.034668 465.163788,792.385498 465.196686,805.921448 
	C465.220093,815.553406 463.438843,817.920654 453.912048,819.900330 
	C438.219727,823.161133 422.410950,822.190369 406.635010,820.470276 
	C403.419250,820.119629 399.928101,820.457275 396.998901,817.846741 
	C397.939240,813.748230 401.562469,811.010925 402.785645,806.665894 
	C395.842438,805.854309 388.890442,805.690857 381.347778,802.217346 
	C396.195312,790.173950 408.058594,776.692688 418.851257,761.664124 
	C413.578400,759.023987 414.542938,755.299011 415.873871,750.983887 
	C420.616058,735.608948 419.842285,719.737366 419.474579,703.935242 
	C419.416077,701.422974 418.357422,699.487244 415.446381,699.050537 
	C412.357208,698.587158 409.481110,696.989746 405.922791,697.147644 
	C402.740479,704.900513 401.770813,713.172668 400.409546,721.320190 
	C399.643402,725.905579 399.444000,730.589233 399.069458,735.235107 
	C398.855164,737.893433 399.034607,740.503418 395.731659,741.765320 
	C393.622528,742.571106 394.289185,744.932068 394.283691,746.681641 
	C394.250214,757.367920 392.849701,767.913879 391.263489,778.452026 
	C390.689697,782.264038 388.876129,784.379395 384.872833,784.774719 
	C368.070557,786.433960 351.622681,784.590881 335.438141,780.007568 
	C331.684479,778.944519 331.553772,777.028320 334.171326,774.331299 
	C336.089294,772.354980 338.497437,770.664062 339.297028,767.285095 
	C332.680817,764.463196 325.122253,763.467773 319.942566,758.024780 
	C320.643005,755.288269 322.906647,755.026062 324.590546,754.210876 
	C334.202850,749.556824 343.569702,744.497498 352.277863,738.275574 
	C354.360870,736.787292 356.545380,735.543884 355.001007,732.306030 
	C354.131165,730.482361 355.594971,729.245422 356.769104,728.018311 
	C367.350922,716.958801 372.864563,703.340881 376.685242,688.822327 
	C377.585785,685.400391 375.900726,684.120178 373.289581,682.739990 
	C354.944641,673.043274 337.884857,661.445679 322.506744,647.489990 
	C304.346313,631.009338 289.980774,611.376892 276.607605,591.009155 
	C273.206055,585.828430 269.195892,582.803833 263.102844,581.166870 
	C240.602905,575.122314 218.302429,568.339417 195.841293,562.144714 
	C183.973877,558.871765 171.938309,556.203552 159.956635,553.354919 
	C157.928650,552.872803 155.941483,552.316284 153.734482,553.647705 
	C133.419159,565.903137 114.960350,560.213562 97.783447,547.032898 
	C82.060181,534.967651 74.060501,517.905823 70.263725,499.053986 
	C64.804451,471.947510 64.354446,444.802124 73.643677,418.241486 
	C79.634384,401.112274 89.614990,386.768524 104.849159,376.574524 
	C124.885315,363.167267 148.582550,366.906342 163.871048,385.583527 
	C169.521042,392.485809 173.575607,400.304810 177.197098,408.384003 
	C178.085327,410.365540 178.711548,412.473633 181.736557,411.909546 
	C189.131256,410.530701 195.089111,413.853485 199.348389,419.190369 
	C204.116455,425.164886 209.655090,423.505951 215.412994,422.590149 
	C216.708771,422.384094 218.021591,421.598724 219.245590,421.747314 
	C224.396805,422.372437 227.220551,419.412079 229.734146,415.592041 
	C231.949829,412.224762 232.046921,409.566772 228.948486,406.371216 
	C217.938156,395.015625 222.890656,374.911896 235.783859,370.805603 
	C240.614487,369.267151 237.056671,365.859589 237.659363,363.443909 
	C235.380844,362.115997 234.426315,365.414337 232.228241,364.290314 
	C232.031387,358.979401 239.784439,357.155853 238.384460,350.932068 
	C234.374207,351.143707 232.285324,354.168427 229.942123,356.464233 
	C226.252838,360.078979 223.180695,364.243561 220.442734,368.654541 
	C216.014359,375.788879 209.941879,381.134674 202.216110,384.438477 
	C189.877594,389.714813 177.191544,384.778015 171.898621,372.539673 
	C168.305786,364.232300 168.652267,355.663940 171.158493,347.121033 
	C171.518326,345.894440 171.944794,344.519806 173.615997,344.196930 
	C175.560043,345.013794 175.506012,347.158142 176.384689,348.674011 
	C181.430710,357.378998 190.799072,357.941132 196.644699,349.789703 
	C199.103928,346.360413 200.351913,342.349091 201.730789,338.428253 
	C207.945099,320.757996 211.592239,302.535095 213.794159,283.953094 
	C214.679214,276.484344 217.004028,269.336884 221.747482,263.198547 
	C227.915802,255.216370 234.317505,254.755142 241.492630,261.892273 
	C245.599854,265.977753 248.083374,271.039062 250.298096,276.290588 
	C250.992981,277.938293 251.080826,279.915161 252.609039,281.130371 
	C252.988907,281.193787 253.381714,281.395599 253.618607,281.279449 
	C272.301819,272.119080 291.755402,273.627869 311.332092,277.143829 
	C322.467712,279.143738 333.577026,281.289917 344.697479,283.373993 
	C346.490295,283.709991 348.274689,283.997772 350.445801,283.000732 
	C346.748688,268.036133 349.628601,253.587830 353.757263,239.259125 
	C355.574554,232.952042 358.213959,227.044617 362.804382,222.203064 
	C369.164154,215.495346 375.740631,214.270798 384.009369,218.287811 
	C390.297211,221.342468 395.149750,226.134338 399.475128,231.484451 
	C406.348969,239.986740 411.372650,249.542435 415.285858,259.714600 
	C415.937378,261.408203 416.696808,263.060303 417.440643,264.812286 
	C420.109406,264.171387 421.432983,262.094086 423.148987,260.653564 
	C442.177765,244.679657 464.117249,234.026581 487.174164,225.374863 
	C522.413513,212.151855 558.750061,204.376312 596.465942,204.163025 
	C661.295349,203.796371 718.146545,225.302811 767.628845,267.024048 
	C817.371887,308.965057 851.692505,360.665375 867.858521,423.977600 
	C868.828796,427.777374 870.033813,429.965942 874.566772,430.263245 
	C881.506348,430.718475 887.080994,434.529327 891.636353,439.704529 
	C895.709167,444.331390 899.600708,449.120148 903.735901,453.689331 
	C916.722168,468.038361 931.604309,464.729401 937.664856,446.312622 
	C940.337708,438.190521 940.483276,429.896118 939.602295,421.594696 
	C938.701721,413.108582 932.984619,409.341675 924.836914,411.246429 
	C918.175720,412.803619 913.565491,421.052856 915.460876,427.729004 
	C916.677856,432.015564 920.855042,431.429779 923.750977,432.814270 
	C921.819092,439.150818 913.524048,441.656372 907.234985,437.983185 
	C902.710876,435.340790 900.521606,431.076965 899.793457,426.113464 
	C897.109802,407.820557 907.864990,394.841675 926.395813,393.848053 
	C943.900391,392.909454 956.961304,404.425171 959.015137,423.913757 
	C960.602478,438.975067 958.923889,453.902405 952.228149,467.811493 
	C944.149109,484.594116 930.370850,491.968414 912.417725,489.404724 
	C904.553528,488.281738 898.392761,484.210419 893.696045,478.027740 
	C890.581299,473.927490 888.004150,469.421570 885.126099,465.137695 
	C883.357788,462.505737 881.499817,459.915100 878.652893,458.304840 
	C875.883667,456.738525 874.168579,457.121490 874.382690,461.180847 
M205.482147,556.903992 
	C224.960403,562.314148 244.438660,567.724243 263.935394,573.139526 
	C264.391693,571.024231 262.343475,569.639404 263.761658,567.703735 
	C266.880157,569.239807 268.705078,572.076477 270.764130,574.572571 
	C282.320801,588.582458 293.890869,602.583130 305.281219,616.728027 
	C333.494781,651.764526 369.603210,674.691040 412.646210,687.045410 
	C414.138733,687.473755 415.595245,688.762756 417.755066,687.382935 
	C417.140991,680.944275 416.509064,674.318115 415.776550,666.637817 
	C419.442169,668.978699 420.107269,671.825500 420.833313,674.393860 
	C427.674744,698.596497 429.752380,723.135742 424.842346,747.930664 
	C423.847717,752.953247 425.566101,754.301025 429.786194,754.620239 
	C436.276154,755.110962 442.771606,755.242676 449.263245,754.696472 
	C451.038330,754.547058 452.975128,754.620178 454.152679,752.734314 
	C454.095001,752.250854 454.113251,751.741089 453.966095,751.284607 
	C453.301910,749.224854 452.615906,747.171326 451.893036,745.131409 
	C445.586700,727.335388 442.268768,709.231995 444.454071,690.185608 
	C445.539185,680.727966 448.323395,671.617737 449.057404,662.113647 
	C449.535858,655.919006 447.074097,651.942871 441.835541,649.139954 
	C440.179016,648.253723 437.926941,648.015198 437.189331,645.728760 
	C438.529510,643.470398 440.463837,643.903625 442.458069,644.334106 
	C454.227814,646.874451 459.580963,655.520447 456.736450,667.476257 
	C455.118591,674.276367 453.337708,681.040894 451.874390,687.873718 
	C450.484589,694.363281 450.835144,694.714355 457.451019,696.215454 
	C458.423370,696.436157 459.414948,696.571289 460.395935,696.755005 
	C483.729156,701.124878 507.380646,702.066833 531.002991,702.686401 
	C562.663574,703.516907 594.294373,702.350952 625.775879,698.610535 
	C632.549927,697.805664 639.475464,697.273621 646.050781,694.415039 
	C645.504272,693.637939 645.365784,693.310120 645.121338,693.114990 
	C643.689941,691.972412 642.219727,690.878296 640.788269,689.735840 
	C625.929321,677.876770 615.971436,663.090820 612.549683,644.052551 
	C609.959351,629.640442 610.691711,615.398071 614.441711,601.454407 
	C624.689270,563.350342 644.494934,530.888672 673.365234,503.966217 
	C685.829102,492.343292 698.840881,481.446045 713.955017,473.356293 
	C717.082092,471.682495 720.211487,469.773651 724.175476,469.653168 
	C723.775269,472.035217 722.041992,472.549133 720.720459,473.428802 
	C706.115051,483.150452 692.463135,494.029999 680.152954,506.567047 
	C647.717529,539.600220 623.892151,577.048706 619.817871,624.552979 
	C618.682861,637.787109 620.773621,650.634460 627.624268,662.083191 
	C637.825195,679.130798 653.963806,689.103394 671.753906,696.569763 
	C688.397095,703.554688 706.040833,705.945068 723.933167,706.791687 
	C733.289246,707.234375 742.649475,707.587463 752.007874,707.981018 
	C752.223328,708.460999 752.438782,708.940979 752.654236,709.420959 
	C730.464783,715.289246 715.140747,730.229797 699.735962,747.090759 
	C709.768250,749.454712 718.439758,749.200012 727.190308,747.881470 
	C730.078247,747.446350 731.519836,746.100403 732.294922,743.326050 
	C733.879211,737.655334 737.457031,733.357605 742.179626,729.907471 
	C749.139099,724.823303 757.078979,721.826416 765.068237,718.903564 
	C770.104492,717.060913 774.976196,714.923035 778.674316,710.816956 
	C785.240723,703.526367 783.537781,695.386536 774.656677,691.385742 
	C771.977295,690.178711 769.275391,689.928528 766.373108,690.286438 
	C761.584717,690.876831 756.769409,691.562256 751.960815,691.598999 
	C745.606506,691.647583 739.092773,691.824524 733.319153,688.104309 
	C734.291016,685.985474 735.907104,686.085693 737.320435,685.974121 
	C742.660278,685.552368 747.881653,684.440247 753.018555,683.048157 
	C795.842712,671.443359 825.340271,643.767761 843.632507,604.487915 
	C871.710632,544.194275 874.182861,481.284698 857.623901,417.598022 
	C843.417480,362.959320 813.498779,317.507538 771.250122,280.470154 
	C716.230286,232.236984 653.016052,206.199417 578.559998,212.009918 
	C540.119019,215.009811 503.390106,224.347992 468.422394,240.535767 
	C452.489868,247.911484 437.507446,256.898224 423.966614,268.155670 
	C422.125214,269.686523 419.477570,270.895813 420.789276,274.146301 
	C424.848846,284.206238 428.705322,294.458740 436.845245,302.086578 
	C445.787140,310.465942 453.456268,319.801880 459.927643,330.186096 
	C461.504822,332.716949 463.451447,335.044678 465.416992,337.301331 
	C471.374512,344.141235 479.241608,345.712860 487.572571,341.944519 
	C489.006042,341.296143 490.231995,339.794403 492.187500,340.529510 
	C493.912476,342.539795 493.367889,344.967834 493.135620,347.194733 
	C490.875061,368.869385 470.272522,386.171814 448.645294,384.653168 
	C420.300995,382.662842 399.501068,366.382446 390.783722,339.401154 
	C387.093414,327.979187 383.587341,316.463623 375.487213,307.123199 
	C375.035706,306.602570 374.984680,305.917694 375.654938,305.154205 
	C378.513519,304.122314 380.589935,305.951508 382.561310,307.683563 
	C386.519409,311.161163 389.198486,315.568878 391.172394,320.404572 
	C393.878754,327.034698 396.299164,333.789856 399.218414,340.323273 
	C409.086304,362.408020 430.735077,375.913391 454.137604,374.799011 
	C467.958191,374.140869 482.576202,361.955139 484.890381,349.094635 
	C482.253143,349.188263 479.753601,350.021210 477.010071,349.608917 
	C466.980225,348.101624 460.730377,341.673431 455.809570,333.630157 
	C450.817169,325.469879 445.128387,317.939148 437.992432,311.537292 
	C429.385345,303.815521 423.333466,294.321198 418.948669,283.723511 
	C415.446228,275.258423 412.225891,266.675751 408.672363,258.232819 
	C403.650330,246.300827 397.395020,235.082932 387.189423,226.751053 
	C376.700256,218.187683 368.263367,220.213394 362.530243,232.443024 
	C358.830292,240.335556 356.748138,248.781555 355.412476,257.342896 
	C354.311676,264.398712 353.594482,271.521332 355.282227,278.687347 
	C356.087311,282.105682 357.019257,284.103821 361.202911,283.131805 
	C363.414856,282.617889 365.912231,281.397400 368.788605,282.899963 
	C367.522217,286.235748 364.683044,287.327850 361.959564,288.223785 
	C356.196289,290.119659 350.263092,290.670532 344.199921,289.861725 
	C327.034180,287.571991 310.426758,282.130188 293.098236,280.795105 
	C274.631409,279.372284 257.113037,281.399017 242.849655,294.958252 
	C242.295685,295.484863 241.606110,296.193451 240.452972,294.993286 
	C241.383575,291.634979 244.126144,289.428467 246.477036,286.960541 
	C247.754944,285.619049 249.172195,284.357025 248.342422,282.203583 
	C246.117935,276.430389 243.681671,270.738678 239.377090,266.168762 
	C234.259644,260.735901 230.310837,261.022980 225.921478,267.148865 
	C222.153763,272.407166 220.169647,278.527679 219.397690,284.806366 
	C217.360504,301.376068 213.754654,317.583160 209.255264,333.625824 
	C207.131241,341.199005 204.801071,348.680756 199.654663,354.852051 
	C193.142441,362.661102 185.079147,363.293549 177.414078,356.762482 
	C176.621460,356.087189 176.081070,354.688202 174.354568,355.563110 
	C174.354568,357.608673 174.100708,359.788391 174.395294,361.891296 
	C176.489029,376.837402 189.756622,382.934113 202.463318,374.870209 
	C205.879333,372.702362 208.790939,369.995453 211.265366,366.808563 
	C213.820007,363.518433 216.343964,360.204376 218.912155,356.924927 
	C222.541382,352.290619 226.695541,348.245392 231.955872,345.460571 
	C238.859833,341.805634 238.868591,341.799469 236.447937,334.202606 
	C235.588379,331.505005 234.591263,328.849518 233.788315,326.135925 
	C232.508972,321.812469 231.399033,317.419769 231.879868,312.869141 
	C232.157883,310.238129 232.235153,307.312256 235.976715,305.572632 
	C235.291534,321.626129 247.422836,334.115295 245.063522,350.076141 
	C250.845718,350.070129 256.275238,347.929413 259.941345,353.021637 
	C258.999695,355.386292 257.155151,354.983612 255.582901,355.314575 
	C252.821228,355.895935 250.069977,356.553589 247.354340,357.320831 
	C242.774429,358.614899 244.480026,362.784149 243.779572,365.743713 
	C243.046906,368.839355 245.819366,369.050446 247.851837,369.612122 
	C252.484634,370.892517 256.513123,373.109589 259.318146,377.119049 
	C264.433960,384.431641 265.114349,392.338501 261.410980,400.311615 
	C257.581390,408.556488 250.507095,412.019104 241.620193,412.234680 
	C239.725998,412.280579 237.355042,411.469116 236.268341,413.829559 
	C234.635406,417.376465 231.955246,420.039429 229.074921,422.561859 
	C238.508484,430.545898 241.059875,434.042358 241.448486,440.961426 
	C235.733597,432.540710 229.818832,426.316406 220.167831,426.135773 
	C223.884521,431.072662 228.024811,435.363251 230.665863,440.823944 
	C234.759705,449.288422 235.486481,453.520721 232.981659,457.666412 
	C228.926254,444.196411 224.203888,431.469910 208.098297,428.598602 
	C210.278107,436.269196 213.018082,443.543030 214.132339,451.285767 
	C215.992828,464.213989 215.698364,470.859924 212.410995,474.627563 
	C211.846527,468.776459 211.491379,463.383148 210.778061,458.037628 
	C208.983994,444.592804 205.364807,431.921417 194.905151,422.287476 
	C192.641754,420.202728 190.198883,418.547668 187.098068,418.151031 
	C182.963684,417.622192 181.778595,418.990173 183.155777,422.820648 
	C190.967438,444.548248 193.117523,466.890930 190.152512,489.708557 
	C187.676010,508.766846 180.983017,526.110901 168.367844,540.924377 
	C167.067337,542.451477 164.892776,543.620117 165.082397,546.497925 
	C178.287674,549.906738 191.486298,553.313843 205.482147,556.903992 
M176.179672,424.270355 
	C172.296280,410.282959 166.526947,397.302307 156.079620,386.846954 
	C143.706802,374.464691 128.735138,371.891479 113.053757,379.621155 
	C98.759903,386.666870 89.445053,398.443268 83.205673,412.675690 
	C71.613022,439.119293 71.110619,466.488373 76.992256,494.359009 
	C81.138306,514.005310 91.206139,529.756470 107.393959,541.478333 
	C114.654510,546.735779 122.880974,550.635742 132.042755,549.348938 
	C144.884125,547.545227 155.542160,541.273132 163.588715,530.906128 
	C177.636368,512.807495 182.055923,491.591339 182.302078,469.455322 
	C182.468430,454.494812 180.404099,439.584930 176.179672,424.270355 
M452.640350,769.948425 
	C451.810364,764.373413 448.645874,762.834900 443.154114,763.388550 
	C438.075684,763.900574 432.848511,763.384521 427.729828,762.882874 
	C424.629333,762.579041 422.665619,763.511047 421.141846,766.102173 
	C415.201050,776.204407 407.937775,785.264160 399.480072,793.376892 
	C398.560760,794.258667 397.256805,795.160156 397.936096,796.736145 
	C398.593811,798.261963 400.002228,798.734497 401.571411,798.973694 
	C405.665436,799.597778 408.037628,797.671326 409.866852,794.155945 
	C412.004303,790.048157 414.078094,785.708496 418.675781,783.352966 
	C419.980835,785.754700 418.657227,787.184204 418.106171,788.626770 
	C415.613922,795.151367 412.975128,801.620361 410.353790,808.095093 
	C409.414948,810.414062 409.065521,812.655945 412.443420,812.654724 
	C425.552246,812.650024 438.717438,814.024597 451.716187,810.952148 
	C455.465149,810.065979 456.870941,808.070435 456.900574,804.303650 
	C456.990112,792.923828 455.451782,781.770630 452.640350,769.948425 
M734.890686,781.348999 
	C735.068665,774.012329 734.728516,766.723633 732.779846,759.595947 
	C732.134888,757.237061 731.208130,754.960815 728.151917,755.424866 
	C718.697266,756.860535 709.266663,756.363586 699.836365,755.273315 
	C697.564392,755.010681 696.056396,755.883240 694.946899,757.862244 
	C690.379456,766.009094 685.085327,773.645020 678.915527,780.678955 
	C676.458435,783.480042 677.829956,785.314758 680.926514,785.956909 
	C690.982849,788.041931 691.968811,787.448364 695.677063,778.006165 
	C696.588440,775.685608 697.479858,773.352661 698.518372,771.088623 
	C699.041138,769.948914 699.541321,768.539673 701.391968,768.772400 
	C702.765198,770.556946 702.183289,772.530396 701.850220,774.439209 
	C700.701782,781.020996 698.679077,787.331726 695.963501,793.437622 
	C693.278259,799.475403 694.048157,800.496582 700.791992,800.738098 
	C707.304138,800.971313 713.763672,800.431030 720.178711,799.505188 
	C732.579834,797.715210 734.153076,795.871399 734.805115,783.289795 
	C734.822266,782.957581 734.835327,782.625122 734.890686,781.348999 
M876.308472,446.993652 
	C882.288940,448.820709 886.774353,452.761414 890.619629,457.449524 
	C893.784180,461.307648 896.684753,465.383759 899.667419,469.389282 
	C911.055298,484.682343 932.176086,484.966187 943.116699,469.170776 
	C953.580872,454.063354 957.572754,436.815247 953.344482,418.745026 
	C948.254211,396.990631 928.312378,394.277252 914.815491,401.131683 
	C906.136230,405.539490 902.322876,414.474457 904.452881,423.906830 
	C905.557068,428.796692 908.425598,431.617493 912.795654,432.019714 
	C912.242493,430.769745 911.609924,429.594055 911.188232,428.347046 
	C908.039185,419.034821 913.809021,407.716003 923.045288,405.017975 
	C933.303406,402.021454 942.429260,407.056793 944.749084,417.650085 
	C947.954834,432.289124 945.496704,446.280640 937.304932,458.780487 
	C929.398621,470.844788 915.056030,472.020538 904.657043,462.038300 
	C902.385071,459.857361 900.387634,457.380768 898.349426,454.968018 
	C894.057861,449.887878 890.407532,444.194611 885.041565,440.132019 
	C880.969482,437.049011 876.619629,434.273163 870.192139,435.851654 
	C872.501526,439.624756 869.477051,445.120605 876.308472,446.993652 
M585.125732,748.617493 
	C581.491089,752.274658 577.882141,755.957825 574.209290,759.576233 
	C572.721375,761.042175 572.190369,762.444031 573.433594,764.397949 
	C574.637085,766.289490 574.918884,769.232056 578.000061,768.917419 
	C582.886719,768.418396 587.987122,768.363892 590.184692,762.359009 
	C591.184021,759.628296 592.401306,756.497375 596.785461,755.406860 
	C594.879028,764.127441 591.712463,771.689270 587.990540,779.200439 
	C588.749878,779.665649 589.252625,780.164429 589.841248,780.306030 
	C600.048218,782.760193 610.247559,782.603638 620.445190,780.183655 
	C623.737671,779.402344 624.349976,776.824585 624.554749,774.102783 
	C625.131470,766.435791 624.604248,758.834229 623.158020,751.268677 
	C622.462585,747.630737 620.431824,746.371155 616.906372,746.314392 
	C611.076721,746.220581 605.116028,745.853271 599.678589,743.905457 
	C593.548706,741.709656 589.133667,742.777161 585.125732,748.617493 
M375.651581,741.154297 
	C374.514008,740.911438 373.289978,740.861084 372.252533,740.395203 
	C364.276367,736.813477 357.719543,738.178467 351.510406,744.683960 
	C347.919647,748.446228 342.852875,750.806213 338.425690,753.760254 
	C336.783691,754.855835 335.509033,756.250183 336.027618,758.273438 
	C336.503906,760.131653 338.462006,759.548584 339.826385,759.953979 
	C343.614716,761.079529 346.418884,759.813782 349.176941,757.077515 
	C351.950531,754.325989 354.140076,750.608521 359.125946,749.327271 
	C357.085205,756.222168 352.817200,760.967468 349.490387,766.229431 
	C345.779266,772.099182 347.013519,775.197571 353.978394,776.369690 
	C362.197815,777.752930 370.505676,778.081848 378.848816,777.784546 
	C382.417480,777.657349 384.163605,776.143616 384.974091,772.612366 
	C386.321991,766.739807 386.528229,760.764648 387.261658,754.837646 
	C388.659180,743.543762 387.747070,742.341614 375.651581,741.154297 
M397.091156,703.739319 
	C400.781128,692.049377 399.444153,694.061218 390.757690,690.903931 
	C390.132263,690.676575 389.477448,690.511475 388.882080,690.223022 
	C384.641113,688.167908 382.484711,689.910034 381.114807,694.043762 
	C379.180878,699.879395 377.014740,705.645813 374.735657,711.357117 
	C372.099365,717.963745 368.461029,724.077942 364.194000,730.316528 
	C372.434814,733.932312 380.382050,734.980225 388.597107,734.560730 
	C390.926575,734.441711 391.653656,733.014343 391.754364,730.905945 
	C392.186157,721.865601 394.583466,713.198853 397.091156,703.739319 
M627.630249,723.328003 
	C628.737122,718.757874 629.843994,714.187744 630.961304,709.574524 
	C621.395630,708.408997 613.152222,708.810364 608.749207,718.709961 
	C607.767944,720.916077 605.812622,722.709045 604.215698,724.616821 
	C601.390320,727.992188 598.495911,731.309692 595.580322,734.709778 
	C600.958008,738.007568 616.160339,740.444275 621.622498,739.306091 
	C624.162720,738.776672 625.237427,737.342957 625.609070,734.939514 
	C626.166321,731.336365 626.866150,727.755310 627.630249,723.328003 
M231.051941,381.763702 
	C228.511063,386.036926 228.499878,390.704132 229.469131,395.295532 
	C231.446976,404.664581 241.335815,408.706879 249.208969,403.484741 
	C244.021454,402.319763 239.626129,400.207001 238.766174,394.309204 
	C238.086166,389.645782 239.479782,385.655487 243.728043,383.245331 
	C248.634506,380.461731 253.093628,381.932953 257.404999,385.778107 
	C252.121384,373.443787 239.633759,371.428314 231.051941,381.763702 
M249.524918,390.215820 
	C250.336716,392.156006 251.689545,393.123322 253.798706,392.352722 
	C255.187866,391.845123 255.784485,390.729767 255.644699,389.230347 
	C255.503036,387.710815 254.628510,386.731232 253.206543,386.542236 
	C251.042053,386.254486 249.847275,387.459137 249.524918,390.215820 
z"/>
<path fill="#000000" opacity="1.000000" stroke="none" 
	d="
M593.217407,495.026062 
	C591.895264,505.865082 590.328064,516.234314 589.430481,526.661194 
	C588.995117,531.718933 586.658569,533.858337 582.005005,534.166382 
	C576.620117,534.522888 573.756653,532.405273 572.995789,527.119873 
	C571.478577,516.581299 570.155518,506.014801 568.752869,495.459778 
	C565.181152,468.582764 561.582703,441.709290 558.071289,414.824432 
	C557.613281,411.317505 556.233398,408.573883 553.172180,406.470337 
	C549.911743,408.642181 548.556335,411.572632 548.159241,415.272888 
	C545.299866,441.915588 542.333496,468.546783 539.440125,495.185883 
	C538.309143,505.598541 537.263367,516.020630 536.208618,526.441345 
	C535.647583,531.984558 533.682190,533.977112 528.422424,534.203125 
	C522.982056,534.436829 520.294189,532.468811 519.475403,527.045288 
	C517.438171,513.551025 515.586914,500.028687 513.649536,486.519257 
	C513.394104,484.738098 513.071838,482.966461 512.616577,480.190948 
	C510.728210,496.714966 508.886719,512.190369 507.233154,527.685852 
	C506.735535,532.348938 503.894867,533.868286 499.840759,534.160706 
	C494.802582,534.524109 491.661133,532.600952 490.974792,528.152344 
	C489.427887,518.125610 488.135742,508.058441 486.825500,497.996582 
	C483.261932,470.630493 479.687103,443.265564 476.266388,415.881500 
	C475.757507,411.807678 473.730133,408.820282 471.296844,405.799011 
	C469.474274,403.535950 466.962311,401.202057 468.681702,397.817474 
	C470.322601,394.587433 473.537079,394.709656 476.551941,394.709930 
	C511.032196,394.713013 545.512451,394.739532 579.992737,394.748871 
	C596.816345,394.753418 613.640015,394.705750 630.463501,394.756531 
	C633.209412,394.764832 636.511963,394.136169 637.928650,397.411133 
	C639.400330,400.813263 637.679749,403.569214 635.132996,405.778656 
	C628.866394,411.215302 630.205017,418.923126 629.359436,425.822327 
	C626.628540,448.103851 624.287781,470.433289 621.818298,492.746674 
	C620.611633,503.649567 619.403137,514.552673 618.290894,525.465454 
	C617.626770,531.981201 615.877136,534.009216 610.370850,534.170166 
	C604.786377,534.333374 602.528320,532.404236 601.588806,526.287476 
	C599.425781,512.205383 597.357666,498.108673 594.602783,483.997528 
	C594.151123,487.525024 593.699463,491.052521 593.217407,495.026062 
M625.992554,412.961761 
	C626.028687,407.436890 631.782410,404.821198 633.366272,399.847839 
	C625.695557,399.847839 618.687256,399.847839 611.670959,399.847839 
	C611.714600,402.342102 613.235168,403.324585 614.391296,404.421936 
	C616.793762,406.702209 617.440247,409.378967 617.083435,412.581116 
	C615.352844,428.111847 613.818237,443.665436 611.945862,459.178558 
	C611.549072,462.465210 611.966248,466.030823 610.197876,469.355988 
	C607.933899,467.811523 608.136292,465.690247 607.878723,463.825348 
	C606.173523,451.481049 604.418823,439.141876 602.899902,426.774109 
	C601.768616,417.562592 597.998840,407.892548 607.002686,399.668823 
	C599.471191,399.668823 592.311890,399.668823 585.162415,399.668823 
	C584.888062,401.885803 586.348022,402.757904 587.403687,403.634247 
	C591.043640,406.656036 592.087646,410.293121 590.742920,414.789154 
	C590.369263,416.038513 590.461548,417.424622 590.317200,418.745514 
	C588.584290,434.605377 586.851257,450.465210 585.101135,466.323181 
	C584.993286,467.300507 584.897217,468.350220 583.535645,468.835632 
	C582.272583,468.183197 582.069153,466.884766 581.912292,465.588013 
	C580.175049,451.232452 578.533752,436.864594 576.682678,422.523804 
	C575.687561,414.814331 573.847961,407.076782 580.061218,400.511749 
	C580.117859,400.451843 579.990234,400.217560 579.852356,399.710938 
	C571.960938,399.710938 563.975769,399.710938 555.872437,399.710938 
	C555.724609,401.830627 556.735229,403.018280 557.762817,404.012421 
	C561.911255,408.025818 562.703125,413.243256 563.317200,418.587921 
	C564.075439,425.187256 564.908264,431.778625 565.772278,438.365082 
	C568.279114,457.473846 570.821411,476.578003 573.342102,495.684937 
	C574.667786,505.733582 575.997559,515.781738 577.279114,525.836060 
	C577.564209,528.072205 578.301086,529.603149 580.923279,529.654114 
	C583.399231,529.702209 584.627747,528.648743 584.852539,526.206116 
	C584.974182,524.884155 585.363647,523.588013 585.506470,522.266663 
	C587.631104,502.610626 589.576721,482.933075 591.962769,463.309021 
	C592.506531,458.837006 591.798828,453.902222 594.335388,449.671082 
	C595.868958,450.359558 595.977844,451.216827 596.085083,452.027649 
	C598.157593,467.695282 600.184448,483.368988 602.290710,499.032074 
	C603.507446,508.080658 604.913513,517.104004 606.096558,526.156738 
	C606.508179,529.306152 608.327820,530.025818 610.984558,529.528625 
	C613.922607,528.978821 613.555237,526.438538 613.780457,524.362671 
	C615.198242,511.295197 616.547058,498.220245 617.981995,485.154663 
	C620.594177,461.369690 623.250427,437.589539 625.992554,412.961761 
M493.077606,399.289490 
	C486.671967,399.289490 480.266327,399.289490 474.073395,399.289490 
	C473.558594,401.757446 474.504425,402.819641 475.427979,403.700623 
	C479.146179,407.247253 480.513885,411.768127 481.110504,416.660187 
	C481.835205,422.602264 482.553802,428.545380 483.329926,434.480865 
	C487.276825,464.665344 491.256287,494.845581 495.171997,525.034058 
	C495.488861,527.477051 495.554779,529.668640 498.956421,529.685242 
	C502.689972,529.703491 502.622528,527.201111 502.904144,524.637817 
	C505.501892,500.992065 508.134277,477.350128 510.784576,453.710205 
	C510.988251,451.893372 511.186646,450.011230 513.152100,447.654388 
	C515.623108,465.428192 517.974426,482.187378 520.275024,498.953522 
	C521.472412,507.679443 522.572754,516.418640 523.733032,525.149658 
	C524.129028,528.130005 525.243042,530.383362 528.867432,529.501587 
	C531.625244,528.830750 531.518555,526.454346 531.757324,524.304443 
	C533.281067,510.584442 534.860046,496.870361 536.337463,483.145355 
	C538.187988,465.954926 539.703308,448.723877 541.856873,431.572296 
	C543.190979,420.947205 541.549561,409.261108 550.989319,400.980072 
	C551.129517,400.857056 550.954102,400.374359 550.910461,399.886200 
	C543.666260,399.886200 536.433105,399.886200 529.015625,399.886200 
	C529.651428,402.430939 531.256897,403.509857 532.544434,404.724060 
	C534.828308,406.877899 535.505493,409.353302 535.140564,412.392517 
	C533.415405,426.760223 531.921021,441.157532 530.015442,455.500610 
	C529.380493,460.280121 530.045105,465.363525 527.238708,470.647095 
	C526.689514,468.464355 526.197021,467.069916 525.999573,465.634949 
	C523.935303,450.629517 522.066101,435.595490 519.824219,420.617035 
	C518.742920,413.392792 517.625244,406.410828 524.102661,400.926971 
	C524.227905,400.820953 524.022461,400.324310 523.933105,399.775146 
	C516.978271,399.775146 510.006989,399.775146 502.875183,399.775146 
	C503.482117,402.595703 505.489319,403.737915 506.921326,405.283264 
	C508.769562,407.277740 509.345520,409.502594 509.046265,412.163757 
	C507.355377,427.199310 505.893890,442.263245 503.970917,457.268372 
	C503.478882,461.107513 504.124786,465.350464 501.896271,469.410522 
	C500.261963,467.897430 500.056915,466.618073 499.890930,465.287079 
	C498.184021,451.598999 496.292633,437.931274 494.804199,424.219696 
	C493.937439,416.234711 490.409760,407.725769 497.960968,400.796417 
	C498.081940,400.685425 497.860138,400.200928 497.796509,399.881592 
	C496.607239,399.004913 495.226624,399.449066 493.077606,399.289490 
M609.791260,432.595062 
	C610.586914,425.691162 611.331665,418.780823 612.203491,411.886566 
	C612.544434,409.190613 611.789001,406.798401 609.041260,406.752563 
	C606.398499,406.708527 605.033875,409.195129 605.409424,411.731140 
	C606.549683,419.430267 607.161194,427.237030 609.522766,435.849609 
	C609.680969,434.220093 609.728516,433.730530 609.791260,432.595062 
M528.756409,423.473938 
	C529.131958,419.681183 529.422607,415.877472 529.911011,412.099304 
	C530.275818,409.277618 529.745972,406.478699 526.616943,406.690552 
	C523.785950,406.882233 523.007935,409.774780 523.496826,412.518829 
	C524.816284,419.925018 525.256897,427.490906 527.436951,435.025360 
	C527.884949,431.272064 528.296692,427.822357 528.756409,423.473938 
M581.405273,424.105377 
	C582.014404,427.313721 582.623535,430.522064 583.499756,435.137604 
	C584.597229,426.374237 585.491943,419.107666 586.424500,411.845947 
	C586.782959,409.054779 585.390503,406.780975 582.954468,406.710693 
	C580.117126,406.628815 579.476562,409.264648 579.814758,411.849518 
	C580.311646,415.647156 580.826111,419.442474 581.405273,424.105377 
M500.053131,426.511902 
	C500.419861,428.921936 500.786591,431.331940 501.153320,433.741974 
	C502.397308,426.229431 503.207123,418.818817 504.024445,411.409058 
	C504.303680,408.877411 503.147308,406.637177 500.793427,406.728485 
	C498.134125,406.831604 497.231049,409.227814 497.689270,411.916077 
	C498.469666,416.494415 499.180969,421.084503 500.053131,426.511902 
z"/>
<path fill="#000000" opacity="1.000000" stroke="none" 
	d="
M302.462036,500.427979 
	C295.205444,490.798126 292.250275,471.688080 297.544250,465.325256 
	C302.958893,501.411957 323.464569,514.950989 358.623566,506.472473 
	C359.083496,509.392792 357.079468,510.534180 355.460083,511.754791 
	C350.969452,515.139587 345.826202,516.963074 340.271027,517.579102 
	C336.480164,517.999573 334.865936,519.720642 335.200226,523.767334 
	C335.595795,528.556824 335.265808,533.354431 334.256195,538.144409 
	C329.792908,559.320190 315.013519,566.160339 295.301605,563.890991 
	C283.726562,562.558411 273.474213,557.993896 265.918396,548.647644 
	C264.263794,546.600952 262.418274,546.684204 260.133148,547.129028 
	C250.281403,549.047058 240.558350,548.183044 231.053116,545.144531 
	C227.884460,544.131653 224.355667,543.343750 222.230362,538.945251 
	C226.490662,539.770996 229.966415,540.715515 233.502365,541.086853 
	C260.144196,543.884583 283.741699,537.600525 302.309052,517.229858 
	C309.552338,509.283051 309.355072,509.103241 302.462036,500.427979 
M305.784271,541.294495 
	C312.597290,533.779663 318.943634,525.990356 321.335236,515.897949 
	C314.790741,511.714874 314.848602,511.755066 311.028870,517.255127 
	C304.735718,526.316711 296.548126,533.222534 286.837646,538.421570 
	C281.723938,541.159485 276.287720,543.102844 270.740051,545.026062 
	C275.976410,552.029297 283.616241,554.478882 291.061249,551.739624 
	C296.673218,549.674744 300.951141,545.685913 305.784271,541.294495 
z"/>
<path fill="#000000" opacity="1.000000" stroke="none" 
	d="
M321.834778,409.480103 
	C321.034851,411.876831 320.365326,413.893433 319.417633,416.747803 
	C333.577240,414.671753 347.192871,412.658875 360.602386,418.024933 
	C359.420135,420.403809 357.775818,419.564667 356.411072,419.479645 
	C344.312286,418.726013 332.538788,420.676147 320.948303,423.869690 
	C311.979065,426.340973 305.265259,431.674622 301.269348,440.240082 
	C300.613586,441.645752 300.434631,443.544617 298.111176,444.038879 
	C295.818573,438.745850 299.573792,434.564270 300.778717,429.556061 
	C291.823181,430.683075 283.495270,429.606689 276.191223,424.073761 
	C262.942322,414.037537 260.042114,393.886902 270.009766,380.731903 
	C279.403107,368.334869 299.223114,365.928833 312.251099,375.604034 
	C321.349609,382.361023 325.286407,395.935730 321.834778,409.480103 
M293.376038,376.272278 
	C284.038910,376.339996 276.898285,380.171570 273.202179,388.944336 
	C269.354828,398.076202 271.062653,406.658081 277.542145,413.987579 
	C288.173035,426.013031 306.901123,423.445404 313.052063,409.318359 
	C320.166443,392.978546 311.932159,378.529816 293.376038,376.272278 
z"/>
<path fill="#000000" opacity="1.000000" stroke="none" 
	d="
M331.031433,379.125702 
	C328.422699,381.888458 327.957092,379.402252 327.287964,377.903992 
	C325.123535,373.057465 323.223724,368.087463 320.929657,363.305298 
	C316.366241,353.792511 309.359070,346.785950 299.321228,343.052032 
	C297.971649,342.550018 297.998260,342.478516 296.120300,340.271362 
	C296.996826,337.873230 299.131897,338.004150 301.086975,337.880432 
	C312.584381,337.152771 322.335571,342.912170 327.116150,353.468750 
	C330.750214,361.493561 331.975128,369.969391 331.031433,379.125702 
z"/>
<path fill="#000000" opacity="1.000000" stroke="none" 
	d="
M307.876770,578.345459 
	C316.733673,579.367920 324.974243,578.821106 332.575928,574.620483 
	C338.162628,571.533447 341.995361,566.793457 344.641632,561.025024 
	C345.298737,559.592712 345.205139,557.689331 347.780212,556.499146 
	C350.171600,562.244019 350.151794,567.716125 347.331787,573.076172 
	C340.172699,586.683655 314.617554,590.141785 303.509094,579.020325 
	C304.539368,577.259583 306.096130,578.210022 307.876770,578.345459 
z"/>
<path fill="#000000" opacity="1.000000" stroke="none" 
	d="
M132.833694,450.085938 
	C136.331131,440.209106 136.908646,439.353851 143.835709,433.546875 
	C141.098648,428.928070 140.193665,428.911011 131.064148,433.306000 
	C131.366028,427.106873 138.117966,423.195923 144.371780,425.624023 
	C149.411667,427.580750 152.361145,431.689301 154.279114,436.354675 
	C159.688858,449.513397 160.167389,462.946777 154.950394,476.261658 
	C151.571045,484.886475 145.675888,488.954529 139.469910,487.803040 
	C133.484924,486.692596 129.919434,480.531921 129.678177,471.120544 
	C129.496948,464.050751 130.883408,457.235016 132.833694,450.085938 
M152.198364,458.995178 
	C152.744629,454.469604 152.076935,450.034271 151.020264,445.665131 
	C150.534256,443.655487 150.466080,440.941559 147.801926,440.578278 
	C145.404068,440.251343 143.864456,442.272186 142.724167,444.068390 
	C136.657806,453.624146 134.879257,464.034943 136.944275,475.120789 
	C137.316360,477.118286 137.941315,479.103821 140.249969,479.675812 
	C142.560333,480.248260 144.038528,478.711823 145.342087,477.205048 
	C149.648193,472.227631 151.411484,466.232605 152.198364,458.995178 
z"/>
<path fill="#000000" opacity="1.000000" stroke="none" 
	d="
M88.808395,460.340393 
	C89.614380,455.286621 90.614182,450.763153 92.608452,446.496979 
	C94.585388,442.267822 97.725609,439.246277 101.918861,437.374878 
	C99.015137,430.453522 97.112892,430.569611 86.571030,438.052094 
	C85.200737,432.194916 91.663002,426.129456 98.102509,427.334290 
	C102.719826,428.198181 106.013794,431.019928 107.632957,435.303802 
	C112.449951,448.048279 113.672661,461.084625 109.965370,474.363220 
	C109.337379,476.612549 108.293007,478.705109 106.821259,480.553009 
	C101.944069,486.676483 93.848755,485.648376 90.871483,478.476318 
	C88.513695,472.796539 88.540955,466.801941 88.808395,460.340393 
M94.229210,462.787781 
	C94.044724,466.780243 93.708305,470.812622 95.609413,474.532166 
	C96.455055,476.186707 97.639496,477.700958 99.802155,477.538696 
	C101.641907,477.400726 102.706253,476.099823 103.572227,474.608093 
	C104.872612,472.367950 105.068993,469.804108 105.260605,467.370728 
	C105.863739,459.711304 106.876335,451.971771 103.887840,443.898224 
	C96.108780,448.029480 95.649139,455.206299 94.229210,462.787781 
z"/>
<path fill="#000000" opacity="1.000000" stroke="none" 
	d="
M303.840118,409.915161 
	C297.785706,413.959045 292.252808,414.404541 287.882538,411.143036 
	C283.455963,407.839478 281.068634,403.474365 282.167084,397.781525 
	C283.312195,391.846802 287.084167,388.275757 293.173157,387.125488 
	C297.981110,386.217224 303.700226,388.856201 306.378937,393.219086 
	C309.506287,398.312592 308.738068,403.911835 303.840118,409.915161 
M303.619232,395.054871 
	C302.381653,392.537872 300.475708,391.603485 297.941132,393.029846 
	C296.217133,394.000031 295.313751,395.625580 296.003113,397.669891 
	C296.642273,399.565247 297.965332,400.860992 300.080963,400.669769 
	C302.985779,400.407227 303.976196,398.499298 303.619232,395.054871 
z"/>
</svg>