<svg version="1.1" id="Layer_1" xmlns="http://www.w3.org/2000/svg" xmlns:xlink="http://www.w3.org/1999/xlink" x="0px" y="0px"
	 width="100%" viewBox="0 0 1024 1024" enable-background="new 0 0 1024 1024" xml:space="preserve">
<path fill="#000000" opacity="1.000000" stroke="none" 
	d="
M20.715008,748.999817 
	C21.000687,688.174988 27.036837,628.523254 41.897594,569.937378 
	C48.342533,544.529419 58.200520,520.637756 74.150154,499.536621 
	C80.505348,491.128784 88.646393,486.305878 99.160446,484.663208 
	C141.444946,478.056946 183.535446,470.510681 223.877808,455.557831 
	C231.800720,452.621155 239.647812,449.479858 247.004257,446.636108 
	C247.770691,444.736908 247.032028,443.933838 246.449539,443.169983 
	C237.458862,431.378876 228.194153,419.806488 218.948303,408.214691 
	C208.948395,395.677551 195.788315,390.262482 180.601425,388.343292 
	C174.664398,387.592987 168.686890,387.145325 162.719894,386.656494 
	C159.303268,386.376587 156.555191,385.195709 155.260391,381.788361 
	C153.993500,378.454498 155.030655,375.561462 157.209122,372.990356 
	C164.782242,364.052307 174.944275,359.695404 185.964798,356.974976 
	C194.120972,354.961609 202.400497,354.248932 210.752502,355.558167 
	C213.462509,355.982971 215.512665,354.978241 217.666763,353.495667 
	C251.296356,330.349823 286.723602,326.620880 324.025787,343.842194 
	C330.528564,346.844330 337.042542,349.831421 343.450592,353.027435 
	C352.608154,357.594757 361.634155,357.382111 370.857910,353.162506 
	C385.834808,346.310974 399.065613,336.843231 411.839539,326.599457 
	C448.915649,296.867157 475.714691,258.959259 498.490753,217.855377 
	C502.768341,210.135742 507.281097,202.457047 510.611542,194.319962 
	C518.343323,175.429214 533.339050,167.461456 552.348389,164.661011 
	C575.702209,161.220551 598.870789,163.636002 621.903015,167.151474 
	C685.293030,176.826797 744.993469,198.736938 803.726013,223.442551 
	C871.073730,251.772110 935.658813,285.729248 999.509644,321.117157 
	C1003.314758,323.226013 1006.134827,325.908783 1005.004150,330.628723 
	C1003.860107,335.404694 1000.170166,336.299988 995.754028,336.364563 
	C954.767883,336.963776 915.505920,328.111145 877.073547,314.777557 
	C872.517151,313.196747 868.546692,312.837860 863.730774,314.561096 
	C850.265381,319.379364 836.499390,317.846130 822.887939,314.696350 
	C810.353577,311.795837 798.316223,307.419220 786.671814,301.954773 
	C784.578796,300.972595 782.593262,299.764069 780.051880,300.772064 
	C762.966125,307.548828 746.024414,304.636902 729.171997,299.773285 
	C724.218750,298.343842 719.341614,296.601990 714.535034,294.732025 
	C711.883545,293.700531 710.388000,294.011444 708.933472,296.679626 
	C702.933838,307.685333 693.752380,314.608154 681.412598,317.119812 
	C679.643188,317.479950 678.319397,318.071198 677.443909,319.693665 
	C673.217651,327.526581 666.811035,333.424408 659.642456,338.325775 
	C636.663818,354.037231 615.516724,372.218658 592.409729,387.756989 
	C574.411865,399.859619 555.909302,411.061829 536.545532,420.836884 
	C534.959473,421.637573 533.069824,422.030029 531.822083,424.163330 
	C542.928589,430.549622 553.821411,437.196686 564.452209,444.271088 
	C578.597900,453.684570 592.296631,463.753143 606.751160,472.716949 
	C631.078003,487.803009 657.658508,497.309662 685.084045,504.756104 
	C697.611633,508.157562 710.196045,511.350464 722.761658,514.610962 
	C729.708618,516.413574 732.034607,519.353088 732.299011,526.611938 
	C733.513489,559.959290 718.054993,584.316833 691.182861,602.336609 
	C671.578735,615.482544 649.282654,621.643982 626.491150,626.253662 
	C618.849304,627.799194 611.105408,628.856506 603.389771,630.014526 
	C598.423950,630.759827 594.289307,628.695496 590.494263,625.739685 
	C577.751587,615.815186 567.583618,603.448242 557.823792,590.766479 
	C554.873413,586.932739 551.652954,585.566650 546.940063,585.173157 
	C518.503967,582.798584 490.637604,577.064758 463.003845,570.130127 
	C430.837982,562.058167 399.211761,552.246277 368.216644,540.440430 
	C365.236481,539.305298 362.496735,539.371948 359.489349,540.236084 
	C310.446625,554.328796 262.592163,571.692566 215.887421,592.236023 
	C211.465866,594.180908 207.068756,596.182007 202.634857,598.098145 
	C194.578400,601.579834 186.806503,604.817200 181.972534,613.357422 
	C178.294785,619.854858 171.601578,624.107300 164.116684,626.276245 
	C161.669266,626.985474 160.191437,628.258972 159.359039,630.780396 
	C156.301239,640.042725 150.436096,647.144348 141.793991,651.652954 
	C138.484192,653.379700 137.725677,655.621033 138.347626,658.933594 
	C139.646317,665.850525 139.662094,672.845703 139.289658,679.834045 
	C138.703232,690.838684 134.012909,699.643005 124.813721,705.876587 
	C122.832672,707.218933 121.263580,708.289185 121.594086,711.346375 
	C122.965347,724.030518 118.270897,734.307617 107.750809,741.416748 
	C103.785492,744.096436 101.957298,747.156433 101.037132,751.702820 
	C99.064629,761.448730 94.384254,769.818298 86.298744,775.920593 
	C84.305779,777.424744 83.986412,779.021973 84.006256,781.433838 
	C84.126129,796.002014 80.952713,809.523010 70.401558,820.396729 
	C69.054077,821.785339 68.431168,823.328430 68.181587,825.247681 
	C66.710266,836.561462 62.385128,846.736389 55.569439,855.854614 
	C51.814735,860.877686 47.020309,863.892578 40.518391,862.416016 
	C33.926212,860.918945 30.697382,856.531250 29.449409,849.858215 
	C23.244524,816.680359 20.054165,783.263794 20.715008,748.999817 
M654.452087,522.032715 
	C645.520386,517.912964 639.382751,509.433228 629.772949,506.313477 
	C626.599792,505.283325 624.137085,502.903137 621.406250,501.007385 
	C615.954041,497.222473 610.985596,492.744110 605.484924,489.163666 
	C594.034851,481.710632 582.648438,474.168762 571.411987,466.405640 
	C547.670227,450.002869 523.643494,434.044617 496.947632,422.763702 
	C478.215912,414.848206 459.561615,406.821167 441.740112,396.995300 
	C439.118500,395.549896 435.940216,394.630554 434.171356,391.207916 
	C439.148376,389.898010 443.307159,391.864746 447.531494,392.898621 
	C468.477722,398.024811 487.782562,407.857147 508.303314,414.247406 
	C512.150208,415.445312 515.128174,415.323761 518.691284,413.671082 
	C559.799194,394.604004 596.474548,368.699738 631.842529,340.739288 
	C633.975952,339.052704 634.533691,337.495483 633.971375,334.805389 
	C633.262207,331.412903 631.527405,327.807159 634.144470,324.035309 
	C636.877502,325.912964 639.416077,327.703552 642.003845,329.419983 
	C644.009155,330.750153 645.936279,330.729370 647.999329,329.256531 
	C652.895020,325.761505 657.539368,322.013000 661.690308,317.630432 
	C664.566711,314.593567 664.192993,312.021362 661.012268,309.703125 
	C657.649841,307.252441 654.109070,305.044769 650.769653,302.564728 
	C645.512390,298.660400 640.180298,294.810974 635.677307,289.421844 
	C638.413269,287.996735 640.390991,289.003723 642.391785,289.587646 
	C651.873779,292.354645 660.436035,297.320984 669.533447,301.024536 
	C680.292297,305.404541 688.965332,300.000458 694.092590,293.238159 
	C698.023193,288.054230 697.906860,285.396271 692.597900,281.509430 
	C686.828125,277.285278 680.630310,273.648529 674.665466,269.685822 
	C673.256836,268.750000 671.156738,268.300140 671.248291,265.972412 
	C672.563354,264.426971 674.053894,265.100372 675.455627,265.465149 
	C680.449463,266.764771 685.460938,268.010071 690.410339,269.464478 
	C704.345642,273.559418 717.347351,280.115631 730.994629,284.972961 
	C737.132690,287.157623 743.398987,288.833344 749.982422,288.869446 
	C751.761780,288.879211 754.007996,289.454865 754.848877,287.333832 
	C755.760742,285.033875 753.442078,284.276123 752.066528,283.216400 
	C751.015503,282.406738 749.835144,281.763641 748.704956,281.058319 
	C739.659973,275.413849 730.578247,269.826874 721.598022,264.081238 
	C719.904358,262.997589 717.647217,262.172516 717.308044,259.667694 
	C718.809753,258.231506 720.219604,259.237518 721.543091,259.680450 
	C742.867126,266.817322 764.168335,274.019012 784.379211,284.028534 
	C792.680298,288.139679 801.249329,291.013397 810.720093,290.066925 
	C813.263123,289.812775 816.087708,289.765045 816.903015,286.873627 
	C817.753052,283.858704 814.860107,283.019928 812.925354,281.928406 
	C808.863647,279.637024 804.655945,277.603790 800.602112,275.299408 
	C799.185059,274.493896 796.937073,274.075684 797.477295,271.566742 
	C799.180908,270.244354 800.783752,271.299988 802.325317,271.649048 
	C815.349060,274.598267 827.925781,279.045105 840.344910,283.820374 
	C845.660706,285.864319 851.217896,284.712738 856.451904,286.524658 
	C858.215454,287.135193 859.847778,285.594116 860.923584,283.935944 
	C863.983582,279.219452 862.708374,270.060455 857.856201,267.230957 
	C849.704041,262.477112 842.518555,256.370636 833.776184,252.345337 
	C777.071411,226.236191 719.087524,203.739700 658.418579,188.596878 
	C625.465088,180.371765 592.112122,175.605865 558.048340,178.196426 
	C542.303528,179.393829 530.572449,185.641953 522.941223,201.049957 
	C498.016724,251.373932 468.291260,298.408691 424.148376,334.645813 
	C408.518311,347.476624 392.274323,359.290802 373.428864,367.140015 
	C362.537262,371.676392 351.785614,371.996002 340.998383,367.173767 
	C332.179810,363.231598 323.410004,359.178284 314.656555,355.092834 
	C287.613892,342.471313 261.281647,345.630371 235.413773,358.651428 
	C232.991241,359.870850 230.577835,361.293976 228.680496,363.831329 
	C234.084106,366.989227 239.307755,369.647552 243.064148,374.280762 
	C246.141449,378.076355 249.728394,381.281769 254.197159,383.375519 
	C256.406982,384.410858 257.632172,385.836060 256.982391,388.481873 
	C256.313904,391.203949 254.689880,392.147369 251.947067,392.226562 
	C244.965820,392.428162 237.991180,392.871124 231.015671,393.249878 
	C229.577148,393.328003 227.939407,393.027252 227.064072,394.889893 
	C227.050568,396.465027 228.252563,397.462677 229.168610,398.617493 
	C239.936874,412.192780 250.999146,425.547668 261.392761,439.404083 
	C274.541656,456.933685 290.027374,471.837769 308.324799,483.853333 
	C320.176117,491.635895 331.513733,500.135742 342.539124,509.023285 
	C354.351685,518.545288 367.264648,525.883850 381.696167,530.602417 
	C392.615631,534.172729 403.442413,538.027100 414.368561,541.576050 
	C447.810760,552.438416 481.869263,560.790955 516.498169,566.939392 
	C536.062073,570.412964 555.758484,572.272949 575.571228,572.378906 
	C584.637573,572.427429 593.875427,572.629395 602.718018,569.210205 
	C606.221375,567.855530 610.191467,566.602356 614.280457,568.131958 
	C613.969971,571.706848 609.513306,571.852661 608.925354,575.013611 
	C618.567139,576.752747 630.421875,574.101379 635.304321,569.174500 
	C629.054871,566.712280 621.588928,567.277710 615.672180,561.457275 
	C628.644165,558.465027 641.349792,559.548096 653.489502,555.263367 
	C651.583923,552.466370 649.468872,552.292480 647.591125,551.875061 
	C637.043640,549.530151 626.455383,547.367065 615.920044,544.970581 
	C613.339783,544.383667 612.704163,545.607117 612.171753,547.621338 
	C611.036499,551.916016 608.828125,555.590942 605.437439,558.501831 
	C604.201721,559.562683 602.998840,561.132996 601.119019,560.127136 
	C599.336548,559.173340 600.296692,557.526672 600.496765,556.096680 
	C601.716431,547.379333 600.789490,539.152527 595.092285,531.961243 
	C592.506653,528.697632 590.084351,525.305176 587.546143,522.003357 
	C582.032043,514.830383 577.148865,507.307709 574.534363,498.536438 
	C574.083801,497.025024 572.951416,495.516998 574.238525,493.613708 
	C576.260803,493.787964 577.132935,495.579926 578.387939,496.770508 
	C588.651733,506.507996 597.611145,518.350159 610.064453,524.830566 
	C624.706055,532.449707 639.769287,539.841736 655.906372,544.290466 
	C659.492676,545.279053 664.194641,542.481079 664.842163,539.025635 
	C666.620605,529.535461 666.472534,529.248535 657.505798,524.155273 
	C656.640808,523.663940 655.850830,523.040344 654.452087,522.032715 
M221.076935,574.515076 
	C261.595642,557.213074 303.164429,542.751221 345.315704,529.455078 
	C344.028717,527.009888 342.288300,526.240173 340.895538,525.089844 
	C321.477875,509.052399 299.999023,495.786804 280.365204,480.047729 
	C278.040863,478.184448 276.392395,478.793213 274.105743,479.901154 
	C248.117172,492.493256 220.402832,498.201172 191.793350,500.164215 
	C190.037659,500.284698 187.760880,501.047638 186.156647,498.097015 
	C212.823593,488.735565 239.490372,479.757263 263.885101,465.380096 
	C259.194946,457.472168 258.562347,457.028961 253.256653,459.315399 
	C205.767609,479.780426 155.594864,490.059662 104.883255,498.100891 
	C95.445305,499.597443 88.609840,503.598175 83.094833,511.259247 
	C70.236198,529.121643 62.208164,549.115112 56.382656,570.088257 
	C49.108238,596.277893 44.707542,623.062744 41.543427,649.998535 
	C40.276890,660.780457 39.314056,671.854614 42.690571,682.689026 
	C43.786613,686.205933 42.857990,689.889099 41.655750,693.467407 
	C38.840874,701.845642 36.730888,710.514099 36.176105,719.273438 
	C34.193474,750.576721 33.449230,781.876160 41.134167,812.686218 
	C41.856625,815.582642 42.694576,818.484741 43.844082,821.231323 
	C45.172405,824.405090 47.106316,824.145264 48.966759,821.544922 
	C50.673882,819.158875 51.466919,816.419128 51.371399,813.548645 
	C51.233135,809.393616 50.762344,805.250854 50.513016,801.098145 
	C48.733406,771.457336 49.164268,741.865723 53.081081,712.404480 
	C53.506401,709.205322 52.664722,705.393555 56.320560,701.671814 
	C59.902905,729.961426 58.053394,757.677429 61.994541,785.040833 
	C64.905235,779.906921 68.560966,775.145996 67.494804,769.030701 
	C64.839859,753.802429 65.630615,738.456787 66.034485,723.163513 
	C66.190720,717.247559 66.188751,710.963074 69.971092,705.425659 
	C73.199440,722.642578 72.263130,740.559448 78.688812,757.300293 
	C85.942871,753.556030 87.984756,748.620972 85.601494,741.869873 
	C84.992439,740.144592 84.180153,738.442322 83.891953,736.659790 
	C79.931137,712.163391 76.742050,687.573669 75.331497,662.781616 
	C75.252357,661.390686 74.887970,659.729736 76.822746,658.907104 
	C78.886650,660.066162 78.684677,662.330139 79.116409,664.118835 
	C81.927956,675.767517 84.579865,687.454712 87.276558,699.131042 
	C89.336311,708.049500 91.295372,716.992676 93.498131,725.875610 
	C94.091782,728.269470 94.545776,731.748962 98.657616,729.554260 
	C105.316490,726.000061 108.949387,716.048645 106.143562,709.219482 
	C97.884628,689.117859 96.253090,667.943298 96.089005,646.544373 
	C96.076080,644.858582 95.908875,642.903625 98.022995,641.705261 
	C99.625755,643.194702 99.777657,645.040466 100.254074,646.758118 
	C104.032875,660.381897 106.789932,674.320923 112.760925,687.270386 
	C113.659752,689.219727 114.114235,691.573181 116.892693,691.654663 
	C119.436928,691.729309 120.759758,689.870972 121.863800,688.009399 
	C122.784546,686.456970 123.765633,684.758362 124.018646,683.022278 
	C125.372414,673.733093 125.915253,664.388367 122.335594,655.449829 
	C118.411491,645.651245 115.527321,635.591309 114.042809,625.167358 
	C113.384743,620.546570 112.844643,615.771362 114.943901,611.150635 
	C117.671036,612.190552 117.375900,614.385071 117.863670,615.984741 
	C120.168396,623.543152 123.224625,630.644165 128.336411,636.820801 
	C130.860138,639.870178 133.249161,640.124268 136.523743,638.175964 
	C144.920029,633.180664 147.193787,625.159607 142.763077,616.299622 
	C140.558594,611.891357 138.732101,607.286926 141.358002,601.668091 
	C144.600616,604.666626 147.151840,607.502258 150.162659,609.711609 
	C156.596497,614.432861 162.227036,613.627930 168.433823,607.545471 
	C172.760544,603.305420 172.729828,599.914673 168.109482,592.887817 
	C166.741150,590.806824 165.036377,588.949890 163.593094,586.914124 
	C162.898514,585.934448 161.386337,585.183594 162.392563,583.264282 
	C167.631760,584.355164 172.098801,587.269775 176.737305,589.707092 
	C180.095688,591.471802 183.014420,591.553528 186.600815,589.860779 
	C197.743240,584.601929 209.094345,579.785217 221.076935,574.515076 
M635.335449,608.809753 
	C646.807800,604.510132 658.944031,602.260559 670.086487,596.812744 
	C677.527100,593.174866 682.632507,586.711060 689.605957,582.542480 
	C693.542908,580.189026 695.621826,576.090271 693.436707,570.865479 
	C692.226013,567.970764 694.036316,565.752747 696.781799,564.504333 
	C702.366455,561.965027 702.665527,560.046570 698.106384,555.701050 
	C693.767212,551.565186 685.143555,551.746277 683.870300,556.429077 
	C682.599365,561.103394 679.499329,561.534607 675.858032,562.402649 
	C665.420715,564.890747 654.078369,565.433167 647.402527,576.107056 
	C646.128052,578.144775 643.235168,579.471313 640.814270,580.438171 
	C630.829590,584.426208 620.222290,587.843750 609.703125,585.882812 
	C600.013306,584.076416 590.899170,586.052368 581.536804,586.320007 
	C577.164795,586.444885 576.122620,588.457214 578.487427,592.077759 
	C581.224426,596.268188 584.581055,599.987183 588.215271,603.436035 
	C592.864258,607.848083 597.978027,607.345764 603.360291,605.079468 
	C603.558777,603.351685 602.642090,602.346375 601.999146,601.209534 
	C601.167664,599.739136 598.897156,598.321289 600.708740,596.496033 
	C602.350281,594.842163 604.103699,596.572754 605.647461,597.402954 
	C612.826599,601.263550 619.687073,605.725342 627.347839,608.674316 
	C629.765320,609.604919 632.106018,610.183716 635.335449,608.809753 
M237.169754,381.077850 
	C233.899414,376.843994 229.483475,374.209686 224.535645,372.560333 
	C214.938568,369.361206 205.051468,368.652374 195.041336,369.896301 
	C191.115005,370.384186 187.108139,370.829224 183.091446,373.652649 
	C192.712234,375.924927 201.405884,378.647980 210.115005,381.338898 
	C217.736038,383.693665 225.690247,384.533966 233.671387,384.547272 
	C235.371796,384.550110 238.458725,385.393524 237.169754,381.077850 
z"/>
<path fill="#000000" opacity="1.000000" stroke="none" 
	d="
M741.438477,851.422852 
	C743.947815,850.737549 744.727112,852.395813 745.597595,853.776611 
	C751.106506,862.514771 756.506592,871.322693 762.108032,880.000732 
	C764.187622,883.222473 763.164062,884.925903 760.206482,886.766174 
	C731.072388,904.893616 701.982910,923.093079 672.935303,941.358826 
	C669.791931,943.335449 668.150208,942.779419 666.198120,939.625000 
	C645.949463,906.904846 625.636536,874.223450 605.097961,841.684937 
	C602.470337,837.522034 603.003052,835.539185 606.994873,833.056030 
	C635.003357,815.633850 662.901184,798.033813 690.857971,780.528381 
	C693.150269,779.093018 695.055481,777.404419 696.711304,775.222229 
	C704.667480,764.737000 712.865662,754.434631 720.763855,743.906799 
	C723.507446,740.249634 725.679016,740.699890 728.935425,743.274414 
	C748.538513,758.772095 768.334045,774.026428 787.925537,789.538757 
	C791.655029,792.491760 793.787109,792.273682 796.699646,788.367188 
	C806.653809,775.016113 817.016541,761.970276 827.130371,748.736877 
	C829.419556,745.741638 831.543335,745.229736 834.596497,747.717834 
	C842.084961,753.820618 849.605225,759.897156 857.343201,765.675598 
	C861.000610,768.406860 861.218689,770.589905 858.397095,774.166382 
	C841.371094,795.746704 824.524109,817.468262 807.623047,839.147156 
	C804.550110,843.088745 801.324707,846.927979 798.497070,851.039551 
	C795.842896,854.898804 793.609497,855.341736 789.691528,852.242981 
	C761.861328,830.232178 733.849548,808.451111 705.888855,786.605408 
	C705.510132,786.309448 705.043762,786.125671 703.732727,786.416809 
	C706.545593,791.099854 709.278503,795.833252 712.187866,800.455566 
	C718.381348,810.295654 718.422974,810.278625 708.624573,816.417725 
	C695.222412,824.814758 681.795349,833.172180 668.434021,841.633667 
	C667.047974,842.511475 664.839111,842.948303 665.046814,845.411682 
	C666.779480,847.199219 668.167542,845.717285 669.451111,844.913940 
	C684.543945,835.468994 699.614136,825.987793 714.668701,816.481812 
	C719.980469,813.127686 720.138000,813.120117 723.478516,818.440186 
	C728.351379,826.200745 733.185242,833.985901 738.089600,841.726501 
	C741.285522,846.770691 741.153809,847.363953 735.921265,850.606140 
	C721.064941,859.811951 706.216248,869.030151 691.388428,878.281677 
	C690.030945,879.128662 688.242554,879.589355 687.714966,881.817383 
	C690.450256,884.228882 692.477844,881.864197 694.511963,880.601624 
	C710.060120,870.950500 725.574097,861.244202 741.438477,851.422852 
z"/>
<path fill="#000000" opacity="1.000000" stroke="none" 
	d="
M781.092834,351.008972 
	C803.880676,341.081146 826.304138,331.265350 848.774658,321.558258 
	C854.777100,318.965332 854.882324,319.100861 857.526306,325.204651 
	C861.961609,335.443420 866.235229,345.753784 870.804016,355.932068 
	C872.307373,359.281189 872.287170,362.056976 870.500366,365.331482 
	C861.885315,381.119751 853.482849,397.024017 844.999573,412.884277 
	C844.146362,414.479523 842.890503,415.920288 843.136963,418.022705 
	C844.871887,419.273682 846.285889,417.804993 847.638428,417.231171 
	C859.286438,412.289520 870.902588,407.271332 882.488342,402.185059 
	C889.610291,399.058411 889.764282,399.099335 892.745178,406.031433 
	C897.415344,416.891907 902.053772,427.768738 906.944885,438.529877 
	C908.590759,442.151154 907.728821,443.821167 904.176758,445.350220 
	C869.003906,460.491180 833.894958,475.780579 798.750366,490.987396 
	C792.490234,493.696136 792.395569,493.480804 789.761475,487.203247 
	C785.511658,477.075043 781.306946,466.915741 776.613342,456.991821 
	C774.711365,452.970520 775.231201,449.868744 777.279480,446.273193 
	C786.016235,430.936707 794.599670,415.512756 803.212952,400.106171 
	C804.403992,397.975830 805.943726,395.966583 806.121460,393.073792 
	C802.681763,393.088043 799.996826,394.942108 797.177246,396.139069 
	C785.837891,400.952728 774.532898,405.853729 763.310364,410.932648 
	C759.244324,412.772827 757.147949,412.097565 755.400208,407.722229 
	C750.893860,396.440918 746.004517,385.306854 741.019897,374.225677 
	C739.420959,370.671051 740.017029,368.868469 743.649658,367.331573 
	C756.071960,362.075989 768.388977,356.571411 781.092834,351.008972 
z"/>
<path fill="#000000" opacity="1.000000" stroke="none" 
	d="
M487.682587,949.168762 
	C482.976990,920.700256 478.382874,892.653137 473.550201,864.647156 
	C472.799622,860.297546 474.345459,859.279053 478.276123,858.657776 
	C499.786041,855.257690 521.275085,851.710815 542.726074,847.956177 
	C568.294128,843.480896 590.663147,849.263916 606.166809,870.780701 
	C633.057190,908.100464 615.316284,959.416504 571.541931,970.812378 
	C547.401184,977.096985 522.426147,979.350586 497.875275,983.697632 
	C494.268799,984.336243 493.170349,982.816833 492.673615,979.590088 
	C491.132233,969.577454 489.383789,959.596741 487.682587,949.168762 
M531.135864,890.437073 
	C528.265503,891.099792 526.798279,892.772644 527.317688,895.822815 
	C529.439514,908.281250 531.577393,920.737000 533.696899,933.195801 
	C534.171326,935.984253 535.693848,937.244507 538.574463,936.801147 
	C544.325256,935.916016 550.088318,935.155945 555.599976,933.112427 
	C563.628662,930.135620 568.364929,924.353760 570.269775,916.154358 
	C573.810608,900.913452 563.834595,888.282532 548.250305,888.166382 
	C542.710632,888.125061 537.384460,889.647705 531.135864,890.437073 
z"/>
<path fill="#000000" opacity="1.000000" stroke="none" 
	d="
M320.193420,808.864136 
	C322.432770,808.398865 324.435394,809.108887 326.470551,809.964905 
	C357.322052,822.941895 388.164276,835.941650 419.074219,848.778198 
	C423.434692,850.589050 424.422424,852.602173 422.330566,857.052063 
	C418.296417,865.633728 414.730072,874.445312 411.246918,883.270935 
	C409.867767,886.765381 408.155945,887.321472 404.808746,885.892822 
	C387.966370,878.704468 371.054657,871.678345 354.157379,864.618958 
	C352.723022,864.019714 351.310211,862.712524 349.424805,864.136047 
	C349.549805,867.248657 352.300262,867.598938 354.211609,868.415405 
	C370.285706,875.281982 386.380371,882.104431 402.560944,888.714722 
	C406.424011,890.292908 407.684570,891.900391 405.761810,896.083923 
	C401.870514,904.550476 398.323242,913.190552 395.021057,921.905762 
	C393.402618,926.177307 391.306305,927.150818 387.119080,925.354980 
	C370.906281,918.401489 354.606903,911.649902 338.342407,904.816772 
	C337.421967,904.430115 336.552399,903.905090 335.610168,903.591736 
	C334.489471,903.219116 333.218414,902.918579 332.603851,904.356995 
	C331.989044,905.796021 333.015167,906.520813 334.133179,907.022522 
	C340.054810,909.679932 345.955353,912.388489 351.926910,914.929504 
	C363.263947,919.753418 374.604034,924.575378 386.029297,929.183777 
	C389.827179,930.715637 390.570801,932.599731 388.885132,936.366394 
	C385.009460,945.026367 381.346375,953.792664 377.951752,962.651733 
	C376.383118,966.745544 374.458801,967.490356 370.444611,965.780701 
	C344.255646,954.626465 317.985901,943.661804 291.739563,932.642212 
	C286.981293,930.644470 282.272919,928.502991 277.424255,926.752808 
	C273.254974,925.247803 272.270386,923.321777 274.136536,918.936890 
	C288.022308,886.310059 301.657837,853.576599 315.342285,820.864258 
	C316.626190,817.795044 317.705719,814.640320 319.066528,810.892456 
	C319.566437,809.794495 319.879944,809.329346 320.193420,808.864136 
z"/>
<path fill="#000000" opacity="1.000000" stroke="none" 
	d="
M320.162781,808.510986 
	C319.879944,809.329346 319.566437,809.794495 319.160889,810.519531 
	C312.021362,817.861389 304.963531,824.933167 297.930115,832.029175 
	C293.434113,836.565186 293.298889,836.564392 288.798920,832.266602 
	C275.429840,819.498169 262.058258,806.732178 248.636459,794.019287 
	C247.494217,792.937317 246.487259,791.393616 244.155151,791.491943 
	C243.839447,794.275269 246.049179,795.483276 247.518417,797.029175 
	C254.961670,804.860779 263.977539,811.152954 270.236786,820.142212 
	C285.611664,842.223083 276.929657,863.832642 258.444977,877.100342 
	C242.239502,888.732239 222.683395,887.396912 207.836884,874.001221 
	C189.539154,857.491638 172.041763,840.095703 154.158463,823.125000 
	C151.957260,821.036133 152.080383,819.357117 154.183716,817.270996 
	C161.517303,809.997192 168.791840,802.662354 175.992279,795.256775 
	C178.166870,793.020142 179.840729,792.789551 182.232391,795.101624 
	C196.241592,808.643677 210.370453,822.061890 224.455200,835.525879 
	C225.758514,836.771729 226.908951,838.379700 229.324539,837.221863 
	C229.987762,834.597168 227.679672,833.510010 226.333527,832.093872 
	C219.800735,825.221924 212.531296,819.096802 206.293365,811.904785 
	C193.219711,796.831543 192.893784,776.564392 205.606842,761.269592 
	C210.570740,755.297668 216.137360,750.131775 223.324860,746.969849 
	C237.674866,740.657227 251.043900,743.503723 262.585510,752.995056 
	C282.409821,769.297607 299.877350,788.203369 318.736420,805.589050 
	C319.414612,806.214233 319.676300,807.291321 320.162781,808.510986 
z"/>
<path fill="#000000" opacity="1.000000" stroke="none" 
	d="
M856.855042,617.926025 
	C813.123779,619.577454 781.391052,580.524109 789.957703,538.170959 
	C794.826721,514.098511 822.330627,485.588318 857.871765,487.544891 
	C886.377136,489.114166 912.960754,511.953796 917.934448,541.445679 
	C924.653320,581.285339 895.082031,616.540527 856.855042,617.926025 
M851.977295,570.536743 
	C853.138855,570.530884 854.317017,570.650208 855.459412,570.499329 
	C864.797546,569.265808 872.503113,559.961365 871.377747,551.337402 
	C870.102356,541.563782 861.123962,534.240112 851.811218,535.377136 
	C842.034546,536.570801 834.969421,545.149597 836.280212,555.043152 
	C837.411743,563.583984 842.965149,568.439453 851.977295,570.536743 
z"/>
<path fill="#000000" opacity="1.000000" stroke="none" 
	d="
M890.888550,698.794189 
	C887.928345,706.636658 884.949707,714.062805 882.376831,721.626892 
	C881.044312,725.544373 879.211609,726.353760 875.349792,724.847961 
	C852.554260,715.959534 829.684021,707.263000 806.840698,698.496948 
	C799.633545,695.731201 799.583923,695.704468 796.858948,702.792908 
	C794.170288,709.786926 791.532532,716.802368 789.011658,723.858215 
	C787.830200,727.165039 786.062927,728.303284 782.586853,726.927612 
	C772.990173,723.129883 763.359009,719.410767 753.658264,715.889771 
	C750.260925,714.656616 749.892639,712.835693 751.061768,709.781311 
	C761.237061,683.197449 771.333557,656.583557 781.474182,629.986450 
	C784.200745,622.835022 787.097412,615.746826 789.718567,608.557617 
	C790.929382,605.236511 792.571472,604.086670 796.096436,605.499878 
	C805.368958,609.217529 814.680847,612.854492 824.091431,616.202026 
	C828.107300,617.630676 828.705872,619.711182 827.221802,623.391235 
	C824.294861,630.649048 821.733887,638.054688 818.793091,645.306641 
	C817.042542,649.623535 818.046021,651.774780 822.600342,653.467407 
	C845.697998,662.051392 868.633301,671.072083 891.725464,679.671265 
	C896.278687,681.366821 897.413025,683.404053 895.260437,687.757263 
	C893.569824,691.176453 892.425354,694.865723 890.888550,698.794189 
z"/>
<path fill="#000000" opacity="1.000000" stroke="none" 
	d="
M466.189758,906.071960 
	C463.181091,928.916260 460.155457,951.310242 457.301147,973.726013 
	C456.833618,977.397461 455.293488,978.560486 451.709167,978.063538 
	C439.356384,976.350708 426.988678,974.737000 414.608521,973.235291 
	C410.826172,972.776489 409.599457,971.281860 410.133759,967.313232 
	C414.813416,932.554749 419.294647,897.769531 423.853180,862.994690 
	C424.371552,859.040344 425.082611,855.110291 425.556549,851.151367 
	C425.906372,848.229004 427.234314,847.187378 430.239563,847.606995 
	C443.246124,849.423340 456.271362,851.108154 469.297241,852.782837 
	C472.729065,853.224060 473.021088,855.225037 472.616241,858.136597 
	C470.416351,873.957458 468.345306,889.796265 466.189758,906.071960 
z"/>
<path fill="#000000" opacity="1.000000" stroke="none" 
	d="
M484.480682,318.463043 
	C464.032990,343.051300 441.425812,364.449036 412.171021,377.723053 
	C406.850677,380.137115 401.361053,382.079712 395.744354,383.671967 
	C393.865326,384.204620 391.962585,385.064301 390.191956,383.534058 
	C389.611053,381.385742 391.279999,380.827698 392.471405,380.077850 
	C422.083832,361.441315 445.597076,336.314575 467.497650,309.495758 
	C491.472229,280.137207 512.170288,248.490250 532.305176,216.449966 
	C533.421753,214.673187 534.101746,211.040405 536.894409,212.179199 
	C539.782349,213.356827 537.650085,216.366318 537.068359,218.362686 
	C526.347107,255.158569 508.392578,288.179688 484.480682,318.463043 
z"/>
<path fill="#000000" opacity="1.000000" stroke="none" 
	d="
M393.806274,506.167725 
	C425.163361,516.554260 456.341827,526.169556 488.152649,533.527954 
	C511.831909,539.005310 535.692200,543.597717 559.939392,545.853455 
	C561.731506,546.020264 563.645874,545.964417 564.845886,547.766968 
	C564.891357,550.240479 562.966125,550.093201 561.387512,550.381958 
	C549.223083,552.607239 536.938110,553.494080 524.606873,552.951294 
	C492.314880,551.529846 460.827942,545.509094 430.262634,535.090027 
	C398.621216,524.304077 368.125122,511.039856 340.972076,491.082428 
	C339.697968,490.145966 337.929871,489.545319 337.692139,486.184753 
	C356.594055,492.991638 374.790863,500.181702 393.806274,506.167725 
z"/>
<path fill="#000000" opacity="1.000000" stroke="none" 
	d="
M446.850647,453.260742 
	C440.794189,448.620514 437.982452,442.058838 433.324341,436.375854 
	C437.156494,434.498901 439.387421,436.512085 441.484192,437.697052 
	C446.711395,440.651215 452.021667,443.130188 457.952942,444.440063 
	C462.421173,445.426910 466.000488,448.284210 468.841370,451.882202 
	C470.149811,453.539276 471.893494,455.387360 470.410828,457.655121 
	C469.010071,459.797546 466.522491,460.147003 464.183807,459.889954 
	C460.051239,459.435760 456.046356,458.368958 452.344666,456.389679 
	C450.593079,455.453156 448.879608,454.445312 446.850647,453.260742 
z"/>
<path fill="#000000" opacity="1.000000" stroke="none" 
	d="
M260.468903,373.315186 
	C259.217072,369.281403 256.129974,370.521912 253.652679,370.268494 
	C252.215454,370.121429 250.370834,370.579620 249.818558,368.730957 
	C249.305283,367.012817 250.825729,366.062317 251.936157,365.089752 
	C257.482361,360.231995 266.158356,358.997253 272.460022,362.144073 
	C278.293976,365.057343 280.573700,369.477722 278.320496,373.507568 
	C275.737579,378.127014 267.868469,379.780273 263.313904,376.554596 
	C262.266235,375.812622 261.529907,374.631012 260.468903,373.315186 
z"/>
<path fill="#000000" opacity="1.000000" stroke="none" 
	d="
M486.302002,446.860229 
	C487.186646,448.305084 487.995880,449.386353 488.491913,450.596039 
	C489.958954,454.173676 488.138153,456.688904 484.369598,456.016693 
	C479.484985,455.145416 475.979462,452.184906 473.952576,447.688599 
	C473.032715,445.648041 472.992920,443.411011 474.934814,441.768097 
	C476.923370,440.085785 479.063965,440.696747 480.884064,442.004211 
	C482.746124,443.341736 484.360596,445.023987 486.302002,446.860229 
z"/>
<path fill="#000000" opacity="1.000000" stroke="none" 
	d="
M63.089855,620.966003 
	C61.071377,626.674194 60.386559,632.478149 57.339016,637.474731 
	C53.979259,636.041809 54.834358,633.587708 54.851116,631.619751 
	C55.005428,613.496216 58.982288,596.049194 64.361336,578.859741 
	C68.296944,566.283081 73.318283,554.168579 79.794930,542.677917 
	C80.652863,541.155762 81.140839,539.182922 84.806465,539.013123 
	C79.838104,567.057312 70.910973,593.667236 63.089855,620.966003 
z"/>
</svg>