<svg version="1.1" id="Layer_1" xmlns="http://www.w3.org/2000/svg" xmlns:xlink="http://www.w3.org/1999/xlink" x="0px" y="0px"
	 width="100%" viewBox="0 0 1080 1080" enable-background="new 0 0 1080 1080" xml:space="preserve">
<path fill="#FEFEFF" opacity="1.000000" stroke="none" 
	d="
M717.000000,1081.000000 
	C478.027527,1081.000000 239.555038,1081.000000 1.041282,1081.000000 
	C1.041282,721.069092 1.041282,361.138123 1.041282,1.103596 
	C360.889374,1.103596 720.778809,1.103596 1080.834106,1.103596 
	C1080.834106,360.999939 1080.834106,720.999939 1080.834106,1081.000000 
	C959.804382,1081.000000 838.652161,1081.000000 717.000000,1081.000000 
M163.396622,478.682343 
	C163.244034,479.079346 163.091446,479.476349 162.369812,480.367523 
	C160.554565,488.265320 162.089523,495.024261 169.460495,500.505981 
	C175.852386,504.819336 182.495285,505.250763 189.150864,501.345367 
	C195.813583,497.435883 198.770920,491.384766 198.073654,483.725311 
	C197.782959,480.531799 198.602631,478.286713 201.505814,476.719025 
	C209.381317,472.466370 216.907913,467.407410 225.122787,463.990082 
	C232.768951,460.809387 241.123276,459.330994 249.560272,456.993927 
	C250.498123,464.098633 251.429413,469.829041 251.983017,475.595734 
	C253.650055,492.961151 264.163727,507.763580 281.198608,510.467377 
	C294.183075,512.528259 305.014008,517.662292 316.215057,523.475342 
	C328.410950,529.804626 341.784668,532.274048 355.201172,532.754211 
	C370.234558,429.181793 427.635498,362.390198 526.910461,330.892639 
	C526.026917,328.318451 525.055725,325.519989 524.105286,322.714447 
	C521.027527,313.629303 514.568665,308.706970 505.800018,308.774963 
	C497.338043,308.840576 489.464172,314.314911 487.457367,322.920807 
	C486.399261,327.458435 484.065979,327.787201 480.546326,327.949921 
	C466.080750,328.618774 451.615173,329.311859 437.159119,330.158264 
	C410.743591,331.704987 384.354248,333.966736 357.918121,334.824005 
	C327.010071,335.826263 301.539429,347.311798 281.335571,370.707947 
	C279.974243,372.284424 277.707397,373.598663 275.663239,373.985168 
	C255.589294,377.780487 241.397400,398.237671 244.665161,418.588318 
	C246.104736,427.553497 246.984741,436.608551 248.096069,445.442200 
	C247.292252,445.831207 247.015778,446.054779 246.713303,446.098511 
	C227.096848,448.935120 209.315872,456.158112 193.300430,467.910248 
	C191.707809,469.078918 188.555969,469.107178 186.490601,468.476501 
	C177.618759,465.767487 170.587463,467.840149 165.115921,475.363403 
	C165.115921,475.363403 164.983032,475.433929 164.384811,476.049103 
	C164.245438,477.047577 164.106064,478.046021 164.023270,479.014282 
	C164.023270,479.014282 163.999283,478.954773 163.396622,478.682343 
M359.309998,641.836243 
	C312.345612,671.174683 263.129761,695.821655 210.336090,712.913330 
	C179.360306,722.941589 147.751282,730.158264 114.957245,733.526978 
	C114.957245,730.769287 114.915054,728.285706 114.965034,725.804077 
	C115.124603,717.881470 119.757545,713.158264 127.662720,712.777893 
	C130.476761,712.642517 133.346207,712.745972 136.088562,712.214844 
	C142.740784,710.926453 146.520889,705.884094 146.064880,699.392395 
	C145.639786,693.340820 141.036728,688.173584 134.778152,688.100464 
	C113.450302,687.851501 92.116341,687.859131 70.788010,688.083252 
	C64.408836,688.150269 59.516560,693.533630 59.128105,699.690430 
	C58.743385,705.788025 62.994217,711.144348 69.559731,712.290527 
	C72.807045,712.857544 76.186890,712.616150 79.487709,712.936707 
	C85.274284,713.498718 89.677505,717.592529 90.022598,723.107178 
	C90.322044,727.892212 90.084892,732.710815 90.084892,737.514221 
	C76.037369,741.578308 63.349262,747.689819 52.537296,757.057861 
	C47.912304,761.065186 43.347584,763.912109 37.059055,762.981628 
	C36.826176,762.947144 36.536316,763.297791 36.227676,763.498474 
	C36.227676,766.573730 36.227676,769.659363 36.227676,772.909973 
	C372.864227,772.909973 709.228210,772.909973 1045.663330,772.909973 
	C1045.663330,769.421265 1045.663330,766.219482 1045.663330,762.709106 
	C914.610901,762.709106 783.939575,762.709106 653.268311,762.709106 
	C687.540771,750.296631 717.523254,731.442871 742.624878,705.108521 
	C767.869080,678.624512 785.549866,647.764709 795.438293,612.465576 
	C805.281250,577.328613 806.412598,541.813232 798.638550,506.311890 
	C777.645996,410.446930 697.364746,341.184875 601.543884,333.602173 
	C501.321472,325.671112 410.816559,383.616241 376.380737,478.326813 
	C355.351532,536.164551 358.547150,593.742981 385.487885,649.205383 
	C412.391693,704.591614 456.123474,741.652161 515.097595,762.675781 
	C377.172638,762.675781 240.672562,762.675781 106.379021,762.675781 
	C154.065277,752.417725 203.903015,742.046814 253.570053,730.914307 
	C303.259033,719.776794 352.323212,706.226562 399.976257,691.285828 
	C389.563873,672.586670 379.284607,654.126526 368.971161,635.605042 
	C366.347229,637.296631 363.132538,639.369080 359.309998,641.836243 
M761.400818,410.113342 
	C768.898926,421.293518 776.614685,432.337494 783.750610,443.744232 
	C785.670593,446.813263 787.369751,447.331512 790.464417,446.697754 
	C812.076721,442.271820 833.712585,437.960846 855.331238,433.565704 
	C884.420410,427.651794 913.502014,421.700531 942.584534,415.753906 
	C952.769165,413.671417 962.947021,411.555359 973.346985,409.409454 
	C972.422180,398.306580 971.543396,387.755920 970.664612,377.205261 
	C972.071594,378.143524 972.712952,379.240784 973.100586,380.421417 
	C975.433899,387.527985 977.763794,394.636536 979.990173,401.777130 
	C982.906067,411.129425 990.797791,416.247345 1000.471375,414.942047 
	C1008.691650,413.832855 1016.898315,412.607391 1025.135132,411.638397 
	C1039.604980,409.936157 1047.544189,400.468567 1045.773438,385.970978 
	C1042.404663,358.389740 1038.781372,330.838593 1035.096191,303.297394 
	C1033.669678,292.636658 1023.601929,284.338287 1013.300659,285.346436 
	C1003.377502,286.317566 993.483276,287.654449 983.616638,289.104492 
	C977.986328,289.931976 973.527344,292.935822 969.796509,297.338531 
	C968.415527,298.968170 965.916199,300.421295 963.832825,300.561951 
	C947.888977,301.638153 931.917908,302.299896 915.963074,303.225800 
	C889.378174,304.768585 862.803406,306.490204 836.216064,307.988342 
	C815.105957,309.177887 793.981628,310.114899 772.867554,311.237274 
	C768.415710,311.473907 763.980835,312.029358 759.496643,312.441742 
	C759.735535,317.534973 759.965881,322.445435 760.196228,327.355896 
	C757.426453,322.112183 755.975342,316.635010 753.644226,311.562286 
	C750.397156,304.496613 744.594482,300.722290 736.638245,300.573853 
	C728.469055,300.421478 722.718445,304.251648 718.889526,311.262848 
	C718.276489,312.385315 717.822083,313.594482 717.385925,314.560669 
	C656.014465,318.024353 595.083252,321.463196 533.926880,324.914734 
	C534.151062,326.996765 534.301147,328.390839 534.409485,329.396759 
	C625.057373,314.259644 701.031494,339.146057 761.400818,410.113342 
M673.606689,789.041748 
	C675.291321,787.050598 676.975891,785.059448 679.478394,782.101562 
	C661.571289,782.101562 645.372009,782.101562 627.404663,782.101562 
	C629.799011,784.939270 631.005127,787.106201 632.829712,788.402588 
	C640.438171,793.808289 642.091797,801.115173 642.040344,810.113342 
	C641.721130,865.926453 641.713684,921.743286 642.044983,977.556274 
	C642.099487,986.736145 640.403259,994.188904 632.681519,999.734192 
	C630.898743,1001.014526 629.768066,1003.202942 627.606689,1005.877502 
	C645.451965,1005.877502 661.651062,1005.877502 677.850220,1005.877502 
	C678.137390,1005.503479 678.424561,1005.129456 678.711731,1004.755371 
	C676.497681,1002.298340 674.564758,999.487915 672.011597,997.457275 
	C666.555237,993.117432 664.845642,987.748779 664.926880,980.863403 
	C665.229736,955.208740 665.043518,929.548340 665.056458,903.890137 
	C665.057068,902.614319 665.204163,901.338562 665.312500,899.586731 
	C673.881104,899.586731 682.182190,899.843262 690.455994,899.479309 
	C694.644775,899.295044 695.388916,900.778442 695.364563,904.585388 
	C695.205933,929.409485 695.034851,954.239014 695.421143,979.058167 
	C695.550293,987.356995 693.632507,993.985535 686.814880,999.047424 
	C684.758118,1000.574463 683.307068,1002.917236 680.812927,1005.758423 
	C698.808350,1005.758423 715.125122,1005.758423 733.099060,1005.758423 
	C730.553894,1002.864502 729.254028,1000.726807 727.384949,999.377625 
	C720.006836,994.052002 718.289185,986.933838 718.338135,978.101318 
	C718.651611,921.621704 718.614380,865.138916 718.367737,808.658569 
	C718.332397,800.553406 720.073303,794.048218 726.796509,789.122498 
	C728.895325,787.584717 730.399231,785.234863 732.175476,783.256714 
	C731.902283,782.883484 731.629150,782.510254 731.356018,782.137024 
	C715.039734,782.137024 698.723389,782.137024 682.407104,782.137024 
	C682.115784,782.524902 681.824463,782.912781 681.533142,783.300659 
	C684.173828,786.067139 686.611267,789.071655 689.504578,791.542236 
	C693.469604,794.927979 695.326660,798.914856 695.307068,804.153442 
	C695.213135,829.311340 695.228149,854.470093 695.352234,879.627869 
	C695.369385,883.102417 693.942444,883.813599 690.854248,883.736877 
	C683.860901,883.562927 676.847412,883.426636 669.867371,883.777405 
	C665.693726,883.987061 664.934692,882.430115 664.962036,878.619812 
	C665.129456,855.295349 665.340942,831.963379 664.885620,808.646606 
	C664.729248,800.639587 666.569336,794.292297 673.606689,789.041748 
M909.432434,881.920898 
	C911.367920,878.831726 913.708008,875.922119 915.171204,872.623413 
	C922.866394,855.274536 923.488098,837.097107 920.423157,818.731506 
	C916.455261,794.955017 902.201782,782.631165 878.016968,781.898987 
	C865.528687,781.520813 853.022766,781.705444 840.524780,781.685730 
	C839.100708,781.683472 837.676086,782.004395 834.598389,782.374146 
	C837.843018,785.773804 839.912354,788.508728 842.521301,790.555969 
	C847.716919,794.633118 849.401123,799.762146 849.385193,806.244812 
	C849.242249,864.740723 849.242615,923.237122 849.385010,981.733032 
	C849.400879,988.214783 847.719910,993.347351 842.523804,997.426331 
	C839.913696,999.475281 837.843445,1002.212036 835.529053,1004.637756 
	C835.789978,1005.007996 836.050842,1005.378296 836.311707,1005.748596 
	C852.724915,1005.748596 869.138062,1005.748596 885.551270,1005.748596 
	C885.773438,1005.348450 885.995605,1004.948303 886.217773,1004.548096 
	C884.367126,1002.557190 882.752686,1000.256042 880.621643,998.633423 
	C874.201538,993.745178 872.282043,987.489624 872.417969,979.497131 
	C872.837341,954.839233 872.564148,930.169617 872.578674,905.504578 
	C872.579712,903.736572 872.731750,901.968750 872.808777,900.303833 
	C882.528137,898.906860 889.725037,902.295715 893.036621,910.745483 
	C894.928223,915.571960 895.908997,921.039551 895.993896,926.239807 
	C896.328491,946.733093 896.122192,967.234924 896.168091,987.733459 
	C896.183594,994.665100 898.324646,1000.783997 904.911316,1003.938782 
	C913.963318,1008.274475 923.543152,1005.816223 933.170349,1005.500122 
	C930.330627,1001.357666 927.333130,997.839417 924.041443,994.622131 
	C920.363464,991.027161 918.753113,987.001892 918.821472,981.725403 
	C919.073914,962.229919 919.056152,942.727905 918.873962,923.230896 
	C918.756592,910.663574 913.762573,900.340515 903.508362,892.766785 
	C902.645630,892.129578 901.930359,891.292847 901.358215,890.749695 
	C904.081238,887.809448 906.543213,885.151062 909.432434,881.920898 
M141.021332,868.493286 
	C146.782639,851.691528 147.459091,834.517639 144.141357,817.225037 
	C139.792908,794.560181 125.630486,782.590576 102.486389,781.909363 
	C89.831749,781.536865 77.160599,781.708862 64.496803,781.685974 
	C63.079254,781.683411 61.661102,782.012634 58.596340,782.391724 
	C61.852455,785.794434 63.928207,788.526794 66.540565,790.574768 
	C71.742371,794.652710 73.401161,799.792480 73.385330,806.270508 
	C73.242348,864.762512 73.242554,923.255127 73.384941,981.747131 
	C73.400726,988.230713 71.706940,993.357117 66.514511,997.435242 
	C63.906239,999.483887 61.839001,1002.221313 59.527088,1004.647278 
	C59.789371,1005.012878 60.051651,1005.378540 60.313931,1005.744141 
	C76.726921,1005.744141 93.139908,1005.744141 109.552895,1005.744141 
	C109.773994,1005.343201 109.995087,1004.942261 110.216187,1004.541321 
	C108.364098,1002.550720 106.748215,1000.249512 104.615669,998.627747 
	C98.189995,993.740906 96.283707,987.478455 96.418854,979.490356 
	C96.835983,954.833984 96.564209,930.166077 96.578735,905.502625 
	C96.579773,903.734924 96.732040,901.967285 96.809219,900.302673 
	C106.531288,898.908386 113.725288,902.296326 117.036652,910.745483 
	C118.928085,915.571655 119.909019,921.038879 119.993919,926.238770 
	C120.328506,946.730713 120.122459,967.231140 120.167809,987.728333 
	C120.183151,994.659241 122.321228,1000.778931 128.905487,1003.936218 
	C137.957626,1008.277100 147.540939,1005.809814 157.159500,1005.518311 
	C154.429382,1001.503418 151.561295,998.091187 148.376129,995.006409 
	C144.426880,991.181702 142.719620,986.888550 142.807068,981.235168 
	C143.106079,961.908997 143.054703,942.574158 142.874725,923.244995 
	C142.757721,910.678345 137.771088,900.354187 127.521523,892.776550 
	C126.657249,892.137573 125.935799,891.305359 126.132828,891.491028 
	C131.268768,883.712585 136.047287,876.475403 141.021332,868.493286 
M381.035034,795.874695 
	C384.117188,790.939331 391.339172,789.237854 392.319336,782.153748 
	C375.510071,782.153748 359.301788,782.153748 343.093506,782.153748 
	C342.754333,782.600769 342.415131,783.047852 342.075958,783.494873 
	C344.839020,786.323914 347.380341,789.423462 350.420288,791.914551 
	C354.363159,795.145691 355.992798,798.976379 355.985687,804.049072 
	C355.902008,863.874207 355.912476,923.699463 355.973236,983.524658 
	C355.978485,988.697021 354.661774,992.967346 350.275635,996.104675 
	C348.257416,997.548401 346.374725,999.271545 344.752869,1001.146667 
	C343.738861,1002.319031 343.325562,1004.010986 342.474976,1005.828125 
	C359.627167,1005.828125 375.831970,1005.828125 393.715393,1005.828125 
	C391.423065,1002.927185 390.325531,1000.621643 388.502411,999.390564 
	C380.756989,994.159912 378.153137,987.091675 378.983032,977.928772 
	C379.626770,970.821350 379.465759,963.587830 379.037811,956.447815 
	C378.151581,941.661743 385.772461,929.222961 389.358185,914.189575 
	C390.493591,917.231140 391.236542,918.736450 391.622162,920.328369 
	C396.162964,939.073242 400.105896,957.986267 405.385895,976.518860 
	C407.948639,985.513916 406.436554,992.301575 400.303314,998.775757 
	C398.509766,1000.668945 397.266266,1003.083252 395.331757,1005.897034 
	C412.051147,1005.897034 427.452209,1005.897034 444.686340,1005.897034 
	C441.842590,1002.519836 440.107971,1000.073608 437.990784,998.022156 
	C432.826385,993.017822 427.951630,988.139282 426.453979,980.475586 
	C424.415497,970.044250 421.438049,959.797058 418.883026,949.466003 
	C413.254059,926.705444 407.594116,903.952393 402.099487,881.159485 
	C401.667877,879.369080 402.095093,877.187195 402.679504,875.365784 
	C407.251007,861.118347 411.913239,846.899475 416.635925,832.701233 
	C422.272278,815.755981 425.821625,797.688721 441.554596,786.095642 
	C442.476532,785.416382 442.666016,783.742981 443.337555,782.209839 
	C427.131165,782.209839 411.767517,782.209839 396.403839,782.209839 
	C396.060822,782.724976 395.717773,783.240173 395.374725,783.755310 
	C398.428345,786.515930 401.458954,789.302490 404.540710,792.031311 
	C409.770966,796.662537 410.214752,798.481628 407.999329,805.112549 
	C402.626953,821.192383 397.324768,837.295715 391.976227,853.383545 
	C388.184326,864.789062 384.362915,876.184692 380.554688,887.584778 
	C379.353760,885.923279 379.045837,884.341553 379.045807,882.759827 
	C379.044983,856.596924 379.040436,830.433838 379.178619,804.271545 
	C379.192230,801.694153 380.133667,799.121582 381.035034,795.874695 
M772.809875,784.062988 
	C765.925903,787.404968 761.239075,792.890991 757.770874,799.542542 
	C748.528198,817.269043 746.328674,836.695923 745.182434,856.114136 
	C743.355103,887.070435 743.530945,918.078613 747.078613,948.942810 
	C748.676208,962.842102 751.416992,976.562805 758.092346,989.131592 
	C765.659424,1003.379333 779.045898,1009.500061 792.486267,1004.840393 
	C803.401428,1001.056152 808.858093,992.201111 812.913147,982.279907 
	C818.775879,967.935791 820.788757,952.712036 821.975464,937.437744 
	C824.560303,904.167847 825.224609,870.876587 820.807556,837.686279 
	C819.048645,824.468994 816.501282,811.399902 810.051453,799.472656 
	C801.689880,784.010315 788.582825,778.399902 772.809875,784.062988 
M241.208435,844.299255 
	C240.809555,841.161255 240.532364,838.002075 239.990311,834.888977 
	C237.848541,822.588135 235.611725,810.301514 229.376053,799.219360 
	C223.965393,789.603394 216.700348,782.489990 204.951904,781.851196 
	C191.540451,781.121887 183.076797,788.533997 177.262222,799.547241 
	C168.350327,816.427002 165.940140,835.025269 164.891861,853.621826 
	C162.912827,888.729980 162.546661,923.883118 168.098373,958.777771 
	C170.090790,971.300903 173.362274,983.493164 180.801910,994.155823 
	C190.960052,1008.714661 210.422302,1010.570679 222.700989,997.878174 
	C232.149017,988.111755 235.946121,975.555176 237.857178,962.688904 
	C240.224564,946.750244 242.337997,930.637939 242.655396,914.563110 
	C243.111603,891.458313 241.848282,868.319702 241.208435,844.299255 
M950.785339,874.500000 
	C950.785339,908.992554 950.547668,943.487915 950.946594,977.975830 
	C951.050903,986.992310 949.236938,994.267517 941.670044,999.684937 
	C939.874695,1000.970276 938.712646,1003.140320 936.492554,1005.833679 
	C939.580078,1006.066895 941.031189,1006.270874 942.482422,1006.271973 
	C965.810669,1006.289246 989.139954,1006.168884 1012.466431,1006.368530 
	C1017.365295,1006.410461 1018.705200,1004.671387 1018.665466,999.969238 
	C1018.473999,977.309143 1018.594543,954.646484 1018.560425,931.984802 
	C1018.558105,930.417419 1018.198364,928.850586 1018.004883,927.283508 
	C1017.558350,927.165649 1017.111816,927.047729 1016.665283,926.929871 
	C1015.843689,928.542847 1014.732727,930.073303 1014.245239,931.781616 
	C1009.410095,948.725220 1004.639038,965.687378 999.935730,982.668030 
	C998.035095,989.530090 995.884094,991.359619 988.705322,991.517395 
	C985.540894,991.586914 982.352783,991.302185 979.212769,991.587830 
	C975.065247,991.965210 973.852783,990.449219 973.881348,986.258118 
	C974.065552,959.265259 973.971619,932.270508 973.984924,905.276367 
	C973.985535,903.983398 974.137085,902.690552 974.213318,901.477722 
	C981.617065,899.930847 982.515076,900.344360 985.341797,906.378174 
	C987.105957,910.143799 988.838989,913.924744 990.661072,917.662231 
	C992.066528,920.545166 993.588867,923.371155 995.059143,926.222473 
	C995.511902,926.077759 995.964661,925.933105 996.417419,925.788391 
	C996.417419,904.130432 996.417419,882.472473 996.417419,860.814453 
	C994.407532,861.769836 993.475159,863.045715 992.765442,864.435242 
	C990.268311,869.324158 987.850525,874.253601 985.397278,879.165039 
	C982.438965,885.087402 981.295105,885.620728 973.976990,884.181274 
	C973.976990,882.671692 973.976929,881.044189 973.976929,879.416748 
	C973.977112,855.921814 973.977417,832.426941 973.977600,808.932007 
	C973.977722,796.428650 973.977661,796.428650 986.551941,796.466736 
	C995.974060,796.495239 997.502808,797.873169 1000.017639,806.961548 
	C1004.583191,823.461060 1009.342163,839.907471 1014.122620,856.346313 
	C1014.615845,858.042664 1015.800171,859.537964 1016.663818,861.126526 
	C1017.113953,860.997925 1017.564087,860.869324 1018.014282,860.740723 
	C1018.204712,859.174316 1018.558838,857.608215 1018.561157,856.041565 
	C1018.594543,833.379883 1018.478516,810.717285 1018.661865,788.057068 
	C1018.699768,783.374390 1017.380249,781.588074 1012.456238,781.630676 
	C989.129761,781.832397 965.800476,781.707764 942.472229,781.734070 
	C940.937927,781.735779 939.403809,782.026917 936.127991,782.361145 
	C939.254578,785.707275 941.041321,788.303223 943.443359,790.055908 
	C949.503479,794.477600 950.948853,800.397705 950.871948,807.515198 
	C950.634277,829.507874 950.785278,851.504761 950.785339,874.500000 
M554.092346,854.452881 
	C559.400085,868.246948 564.269226,882.230225 570.119141,895.790344 
	C578.741455,915.776794 589.059875,935.084595 594.264343,956.397827 
	C596.509460,965.591980 598.689636,974.954163 595.573120,984.450134 
	C593.289978,991.406677 587.999207,993.772583 582.123413,989.415527 
	C577.875977,986.265930 574.122070,981.828369 571.523804,977.193909 
	C563.803894,963.424133 560.479187,948.058655 556.787109,932.867371 
	C556.355408,931.091248 555.391907,929.444458 554.674988,927.737671 
	C554.189697,927.917480 553.704346,928.097290 553.219055,928.277100 
	C553.219055,954.096680 553.219055,979.916260 553.219055,1007.003845 
	C555.915283,1005.303528 557.870361,1004.258057 559.617065,1002.937134 
	C567.991455,996.604370 566.666809,996.847168 575.147339,1001.824890 
	C590.232178,1010.679016 605.514099,1005.756531 612.751831,989.827209 
	C619.102722,975.849731 618.004883,961.148743 616.360046,946.600830 
	C614.678467,931.728027 608.274048,918.232544 602.332153,904.663635 
	C592.798401,882.892700 583.080627,861.194885 574.025696,839.224976 
	C569.505920,828.258606 566.963013,816.634460 568.816650,804.572815 
	C570.044128,796.585510 576.231628,793.963745 582.447205,799.189880 
	C586.058411,802.226196 589.184937,806.168762 591.582275,810.258728 
	C599.634338,823.996033 604.640320,838.953308 608.182495,854.434814 
	C608.655640,856.502625 609.640442,858.453369 610.388306,860.458313 
	C610.929932,860.370789 611.471619,860.283203 612.013306,860.195679 
	C612.302795,858.538330 612.839905,856.881714 612.844421,855.223633 
	C612.905151,832.897156 612.932312,810.570251 612.827820,788.244080 
	C612.818298,786.212341 611.844482,784.185059 611.318420,782.155701 
	C609.289551,783.040466 606.969910,783.553467 605.281555,784.873718 
	C597.547974,790.920654 597.611389,791.001770 589.516052,786.085327 
	C572.905212,775.997192 555.033813,783.840393 550.773376,802.878174 
	C546.907898,820.151184 549.502930,836.942139 554.092346,854.452881 
M481.531830,955.499817 
	C481.531799,962.995422 481.117523,970.519958 481.639099,977.979065 
	C482.257996,986.829956 479.874878,993.929443 472.540771,999.288940 
	C470.598450,1000.708313 469.295471,1003.002502 466.956421,1005.775146 
	C484.880188,1005.775146 501.187500,1005.775146 517.494873,1005.775146 
	C517.743896,1005.374756 517.992920,1004.974365 518.242004,1004.573975 
	C516.284485,1002.485474 514.592285,1000.032654 512.319397,998.377136 
	C505.659180,993.525879 504.090027,986.898621 504.156525,979.128479 
	C504.356079,955.810364 504.206787,932.489380 504.260925,909.169678 
	C504.266663,906.694885 504.495483,904.175354 504.995178,901.753845 
	C510.773712,873.751099 516.859192,845.809204 522.347107,817.750244 
	C524.729858,805.567383 527.808044,794.121582 538.280212,786.147095 
	C539.269531,785.393738 539.642029,783.830566 540.604919,782.095459 
	C525.479126,782.095459 511.265320,782.095459 495.850189,782.095459 
	C497.309540,784.283081 498.052155,785.826904 499.182556,786.995544 
	C501.145691,789.024841 503.269470,790.920288 505.469208,792.694092 
	C508.877930,795.442566 509.467621,798.688477 508.515839,802.908325 
	C505.444641,816.524780 502.740265,830.223450 499.829712,843.876709 
	C498.437439,850.407837 496.899323,856.907837 495.427277,863.421936 
	C495.009308,863.450012 494.591370,863.478088 494.173401,863.506104 
	C493.767426,862.405273 493.212799,861.335205 492.977783,860.198975 
	C489.340607,842.615662 486.008148,824.963806 482.021484,807.460754 
	C480.202118,799.473145 481.085114,793.203918 488.376251,788.471924 
	C490.314362,787.214050 491.550812,784.875061 493.837677,782.171509 
	C476.999054,782.171509 461.814056,782.171509 445.298920,782.171509 
	C447.319397,785.053040 448.615143,787.064697 450.073822,788.950256 
	C454.217590,794.306641 458.710846,799.176208 460.084381,806.416809 
	C464.979065,832.218872 470.535522,857.894531 475.603668,883.664856 
	C478.742004,899.622681 482.832977,915.457275 481.623993,932.019470 
	C481.079742,939.475403 481.532074,947.004089 481.531830,955.499817 
M328.829498,859.871704 
	C332.944000,860.002319 331.449860,856.753113 331.459595,854.953613 
	C331.579834,832.788879 331.552673,810.623108 331.500275,788.457825 
	C331.495331,786.364197 331.062286,784.271545 330.716095,781.178467 
	C328.519623,782.525208 326.894775,783.213135 325.658081,784.330627 
	C318.652924,790.660522 318.343018,790.727112 310.243134,785.716797 
	C300.067200,779.422363 288.771973,780.885803 280.250427,789.543030 
	C274.120575,795.770630 270.550720,803.436523 268.073975,811.620605 
	C262.776520,829.125244 261.081726,847.154114 260.603821,865.351685 
	C259.785370,896.518494 259.618317,927.661377 264.901001,958.530457 
	C267.041718,971.039978 270.179504,983.304443 277.496307,993.995605 
	C282.217773,1000.894409 288.423981,1005.650330 297.120575,1006.144775 
	C310.733459,1006.918823 319.959747,1000.360962 325.227051,986.127319 
	C331.369019,969.530090 331.104095,952.131226 331.337219,934.819641 
	C331.351227,933.776672 330.201172,932.718140 329.592773,931.666809 
	C328.746674,932.709778 327.373260,933.650452 327.147583,934.813782 
	C326.260986,939.383545 326.229431,944.162048 324.980957,948.610596 
	C321.671295,960.403259 318.256317,972.194641 314.121826,983.713257 
	C312.495667,988.243591 308.647949,991.735474 302.885986,991.240051 
	C297.109192,990.743286 293.669342,987.020996 292.211792,982.040588 
	C290.025604,974.570557 287.748810,966.920776 287.164551,959.221924 
	C283.680084,913.306641 283.252777,867.341248 287.107574,821.425659 
	C287.665558,814.779663 289.808167,808.028870 292.466431,801.865173 
	C295.043793,795.889099 300.967468,795.048645 306.269470,798.965088 
	C308.106628,800.322205 310.100128,802.003174 311.002228,803.997620 
	C314.819397,812.436646 318.944366,820.837952 321.639893,829.655640 
	C324.589722,839.305237 326.088959,849.398254 328.829498,859.871704 
z"/>
<path fill="#0C6181" opacity="1.000000" stroke="none" 
	d="
M359.613953,641.638916 
	C363.132538,639.369080 366.347229,637.296631 368.971161,635.605042 
	C379.284607,654.126526 389.563873,672.586670 399.976257,691.285828 
	C352.323212,706.226562 303.259033,719.776794 253.570053,730.914307 
	C203.903015,742.046814 154.065277,752.417725 106.379021,762.675781 
	C240.672562,762.675781 377.172638,762.675781 515.097595,762.675781 
	C456.123474,741.652161 412.391693,704.591614 385.487885,649.205383 
	C358.547150,593.742981 355.351532,536.164551 376.380737,478.326813 
	C410.816559,383.616241 501.321472,325.671112 601.543884,333.602173 
	C697.364746,341.184875 777.645996,410.446930 798.638550,506.311890 
	C806.412598,541.813232 805.281250,577.328613 795.438293,612.465576 
	C785.549866,647.764709 767.869080,678.624512 742.624878,705.108521 
	C717.523254,731.442871 687.540771,750.296631 653.268311,762.709106 
	C783.939575,762.709106 914.610901,762.709106 1045.663330,762.709106 
	C1045.663330,766.219482 1045.663330,769.421265 1045.663330,772.909973 
	C709.228210,772.909973 372.864227,772.909973 36.227676,772.909973 
	C36.227676,769.659363 36.227676,766.573730 36.227676,763.498474 
	C36.536316,763.297791 36.826176,762.947144 37.059055,762.981628 
	C43.347584,763.912109 47.912304,761.065186 52.537296,757.057861 
	C63.349262,747.689819 76.037369,741.578308 90.084892,737.514221 
	C90.084892,732.710815 90.322044,727.892212 90.022598,723.107178 
	C89.677505,717.592529 85.274284,713.498718 79.487709,712.936707 
	C76.186890,712.616150 72.807045,712.857544 69.559731,712.290527 
	C62.994217,711.144348 58.743385,705.788025 59.128105,699.690430 
	C59.516560,693.533630 64.408836,688.150269 70.788010,688.083252 
	C92.116341,687.859131 113.450302,687.851501 134.778152,688.100464 
	C141.036728,688.173584 145.639786,693.340820 146.064880,699.392395 
	C146.520889,705.884094 142.740784,710.926453 136.088562,712.214844 
	C133.346207,712.745972 130.476761,712.642517 127.662720,712.777893 
	C119.757545,713.158264 115.124603,717.881470 114.965034,725.804077 
	C114.915054,728.285706 114.957245,730.769287 114.957245,733.526978 
	C147.751282,730.158264 179.360306,722.941589 210.336090,712.913330 
	C263.129761,695.821655 312.345612,671.174683 359.613953,641.638916 
M682.904175,686.569458 
	C677.007141,680.901306 674.257141,674.201233 675.403259,665.868896 
	C675.635925,664.177551 674.421570,661.796631 673.123962,660.464233 
	C664.061829,651.159424 654.822388,642.026550 645.600891,632.877747 
	C634.161560,621.528503 622.684692,610.216980 611.287659,598.952087 
	C616.741150,593.955872 621.675720,589.435120 627.098267,584.467224 
	C628.334106,585.940491 629.415649,587.442993 630.706543,588.736694 
	C649.538086,607.610229 668.362915,626.490845 687.318909,645.238770 
	C688.769653,646.673584 691.296936,648.070801 693.149048,647.870361 
	C702.042908,646.907715 709.022644,649.985962 714.962463,656.433044 
	C720.794067,662.762573 726.890442,668.848022 733.155762,675.335815 
	C756.373108,646.249878 770.256592,614.361572 775.122375,577.942993 
	C764.575195,577.942993 754.606689,577.903076 744.638611,577.956299 
	C737.319580,577.995361 731.201660,575.296997 726.957764,569.413452 
	C724.885254,566.540283 722.636292,566.018066 719.443604,566.030518 
	C693.114563,566.133118 666.784912,566.088501 640.455444,566.088440 
	C638.692810,566.088440 636.930115,566.088379 635.596313,566.088379 
	C636.003357,559.084778 636.375488,552.682861 636.779785,545.726379 
	C638.193481,545.726379 639.982544,545.726379 641.771606,545.726379 
	C667.767761,545.726318 693.764099,545.690430 719.759949,545.774963 
	C722.768860,545.784729 724.975647,545.309204 726.906433,542.576111 
	C731.137939,536.586365 737.395447,534.104736 744.583618,534.016724 
	C752.914429,533.914734 761.247559,533.992493 769.579651,533.992126 
	C771.645813,533.992065 773.711914,533.992126 775.835266,533.992126 
	C771.352783,488.357635 750.285706,451.001404 735.534546,434.634033 
	C728.294556,441.997681 721.025269,449.292419 713.871582,456.698822 
	C708.423279,462.339630 701.963257,464.759125 694.094116,464.177155 
	C692.011780,464.023163 689.250366,465.018402 687.740967,466.466217 
	C678.606873,475.227264 669.713684,484.241058 660.801208,493.231110 
	C650.268921,503.854980 639.798706,514.540344 629.380737,525.118713 
	C624.391052,519.707092 619.946533,514.886719 614.366394,508.834717 
	C615.871704,507.891113 617.689148,507.160278 618.968628,505.888275 
	C637.044617,487.917816 655.086731,469.912628 672.991882,451.772552 
	C674.394287,450.351807 675.617126,447.752899 675.385071,445.893494 
	C674.396240,437.970154 676.840576,431.496826 682.365784,425.978302 
	C688.609192,419.742371 694.853882,413.507599 701.085205,407.259583 
	C702.440613,405.900543 703.741577,404.487213 705.082397,403.083374 
	C676.308044,378.438477 634.898926,363.241974 605.673523,361.436462 
	C605.673523,371.916992 605.713013,382.374969 605.660522,392.832489 
	C605.621277,400.657318 603.493713,407.784302 596.902771,412.516449 
	C594.158264,414.486908 593.628784,416.540131 593.637817,419.526459 
	C593.714722,444.855865 593.681824,470.185547 593.681763,495.515167 
	C593.681763,497.236786 593.681702,498.958435 593.681702,500.403076 
	C586.465149,500.403076 580.032227,500.403076 573.122131,500.403076 
	C573.122131,498.916504 573.122070,497.128784 573.122070,495.341034 
	C573.122009,470.178070 573.078003,445.014893 573.177429,419.852325 
	C573.189941,416.678802 572.752625,414.364655 569.841614,412.308929 
	C565.044189,408.921112 562.064514,404.062714 561.899902,397.987976 
	C561.651978,388.837524 561.600342,379.681580 561.488220,370.527710 
	C561.450439,367.440704 561.482239,364.352844 561.482239,360.894073 
	C523.805359,365.599213 490.858948,379.421356 461.220947,403.257568 
	C469.353912,411.218964 477.091736,418.740112 484.766388,426.325134 
	C489.885559,431.384521 492.713318,437.561432 491.482880,444.723328 
	C490.908081,448.068970 491.775391,449.925171 493.950348,452.085754 
	C512.037964,470.053619 530.040039,488.107513 548.060730,506.142639 
	C549.325806,507.408752 550.532654,508.733032 551.566467,509.819855 
	C546.802490,514.999634 542.354553,519.835754 537.764954,524.825928 
	C537.042847,524.156189 536.307312,523.517090 535.619751,522.830017 
	C516.783020,504.008881 497.975525,485.158325 479.063171,466.413544 
	C477.823181,465.184570 475.684662,463.910736 474.138367,464.097839 
	C464.672211,465.243378 457.385040,461.746155 451.118988,454.858459 
	C444.758575,447.867004 437.998932,441.238708 431.033875,434.059387 
	C408.033295,464.106171 394.902832,496.937866 391.042450,533.992554 
	C401.714966,533.992554 411.859558,533.956482 422.003723,534.004761 
	C429.219940,534.039062 435.557983,536.461121 439.797821,542.404419 
	C441.886993,545.332947 444.147919,545.789246 447.318848,545.778076 
	C473.314697,545.686462 499.311005,545.726318 525.307190,545.726379 
	C527.094849,545.726379 528.882446,545.726379 530.059204,545.726379 
	C530.514160,552.796875 530.930664,559.269470 531.369385,566.088379 
	C529.456177,566.088379 527.644714,566.088440 525.833313,566.088440 
	C499.337219,566.088562 472.840881,566.044495 446.345551,566.185974 
	C444.543793,566.195618 442.124573,567.099854 441.057800,568.437561 
	C435.916595,574.884460 429.530975,578.160828 421.220856,577.984009 
	C412.725952,577.803406 404.224152,577.929016 395.725525,577.962891 
	C394.484619,577.967834 393.244598,578.207703 391.687500,578.372314 
	C396.845459,614.563599 410.473114,646.519165 433.565094,675.078857 
	C440.375397,668.178772 446.748505,661.860901 452.959076,655.387085 
	C458.395905,649.719910 464.842102,647.292969 472.717529,647.756287 
	C474.966248,647.888611 477.877991,646.764221 479.535706,645.205688 
	C486.936493,638.247559 494.012360,630.942444 501.170624,623.727966 
	C514.178467,610.617981 527.161377,597.483276 539.927246,584.588684 
	C545.253906,589.489258 550.112183,593.958984 556.118774,599.485107 
	C554.548828,600.543579 552.672974,601.423584 551.289490,602.798889 
	C532.156799,621.818237 513.066406,640.880493 494.063202,660.028992 
	C492.689941,661.412781 490.983185,663.758972 491.283020,665.296692 
	C493.037628,674.295471 489.597534,681.146301 483.393097,687.138306 
	C477.208130,693.111450 471.048065,699.110535 464.518402,705.446289 
	C493.608887,727.762695 525.420105,740.698853 561.482544,745.135681 
	C561.482544,735.868591 561.474915,727.084412 561.484863,718.300232 
	C561.493347,710.777161 563.584961,704.022034 569.919373,699.509216 
	C572.652161,697.562378 573.179321,695.448120 573.170288,692.439453 
	C573.088135,665.110352 573.117920,637.780945 573.132019,610.451599 
	C573.132935,608.724487 573.276184,606.997437 573.338928,605.591614 
	C580.373596,605.591614 586.776672,605.591614 593.681763,605.591614 
	C593.681763,607.308777 593.681763,609.110840 593.681763,610.912903 
	C593.681824,638.242249 593.650879,665.571655 593.753235,692.900635 
	C593.759888,694.679260 594.228271,697.233948 595.435852,698.104370 
	C603.444275,703.877930 605.843384,711.891052 605.698914,721.212830 
	C605.578247,728.996033 605.674133,736.782532 605.674133,745.088013 
	C641.681885,740.609436 673.460083,727.663330 702.129028,705.582581 
	C695.684753,699.212402 689.544739,693.143005 682.904175,686.569458 
z"/>
<path fill="#0B6181" opacity="1.000000" stroke="none" 
	d="
M761.156921,409.854248 
	C701.031494,339.146057 625.057373,314.259644 534.409485,329.396759 
	C534.301147,328.390839 534.151062,326.996765 533.926880,324.914734 
	C595.083252,321.463196 656.014465,318.024353 717.385925,314.560669 
	C717.822083,313.594482 718.276489,312.385315 718.889526,311.262848 
	C722.718445,304.251648 728.469055,300.421478 736.638245,300.573853 
	C744.594482,300.722290 750.397156,304.496613 753.644226,311.562286 
	C755.975342,316.635010 757.426453,322.112183 760.196228,327.355896 
	C759.965881,322.445435 759.735535,317.534973 759.496643,312.441742 
	C763.980835,312.029358 768.415710,311.473907 772.867554,311.237274 
	C793.981628,310.114899 815.105957,309.177887 836.216064,307.988342 
	C862.803406,306.490204 889.378174,304.768585 915.963074,303.225800 
	C931.917908,302.299896 947.888977,301.638153 963.832825,300.561951 
	C965.916199,300.421295 968.415527,298.968170 969.796509,297.338531 
	C973.527344,292.935822 977.986328,289.931976 983.616638,289.104492 
	C993.483276,287.654449 1003.377502,286.317566 1013.300659,285.346436 
	C1023.601929,284.338287 1033.669678,292.636658 1035.096191,303.297394 
	C1038.781372,330.838593 1042.404663,358.389740 1045.773438,385.970978 
	C1047.544189,400.468567 1039.604980,409.936157 1025.135132,411.638397 
	C1016.898315,412.607391 1008.691650,413.832855 1000.471375,414.942047 
	C990.797791,416.247345 982.906067,411.129425 979.990173,401.777130 
	C977.763794,394.636536 975.433899,387.527985 973.100586,380.421417 
	C972.712952,379.240784 972.071594,378.143524 970.664612,377.205261 
	C971.543396,387.755920 972.422180,398.306580 973.346985,409.409454 
	C962.947021,411.555359 952.769165,413.671417 942.584534,415.753906 
	C913.502014,421.700531 884.420410,427.651794 855.331238,433.565704 
	C833.712585,437.960846 812.076721,442.271820 790.464417,446.697754 
	C787.369751,447.331512 785.670593,446.813263 783.750610,443.744232 
	C776.614685,432.337494 768.898926,421.293518 761.156921,409.854248 
z"/>
<path fill="#0B6181" opacity="1.000000" stroke="none" 
	d="
M165.043900,475.353455 
	C170.587463,467.840149 177.618759,465.767487 186.490601,468.476501 
	C188.555969,469.107178 191.707809,469.078918 193.300430,467.910248 
	C209.315872,456.158112 227.096848,448.935120 246.713303,446.098511 
	C247.015778,446.054779 247.292252,445.831207 248.096069,445.442200 
	C246.984741,436.608551 246.104736,427.553497 244.665161,418.588318 
	C241.397400,398.237671 255.589294,377.780487 275.663239,373.985168 
	C277.707397,373.598663 279.974243,372.284424 281.335571,370.707947 
	C301.539429,347.311798 327.010071,335.826263 357.918121,334.824005 
	C384.354248,333.966736 410.743591,331.704987 437.159119,330.158264 
	C451.615173,329.311859 466.080750,328.618774 480.546326,327.949921 
	C484.065979,327.787201 486.399261,327.458435 487.457367,322.920807 
	C489.464172,314.314911 497.338043,308.840576 505.800018,308.774963 
	C514.568665,308.706970 521.027527,313.629303 524.105286,322.714447 
	C525.055725,325.519989 526.026917,328.318451 526.910461,330.892639 
	C427.635498,362.390198 370.234558,429.181793 355.201172,532.754211 
	C341.784668,532.274048 328.410950,529.804626 316.215057,523.475342 
	C305.014008,517.662292 294.183075,512.528259 281.198608,510.467377 
	C264.163727,507.763580 253.650055,492.961151 251.983017,475.595734 
	C251.429413,469.829041 250.498123,464.098633 249.560272,456.993927 
	C241.123276,459.330994 232.768951,460.809387 225.122787,463.990082 
	C216.907913,467.407410 209.381317,472.466370 201.505814,476.719025 
	C198.602631,478.286713 197.782959,480.531799 198.073654,483.725311 
	C198.770920,491.384766 195.813583,497.435883 189.150864,501.345367 
	C182.495285,505.250763 175.852386,504.819336 169.390350,499.989716 
	C169.630600,499.273285 169.941010,499.073090 170.592682,498.938629 
	C172.129211,499.370911 173.324478,499.737518 174.519760,500.104095 
	C166.316772,492.729187 162.808731,484.952271 171.762558,473.185547 
	C169.429672,473.938293 167.236786,474.645874 165.043900,475.353455 
z"/>
<path fill="#0D6281" opacity="1.000000" stroke="none" 
	d="
M673.335571,789.281250 
	C666.569336,794.292297 664.729248,800.639587 664.885620,808.646606 
	C665.340942,831.963379 665.129456,855.295349 664.962036,878.619812 
	C664.934692,882.430115 665.693726,883.987061 669.867371,883.777405 
	C676.847412,883.426636 683.860901,883.562927 690.854248,883.736877 
	C693.942444,883.813599 695.369385,883.102417 695.352234,879.627869 
	C695.228149,854.470093 695.213135,829.311340 695.307068,804.153442 
	C695.326660,798.914856 693.469604,794.927979 689.504578,791.542236 
	C686.611267,789.071655 684.173828,786.067139 681.533142,783.300659 
	C681.824463,782.912781 682.115784,782.524902 682.407104,782.137024 
	C698.723389,782.137024 715.039734,782.137024 731.356018,782.137024 
	C731.629150,782.510254 731.902283,782.883484 732.175476,783.256714 
	C730.399231,785.234863 728.895325,787.584717 726.796509,789.122498 
	C720.073303,794.048218 718.332397,800.553406 718.367737,808.658569 
	C718.614380,865.138916 718.651611,921.621704 718.338135,978.101318 
	C718.289185,986.933838 720.006836,994.052002 727.384949,999.377625 
	C729.254028,1000.726807 730.553894,1002.864502 733.099060,1005.758423 
	C715.125122,1005.758423 698.808350,1005.758423 680.812927,1005.758423 
	C683.307068,1002.917236 684.758118,1000.574463 686.814880,999.047424 
	C693.632507,993.985535 695.550293,987.356995 695.421143,979.058167 
	C695.034851,954.239014 695.205933,929.409485 695.364563,904.585388 
	C695.388916,900.778442 694.644775,899.295044 690.455994,899.479309 
	C682.182190,899.843262 673.881104,899.586731 665.312500,899.586731 
	C665.204163,901.338562 665.057068,902.614319 665.056458,903.890137 
	C665.043518,929.548340 665.229736,955.208740 664.926880,980.863403 
	C664.845642,987.748779 666.555237,993.117432 672.011597,997.457275 
	C674.564758,999.487915 676.497681,1002.298340 678.711731,1004.755371 
	C678.424561,1005.129456 678.137390,1005.503479 677.850220,1005.877502 
	C661.651062,1005.877502 645.451965,1005.877502 627.606689,1005.877502 
	C629.768066,1003.202942 630.898743,1001.014526 632.681519,999.734192 
	C640.403259,994.188904 642.099487,986.736145 642.044983,977.556274 
	C641.713684,921.743286 641.721130,865.926453 642.040344,810.113342 
	C642.091797,801.115173 640.438171,793.808289 632.829712,788.402588 
	C631.005127,787.106201 629.799011,784.939270 627.404663,782.101562 
	C645.372009,782.101562 661.571289,782.101562 679.478394,782.101562 
	C676.975891,785.059448 675.291321,787.050598 673.335571,789.281250 
z"/>
<path fill="#106483" opacity="1.000000" stroke="none" 
	d="
M909.218811,882.206787 
	C906.543213,885.151062 904.081238,887.809448 901.358215,890.749695 
	C901.930359,891.292847 902.645630,892.129578 903.508362,892.766785 
	C913.762573,900.340515 918.756592,910.663574 918.873962,923.230896 
	C919.056152,942.727905 919.073914,962.229919 918.821472,981.725403 
	C918.753113,987.001892 920.363464,991.027161 924.041443,994.622131 
	C927.333130,997.839417 930.330627,1001.357666 933.170349,1005.500122 
	C923.543152,1005.816223 913.963318,1008.274475 904.911316,1003.938782 
	C898.324646,1000.783997 896.183594,994.665100 896.168091,987.733459 
	C896.122192,967.234924 896.328491,946.733093 895.993896,926.239807 
	C895.908997,921.039551 894.928223,915.571960 893.036621,910.745483 
	C889.725037,902.295715 882.528137,898.906860 872.808777,900.303833 
	C872.731750,901.968750 872.579712,903.736572 872.578674,905.504578 
	C872.564148,930.169617 872.837341,954.839233 872.417969,979.497131 
	C872.282043,987.489624 874.201538,993.745178 880.621643,998.633423 
	C882.752686,1000.256042 884.367126,1002.557190 886.217773,1004.548096 
	C885.995605,1004.948303 885.773438,1005.348450 885.551270,1005.748596 
	C869.138062,1005.748596 852.724915,1005.748596 836.311707,1005.748596 
	C836.050842,1005.378296 835.789978,1005.007996 835.529053,1004.637756 
	C837.843445,1002.212036 839.913696,999.475281 842.523804,997.426331 
	C847.719910,993.347351 849.400879,988.214783 849.385010,981.733032 
	C849.242615,923.237122 849.242249,864.740723 849.385193,806.244812 
	C849.401123,799.762146 847.716919,794.633118 842.521301,790.555969 
	C839.912354,788.508728 837.843018,785.773804 834.598389,782.374146 
	C837.676086,782.004395 839.100708,781.683472 840.524780,781.685730 
	C853.022766,781.705444 865.528687,781.520813 878.016968,781.898987 
	C902.201782,782.631165 916.455261,794.955017 920.423157,818.731506 
	C923.488098,837.097107 922.866394,855.274536 915.171204,872.623413 
	C913.708008,875.922119 911.367920,878.831726 909.218811,882.206787 
M896.882446,853.219849 
	C896.254028,839.472656 896.266296,825.655762 894.780518,812.001831 
	C893.723022,802.282959 887.443481,797.588684 878.508118,796.613953 
	C874.037231,796.126221 872.403931,797.137207 872.448364,802.059326 
	C872.687134,828.524841 872.549561,854.993652 872.570068,881.461365 
	C872.570923,882.546814 872.855347,883.632019 872.997681,884.646545 
	C884.740906,885.265137 890.179993,881.967896 893.600159,871.223206 
	C895.344604,865.742920 895.816101,859.857483 896.882446,853.219849 
z"/>
<path fill="#106483" opacity="1.000000" stroke="none" 
	d="
M140.923569,868.865723 
	C136.047287,876.475403 131.268768,883.712585 126.132828,891.491028 
	C125.935799,891.305359 126.657249,892.137573 127.521523,892.776550 
	C137.771088,900.354187 142.757721,910.678345 142.874725,923.244995 
	C143.054703,942.574158 143.106079,961.908997 142.807068,981.235168 
	C142.719620,986.888550 144.426880,991.181702 148.376129,995.006409 
	C151.561295,998.091187 154.429382,1001.503418 157.159500,1005.518311 
	C147.540939,1005.809814 137.957626,1008.277100 128.905487,1003.936218 
	C122.321228,1000.778931 120.183151,994.659241 120.167809,987.728333 
	C120.122459,967.231140 120.328506,946.730713 119.993919,926.238770 
	C119.909019,921.038879 118.928085,915.571655 117.036652,910.745483 
	C113.725288,902.296326 106.531288,898.908386 96.809219,900.302673 
	C96.732040,901.967285 96.579773,903.734924 96.578735,905.502625 
	C96.564209,930.166077 96.835983,954.833984 96.418854,979.490356 
	C96.283707,987.478455 98.189995,993.740906 104.615669,998.627747 
	C106.748215,1000.249512 108.364098,1002.550720 110.216187,1004.541321 
	C109.995087,1004.942261 109.773994,1005.343201 109.552895,1005.744141 
	C93.139908,1005.744141 76.726921,1005.744141 60.313931,1005.744141 
	C60.051651,1005.378540 59.789371,1005.012878 59.527088,1004.647278 
	C61.839001,1002.221313 63.906239,999.483887 66.514511,997.435242 
	C71.706940,993.357117 73.400726,988.230713 73.384941,981.747131 
	C73.242554,923.255127 73.242348,864.762512 73.385330,806.270508 
	C73.401161,799.792480 71.742371,794.652710 66.540565,790.574768 
	C63.928207,788.526794 61.852455,785.794434 58.596340,782.391724 
	C61.661102,782.012634 63.079254,781.683411 64.496803,781.685974 
	C77.160599,781.708862 89.831749,781.536865 102.486389,781.909363 
	C125.630486,782.590576 139.792908,794.560181 144.141357,817.225037 
	C147.459091,834.517639 146.782639,851.691528 140.923569,868.865723 
M106.101738,884.058350 
	C111.876373,882.346558 115.825195,878.370239 116.997337,872.744507 
	C118.883698,863.690735 120.784569,854.465759 120.976151,845.277649 
	C121.210442,834.041138 120.293442,822.683411 118.738197,811.536621 
	C117.433350,802.184509 111.285904,797.578369 102.520447,796.615906 
	C98.062157,796.126404 96.403023,797.112610 96.447754,802.052856 
	C96.687515,828.533447 96.547905,855.017334 96.569145,881.500122 
	C96.570015,882.584106 96.869461,883.667847 97.079826,885.089844 
	C100.061829,884.785706 102.683578,884.518372 106.101738,884.058350 
z"/>
<path fill="#0C6181" opacity="1.000000" stroke="none" 
	d="
M380.839752,796.210754 
	C380.133667,799.121582 379.192230,801.694153 379.178619,804.271545 
	C379.040436,830.433838 379.044983,856.596924 379.045807,882.759827 
	C379.045837,884.341553 379.353760,885.923279 380.554688,887.584778 
	C384.362915,876.184692 388.184326,864.789062 391.976227,853.383545 
	C397.324768,837.295715 402.626953,821.192383 407.999329,805.112549 
	C410.214752,798.481628 409.770966,796.662537 404.540710,792.031311 
	C401.458954,789.302490 398.428345,786.515930 395.374725,783.755310 
	C395.717773,783.240173 396.060822,782.724976 396.403839,782.209839 
	C411.767517,782.209839 427.131165,782.209839 443.337555,782.209839 
	C442.666016,783.742981 442.476532,785.416382 441.554596,786.095642 
	C425.821625,797.688721 422.272278,815.755981 416.635925,832.701233 
	C411.913239,846.899475 407.251007,861.118347 402.679504,875.365784 
	C402.095093,877.187195 401.667877,879.369080 402.099487,881.159485 
	C407.594116,903.952393 413.254059,926.705444 418.883026,949.466003 
	C421.438049,959.797058 424.415497,970.044250 426.453979,980.475586 
	C427.951630,988.139282 432.826385,993.017822 437.990784,998.022156 
	C440.107971,1000.073608 441.842590,1002.519836 444.686340,1005.897034 
	C427.452209,1005.897034 412.051147,1005.897034 395.331757,1005.897034 
	C397.266266,1003.083252 398.509766,1000.668945 400.303314,998.775757 
	C406.436554,992.301575 407.948639,985.513916 405.385895,976.518860 
	C400.105896,957.986267 396.162964,939.073242 391.622162,920.328369 
	C391.236542,918.736450 390.493591,917.231140 389.358185,914.189575 
	C385.772461,929.222961 378.151581,941.661743 379.037811,956.447815 
	C379.465759,963.587830 379.626770,970.821350 378.983032,977.928772 
	C378.153137,987.091675 380.756989,994.159912 388.502411,999.390564 
	C390.325531,1000.621643 391.423065,1002.927185 393.715393,1005.828125 
	C375.831970,1005.828125 359.627167,1005.828125 342.474976,1005.828125 
	C343.325562,1004.010986 343.738861,1002.319031 344.752869,1001.146667 
	C346.374725,999.271545 348.257416,997.548401 350.275635,996.104675 
	C354.661774,992.967346 355.978485,988.697021 355.973236,983.524658 
	C355.912476,923.699463 355.902008,863.874207 355.985687,804.049072 
	C355.992798,798.976379 354.363159,795.145691 350.420288,791.914551 
	C347.380341,789.423462 344.839020,786.323914 342.075958,783.494873 
	C342.415131,783.047852 342.754333,782.600769 343.093506,782.153748 
	C359.301788,782.153748 375.510071,782.153748 392.319336,782.153748 
	C391.339172,789.237854 384.117188,790.939331 380.839752,796.210754 
z"/>
<path fill="#0E6282" opacity="1.000000" stroke="none" 
	d="
M773.180908,783.943115 
	C788.582825,778.399902 801.689880,784.010315 810.051453,799.472656 
	C816.501282,811.399902 819.048645,824.468994 820.807556,837.686279 
	C825.224609,870.876587 824.560303,904.167847 821.975464,937.437744 
	C820.788757,952.712036 818.775879,967.935791 812.913147,982.279907 
	C808.858093,992.201111 803.401428,1001.056152 792.486267,1004.840393 
	C779.045898,1009.500061 765.659424,1003.379333 758.092346,989.131592 
	C751.416992,976.562805 748.676208,962.842102 747.078613,948.942810 
	C743.530945,918.078613 743.355103,887.070435 745.182434,856.114136 
	C746.328674,836.695923 748.528198,817.269043 757.770874,799.542542 
	C761.239075,792.890991 765.925903,787.404968 773.180908,783.943115 
M772.333862,965.086670 
	C773.871704,971.534180 775.158630,978.056519 777.050903,984.398254 
	C778.029480,987.677856 779.968445,991.934326 783.969116,990.910156 
	C786.706177,990.209473 788.673035,986.475464 790.957153,984.071960 
	C791.162903,983.855408 791.210022,983.456726 791.263794,983.131592 
	C793.482178,969.725159 797.224854,956.360474 797.602783,942.901367 
	C798.545776,909.316040 798.518921,875.674011 797.692444,842.083984 
	C797.389954,829.792908 793.969299,817.536011 791.472351,805.365845 
	C790.662292,801.417542 788.745972,796.733215 783.647339,796.938965 
	C778.690674,797.138916 776.984436,801.821594 776.136536,805.791992 
	C773.992554,815.830261 771.615540,825.931702 770.815552,836.124329 
	C767.462769,878.840210 767.527649,921.563965 772.333862,965.086670 
z"/>
<path fill="#0D6281" opacity="1.000000" stroke="none" 
	d="
M241.263687,844.747375 
	C241.848282,868.319702 243.111603,891.458313 242.655396,914.563110 
	C242.337997,930.637939 240.224564,946.750244 237.857178,962.688904 
	C235.946121,975.555176 232.149017,988.111755 222.700989,997.878174 
	C210.422302,1010.570679 190.960052,1008.714661 180.801910,994.155823 
	C173.362274,983.493164 170.090790,971.300903 168.098373,958.777771 
	C162.546661,923.883118 162.912827,888.729980 164.891861,853.621826 
	C165.940140,835.025269 168.350327,816.427002 177.262222,799.547241 
	C183.076797,788.533997 191.540451,781.121887 204.951904,781.851196 
	C216.700348,782.489990 223.965393,789.603394 229.376053,799.219360 
	C235.611725,810.301514 237.848541,822.588135 239.990311,834.888977 
	C240.532364,838.002075 240.809555,841.161255 241.263687,844.747375 
M188.204254,872.508423 
	C188.847519,898.648438 188.947784,924.818298 190.386292,950.914490 
	C191.010635,962.240967 194.064941,973.494324 196.758469,984.600708 
	C197.385849,987.187622 201.024139,990.732300 203.305817,990.753601 
	C205.571320,990.774780 209.133240,987.293152 209.926529,984.679871 
	C212.472092,976.293884 215.298752,967.657227 215.686951,959.012634 
	C217.083344,927.916809 218.133286,896.776917 218.079559,865.655823 
	C218.050949,849.083740 215.775894,832.483337 213.898865,815.965698 
	C213.313965,810.818787 211.248032,805.631897 208.896255,800.947083 
	C206.001083,795.179749 201.055405,795.227356 197.896317,800.808167 
	C196.124557,803.938110 194.849945,807.472839 194.002716,810.982422 
	C189.201172,830.871704 188.677261,851.194336 188.204254,872.508423 
z"/>
<path fill="#0E6282" opacity="1.000000" stroke="none" 
	d="
M950.785278,874.000000 
	C950.785278,851.504761 950.634277,829.507874 950.871948,807.515198 
	C950.948853,800.397705 949.503479,794.477600 943.443359,790.055908 
	C941.041321,788.303223 939.254578,785.707275 936.127991,782.361145 
	C939.403809,782.026917 940.937927,781.735779 942.472229,781.734070 
	C965.800476,781.707764 989.129761,781.832397 1012.456238,781.630676 
	C1017.380249,781.588074 1018.699768,783.374390 1018.661865,788.057068 
	C1018.478516,810.717285 1018.594543,833.379883 1018.561157,856.041565 
	C1018.558838,857.608215 1018.204712,859.174316 1018.014282,860.740723 
	C1017.564087,860.869324 1017.113953,860.997925 1016.663818,861.126526 
	C1015.800171,859.537964 1014.615845,858.042664 1014.122620,856.346313 
	C1009.342163,839.907471 1004.583191,823.461060 1000.017639,806.961548 
	C997.502808,797.873169 995.974060,796.495239 986.551941,796.466736 
	C973.977661,796.428650 973.977722,796.428650 973.977600,808.932007 
	C973.977417,832.426941 973.977112,855.921814 973.976929,879.416748 
	C973.976929,881.044189 973.976990,882.671692 973.976990,884.181274 
	C981.295105,885.620728 982.438965,885.087402 985.397278,879.165039 
	C987.850525,874.253601 990.268311,869.324158 992.765442,864.435242 
	C993.475159,863.045715 994.407532,861.769836 996.417419,860.814453 
	C996.417419,882.472473 996.417419,904.130432 996.417419,925.788391 
	C995.964661,925.933105 995.511902,926.077759 995.059143,926.222473 
	C993.588867,923.371155 992.066528,920.545166 990.661072,917.662231 
	C988.838989,913.924744 987.105957,910.143799 985.341797,906.378174 
	C982.515076,900.344360 981.617065,899.930847 974.213318,901.477722 
	C974.137085,902.690552 973.985535,903.983398 973.984924,905.276367 
	C973.971619,932.270508 974.065552,959.265259 973.881348,986.258118 
	C973.852783,990.449219 975.065247,991.965210 979.212769,991.587830 
	C982.352783,991.302185 985.540894,991.586914 988.705322,991.517395 
	C995.884094,991.359619 998.035095,989.530090 999.935730,982.668030 
	C1004.639038,965.687378 1009.410095,948.725220 1014.245239,931.781616 
	C1014.732727,930.073303 1015.843689,928.542847 1016.665283,926.929871 
	C1017.111816,927.047729 1017.558350,927.165649 1018.004883,927.283508 
	C1018.198364,928.850586 1018.558105,930.417419 1018.560425,931.984802 
	C1018.594543,954.646484 1018.473999,977.309143 1018.665466,999.969238 
	C1018.705200,1004.671387 1017.365295,1006.410461 1012.466431,1006.368530 
	C989.139954,1006.168884 965.810669,1006.289246 942.482422,1006.271973 
	C941.031189,1006.270874 939.580078,1006.066895 936.492554,1005.833679 
	C938.712646,1003.140320 939.874695,1000.970276 941.670044,999.684937 
	C949.236938,994.267517 951.050903,986.992310 950.946594,977.975830 
	C950.547668,943.487915 950.785339,908.992554 950.785278,874.000000 
z"/>
<path fill="#0E6282" opacity="1.000000" stroke="none" 
	d="
M553.984436,854.059631 
	C549.502930,836.942139 546.907898,820.151184 550.773376,802.878174 
	C555.033813,783.840393 572.905212,775.997192 589.516052,786.085327 
	C597.611389,791.001770 597.547974,790.920654 605.281555,784.873718 
	C606.969910,783.553467 609.289551,783.040466 611.318420,782.155701 
	C611.844482,784.185059 612.818298,786.212341 612.827820,788.244080 
	C612.932312,810.570251 612.905151,832.897156 612.844421,855.223633 
	C612.839905,856.881714 612.302795,858.538330 612.013306,860.195679 
	C611.471619,860.283203 610.929932,860.370789 610.388306,860.458313 
	C609.640442,858.453369 608.655640,856.502625 608.182495,854.434814 
	C604.640320,838.953308 599.634338,823.996033 591.582275,810.258728 
	C589.184937,806.168762 586.058411,802.226196 582.447205,799.189880 
	C576.231628,793.963745 570.044128,796.585510 568.816650,804.572815 
	C566.963013,816.634460 569.505920,828.258606 574.025696,839.224976 
	C583.080627,861.194885 592.798401,882.892700 602.332153,904.663635 
	C608.274048,918.232544 614.678467,931.728027 616.360046,946.600830 
	C618.004883,961.148743 619.102722,975.849731 612.751831,989.827209 
	C605.514099,1005.756531 590.232178,1010.679016 575.147339,1001.824890 
	C566.666809,996.847168 567.991455,996.604370 559.617065,1002.937134 
	C557.870361,1004.258057 555.915283,1005.303528 553.219055,1007.003845 
	C553.219055,979.916260 553.219055,954.096680 553.219055,928.277100 
	C553.704346,928.097290 554.189697,927.917480 554.674988,927.737671 
	C555.391907,929.444458 556.355408,931.091248 556.787109,932.867371 
	C560.479187,948.058655 563.803894,963.424133 571.523804,977.193909 
	C574.122070,981.828369 577.875977,986.265930 582.123413,989.415527 
	C587.999207,993.772583 593.289978,991.406677 595.573120,984.450134 
	C598.689636,974.954163 596.509460,965.591980 594.264343,956.397827 
	C589.059875,935.084595 578.741455,915.776794 570.119141,895.790344 
	C564.269226,882.230225 559.400085,868.246948 553.984436,854.059631 
z"/>
<path fill="#0D6281" opacity="1.000000" stroke="none" 
	d="
M481.532013,954.999756 
	C481.532074,947.004089 481.079742,939.475403 481.623993,932.019470 
	C482.832977,915.457275 478.742004,899.622681 475.603668,883.664856 
	C470.535522,857.894531 464.979065,832.218872 460.084381,806.416809 
	C458.710846,799.176208 454.217590,794.306641 450.073822,788.950256 
	C448.615143,787.064697 447.319397,785.053040 445.298920,782.171509 
	C461.814056,782.171509 476.999054,782.171509 493.837677,782.171509 
	C491.550812,784.875061 490.314362,787.214050 488.376251,788.471924 
	C481.085114,793.203918 480.202118,799.473145 482.021484,807.460754 
	C486.008148,824.963806 489.340607,842.615662 492.977783,860.198975 
	C493.212799,861.335205 493.767426,862.405273 494.173401,863.506104 
	C494.591370,863.478088 495.009308,863.450012 495.427277,863.421936 
	C496.899323,856.907837 498.437439,850.407837 499.829712,843.876709 
	C502.740265,830.223450 505.444641,816.524780 508.515839,802.908325 
	C509.467621,798.688477 508.877930,795.442566 505.469208,792.694092 
	C503.269470,790.920288 501.145691,789.024841 499.182556,786.995544 
	C498.052155,785.826904 497.309540,784.283081 495.850189,782.095459 
	C511.265320,782.095459 525.479126,782.095459 540.604919,782.095459 
	C539.642029,783.830566 539.269531,785.393738 538.280212,786.147095 
	C527.808044,794.121582 524.729858,805.567383 522.347107,817.750244 
	C516.859192,845.809204 510.773712,873.751099 504.995178,901.753845 
	C504.495483,904.175354 504.266663,906.694885 504.260925,909.169678 
	C504.206787,932.489380 504.356079,955.810364 504.156525,979.128479 
	C504.090027,986.898621 505.659180,993.525879 512.319397,998.377136 
	C514.592285,1000.032654 516.284485,1002.485474 518.242004,1004.573975 
	C517.992920,1004.974365 517.743896,1005.374756 517.494873,1005.775146 
	C501.187500,1005.775146 484.880188,1005.775146 466.956421,1005.775146 
	C469.295471,1003.002502 470.598450,1000.708313 472.540771,999.288940 
	C479.874878,993.929443 482.257996,986.829956 481.639099,977.979065 
	C481.117523,970.519958 481.531799,962.995422 481.532013,954.999756 
z"/>
<path fill="#0E6382" opacity="1.000000" stroke="none" 
	d="
M328.524933,859.584839 
	C326.088959,849.398254 324.589722,839.305237 321.639893,829.655640 
	C318.944366,820.837952 314.819397,812.436646 311.002228,803.997620 
	C310.100128,802.003174 308.106628,800.322205 306.269470,798.965088 
	C300.967468,795.048645 295.043793,795.889099 292.466431,801.865173 
	C289.808167,808.028870 287.665558,814.779663 287.107574,821.425659 
	C283.252777,867.341248 283.680084,913.306641 287.164551,959.221924 
	C287.748810,966.920776 290.025604,974.570557 292.211792,982.040588 
	C293.669342,987.020996 297.109192,990.743286 302.885986,991.240051 
	C308.647949,991.735474 312.495667,988.243591 314.121826,983.713257 
	C318.256317,972.194641 321.671295,960.403259 324.980957,948.610596 
	C326.229431,944.162048 326.260986,939.383545 327.147583,934.813782 
	C327.373260,933.650452 328.746674,932.709778 329.592773,931.666809 
	C330.201172,932.718140 331.351227,933.776672 331.337219,934.819641 
	C331.104095,952.131226 331.369019,969.530090 325.227051,986.127319 
	C319.959747,1000.360962 310.733459,1006.918823 297.120575,1006.144775 
	C288.423981,1005.650330 282.217773,1000.894409 277.496307,993.995605 
	C270.179504,983.304443 267.041718,971.039978 264.901001,958.530457 
	C259.618317,927.661377 259.785370,896.518494 260.603821,865.351685 
	C261.081726,847.154114 262.776520,829.125244 268.073975,811.620605 
	C270.550720,803.436523 274.120575,795.770630 280.250427,789.543030 
	C288.771973,780.885803 300.067200,779.422363 310.243134,785.716797 
	C318.343018,790.727112 318.652924,790.660522 325.658081,784.330627 
	C326.894775,783.213135 328.519623,782.525208 330.716095,781.178467 
	C331.062286,784.271545 331.495331,786.364197 331.500275,788.457825 
	C331.552673,810.623108 331.579834,832.788879 331.459595,854.953613 
	C331.449860,856.753113 332.944000,860.002319 328.524933,859.584839 
z"/>
<path fill="#F6F8FA" opacity="1.000000" stroke="none" 
	d="
M165.079910,475.358429 
	C167.236786,474.645874 169.429672,473.938293 171.762558,473.185547 
	C162.808731,484.952271 166.316772,492.729187 174.519760,500.104095 
	C173.324478,499.737518 172.129211,499.370911 170.419952,498.642334 
	C163.827805,493.931549 162.455048,487.926636 163.978790,480.625885 
	C164.097809,479.845062 164.048538,479.399933 163.999283,478.954773 
	C163.999283,478.954773 164.023270,479.014282 164.466644,478.867920 
	C164.934341,477.625702 164.958679,476.529816 164.983032,475.433929 
	C164.983032,475.433929 165.115921,475.363403 165.079910,475.358429 
z"/>
<path fill="#1C6A89" opacity="1.000000" stroke="none" 
	d="
M163.810501,480.961548 
	C162.455048,487.926636 163.827805,493.931549 170.078705,498.576599 
	C169.941010,499.073090 169.630600,499.273285 169.172913,499.710327 
	C162.089523,495.024261 160.554565,488.265320 162.756104,480.335144 
	C163.297363,480.591034 163.520050,480.810638 163.810501,480.961548 
z"/>
<path fill="#0B6181" opacity="1.000000" stroke="none" 
	d="
M164.683914,475.741516 
	C164.958679,476.529816 164.934341,477.625702 164.438339,478.883057 
	C164.106064,478.046021 164.245438,477.047577 164.683914,475.741516 
z"/>
<path fill="#0B6181" opacity="1.000000" stroke="none" 
	d="
M163.978790,480.625885 
	C163.520050,480.810638 163.297363,480.591034 163.040634,480.088043 
	C163.091446,479.476349 163.244034,479.079346 163.697952,478.818542 
	C164.048538,479.399933 164.097809,479.845062 163.978790,480.625885 
z"/>
<path fill="#FCFDFD" opacity="1.000000" stroke="none" 
	d="
M683.154419,686.821533 
	C689.544739,693.143005 695.684753,699.212402 702.129028,705.582581 
	C673.460083,727.663330 641.681885,740.609436 605.674133,745.088013 
	C605.674133,736.782532 605.578247,728.996033 605.698914,721.212830 
	C605.843384,711.891052 603.444275,703.877930 595.435852,698.104370 
	C594.228271,697.233948 593.759888,694.679260 593.753235,692.900635 
	C593.650879,665.571655 593.681824,638.242249 593.681763,610.912903 
	C593.681763,609.110840 593.681763,607.308777 593.681763,605.591614 
	C586.776672,605.591614 580.373596,605.591614 573.338928,605.591614 
	C573.276184,606.997437 573.132935,608.724487 573.132019,610.451599 
	C573.117920,637.780945 573.088135,665.110352 573.170288,692.439453 
	C573.179321,695.448120 572.652161,697.562378 569.919373,699.509216 
	C563.584961,704.022034 561.493347,710.777161 561.484863,718.300232 
	C561.474915,727.084412 561.482544,735.868591 561.482544,745.135681 
	C525.420105,740.698853 493.608887,727.762695 464.518402,705.446289 
	C471.048065,699.110535 477.208130,693.111450 483.393097,687.138306 
	C489.597534,681.146301 493.037628,674.295471 491.283020,665.296692 
	C490.983185,663.758972 492.689941,661.412781 494.063202,660.028992 
	C513.066406,640.880493 532.156799,621.818237 551.289490,602.798889 
	C552.672974,601.423584 554.548828,600.543579 556.118774,599.485107 
	C550.112183,593.958984 545.253906,589.489258 539.927246,584.588684 
	C527.161377,597.483276 514.178467,610.617981 501.170624,623.727966 
	C494.012360,630.942444 486.936493,638.247559 479.535706,645.205688 
	C477.877991,646.764221 474.966248,647.888611 472.717529,647.756287 
	C464.842102,647.292969 458.395905,649.719910 452.959076,655.387085 
	C446.748505,661.860901 440.375397,668.178772 433.565094,675.078857 
	C410.473114,646.519165 396.845459,614.563599 391.687500,578.372314 
	C393.244598,578.207703 394.484619,577.967834 395.725525,577.962891 
	C404.224152,577.929016 412.725952,577.803406 421.220856,577.984009 
	C429.530975,578.160828 435.916595,574.884460 441.057800,568.437561 
	C442.124573,567.099854 444.543793,566.195618 446.345551,566.185974 
	C472.840881,566.044495 499.337219,566.088562 525.833313,566.088440 
	C527.644714,566.088440 529.456177,566.088379 531.369385,566.088379 
	C530.930664,559.269470 530.514160,552.796875 530.059204,545.726379 
	C528.882446,545.726379 527.094849,545.726379 525.307190,545.726379 
	C499.311005,545.726318 473.314697,545.686462 447.318848,545.778076 
	C444.147919,545.789246 441.886993,545.332947 439.797821,542.404419 
	C435.557983,536.461121 429.219940,534.039062 422.003723,534.004761 
	C411.859558,533.956482 401.714966,533.992554 391.042450,533.992554 
	C394.902832,496.937866 408.033295,464.106171 431.033875,434.059387 
	C437.998932,441.238708 444.758575,447.867004 451.118988,454.858459 
	C457.385040,461.746155 464.672211,465.243378 474.138367,464.097839 
	C475.684662,463.910736 477.823181,465.184570 479.063171,466.413544 
	C497.975525,485.158325 516.783020,504.008881 535.619751,522.830017 
	C536.307312,523.517090 537.042847,524.156189 537.764954,524.825928 
	C542.354553,519.835754 546.802490,514.999634 551.566467,509.819855 
	C550.532654,508.733032 549.325806,507.408752 548.060730,506.142639 
	C530.040039,488.107513 512.037964,470.053619 493.950348,452.085754 
	C491.775391,449.925171 490.908081,448.068970 491.482880,444.723328 
	C492.713318,437.561432 489.885559,431.384521 484.766388,426.325134 
	C477.091736,418.740112 469.353912,411.218964 461.220947,403.257568 
	C490.858948,379.421356 523.805359,365.599213 561.482239,360.894073 
	C561.482239,364.352844 561.450439,367.440704 561.488220,370.527710 
	C561.600342,379.681580 561.651978,388.837524 561.899902,397.987976 
	C562.064514,404.062714 565.044189,408.921112 569.841614,412.308929 
	C572.752625,414.364655 573.189941,416.678802 573.177429,419.852325 
	C573.078003,445.014893 573.122009,470.178070 573.122070,495.341034 
	C573.122070,497.128784 573.122131,498.916504 573.122131,500.403076 
	C580.032227,500.403076 586.465149,500.403076 593.681702,500.403076 
	C593.681702,498.958435 593.681763,497.236786 593.681763,495.515167 
	C593.681824,470.185547 593.714722,444.855865 593.637817,419.526459 
	C593.628784,416.540131 594.158264,414.486908 596.902771,412.516449 
	C603.493713,407.784302 605.621277,400.657318 605.660522,392.832489 
	C605.713013,382.374969 605.673523,371.916992 605.673523,361.436462 
	C634.898926,363.241974 676.308044,378.438477 705.082397,403.083374 
	C703.741577,404.487213 702.440613,405.900543 701.085205,407.259583 
	C694.853882,413.507599 688.609192,419.742371 682.365784,425.978302 
	C676.840576,431.496826 674.396240,437.970154 675.385071,445.893494 
	C675.617126,447.752899 674.394287,450.351807 672.991882,451.772552 
	C655.086731,469.912628 637.044617,487.917816 618.968628,505.888275 
	C617.689148,507.160278 615.871704,507.891113 614.366394,508.834717 
	C619.946533,514.886719 624.391052,519.707092 629.380737,525.118713 
	C639.798706,514.540344 650.268921,503.854980 660.801208,493.231110 
	C669.713684,484.241058 678.606873,475.227264 687.740967,466.466217 
	C689.250366,465.018402 692.011780,464.023163 694.094116,464.177155 
	C701.963257,464.759125 708.423279,462.339630 713.871582,456.698822 
	C721.025269,449.292419 728.294556,441.997681 735.534546,434.634033 
	C750.285706,451.001404 771.352783,488.357635 775.835266,533.992126 
	C773.711914,533.992126 771.645813,533.992065 769.579651,533.992126 
	C761.247559,533.992493 752.914429,533.914734 744.583618,534.016724 
	C737.395447,534.104736 731.137939,536.586365 726.906433,542.576111 
	C724.975647,545.309204 722.768860,545.784729 719.759949,545.774963 
	C693.764099,545.690430 667.767761,545.726318 641.771606,545.726379 
	C639.982544,545.726379 638.193481,545.726379 636.779785,545.726379 
	C636.375488,552.682861 636.003357,559.084778 635.596313,566.088379 
	C636.930115,566.088379 638.692810,566.088440 640.455444,566.088440 
	C666.784912,566.088501 693.114563,566.133118 719.443604,566.030518 
	C722.636292,566.018066 724.885254,566.540283 726.957764,569.413452 
	C731.201660,575.296997 737.319580,577.995361 744.638611,577.956299 
	C754.606689,577.903076 764.575195,577.942993 775.122375,577.942993 
	C770.256592,614.361572 756.373108,646.249878 733.155762,675.335815 
	C726.890442,668.848022 720.794067,662.762573 714.962463,656.433044 
	C709.022644,649.985962 702.042908,646.907715 693.149048,647.870361 
	C691.296936,648.070801 688.769653,646.673584 687.318909,645.238770 
	C668.362915,626.490845 649.538086,607.610229 630.706543,588.736694 
	C629.415649,587.442993 628.334106,585.940491 627.098267,584.467224 
	C621.675720,589.435120 616.741150,593.955872 611.287659,598.952087 
	C622.684692,610.216980 634.161560,621.528503 645.600891,632.877747 
	C654.822388,642.026550 664.061829,651.159424 673.123962,660.464233 
	C674.421570,661.796631 675.635925,664.177551 675.403259,665.868896 
	C674.257141,674.201233 677.007141,680.901306 683.154419,686.821533 
M723.852722,460.128082 
	C725.138428,459.849152 726.425476,459.576599 727.709534,459.290131 
	C732.409241,458.241760 736.876892,457.279541 740.237366,462.487640 
	C741.387390,464.269897 744.134338,465.021790 746.151672,466.244446 
	C746.422607,465.934357 746.693542,465.624298 746.964478,465.314209 
	C743.129150,459.154419 739.293762,452.994598 735.107971,446.271942 
	C730.540039,451.256653 726.660156,455.490509 722.386841,459.838776 
	C722.421021,460.088989 722.455139,460.339172 722.489258,460.589386 
	C722.667725,460.402618 722.846252,460.215851 723.852722,460.128082 
M519.195557,648.338135 
	C533.593689,641.953247 548.007812,635.603760 562.358765,629.114563 
	C563.480835,628.607178 564.898193,627.144409 564.928894,626.089294 
	C565.149414,618.503845 565.046875,610.908936 565.046875,602.508118 
	C563.270142,603.263184 562.072998,603.429260 561.393555,604.111206 
	C546.872253,618.686218 532.408936,633.319092 517.436096,648.092102 
	C517.423340,648.313843 517.410583,648.535522 517.397766,648.757263 
	C517.767578,648.697876 518.137390,648.638489 519.195557,648.338135 
M516.713074,380.143402 
	C501.498688,386.066864 487.267365,393.757446 473.475983,403.935974 
	C479.241089,409.564484 484.684814,414.895599 490.147064,420.207733 
	C496.538971,426.424011 499.483063,434.070770 500.100037,442.884674 
	C500.253754,445.080536 501.222687,447.713684 502.731384,449.244812 
	C520.244751,467.018341 537.933533,484.619110 555.576416,502.265076 
	C557.178711,503.867554 558.318298,505.617859 561.394592,504.182404 
	C564.317322,502.818634 565.136230,501.287323 565.120239,498.224823 
	C564.997559,474.752197 564.924561,451.277435 565.149719,427.806305 
	C565.201294,422.430634 564.813599,417.817474 560.229187,414.137573 
	C558.400269,412.669464 556.909485,410.182312 556.319885,407.887909 
	C554.930481,402.480835 553.696594,396.946259 553.285278,391.397614 
	C552.776550,384.534576 553.163513,377.605103 553.163513,369.202759 
	C540.517273,373.003998 528.990662,376.468689 516.713074,380.143402 
M673.006958,424.547577 
	C679.604858,417.612701 686.202698,410.677826 692.953186,403.582581 
	C669.040039,386.234375 643.056641,375.246552 613.778625,370.285004 
	C613.778625,378.173279 613.845276,385.471130 613.762085,392.767273 
	C613.653564,402.285004 610.823303,410.700806 603.798523,417.511658 
	C602.671875,418.603973 601.864197,420.602112 601.856873,422.185852 
	C601.737793,447.851410 601.714966,473.518127 601.910522,499.182739 
	C601.922546,500.756653 603.623169,503.026276 605.106812,503.678375 
	C606.550537,504.312897 609.390015,503.958069 610.480530,502.884064 
	C628.745911,484.895203 646.862732,466.754700 664.893311,448.529907 
	C666.105896,447.304260 666.964050,445.138062 666.965637,443.408386 
	C666.971924,436.684998 668.750793,430.616058 673.006958,424.547577 
M497.527649,616.028625 
	C509.297760,604.265076 521.098877,592.532104 532.786926,580.687622 
	C533.875122,579.584900 534.247192,577.775452 534.951782,576.294128 
	C533.295044,575.584106 531.641174,574.263428 529.981018,574.255310 
	C503.318176,574.126099 476.654358,574.125305 449.991516,574.254761 
	C448.281677,574.263000 446.482910,575.405090 444.889221,576.308533 
	C439.902222,579.135681 435.006500,582.123291 430.048309,585.002136 
	C428.104889,586.130432 425.736603,586.765869 424.171051,588.262939 
	C418.766418,593.431152 413.501862,598.764160 408.489899,604.310791 
	C407.354980,605.566772 406.620056,608.200745 407.112488,609.752502 
	C411.801422,624.528259 418.197540,638.550598 426.635254,651.594177 
	C429.017120,655.276184 431.500275,658.892700 434.198120,662.930115 
	C439.137756,657.924072 443.441559,653.517761 447.794922,649.161011 
	C454.080994,642.869995 461.561279,639.545410 470.590088,639.577087 
	C472.465179,639.583679 474.781158,638.590820 476.150055,637.281067 
	C483.238586,630.498962 490.085663,623.464600 497.527649,616.028625 
M469.846924,523.277588 
	C467.284210,527.860229 464.721497,532.442932 461.889557,537.507019 
	C463.104584,537.613708 463.711365,537.713379 464.318176,537.713623 
	C485.627563,537.722534 506.937378,537.776855 528.245422,537.608093 
	C529.777039,537.596069 532.089966,536.258911 532.599609,534.969055 
	C533.121216,533.648804 532.406494,531.097778 531.314636,529.993225 
	C512.846497,511.310516 494.252625,492.751709 475.607849,474.244843 
	C474.570587,473.215271 472.826843,472.261017 471.450348,472.311798 
	C461.656067,472.673218 453.658905,469.087585 447.054688,461.991699 
	C442.203674,456.779541 437.265533,451.648529 432.071198,446.170227 
	C414.919373,470.841217 404.518982,496.950714 400.140839,525.996704 
	C425.639648,520.827209 450.484253,515.790344 476.077484,510.601715 
	C473.781403,515.169312 471.921143,518.869873 469.846924,523.277588 
M622.402527,529.182678 
	C611.171448,511.357391 591.691589,504.052338 572.426514,508.678650 
	C551.162292,513.784973 536.991638,533.052673 537.783630,555.138977 
	C538.541321,576.265686 554.289368,594.483765 575.506409,597.959045 
	C594.041138,600.995056 609.554016,594.894592 620.445923,579.613525 
	C631.702148,563.821228 632.013306,546.881226 622.402527,529.182678 
M686.140991,496.641663 
	C687.438293,490.009521 688.735657,483.377411 689.992004,476.954834 
	C671.179626,495.716736 652.405029,514.440979 633.446289,533.348816 
	C633.768372,537.154541 636.505005,537.950867 640.557434,537.817566 
	C649.368958,537.527649 658.199097,537.611328 667.016296,537.794861 
	C669.876160,537.854309 671.821045,537.162598 672.811523,534.392761 
	C677.212830,522.083740 681.624390,509.778290 686.140991,496.641663 
M643.488953,574.142334 
	C639.421021,575.231201 633.836487,571.336609 631.321716,577.340698 
	C633.134094,579.510559 634.686890,581.369751 636.796753,583.895935 
	C639.611511,580.244690 641.918152,577.252625 643.488953,574.142334 
z"/>
<path fill="#FDFEFE" opacity="1.000000" stroke="none" 
	d="
M896.872681,853.687500 
	C895.816101,859.857483 895.344604,865.742920 893.600159,871.223206 
	C890.179993,881.967896 884.740906,885.265137 872.997681,884.646545 
	C872.855347,883.632019 872.570923,882.546814 872.570068,881.461365 
	C872.549561,854.993652 872.687134,828.524841 872.448364,802.059326 
	C872.403931,797.137207 874.037231,796.126221 878.508118,796.613953 
	C887.443481,797.588684 893.723022,802.282959 894.780518,812.001831 
	C896.266296,825.655762 896.254028,839.472656 896.872681,853.687500 
z"/>
<path fill="#FDFEFE" opacity="1.000000" stroke="none" 
	d="
M105.703537,884.154663 
	C102.683578,884.518372 100.061829,884.785706 97.079826,885.089844 
	C96.869461,883.667847 96.570015,882.584106 96.569145,881.500122 
	C96.547905,855.017334 96.687515,828.533447 96.447754,802.052856 
	C96.403023,797.112610 98.062157,796.126404 102.520447,796.615906 
	C111.285904,797.578369 117.433350,802.184509 118.738197,811.536621 
	C120.293442,822.683411 121.210442,834.041138 120.976151,845.277649 
	C120.784569,854.465759 118.883698,863.690735 116.997337,872.744507 
	C115.825195,878.370239 111.876373,882.346558 105.703537,884.154663 
z"/>
<path fill="#FCFDFE" opacity="1.000000" stroke="none" 
	d="
M772.279602,964.650024 
	C767.527649,921.563965 767.462769,878.840210 770.815552,836.124329 
	C771.615540,825.931702 773.992554,815.830261 776.136536,805.791992 
	C776.984436,801.821594 778.690674,797.138916 783.647339,796.938965 
	C788.745972,796.733215 790.662292,801.417542 791.472351,805.365845 
	C793.969299,817.536011 797.389954,829.792908 797.692444,842.083984 
	C798.518921,875.674011 798.545776,909.316040 797.602783,942.901367 
	C797.224854,956.360474 793.482178,969.725159 791.263794,983.131592 
	C791.210022,983.456726 791.162903,983.855408 790.957153,984.071960 
	C788.673035,986.475464 786.706177,990.209473 783.969116,990.910156 
	C779.968445,991.934326 778.029480,987.677856 777.050903,984.398254 
	C775.158630,978.056519 773.871704,971.534180 772.279602,964.650024 
z"/>
<path fill="#FCFDFD" opacity="1.000000" stroke="none" 
	d="
M188.210266,872.010742 
	C188.677261,851.194336 189.201172,830.871704 194.002716,810.982422 
	C194.849945,807.472839 196.124557,803.938110 197.896317,800.808167 
	C201.055405,795.227356 206.001083,795.179749 208.896255,800.947083 
	C211.248032,805.631897 213.313965,810.818787 213.898865,815.965698 
	C215.775894,832.483337 218.050949,849.083740 218.079559,865.655823 
	C218.133286,896.776917 217.083344,927.916809 215.686951,959.012634 
	C215.298752,967.657227 212.472092,976.293884 209.926529,984.679871 
	C209.133240,987.293152 205.571320,990.774780 203.305817,990.753601 
	C201.024139,990.732300 197.385849,987.187622 196.758469,984.600708 
	C194.064941,973.494324 191.010635,962.240967 190.386292,950.914490 
	C188.947784,924.818298 188.847519,898.648438 188.210266,872.010742 
z"/>
<path fill="#0B6181" opacity="1.000000" stroke="none" 
	d="
M517.088562,380.038391 
	C528.990662,376.468689 540.517273,373.003998 553.163513,369.202759 
	C553.163513,377.605103 552.776550,384.534576 553.285278,391.397614 
	C553.696594,396.946259 554.930481,402.480835 556.319885,407.887909 
	C556.909485,410.182312 558.400269,412.669464 560.229187,414.137573 
	C564.813599,417.817474 565.201294,422.430634 565.149719,427.806305 
	C564.924561,451.277435 564.997559,474.752197 565.120239,498.224823 
	C565.136230,501.287323 564.317322,502.818634 561.394592,504.182404 
	C558.318298,505.617859 557.178711,503.867554 555.576416,502.265076 
	C537.933533,484.619110 520.244751,467.018341 502.731384,449.244812 
	C501.222687,447.713684 500.253754,445.080536 500.100037,442.884674 
	C499.483063,434.070770 496.538971,426.424011 490.147064,420.207733 
	C484.684814,414.895599 479.241089,409.564484 473.475983,403.935974 
	C487.267365,393.757446 501.498688,386.066864 517.088562,380.038391 
z"/>
<path fill="#0B6181" opacity="1.000000" stroke="none" 
	d="
M672.781250,424.828003 
	C668.750793,430.616058 666.971924,436.684998 666.965637,443.408386 
	C666.964050,445.138062 666.105896,447.304260 664.893311,448.529907 
	C646.862732,466.754700 628.745911,484.895203 610.480530,502.884064 
	C609.390015,503.958069 606.550537,504.312897 605.106812,503.678375 
	C603.623169,503.026276 601.922546,500.756653 601.910522,499.182739 
	C601.714966,473.518127 601.737793,447.851410 601.856873,422.185852 
	C601.864197,420.602112 602.671875,418.603973 603.798523,417.511658 
	C610.823303,410.700806 613.653564,402.285004 613.762085,392.767273 
	C613.845276,385.471130 613.778625,378.173279 613.778625,370.285004 
	C643.056641,375.246552 669.040039,386.234375 692.953186,403.582581 
	C686.202698,410.677826 679.604858,417.612701 672.781250,424.828003 
z"/>
<path fill="#0C6181" opacity="1.000000" stroke="none" 
	d="
M497.272278,616.273438 
	C490.085663,623.464600 483.238586,630.498962 476.150055,637.281067 
	C474.781158,638.590820 472.465179,639.583679 470.590088,639.577087 
	C461.561279,639.545410 454.080994,642.869995 447.794922,649.161011 
	C443.441559,653.517761 439.137756,657.924072 434.198120,662.930115 
	C431.500275,658.892700 429.017120,655.276184 426.635254,651.594177 
	C418.197540,638.550598 411.801422,624.528259 407.112488,609.752502 
	C406.620056,608.200745 407.354980,605.566772 408.489899,604.310791 
	C413.501862,598.764160 418.766418,593.431152 424.171051,588.262939 
	C425.736603,586.765869 428.104889,586.130432 430.048309,585.002136 
	C435.006500,582.123291 439.902222,579.135681 444.889221,576.308533 
	C446.482910,575.405090 448.281677,574.263000 449.991516,574.254761 
	C476.654358,574.125305 503.318176,574.126099 529.981018,574.255310 
	C531.641174,574.263428 533.295044,575.584106 534.951782,576.294189 
	C534.247192,577.775452 533.875122,579.584900 532.786926,580.687622 
	C521.098877,592.532104 509.297760,604.265076 497.272278,616.273438 
z"/>
<path fill="#0D6281" opacity="1.000000" stroke="none" 
	d="
M469.953918,522.924072 
	C471.921143,518.869873 473.781403,515.169312 476.077484,510.601715 
	C450.484253,515.790344 425.639648,520.827209 400.140839,525.996704 
	C404.518982,496.950714 414.919373,470.841217 432.071198,446.170227 
	C437.265533,451.648529 442.203674,456.779541 447.054688,461.991699 
	C453.658905,469.087585 461.656067,472.673218 471.450348,472.311798 
	C472.826843,472.261017 474.570587,473.215271 475.607849,474.244843 
	C494.252625,492.751709 512.846497,511.310516 531.314636,529.993225 
	C532.406494,531.097778 533.121216,533.648804 532.599609,534.969055 
	C532.089966,536.258911 529.777039,537.596069 528.245422,537.608093 
	C506.937378,537.776855 485.627563,537.722534 464.318176,537.713623 
	C463.711365,537.713379 463.104584,537.613708 461.889557,537.507019 
	C464.721497,532.442932 467.284210,527.860229 469.953918,522.924072 
z"/>
<path fill="#0E6282" opacity="1.000000" stroke="none" 
	d="
M622.603088,529.492554 
	C632.013306,546.881226 631.702148,563.821228 620.445923,579.613525 
	C609.554016,594.894592 594.041138,600.995056 575.506409,597.959045 
	C554.289368,594.483765 538.541321,576.265686 537.783630,555.138977 
	C536.991638,533.052673 551.162292,513.784973 572.426514,508.678650 
	C591.691589,504.052338 611.171448,511.357391 622.603088,529.492554 
M569.194763,577.450562 
	C570.086548,577.895569 570.965210,578.369263 571.872070,578.781128 
	C581.948608,583.358154 594.500122,581.302673 602.547668,573.767761 
	C611.191589,565.674438 614.210083,553.732727 609.702454,542.776978 
	C605.207214,531.851318 596.783447,525.625366 584.883362,524.873413 
	C572.326416,524.079895 560.684448,532.062988 556.779663,543.681763 
	C552.428223,556.629456 556.731262,568.781433 569.194763,577.450562 
z"/>
<path fill="#0E6382" opacity="1.000000" stroke="none" 
	d="
M686.086609,497.056610 
	C681.624390,509.778290 677.212830,522.083740 672.811523,534.392761 
	C671.821045,537.162598 669.876160,537.854309 667.016296,537.794861 
	C658.199097,537.611328 649.368958,537.527649 640.557434,537.817566 
	C636.505005,537.950867 633.768372,537.154541 633.446289,533.348816 
	C652.405029,514.440979 671.179626,495.716736 689.992004,476.954834 
	C688.735657,483.377411 687.438293,490.009521 686.086609,497.056610 
z"/>
<path fill="#0E6282" opacity="1.000000" stroke="none" 
	d="
M517.934326,647.940735 
	C532.408936,633.319092 546.872253,618.686218 561.393555,604.111206 
	C562.072998,603.429260 563.270142,603.263184 565.046875,602.508118 
	C565.046875,610.908936 565.149414,618.503845 564.928894,626.089294 
	C564.898193,627.144409 563.480835,628.607178 562.358765,629.114563 
	C548.007812,635.603760 533.593689,641.953247 518.716431,648.291565 
	C518.237366,648.244995 517.934326,647.940735 517.934326,647.940735 
z"/>
<path fill="#1C6A89" opacity="1.000000" stroke="none" 
	d="
M722.780334,459.724365 
	C726.660156,455.490509 730.540039,451.256653 735.107971,446.271942 
	C739.293762,452.994598 743.129150,459.154419 746.964478,465.314209 
	C746.693542,465.624298 746.422607,465.934357 746.151672,466.244446 
	C744.134338,465.021790 741.387390,464.269897 740.237366,462.487640 
	C736.876892,457.279541 732.409241,458.241760 727.709534,459.290131 
	C726.425476,459.576599 725.138428,459.849152 723.375854,460.003815 
	C722.898987,459.879547 722.780334,459.724396 722.780334,459.724365 
z"/>
<path fill="#1C6A89" opacity="1.000000" stroke="none" 
	d="
M643.856812,574.201416 
	C641.918152,577.252625 639.611511,580.244690 636.796753,583.895935 
	C634.686890,581.369751 633.134094,579.510559 631.321716,577.340698 
	C633.836487,571.336609 639.421021,575.231201 643.856812,574.201416 
z"/>
<path fill="#1C6A89" opacity="1.000000" stroke="none" 
	d="
M722.961853,459.954315 
	C722.846252,460.215851 722.667725,460.402618 722.489258,460.589386 
	C722.455139,460.339172 722.421021,460.088989 722.583618,459.781586 
	C722.780334,459.724396 722.898987,459.879547 722.961853,459.954315 
z"/>
<path fill="#0E6282" opacity="1.000000" stroke="none" 
	d="
M518.372314,648.412048 
	C518.137390,648.638489 517.767578,648.697876 517.397766,648.757263 
	C517.410583,648.535522 517.423340,648.313843 517.685181,648.016418 
	C517.934326,647.940735 518.237366,648.244995 518.372314,648.412048 
z"/>
<path fill="#F6F8FA" opacity="1.000000" stroke="none" 
	d="
M568.891479,577.239868 
	C556.731262,568.781433 552.428223,556.629456 556.779663,543.681763 
	C560.684448,532.062988 572.326416,524.079895 584.883362,524.873413 
	C596.783447,525.625366 605.207214,531.851318 609.702454,542.776978 
	C614.210083,553.732727 611.191589,565.674438 602.547668,573.767761 
	C594.500122,581.302673 581.948608,583.358154 571.872070,578.781128 
	C570.965210,578.369263 570.086548,577.895569 568.891479,577.239868 
M596.660706,569.250061 
	C604.952698,561.306824 606.629517,549.796387 600.732422,541.299377 
	C594.825073,532.787598 583.772949,529.710999 574.708679,534.055115 
	C563.619141,539.369873 559.205383,552.618347 565.104614,563.143921 
	C570.796204,573.299133 584.629700,578.016174 596.660706,569.250061 
z"/>
<path fill="#0D6281" opacity="1.000000" stroke="none" 
	d="
M596.365356,569.471680 
	C584.629700,578.016174 570.796204,573.299133 565.104614,563.143921 
	C559.205383,552.618347 563.619141,539.369873 574.708679,534.055115 
	C583.772949,529.710999 594.825073,532.787598 600.732422,541.299377 
	C606.629517,549.796387 604.952698,561.306824 596.365356,569.471680 
z"/>
</svg>