<svg version="1.1" id="Layer_1" xmlns="http://www.w3.org/2000/svg" xmlns:xlink="http://www.w3.org/1999/xlink" x="0px" y="0px"
	 width="100%" viewBox="0 0 1080 1080" enable-background="new 0 0 1080 1080" xml:space="preserve">
<path fill="#FFFFFF" opacity="1.000000" stroke="none" 
	d="
M723.000000,1081.000000 
	C482.027740,1081.000000 241.555511,1081.000000 1.041629,1081.000000 
	C1.041629,721.069275 1.041629,361.138580 1.041629,1.103942 
	C360.889130,1.103942 720.778320,1.103942 1080.833740,1.103942 
	C1080.833740,360.999939 1080.833740,720.999939 1080.833740,1081.000000 
	C961.804749,1081.000000 842.652405,1081.000000 723.000000,1081.000000 
M664.793274,729.013428 
	C677.800293,737.306641 691.239990,745.000183 703.729919,754.010193 
	C735.793457,777.140137 765.148560,803.239014 788.843994,835.213318 
	C791.648132,838.997131 794.774963,842.541870 798.772827,847.450623 
	C806.466187,831.210083 813.568542,816.217041 820.624878,801.321289 
	C821.949341,803.933411 823.708862,807.277100 825.348450,810.678650 
	C826.573914,813.220825 828.162109,813.792480 830.442505,811.976868 
	C843.859985,801.294067 856.952820,790.334106 865.438354,774.957642 
	C881.169922,746.450745 887.652527,716.536072 879.205261,684.411377 
	C877.337646,677.308838 874.723083,670.402710 872.452454,663.406128 
	C872.843201,663.120178 873.233948,662.834290 873.624695,662.548340 
	C906.783447,689.330627 938.840881,717.062744 954.258850,758.881958 
	C955.387146,758.579468 955.935364,758.575500 956.299011,758.314392 
	C970.614197,748.034790 984.997314,737.767578 995.684143,723.454163 
	C1021.854065,688.403503 1023.726685,650.183289 1010.022339,610.050171 
	C1004.054504,592.573364 994.491577,577.031677 983.999756,562.000427 
	C983.999756,562.000427 983.991272,562.010498 984.747314,561.962280 
	C985.690796,562.245789 986.742188,562.348877 987.561768,562.839478 
	C1004.099976,572.739990 1020.678894,582.575500 1037.098022,592.670715 
	C1044.515869,597.231445 1051.605103,602.326660 1059.469360,607.599060 
	C1060.012207,600.400574 1060.837646,594.341675 1060.859619,588.279846 
	C1060.935425,567.354370 1061.534424,546.457764 1058.244263,525.594788 
	C1051.897827,485.352600 1035.148438,450.169678 1008.204346,419.863251 
	C987.878235,397.000610 963.545410,379.039825 936.764221,364.468872 
	C898.276062,343.528473 857.251343,329.084442 814.969849,318.041962 
	C804.705505,315.361237 794.330322,313.104950 784.006042,310.653534 
	C784.019348,310.429810 784.032654,310.206085 784.045898,309.982361 
	C793.929504,308.548767 803.813049,307.115204 815.192322,305.464691 
	C812.952576,304.047546 812.120117,303.351715 811.164551,302.945068 
	C806.730103,301.057861 802.297852,299.156067 797.799133,297.430786 
	C772.526672,287.738708 747.497192,277.327087 721.892883,268.604950 
	C675.895386,252.935852 628.070374,246.449310 579.798706,243.160797 
	C564.342102,242.107819 548.806458,242.919113 533.527710,239.100296 
	C524.403503,236.819748 514.967834,235.694199 505.622681,234.409851 
	C491.358459,232.449463 477.091370,229.802277 462.754150,229.227722 
	C432.851624,228.029404 403.051636,229.449982 373.440491,234.789062 
	C332.802887,242.116257 293.833679,254.329880 256.624054,272.194397 
	C233.627579,283.235138 211.677429,296.043671 190.989624,310.999969 
	C170.952316,325.485962 152.353836,341.544464 137.314545,361.298187 
	C125.988022,376.175323 115.908890,391.795715 112.213501,410.635803 
	C111.791870,412.785370 110.723404,414.879211 109.625290,416.811615 
	C106.366989,422.545441 102.980965,428.208038 99.561829,433.848145 
	C98.583588,435.461884 97.644424,437.431030 96.143906,438.347015 
	C70.149948,454.214996 48.540878,474.390625 33.293224,501.053040 
	C22.476568,519.967346 19.051329,540.459534 21.340759,561.687622 
	C24.034706,586.666321 33.998993,609.069153 49.088497,629.093079 
	C60.668312,644.459656 73.540703,658.493591 90.964134,667.597229 
	C97.777168,671.156982 104.162308,670.590942 110.143761,666.195496 
	C116.324203,661.653687 116.885521,655.164978 115.545334,648.201477 
	C114.042854,640.394775 112.441879,632.601196 111.199005,624.752014 
	C109.899780,616.546814 111.172791,608.927673 118.698967,603.985535 
	C124.898193,599.914795 131.442657,596.369873 137.118332,593.015015 
	C143.323807,601.588379 148.405792,609.830627 154.681610,617.032471 
	C168.870285,633.314758 187.220505,643.714966 206.900848,651.974365 
	C230.952209,662.068115 256.134308,667.544922 281.997711,669.942993 
	C296.666901,671.302979 311.432312,671.644531 326.092926,673.074402 
	C351.314087,675.534363 375.185272,682.722229 397.341064,695.171204 
	C418.403473,707.005920 434.928497,723.532654 444.490112,745.719788 
	C451.439850,761.846252 456.182983,778.923462 461.920868,795.572998 
	C462.266541,796.575989 462.708832,797.545715 463.565399,799.669434 
	C474.698578,776.332581 489.535553,755.873413 492.327362,729.335144 
	C520.363525,751.532776 536.834778,782.063660 558.569763,808.063232 
	C559.006104,807.847900 559.442505,807.632568 559.878845,807.417236 
	C556.551697,779.531067 553.224487,751.644897 549.827209,723.171204 
	C586.364380,760.584656 616.575989,801.421204 630.216431,853.083191 
	C638.561035,844.218445 646.421753,835.837158 653.062073,826.580383 
	C668.725708,804.744812 670.325256,779.800720 667.475281,754.159485 
	C666.543579,745.776611 665.096741,737.450989 663.988770,729.004150 
	C663.988770,729.004150 664.083984,728.901062 664.793274,729.013428 
z"/>
<path fill="#FACFCB" opacity="1.000000" stroke="none" 
	d="
M984.008972,561.993103 
	C994.491577,577.031677 1004.054504,592.573364 1010.022339,610.050171 
	C1023.726685,650.183289 1021.854065,688.403503 995.684143,723.454163 
	C984.997314,737.767578 970.614197,748.034790 956.299011,758.314392 
	C955.935364,758.575500 955.387146,758.579468 954.258850,758.881958 
	C938.840881,717.062744 906.783447,689.330627 873.624695,662.548340 
	C873.233948,662.834290 872.843201,663.120178 872.452454,663.406128 
	C874.723083,670.402710 877.337646,677.308838 879.205261,684.411377 
	C887.652527,716.536072 881.169922,746.450745 865.438354,774.957642 
	C856.952820,790.334106 843.859985,801.294067 830.442505,811.976868 
	C828.162109,813.792480 826.573914,813.220825 825.348450,810.678650 
	C823.708862,807.277100 821.949341,803.933411 820.624878,801.321289 
	C813.568542,816.217041 806.466187,831.210083 798.772827,847.450623 
	C794.774963,842.541870 791.648132,838.997131 788.843994,835.213318 
	C765.148560,803.239014 735.793457,777.140137 703.729919,754.010193 
	C691.239990,745.000183 677.800293,737.306641 664.357056,728.816772 
	C663.807007,728.585999 663.693298,728.551758 663.579529,728.517517 
	C663.681519,728.711426 663.783508,728.905273 663.885498,729.099182 
	C665.096741,737.450989 666.543579,745.776611 667.475281,754.159485 
	C670.325256,779.800720 668.725708,804.744812 653.062073,826.580383 
	C646.421753,835.837158 638.561035,844.218445 630.216431,853.083191 
	C616.575989,801.421204 586.364380,760.584656 549.827209,723.171204 
	C553.224487,751.644897 556.551697,779.531067 559.878845,807.417236 
	C559.442505,807.632568 559.006104,807.847900 558.569763,808.063232 
	C536.834778,782.063660 520.363525,751.532776 492.327362,729.335144 
	C489.535553,755.873413 474.698578,776.332581 463.565399,799.669434 
	C462.708832,797.545715 462.266541,796.575989 461.920868,795.572998 
	C456.182983,778.923462 451.439850,761.846252 444.490112,745.719788 
	C434.928497,723.532654 418.403473,707.005920 397.341064,695.171204 
	C375.185272,682.722229 351.314087,675.534363 326.092926,673.074402 
	C311.432312,671.644531 296.666901,671.302979 281.997711,669.942993 
	C256.134308,667.544922 230.952209,662.068115 206.900848,651.974365 
	C187.220505,643.714966 168.870285,633.314758 154.681610,617.032471 
	C148.405792,609.830627 143.323807,601.588379 137.118332,593.015015 
	C131.442657,596.369873 124.898193,599.914795 118.698967,603.985535 
	C111.172791,608.927673 109.899780,616.546814 111.199005,624.752014 
	C112.441879,632.601196 114.042854,640.394775 115.545334,648.201477 
	C116.885521,655.164978 116.324203,661.653687 110.143761,666.195496 
	C104.162308,670.590942 97.777168,671.156982 90.964134,667.597229 
	C73.540703,658.493591 60.668312,644.459656 49.088497,629.093079 
	C33.998993,609.069153 24.034706,586.666321 21.340759,561.687622 
	C19.051329,540.459534 22.476568,519.967346 33.293224,501.053040 
	C48.540878,474.390625 70.149948,454.214996 96.143906,438.347015 
	C97.644424,437.431030 98.583588,435.461884 99.561829,433.848145 
	C102.980965,428.208038 106.366989,422.545441 109.625290,416.811615 
	C110.723404,414.879211 111.791870,412.785370 112.213501,410.635803 
	C115.908890,391.795715 125.988022,376.175323 137.314545,361.298187 
	C152.353836,341.544464 170.952316,325.485962 190.989624,310.999969 
	C211.677429,296.043671 233.627579,283.235138 256.624054,272.194397 
	C293.833679,254.329880 332.802887,242.116257 373.440491,234.789062 
	C403.051636,229.449982 432.851624,228.029404 462.754150,229.227722 
	C477.091370,229.802277 491.358459,232.449463 505.622681,234.409851 
	C514.967834,235.694199 524.403503,236.819748 533.527710,239.100296 
	C548.806458,242.919113 564.342102,242.107819 579.798706,243.160797 
	C628.070374,246.449310 675.895386,252.935852 721.892883,268.604950 
	C747.497192,277.327087 772.526672,287.738708 797.799133,297.430786 
	C802.297852,299.156067 806.730103,301.057861 811.164551,302.945068 
	C812.120117,303.351715 812.952576,304.047546 815.192322,305.464691 
	C803.813049,307.115204 793.929504,308.548767 784.045898,309.982361 
	C784.032654,310.206085 784.019348,310.429810 784.006042,310.653534 
	C794.330322,313.104950 804.705505,315.361237 814.969849,318.041962 
	C857.251343,329.084442 898.276062,343.528473 936.764221,364.468872 
	C963.545410,379.039825 987.878235,397.000610 1008.204346,419.863251 
	C1035.148438,450.169678 1051.897827,485.352600 1058.244263,525.594788 
	C1061.534424,546.457764 1060.935425,567.354370 1060.859619,588.279846 
	C1060.837646,594.341675 1060.012207,600.400574 1059.469360,607.599060 
	C1051.605103,602.326660 1044.515869,597.231445 1037.098022,592.670715 
	C1020.678894,582.575500 1004.099976,572.739990 987.561768,562.839478 
	C986.742188,562.348877 985.690796,562.245789 984.334106,561.831543 
	C983.830627,561.736633 983.740295,561.772522 983.649902,561.808350 
	C983.769592,561.869934 983.889282,561.931519 984.008972,561.993103 
M513.834534,675.923401 
	C519.267334,679.136292 524.928467,682.021484 530.092834,685.619568 
	C550.886963,700.107239 568.559570,717.972656 584.775940,737.309021 
	C603.902771,760.115723 620.722900,784.435852 632.569397,811.922852 
	C633.834778,814.858887 635.084473,817.801636 636.600708,821.347473 
	C646.629883,809.374573 650.867126,796.106567 651.927124,781.711548 
	C653.361572,762.231628 650.021912,743.232910 645.628296,724.367981 
	C644.025391,717.485474 642.488892,710.587524 640.632629,702.423523 
	C646.039673,703.865906 650.444275,704.615845 654.524719,706.200317 
	C676.473328,714.723328 695.708801,727.926392 714.549927,741.709351 
	C742.063049,761.836182 767.450256,784.332458 789.742493,810.207520 
	C791.631836,812.400635 793.503296,814.609131 795.528076,816.980347 
	C808.052002,797.458191 805.185852,776.322571 803.984131,754.980286 
	C820.082153,761.044434 824.806641,776.155212 832.756165,788.651428 
	C834.171265,787.601562 835.205688,787.036133 835.985901,786.225891 
	C860.035828,761.251282 870.174377,731.498352 865.376892,697.173157 
	C861.603699,670.176147 847.074585,648.944153 827.123413,631.174866 
	C810.334656,616.222107 793.277588,601.570557 776.336487,586.788940 
	C771.685791,582.731079 767.024780,578.685120 762.368530,574.633728 
	C766.342590,575.242798 769.788635,576.685486 773.024414,578.502686 
	C818.835815,604.230347 863.399780,631.850342 903.352905,666.246582 
	C925.665161,685.455627 946.395691,706.127319 960.061462,732.760864 
	C960.366943,733.356201 960.591614,733.992920 960.788635,734.456604 
	C992.988953,711.392517 1007.612854,676.480774 1000.550354,637.250671 
	C994.883301,605.771545 979.100647,579.493408 957.615112,556.336426 
	C940.923828,538.346497 920.244324,525.898926 898.839172,514.566101 
	C864.071411,496.158539 827.537903,481.720520 791.084412,467.120880 
	C781.566101,463.308807 772.014832,459.579193 762.478638,455.811737 
	C762.736206,455.206757 762.993835,454.601746 763.251404,453.996735 
	C860.676025,486.293091 956.643066,521.973511 1044.961792,576.931091 
	C1044.821533,562.890808 1044.590698,549.096008 1042.993896,535.461182 
	C1037.039917,484.624054 1013.687317,443.019745 974.850159,409.995697 
	C942.916260,382.841705 905.893250,364.868073 866.738098,350.896332 
	C820.376953,334.353333 772.470337,324.072754 724.031921,315.992065 
	C718.169189,315.014038 712.312866,313.997314 706.453613,312.998535 
	C721.016968,304.094177 736.897461,300.540375 752.864197,296.708710 
	C662.244873,262.094177 568.949646,251.436188 472.906219,263.284821 
	C479.278107,258.677887 485.665314,254.059860 492.052521,249.441833 
	C491.988403,249.029984 491.924255,248.618118 491.860107,248.206268 
	C482.183716,247.201965 472.529236,245.758163 462.826904,245.274765 
	C432.274689,243.752563 401.878052,245.529327 371.835266,251.421265 
	C300.140472,265.481934 235.140152,294.037109 178.778809,341.163605 
	C159.868484,356.975494 144.316010,375.469147 133.792801,397.839752 
	C131.143127,403.472504 128.860107,409.774536 128.595825,415.863953 
	C128.408966,420.169495 126.931343,422.524414 124.314590,425.030365 
	C118.468513,430.628815 114.543068,437.136200 114.030617,445.486206 
	C113.956024,446.701569 112.477226,448.296173 111.247047,448.905853 
	C90.564514,459.155975 73.518982,473.870239 59.083290,491.656616 
	C40.151215,514.983093 32.311096,541.335449 39.375896,571.047607 
	C46.606396,601.456726 63.371067,626.027649 87.170319,645.947571 
	C90.803192,648.988281 94.944939,651.420959 100.058090,654.973267 
	C98.330765,645.586243 96.800270,637.804932 95.485085,629.987366 
	C93.799980,619.970947 93.121887,609.923767 99.600693,601.182068 
	C111.958344,584.508118 130.317444,578.205688 149.298355,572.397522 
	C149.696899,573.807068 149.959061,574.575989 150.130661,575.364563 
	C153.288834,589.879822 160.906464,601.727295 171.804062,611.611145 
	C191.172546,629.178040 214.545242,638.791931 239.217285,646.120422 
	C264.256195,653.557800 290.094971,653.894348 315.780731,655.875366 
	C338.437805,657.622803 360.586761,661.989136 381.882324,670.066467 
	C422.044098,685.299744 450.963135,711.906250 465.314941,753.115417 
	C465.673065,754.143860 466.270386,755.088928 467.297943,757.170288 
	C475.213776,739.542419 478.892517,722.391296 475.942657,703.085632 
	C502.759857,711.877869 519.849609,731.244263 536.847534,751.116089 
	C532.917786,724.794128 527.927734,698.886353 512.966858,676.028320 
	C512.966858,676.028320 513.115662,675.872498 513.834534,675.923401 
M871.523376,661.402832 
	C871.523376,661.402832 871.421875,661.581177 871.421875,661.581177 
	C871.421875,661.581177 871.618164,661.556030 871.523376,661.402832 
z"/>
<path fill="#ED5346" opacity="1.000000" stroke="none" 
	d="
M512.814514,676.180664 
	C527.927734,698.886353 532.917786,724.794128 536.847534,751.116089 
	C519.849609,731.244263 502.759857,711.877869 475.942657,703.085632 
	C478.892517,722.391296 475.213776,739.542419 467.297943,757.170288 
	C466.270386,755.088928 465.673065,754.143860 465.314941,753.115417 
	C450.963135,711.906250 422.044098,685.299744 381.882324,670.066467 
	C360.586761,661.989136 338.437805,657.622803 315.780731,655.875366 
	C290.094971,653.894348 264.256195,653.557800 239.217285,646.120422 
	C214.545242,638.791931 191.172546,629.178040 171.804062,611.611145 
	C160.906464,601.727295 153.288834,589.879822 150.130661,575.364563 
	C149.959061,574.575989 149.696899,573.807068 149.298355,572.397522 
	C130.317444,578.205688 111.958344,584.508118 99.600693,601.182068 
	C93.121887,609.923767 93.799980,619.970947 95.485085,629.987366 
	C96.800270,637.804932 98.330765,645.586243 100.058090,654.973267 
	C94.944939,651.420959 90.803192,648.988281 87.170319,645.947571 
	C63.371067,626.027649 46.606396,601.456726 39.375896,571.047607 
	C32.311096,541.335449 40.151215,514.983093 59.083290,491.656616 
	C73.518982,473.870239 90.564514,459.155975 111.247047,448.905853 
	C112.477226,448.296173 113.956024,446.701569 114.030617,445.486206 
	C114.543068,437.136200 118.468513,430.628815 124.314590,425.030365 
	C126.931343,422.524414 128.408966,420.169495 128.595825,415.863953 
	C128.860107,409.774536 131.143127,403.472504 133.792801,397.839752 
	C144.316010,375.469147 159.868484,356.975494 178.778809,341.163605 
	C235.140152,294.037109 300.140472,265.481934 371.835266,251.421265 
	C401.878052,245.529327 432.274689,243.752563 462.826904,245.274765 
	C472.529236,245.758163 482.183716,247.201965 491.860107,248.206268 
	C491.924255,248.618118 491.988403,249.029984 492.052521,249.441833 
	C485.665314,254.059860 479.278107,258.677887 472.906219,263.284821 
	C568.949646,251.436188 662.244873,262.094177 752.864197,296.708710 
	C736.897461,300.540375 721.016968,304.094177 706.453613,312.998535 
	C712.312866,313.997314 718.169189,315.014038 724.031921,315.992065 
	C772.470337,324.072754 820.376953,334.353333 866.738098,350.896332 
	C905.893250,364.868073 942.916260,382.841705 974.850159,409.995697 
	C1013.687317,443.019745 1037.039917,484.624054 1042.993896,535.461182 
	C1044.590698,549.096008 1044.821533,562.890808 1044.961792,576.931091 
	C956.643066,521.973511 860.676025,486.293091 763.251404,453.996735 
	C762.993835,454.601746 762.736206,455.206757 762.478638,455.811737 
	C772.014832,459.579193 781.566101,463.308807 791.084412,467.120880 
	C827.537903,481.720520 864.071411,496.158539 898.839172,514.566101 
	C920.244324,525.898926 940.923828,538.346497 957.615112,556.336426 
	C979.100647,579.493408 994.883301,605.771545 1000.550354,637.250671 
	C1007.612854,676.480774 992.988953,711.392517 960.788635,734.456604 
	C960.591614,733.992920 960.366943,733.356201 960.061462,732.760864 
	C946.395691,706.127319 925.665161,685.455627 903.352905,666.246582 
	C863.399780,631.850342 818.835815,604.230347 773.024414,578.502686 
	C769.788635,576.685486 766.342590,575.242798 762.368530,574.633728 
	C767.024780,578.685120 771.685791,582.731079 776.336487,586.788940 
	C793.277588,601.570557 810.334656,616.222107 827.123413,631.174866 
	C847.074585,648.944153 861.603699,670.176147 865.376892,697.173157 
	C870.174377,731.498352 860.035828,761.251282 835.985901,786.225891 
	C835.205688,787.036133 834.171265,787.601562 832.756165,788.651428 
	C824.806641,776.155212 820.082153,761.044434 803.984131,754.980286 
	C805.185852,776.322571 808.052002,797.458191 795.528076,816.980347 
	C793.503296,814.609131 791.631836,812.400635 789.742493,810.207520 
	C767.450256,784.332458 742.063049,761.836182 714.549927,741.709351 
	C695.708801,727.926392 676.473328,714.723328 654.524719,706.200317 
	C650.444275,704.615845 646.039673,703.865906 640.632629,702.423523 
	C642.488892,710.587524 644.025391,717.485474 645.628296,724.367981 
	C650.021912,743.232910 653.361572,762.231628 651.927124,781.711548 
	C650.867126,796.106567 646.629883,809.374573 636.600708,821.347473 
	C635.084473,817.801636 633.834778,814.858887 632.569397,811.922852 
	C620.722900,784.435852 603.902771,760.115723 584.775940,737.309021 
	C568.559570,717.972656 550.886963,700.107239 530.092834,685.619568 
	C524.928467,682.021484 519.267334,679.136292 513.379883,675.694885 
	C512.681030,675.513123 512.436951,675.559814 512.192810,675.606506 
	C512.400024,675.797913 512.607300,675.989258 512.814514,676.180664 
M753.014221,752.442017 
	C752.811829,752.159851 752.609497,751.877747 752.280090,750.889954 
	C740.225342,726.454651 726.062683,703.408752 707.005737,683.726990 
	C683.922302,659.886658 656.255859,642.893127 625.432739,631.161499 
	C611.225281,625.754028 596.425110,621.903931 581.170837,617.065918 
	C571.835510,614.868103 562.569763,612.294617 553.150208,610.551941 
	C534.437317,607.089905 515.760071,603.277649 496.521698,603.875916 
	C488.057892,604.139099 479.566101,603.407593 471.084778,603.235413 
	C465.699036,603.126099 460.309296,603.215027 455.527039,603.215027 
	C467.756470,611.752014 480.749573,619.795959 492.562408,629.305908 
	C510.815186,644.000427 528.260864,659.697449 546.213989,675.619995 
	C563.168518,693.952637 580.750793,711.752441 596.896790,730.771484 
	C612.293030,748.907410 626.173828,768.324585 632.161865,792.281311 
	C644.038452,757.336426 638.110291,723.900146 622.731384,690.827881 
	C631.167603,691.950012 639.231506,692.954834 647.274597,694.104858 
	C674.105164,697.940857 699.134155,706.685486 720.556946,723.565735 
	C731.623047,732.285217 741.423035,742.611511 752.027527,752.689331 
	C752.336670,752.808167 752.645752,752.927002 752.890747,753.572449 
	C753.033569,753.826782 753.176453,754.081055 753.319275,754.335388 
	C753.481873,754.188782 753.800537,753.936646 753.783508,753.911560 
	C753.558838,753.579468 753.286926,753.279236 753.014221,752.442017 
M313.206238,412.836060 
	C307.907684,411.662720 303.287842,413.869690 302.146332,418.334747 
	C301.229248,421.922119 301.961517,424.968597 305.923920,426.321014 
	C310.076111,427.738312 313.989624,425.324432 316.806885,420.080994 
	C317.889648,422.366455 319.634705,424.566376 319.942963,426.951904 
	C321.448792,438.604462 313.425476,448.150146 301.651733,449.168243 
	C288.317017,450.321350 278.147430,442.691864 277.273041,430.730103 
	C277.059662,427.810913 276.699280,425.357971 272.301453,425.050476 
	C267.635742,426.482025 266.135925,429.623444 267.345306,436.136963 
	C269.967194,450.257904 277.973236,460.247650 291.643921,464.533936 
	C305.574554,468.901764 317.936035,465.005737 327.928436,454.397888 
	C341.226440,440.280884 340.696259,420.342346 326.874695,408.298798 
	C324.315674,406.068970 321.600342,404.100616 317.256531,406.169403 
	C316.153961,408.395569 315.051422,410.621765 313.206238,412.836060 
M502.133453,699.423096 
	C502.315094,699.345703 502.496765,699.268372 502.678436,699.191040 
	C502.434448,699.150146 502.190491,699.109314 502.343109,698.325928 
	C499.507568,690.230652 496.672028,682.135437 493.876556,673.305969 
	C490.448700,665.915405 487.348297,658.350403 483.523651,651.171265 
	C475.970154,636.992920 465.573059,625.578735 450.350800,619.282532 
	C440.884094,615.366943 431.268829,612.004333 421.518127,610.972107 
	C427.619843,615.777710 433.914246,620.735046 440.208679,625.692383 
	C439.914337,626.066101 439.620026,626.439819 439.325684,626.813538 
	C422.315704,622.768372 416.530365,625.038025 402.108337,628.580139 
	C407.644043,631.328735 413.761261,634.366028 420.493500,637.708740 
	C412.118347,640.009399 405.040314,641.953735 397.222198,643.984802 
	C394.037079,645.359192 390.851990,646.733521 386.399811,648.654602 
	C396.048309,649.123657 404.036041,649.224609 411.966309,649.952148 
	C434.603210,652.029236 455.638031,658.209351 473.001282,673.954895 
	C482.459045,682.531555 492.335083,690.646973 502.133453,699.423096 
M384.674683,428.538239 
	C384.108643,429.353882 383.566833,430.187683 382.972961,430.982544 
	C367.638489,451.505585 347.953461,464.896027 321.284485,467.974884 
	C319.405487,468.286499 317.526520,468.598114 314.980774,469.020325 
	C324.666626,474.583130 349.260986,474.389465 359.089264,469.929657 
	C371.486755,464.303986 384.400177,459.400726 395.868896,452.230927 
	C418.313812,438.199249 442.564392,429.084534 467.819489,422.067139 
	C468.899078,421.767151 469.910706,421.222717 470.954010,420.792145 
	C470.872070,420.247589 470.790131,419.703003 470.708191,419.158417 
	C454.918884,419.158417 439.129547,419.158447 423.340240,419.158447 
	C411.959503,419.158447 400.578766,419.158417 388.715607,419.158417 
	C387.721863,421.631592 386.433441,424.838135 384.674683,428.538239 
M796.153748,776.175049 
	C796.213257,776.212036 796.272766,776.248962 796.332275,776.285950 
	C796.176575,776.229736 796.020874,776.173523 796.114746,775.254028 
	C792.518982,744.947937 782.330811,717.093689 764.564575,692.226074 
	C742.637817,661.534912 713.697388,638.854675 681.020447,620.724609 
	C656.533081,607.138306 630.238708,598.524231 602.455566,595.163635 
	C578.062744,592.213196 554.059204,596.862732 528.878601,600.468811 
	C536.403503,601.744690 542.758728,602.829834 549.116577,603.898987 
	C580.159912,609.119141 610.216370,617.632629 638.977234,630.571838 
	C686.047729,651.748596 723.961426,684.436035 756.108582,724.187805 
	C769.809204,741.129333 782.683044,758.739319 796.153748,776.175049 
M293.858093,577.011353 
	C313.515259,577.261475 323.273834,564.180115 331.184662,548.011963 
	C337.184692,561.492737 341.377380,574.665344 349.924713,587.451233 
	C359.214142,569.848450 362.787231,551.841187 367.391296,534.193359 
	C367.938141,534.055725 368.484985,533.918152 369.031799,533.780518 
	C373.286255,545.847778 377.540680,557.915039 381.950928,570.424194 
	C390.348206,551.120361 395.522247,531.146240 398.312592,509.104340 
	C386.268646,510.304291 375.138153,510.874237 364.192688,512.610535 
	C337.408203,516.859375 312.283295,526.856812 287.146332,536.448425 
	C254.328796,548.970703 221.046646,559.414551 186.049255,563.679443 
	C180.697906,564.331543 175.349182,565.005310 168.653976,565.835999 
	C170.202423,566.818848 170.606735,567.107544 171.039032,567.345154 
	C191.010712,578.323120 210.747803,589.758179 231.014145,600.162354 
	C261.485657,615.805481 293.661926,623.928162 328.209808,619.088623 
	C347.332855,616.409851 362.350067,608.031189 372.326843,590.406677 
	C377.904236,580.553955 379.763306,571.737549 375.003967,561.484619 
	C372.682404,556.483337 370.880127,551.240967 368.419922,545.042236 
	C364.659241,557.065552 361.517517,567.678101 357.968414,578.152527 
	C356.704987,581.881287 354.633179,585.383118 352.593506,588.786682 
	C351.037659,591.382874 348.816803,591.517395 347.126282,588.805908 
	C344.488953,584.575745 341.868347,580.315918 339.575592,575.894958 
	C336.531219,570.024658 333.808960,563.987366 330.789093,557.689819 
	C329.988739,558.700806 329.416351,559.288513 328.998871,559.971008 
	C320.800293,573.373047 309.877319,581.588806 292.958099,578.255127 
	C292.969879,577.835327 292.981689,577.415527 293.858093,577.011353 
M163.937744,569.463440 
	C163.711243,569.496765 163.484756,569.530151 163.258240,569.563477 
	C163.418121,569.794006 163.578003,570.024597 163.737564,570.992065 
	C164.373108,572.524719 164.927689,574.097107 165.656479,575.584045 
	C175.033188,594.714600 189.939087,608.519836 208.510071,618.185181 
	C250.323227,639.947083 294.921082,646.417114 341.283051,639.688660 
	C363.767853,636.425476 383.028046,626.215637 396.610138,607.172241 
	C418.473389,576.517883 428.335754,542.007507 429.264893,504.668976 
	C429.307556,502.953674 429.270355,501.236450 429.270355,499.520111 
	C429.782837,499.487061 430.295319,499.454041 430.807800,499.420990 
	C436.522339,508.234558 434.084229,518.347778 434.993042,528.148743 
	C437.566223,518.129700 440.136658,508.082123 440.586975,497.940399 
	C441.192963,484.292694 434.973572,476.230072 423.133881,474.495575 
	C417.040283,473.602875 410.476807,474.271759 404.361664,475.454865 
	C376.881989,480.771484 350.372864,489.463409 324.190521,499.253357 
	C299.899139,508.336243 275.859497,518.320251 250.005661,522.349304 
	C242.802124,523.471863 235.496490,523.939026 227.060349,524.831482 
	C228.761047,522.326965 229.603607,521.125854 230.405991,519.898560 
	C241.101791,503.537750 237.532700,486.734955 220.352905,477.542267 
	C212.275574,473.220184 203.238800,470.059265 194.258331,468.207733 
	C181.381714,465.552887 169.308304,461.569397 158.121033,454.640442 
	C153.610687,451.846924 148.749268,449.515900 143.829208,447.510071 
	C133.633911,443.353638 129.227737,446.574432 128.881180,457.582092 
	C128.824249,459.389954 127.315460,461.894989 125.745422,462.782654 
	C119.234329,466.463959 112.482666,469.731598 105.745491,472.998840 
	C89.713264,480.773804 76.146065,491.600311 65.591789,505.951904 
	C49.299988,528.105469 43.894226,552.300415 52.778831,578.934021 
	C58.108582,594.911133 66.560966,609.180847 76.776482,622.456421 
	C79.754013,626.325928 83.010918,629.980408 86.139763,633.733459 
	C86.918343,631.665100 86.624893,630.228394 86.462944,628.776917 
	C85.598595,621.030701 84.345406,613.298523 84.018654,605.528137 
	C83.466362,592.394043 89.762558,583.025757 101.178368,576.837952 
	C112.497147,570.702698 124.868546,568.081604 137.386597,566.180176 
	C177.323273,560.113831 216.429001,550.329346 255.165207,539.189270 
	C273.638245,533.876770 291.267059,525.659363 309.695282,520.153503 
	C340.628021,510.911591 372.002014,503.277069 404.350464,500.773224 
	C408.364838,500.462524 412.462311,501.225525 416.521301,501.491028 
	C416.537994,501.970825 416.554688,502.450623 416.571381,502.930389 
	C415.018341,503.327423 413.467743,503.734253 411.911835,504.119812 
	C404.978668,505.837708 404.314484,506.884766 403.897552,513.891357 
	C402.745941,533.243530 399.547028,552.238953 392.646118,570.428223 
	C377.781708,609.607666 350.696106,628.043640 309.326324,625.646301 
	C292.160492,624.651550 274.877563,622.120850 258.128967,618.221985 
	C222.903198,610.021790 191.612259,593.463806 163.937744,569.463440 
M487.733551,373.147400 
	C499.318878,377.184937 510.904236,381.222504 522.489563,385.260071 
	C522.325989,385.725830 522.162476,386.191620 521.998901,386.657379 
	C521.509583,386.607086 521.011108,386.600464 520.532288,386.500214 
	C499.202332,382.035675 477.963379,376.970520 455.991730,376.759796 
	C437.316132,376.580688 419.231110,379.536621 401.271149,386.989716 
	C400.522461,387.345795 399.593903,387.530548 399.060028,388.091156 
	C397.652496,389.569122 396.416382,391.210266 395.112000,392.786438 
	C396.874847,394.132721 398.469086,396.220062 400.436371,396.667603 
	C404.275452,397.540985 408.333649,397.879333 412.282776,397.770844 
	C436.759094,397.098267 460.945465,399.835571 485.893768,403.835266 
	C491.809113,404.540771 497.707153,405.593536 503.642914,405.888702 
	C523.916626,406.896667 543.612122,403.674347 562.524963,396.399170 
	C572.403076,392.599335 581.949219,387.936340 591.873474,383.878265 
	C591.873474,383.878265 592.101379,384.093781 591.901917,384.738312 
	C588.811279,387.522736 585.816956,390.423767 582.613586,393.071869 
	C566.512207,406.382050 547.255859,412.482605 527.359253,417.099548 
	C508.074280,421.574615 489.785492,428.013153 473.998230,440.720428 
	C461.952026,450.416534 449.070679,459.075104 436.557617,468.190796 
	C435.303894,469.104126 434.027679,469.986603 432.245850,471.248993 
	C445.652191,476.815674 452.208099,486.385223 452.337036,499.847900 
	C452.392059,505.594421 451.349579,511.436737 450.128784,517.089294 
	C448.477112,524.737000 449.091919,526.802673 456.220764,530.376526 
	C458.426361,531.482239 460.808441,532.326172 463.196960,532.962402 
	C481.069885,537.723450 499.156403,535.943848 517.195251,534.430908 
	C532.410522,533.154846 547.593506,531.496277 562.798889,530.095093 
	C564.048584,529.979919 565.360535,530.541199 567.997986,531.049011 
	C565.827454,531.918884 565.097473,532.313232 564.317627,532.508972 
	C547.995239,536.605591 531.802063,541.373108 515.305664,544.579712 
	C495.472931,548.434753 475.374939,548.908203 455.516571,544.091064 
	C447.727936,542.201660 440.097839,539.658630 432.794617,537.529602 
	C431.016052,543.065491 429.157654,548.558228 427.536011,554.119995 
	C427.169830,555.375916 427.092651,557.278442 427.788696,558.195374 
	C435.400879,568.222961 443.898254,577.274231 456.391449,582.607910 
	C463.780884,584.404419 471.082916,587.051941 478.577820,587.821899 
	C494.675507,589.475647 510.424469,585.982300 526.024353,582.509338 
	C548.443848,577.518066 571.084412,575.122314 593.937988,577.310120 
	C633.641846,581.111023 669.233215,596.261108 701.912415,618.544128 
	C747.686646,649.756226 783.246338,690.599121 812.512634,737.226929 
	C818.233032,746.340881 823.481384,755.751221 829.663696,766.239990 
	C834.181091,759.750793 838.895996,754.307190 842.136963,748.094666 
	C856.880676,719.832825 858.283813,691.798523 838.921570,664.830688 
	C834.175049,658.219727 828.896484,651.933105 823.377014,645.944763 
	C799.922668,620.497986 773.527222,598.327271 746.008911,577.465576 
	C706.778503,547.724792 665.772217,520.803833 621.208496,499.597198 
	C619.352295,498.713928 617.523865,497.772095 615.682556,496.857513 
	C622.722839,496.784515 629.465454,497.504852 636.136780,498.643341 
	C674.899475,505.258423 711.150574,519.328796 746.116577,536.763672 
	C827.186707,577.187073 899.436096,629.728821 961.979126,695.408752 
	C963.411743,696.913147 964.324280,698.912720 965.479370,700.681335 
	C966.287231,700.292847 967.095154,699.904358 967.903076,699.515869 
	C969.575623,687.710876 971.975342,675.955627 972.786865,664.091736 
	C975.400940,625.877136 962.720032,593.080811 936.119873,565.670837 
	C912.724182,541.562866 884.386047,524.424988 854.895569,509.073059 
	C814.371582,487.977448 771.855042,471.590729 728.706482,456.824402 
	C694.377991,445.076416 659.890869,433.792328 625.503967,422.213867 
	C620.095459,420.392731 614.845032,418.101898 609.521545,416.028259 
	C612.779480,414.802673 615.726440,414.305847 618.684753,414.225708 
	C644.532532,413.525146 670.229187,415.569061 695.755859,419.360199 
	C735.986572,425.335175 775.297729,435.331329 814.021057,447.659485 
	C883.789978,469.871399 950.917969,498.498657 1016.357056,531.207397 
	C1018.023804,532.040466 1019.733154,532.788513 1021.686462,533.699219 
	C1021.597168,514.163513 1013.767944,490.555603 1001.284424,471.704102 
	C982.438599,443.245026 956.287354,422.906097 927.389832,405.738922 
	C890.814331,384.010620 851.508911,368.573517 810.979065,356.109619 
	C764.848877,341.923553 717.899963,331.152710 670.041931,324.971191 
	C640.048706,321.097107 609.849548,318.795227 579.724426,315.984650 
	C574.242310,315.473175 568.671631,315.911774 563.141846,315.911774 
	C564.280029,314.534088 565.481140,314.125763 566.705200,314.037872 
	C590.266479,312.347107 613.864136,311.059753 637.380676,308.890991 
	C650.747498,307.658203 663.994507,305.070404 677.265381,302.907867 
	C679.601318,302.527252 681.788330,301.232849 684.044128,300.360443 
	C671.862061,297.321686 660.091614,295.155975 648.245850,293.543365 
	C621.226440,289.865021 594.199036,286.210876 567.117371,283.037506 
	C552.092041,281.276886 536.970215,280.022797 521.856750,279.418793 
	C506.565063,278.807678 491.230072,279.280273 475.000977,279.202759 
	C452.186249,279.254242 429.791504,282.645477 407.701141,288.457672 
	C407.510345,287.906281 407.319580,287.354889 407.128815,286.803497 
	C418.521423,280.736115 429.914032,274.668701 441.878815,268.296570 
	C440.543823,268.183807 439.773895,268.087585 439.001434,268.058075 
	C418.797180,267.285919 398.728210,268.876038 378.846283,272.279968 
	C327.625244,281.049316 279.522217,298.259308 235.240662,325.785065 
	C211.424088,340.589661 187.959930,355.896393 168.917862,376.750122 
	C162.622192,383.644714 158.094009,392.153229 152.210907,400.379364 
	C146.430099,414.475891 149.227921,427.995758 158.573242,432.063385 
	C159.042999,427.681915 159.520401,423.229340 159.997787,418.776764 
	C160.415390,418.785339 160.833008,418.793915 161.250610,418.802490 
	C161.480728,421.049377 161.833008,423.291565 161.919830,425.543976 
	C162.297241,435.334320 166.918549,442.335419 175.912369,446.084991 
	C181.093826,448.245148 186.459976,450.292969 191.943390,451.297607 
	C196.663452,452.162384 201.667557,451.476990 208.073257,451.476990 
	C201.353989,444.490112 199.178329,437.463074 199.786835,429.434509 
	C200.536438,419.544617 205.901123,412.108276 212.792511,404.826294 
	C228.280365,391.126892 246.118042,382.010284 266.274719,377.363434 
	C263.292908,379.773987 260.043396,381.759857 256.971954,383.990875 
	C248.364136,390.243469 239.434662,396.175415 233.247635,406.135498 
	C228.472656,415.146576 231.271698,423.240692 240.120926,424.849213 
	C243.421661,425.449188 247.307785,425.310089 250.388260,424.117065 
	C256.545471,421.732452 262.786896,419.047058 268.183777,415.314880 
	C284.050262,404.342529 299.717682,393.057983 315.105530,381.422882 
	C348.853333,355.905334 386.860748,344.262329 428.949799,346.272369 
	C437.937225,346.701538 446.820618,349.307831 454.921875,350.959442 
	C446.984711,351.664490 438.983398,351.957184 431.126648,353.179230 
	C421.351624,354.699646 411.695984,356.987579 401.243652,358.861023 
	C400.010040,359.342773 398.470490,359.518188 397.611969,360.375549 
	C396.196991,361.788605 394.419678,363.610596 394.351349,365.322357 
	C394.307556,366.419556 396.897888,368.139008 398.592285,368.669342 
	C401.248810,369.500824 404.148560,369.909332 406.940948,369.889343 
	C417.257904,369.815582 427.597443,368.938019 437.883301,369.390106 
	C454.281494,370.110870 470.643524,371.654236 487.733551,373.147400 
M362.343658,476.149841 
	C323.054504,489.200806 285.779724,484.299347 249.846191,462.227814 
	C252.301239,471.987518 259.538696,476.128815 265.094788,481.852997 
	C263.247345,481.605438 261.665558,480.916199 260.060303,480.286865 
	C245.717117,474.664093 231.465347,468.785065 216.967148,463.594604 
	C212.447800,461.976624 207.258789,462.229095 202.376343,461.625336 
	C209.220093,465.862976 216.474533,468.298218 222.939896,472.081848 
	C238.622833,481.259705 248.245209,494.025208 244.499847,513.411743 
	C251.178619,511.219513 257.674377,508.611969 264.405334,506.966095 
	C285.546967,501.796326 306.864960,497.328949 327.935638,491.895447 
	C338.343903,489.211487 348.415649,485.154999 358.515503,481.386780 
	C361.290497,480.351410 363.617920,478.116486 366.150726,476.432007 
	C365.899780,476.084015 365.648834,475.735992 365.397919,475.388000 
	C364.620789,475.597473 363.843658,475.806976 362.343658,476.149841 
z"/>
<path fill="#FFFFFF" opacity="1.000000" stroke="none" 
	d="
M663.937134,729.051636 
	C663.783508,728.905273 663.681519,728.711426 663.579529,728.517517 
	C663.693298,728.551758 663.807007,728.585999 664.002380,728.760620 
	C664.083984,728.901062 663.988770,729.004150 663.937134,729.051636 
z"/>
<path fill="#FFFFFF" opacity="1.000000" stroke="none" 
	d="
M871.570801,661.479431 
	C871.618164,661.556030 871.421875,661.581177 871.421875,661.581177 
	C871.421875,661.581177 871.523376,661.402832 871.570801,661.479431 
z"/>
<path fill="#FFFFFF" opacity="1.000000" stroke="none" 
	d="
M984.004395,561.996765 
	C983.889282,561.931519 983.769592,561.869934 983.649902,561.808350 
	C983.740295,561.772522 983.830627,561.736633 983.956116,561.855591 
	C983.991272,562.010498 983.999756,562.000427 984.004395,561.996765 
z"/>
<path fill="#FFFEFE" opacity="1.000000" stroke="none" 
	d="
M401.988770,358.944092 
	C411.695984,356.987579 421.351624,354.699646 431.126648,353.179230 
	C438.983398,351.957184 446.984711,351.664490 455.807861,350.973358 
	C459.872070,350.987274 463.050232,350.987274 466.228424,350.987274 
	C466.309021,350.497284 466.389618,350.007263 466.470215,349.517273 
	C458.964203,346.049042 451.617462,342.164734 443.912689,339.215759 
	C433.826752,335.355408 423.140015,331.333954 412.447052,333.404724 
	C395.739502,336.640350 379.400299,341.784058 362.918976,346.171814 
	C361.238739,346.619110 359.653748,347.424194 358.024567,348.063263 
	C375.112701,333.065002 394.969208,324.437531 417.020844,320.336884 
	C408.687714,320.042267 400.498138,319.956055 392.498322,321.145782 
	C383.214600,322.526459 373.811401,324.193634 364.971649,327.227203 
	C349.818573,332.427338 337.437134,342.537628 325.675507,353.030060 
	C311.661865,365.531616 298.629852,379.132721 284.633514,391.654877 
	C276.145416,399.248871 267.114868,406.473114 257.458313,412.460846 
	C246.896072,419.010193 236.823990,417.978027 233.823074,405.640228 
	C239.434662,396.175415 248.364136,390.243469 256.971954,383.990875 
	C260.043396,381.759857 263.292908,379.773987 266.274719,377.363434 
	C246.118042,382.010284 228.280365,391.126892 212.109497,404.929810 
	C210.502213,405.326263 209.379059,405.378326 208.685745,405.950897 
	C203.963272,409.850983 199.292099,413.815826 194.682175,417.848694 
	C190.814529,421.232208 187.212662,424.943634 183.158447,428.076843 
	C181.697052,429.206268 178.797653,429.978119 177.402069,429.261780 
	C176.039215,428.562195 175.607269,425.797333 175.070557,423.855164 
	C174.832367,422.993256 175.164246,421.850098 175.538589,420.961517 
	C179.711121,411.057922 183.939133,401.177673 188.162521,391.295532 
	C188.681778,390.080566 189.261139,388.891266 189.812622,387.690033 
	C177.910080,397.918518 173.875732,412.608002 167.263184,427.078735 
	C161.801987,418.955597 165.500946,410.597137 163.037994,402.405914 
	C160.061523,407.011871 157.623764,410.784180 155.186005,414.556519 
	C154.367508,414.281708 153.549011,414.006927 152.730515,413.732147 
	C152.730515,411.281799 152.726990,408.831421 152.731567,406.381073 
	C152.735565,404.228668 152.748642,402.076233 152.757690,399.923828 
	C158.094009,392.153229 162.622192,383.644714 168.917862,376.750122 
	C187.959930,355.896393 211.424088,340.589661 235.240662,325.785065 
	C279.522217,298.259308 327.625244,281.049316 378.846283,272.279968 
	C398.728210,268.876038 418.797180,267.285919 439.001434,268.058075 
	C439.773895,268.087585 440.543823,268.183807 441.878815,268.296570 
	C429.914032,274.668701 418.521423,280.736115 407.128815,286.803497 
	C407.319580,287.354889 407.510345,287.906281 407.701141,288.457672 
	C429.791504,282.645477 452.186249,279.254242 475.585815,279.602966 
	C476.729462,280.309052 477.265015,280.824615 477.850525,280.889496 
	C487.394806,281.947083 496.962830,282.807526 506.490845,283.991364 
	C524.554565,286.235748 542.634460,288.404510 560.630615,291.115845 
	C569.326538,292.425995 577.847900,294.894897 586.448303,296.839142 
	C586.427124,297.323120 586.406006,297.807129 586.384888,298.291107 
	C562.972839,304.672974 539.748169,311.566956 516.995850,322.499481 
	C535.240540,324.045563 552.383301,325.495789 569.525574,326.951813 
	C581.574646,327.975220 593.656006,328.719635 605.663879,330.101929 
	C623.406738,332.144409 641.149597,334.303680 658.796387,337.034119 
	C680.206604,340.346863 701.594177,343.911041 722.851440,348.080963 
	C751.969910,353.792908 780.005066,362.995117 806.810547,375.872833 
	C836.027954,389.909302 863.080383,407.300354 888.138123,427.814301 
	C892.123108,431.076752 895.759949,434.764404 900.422791,439.050629 
	C898.052429,438.938995 897.039490,439.038544 896.097839,438.824554 
	C885.272705,436.364075 874.492371,433.695923 863.634521,431.391907 
	C835.930298,425.513092 808.244629,419.525726 780.451477,414.093658 
	C759.685364,410.034943 738.819702,406.394592 717.891113,403.290558 
	C703.829712,401.205048 689.601257,399.573242 675.410645,399.219360 
	C661.017761,398.860413 646.446960,399.339661 632.198303,401.261841 
	C618.005554,403.176483 604.099243,407.268555 590.109253,410.582458 
	C587.693237,411.154785 585.485535,412.606598 582.007019,414.185150 
	C585.300293,415.434021 587.262268,416.212738 589.248047,416.925110 
	C599.257690,420.516113 609.321594,423.961487 619.278381,427.693054 
	C651.948914,439.937286 684.751831,451.853302 717.179077,464.714447 
	C747.905457,476.901062 778.475220,489.554871 808.644531,503.052124 
	C835.766907,515.186279 860.344421,531.719849 883.123474,550.823364 
	C886.370239,553.546387 889.166199,556.807007 892.170837,559.818787 
	C891.778748,560.249390 891.386597,560.679993 890.994446,561.110596 
	C871.911682,549.661499 851.923889,540.222961 830.777100,533.234375 
	C854.363403,554.759949 879.552917,574.738525 892.893921,604.996033 
	C891.966614,605.119690 891.413147,604.876160 890.906433,604.558044 
	C875.846008,595.101562 860.853455,585.535217 845.721375,576.194824 
	C805.650452,551.460876 764.954590,527.893188 721.777771,508.836365 
	C687.582703,493.743866 651.526733,487.270355 614.553711,485.152557 
	C601.432007,484.400940 588.230103,484.936523 575.067139,485.090149 
	C571.281006,485.134338 567.503296,485.896088 562.713318,486.444305 
	C576.153259,493.820557 588.707031,500.311340 600.870667,507.465393 
	C630.521606,524.904602 660.309937,542.144104 689.441772,560.422180 
	C716.446228,577.365540 743.530273,594.580750 763.993713,619.723389 
	C770.836731,628.131104 776.064270,637.853821 782.014771,646.988770 
	C781.999268,647.002014 781.972839,647.033264 781.621948,647.008179 
	C769.730408,638.348206 758.180481,629.725647 746.650818,621.076294 
	C706.137939,590.684326 661.815735,567.700684 613.394653,552.764038 
	C605.029663,550.183655 596.468262,548.240173 587.885315,545.783447 
	C587.403015,545.586853 587.032898,545.609375 586.662842,545.631836 
	C587.109375,545.753784 587.555908,545.875671 588.193604,546.281738 
	C597.050537,551.217285 606.358032,554.975464 612.802856,563.870178 
	C609.880615,563.870178 607.589844,564.035706 605.329956,563.841797 
	C595.112427,562.965088 584.915833,561.817749 574.689209,561.079407 
	C552.315674,559.463928 530.928406,564.337585 509.585510,570.488770 
	C495.485352,574.552551 480.914856,576.990662 466.542572,580.099487 
	C463.052185,580.854370 459.513092,581.383850 455.996399,582.016968 
	C443.898254,577.274231 435.400879,568.222961 427.788696,558.195374 
	C427.092651,557.278442 427.169830,555.375916 427.536011,554.119995 
	C429.157654,548.558228 431.016052,543.065491 432.794617,537.529602 
	C440.097839,539.658630 447.727936,542.201660 455.516571,544.091064 
	C475.374939,548.908203 495.472931,548.434753 515.305664,544.579712 
	C531.802063,541.373108 547.995239,536.605591 564.317627,532.508972 
	C565.097473,532.313232 565.827454,531.918884 567.997986,531.049011 
	C565.360535,530.541199 564.048584,529.979919 562.798889,530.095093 
	C547.593506,531.496277 532.410522,533.154846 517.195251,534.430908 
	C499.156403,535.943848 481.069885,537.723450 463.196960,532.962402 
	C460.808441,532.326172 458.426361,531.482239 456.220764,530.376526 
	C449.091919,526.802673 448.477112,524.737000 450.128784,517.089294 
	C451.349579,511.436737 452.392059,505.594421 452.337036,499.847900 
	C452.208099,486.385223 445.652191,476.815674 432.245850,471.248993 
	C434.027679,469.986603 435.303894,469.104126 436.557617,468.190796 
	C449.070679,459.075104 461.952026,450.416534 473.998230,440.720428 
	C489.785492,428.013153 508.074280,421.574615 527.359253,417.099548 
	C547.255859,412.482605 566.512207,406.382050 582.613586,393.071869 
	C585.816956,390.423767 588.811279,387.522736 592.260010,384.331970 
	C592.628479,383.690796 592.638916,383.455933 592.649292,383.221069 
	C592.314636,383.368408 591.979919,383.515747 591.645264,383.663147 
	C581.949219,387.936340 572.403076,392.599335 562.524963,396.399170 
	C543.612122,403.674347 523.916626,406.896667 503.642914,405.888702 
	C497.707153,405.593536 491.809113,404.540771 485.375824,403.393280 
	C482.456421,401.956238 480.128723,400.372284 477.641663,400.060822 
	C460.354828,397.895599 443.043823,395.911560 425.720673,394.054810 
	C419.824982,393.422913 413.852509,393.515045 407.952942,392.908813 
	C404.648193,392.569183 401.865967,391.037598 401.986389,386.945801 
	C419.231110,379.536621 437.316132,376.580688 455.991730,376.759796 
	C477.963379,376.970520 499.202332,382.035675 520.532288,386.500214 
	C521.011108,386.600464 521.509583,386.607086 521.998901,386.657379 
	C522.162476,386.191620 522.325989,385.725830 522.489563,385.260071 
	C510.904236,381.222504 499.318878,377.184937 487.313538,372.664307 
	C475.312561,363.373688 461.863525,362.414307 448.107880,363.212708 
	C435.394104,363.950623 422.697723,365.009521 410.002747,366.039001 
	C404.723022,366.467163 402.237823,364.044983 401.988770,358.944092 
M445.023407,466.488922 
	C443.281036,467.399109 441.538666,468.309296 439.796295,469.219482 
	C439.977753,469.817688 440.159210,470.415894 440.340698,471.014099 
	C460.261475,468.285645 480.428619,466.707428 500.034485,462.508392 
	C520.037964,458.224182 537.329712,447.290436 553.420959,434.706360 
	C549.735657,435.645966 546.263367,437.033813 542.866455,438.586487 
	C519.287842,449.363831 495.101349,457.442078 468.635498,456.104492 
	C466.152618,455.978943 463.422363,456.950531 461.108490,458.048340 
	C455.864899,460.536255 450.809540,463.420959 445.023407,466.488922 
M305.006683,320.915741 
	C305.123962,320.797729 305.266113,320.695129 305.351379,320.557312 
	C305.431396,320.427948 305.451202,320.261353 305.497498,320.111115 
	C304.213501,320.149536 302.788513,319.834595 301.667725,320.281921 
	C292.122314,324.091522 282.558960,327.872101 273.144379,331.989319 
	C261.835144,336.935059 252.598694,344.521759 245.013901,354.333069 
	C237.630051,363.884460 229.762207,373.061340 222.138916,382.428711 
	C221.715027,382.949585 221.583832,383.708618 220.876114,385.424011 
	C229.488632,381.200409 235.471481,375.629852 240.829208,369.310669 
	C246.925964,362.119843 252.377487,354.277771 259.113098,347.755157 
	C271.962738,335.311890 288.382080,328.521729 305.006683,320.915741 
M219.485062,385.592010 
	C219.485062,385.592010 219.414841,385.476776 219.485062,385.592010 
z"/>
<path fill="#FAD0CC" opacity="1.000000" stroke="none" 
	d="
M456.193909,582.312439 
	C459.513092,581.383850 463.052185,580.854370 466.542572,580.099487 
	C480.914856,576.990662 495.485352,574.552551 509.585510,570.488770 
	C530.928406,564.337585 552.315674,559.463928 574.689209,561.079407 
	C584.915833,561.817749 595.112427,562.965088 605.329956,563.841797 
	C607.589844,564.035706 609.880615,563.870178 612.802856,563.870178 
	C606.358032,554.975464 597.050537,551.217285 588.192383,546.282959 
	C588.000000,546.000000 587.997559,546.002441 587.997559,546.002441 
	C596.468262,548.240173 605.029663,550.183655 613.394653,552.764038 
	C661.815735,567.700684 706.137939,590.684326 746.650818,621.076294 
	C758.180481,629.725647 769.730408,638.348206 781.676514,647.158630 
	C782.182617,647.381714 782.283203,647.429199 782.383789,647.476685 
	C782.265930,647.309631 782.148132,647.142517 782.030273,646.975464 
	C776.064270,637.853821 770.836731,628.131104 763.993713,619.723389 
	C743.530273,594.580750 716.446228,577.365540 689.441772,560.422180 
	C660.309937,542.144104 630.521606,524.904602 600.870667,507.465393 
	C588.707031,500.311340 576.153259,493.820557 562.713318,486.444305 
	C567.503296,485.896088 571.281006,485.134338 575.067139,485.090149 
	C588.230103,484.936523 601.432007,484.400940 614.553711,485.152557 
	C651.526733,487.270355 687.582703,493.743866 721.777771,508.836365 
	C764.954590,527.893188 805.650452,551.460876 845.721375,576.194824 
	C860.853455,585.535217 875.846008,595.101562 890.906433,604.558044 
	C891.413147,604.876160 891.966614,605.119690 892.893921,604.996033 
	C879.552917,574.738525 854.363403,554.759949 830.777100,533.234375 
	C851.923889,540.222961 871.911682,549.661499 890.994446,561.110596 
	C891.386597,560.679993 891.778748,560.249390 892.170837,559.818787 
	C889.166199,556.807007 886.370239,553.546387 883.123474,550.823364 
	C860.344421,531.719849 835.766907,515.186279 808.644531,503.052124 
	C778.475220,489.554871 747.905457,476.901062 717.179077,464.714447 
	C684.751831,451.853302 651.948914,439.937286 619.278381,427.693054 
	C609.321594,423.961487 599.257690,420.516113 589.248047,416.925110 
	C587.262268,416.212738 585.300293,415.434021 582.007019,414.185150 
	C585.485535,412.606598 587.693237,411.154785 590.109253,410.582458 
	C604.099243,407.268555 618.005554,403.176483 632.198303,401.261841 
	C646.446960,399.339661 661.017761,398.860413 675.410645,399.219360 
	C689.601257,399.573242 703.829712,401.205048 717.891113,403.290558 
	C738.819702,406.394592 759.685364,410.034943 780.451477,414.093658 
	C808.244629,419.525726 835.930298,425.513092 863.634521,431.391907 
	C874.492371,433.695923 885.272705,436.364075 896.097839,438.824554 
	C897.039490,439.038544 898.052429,438.938995 900.422791,439.050629 
	C895.759949,434.764404 892.123108,431.076752 888.138123,427.814301 
	C863.080383,407.300354 836.027954,389.909302 806.810547,375.872833 
	C780.005066,362.995117 751.969910,353.792908 722.851440,348.080963 
	C701.594177,343.911041 680.206604,340.346863 658.796387,337.034119 
	C641.149597,334.303680 623.406738,332.144409 605.663879,330.101929 
	C593.656006,328.719635 581.574646,327.975220 569.525574,326.951813 
	C552.383301,325.495789 535.240540,324.045563 516.995850,322.499481 
	C539.748169,311.566956 562.972839,304.672974 586.384888,298.291107 
	C586.406006,297.807129 586.427124,297.323120 586.448303,296.839142 
	C577.847900,294.894897 569.326538,292.425995 560.630615,291.115845 
	C542.634460,288.404510 524.554565,286.235748 506.490845,283.991364 
	C496.962830,282.807526 487.394806,281.947083 477.850525,280.889496 
	C477.265015,280.824615 476.729462,280.309052 476.042358,279.640656 
	C491.230072,279.280273 506.565063,278.807678 521.856750,279.418793 
	C536.970215,280.022797 552.092041,281.276886 567.117371,283.037506 
	C594.199036,286.210876 621.226440,289.865021 648.245850,293.543365 
	C660.091614,295.155975 671.862061,297.321686 684.044128,300.360443 
	C681.788330,301.232849 679.601318,302.527252 677.265381,302.907867 
	C663.994507,305.070404 650.747498,307.658203 637.380676,308.890991 
	C613.864136,311.059753 590.266479,312.347107 566.705200,314.037872 
	C565.481140,314.125763 564.280029,314.534088 563.141846,315.911774 
	C568.671631,315.911774 574.242310,315.473175 579.724426,315.984650 
	C609.849548,318.795227 640.048706,321.097107 670.041931,324.971191 
	C717.899963,331.152710 764.848877,341.923553 810.979065,356.109619 
	C851.508911,368.573517 890.814331,384.010620 927.389832,405.738922 
	C956.287354,422.906097 982.438599,443.245026 1001.284424,471.704102 
	C1013.767944,490.555603 1021.597168,514.163513 1021.686462,533.699219 
	C1019.733154,532.788513 1018.023804,532.040466 1016.357056,531.207397 
	C950.917969,498.498657 883.789978,469.871399 814.021057,447.659485 
	C775.297729,435.331329 735.986572,425.335175 695.755859,419.360199 
	C670.229187,415.569061 644.532532,413.525146 618.684753,414.225708 
	C615.726440,414.305847 612.779480,414.802673 609.521545,416.028259 
	C614.845032,418.101898 620.095459,420.392731 625.503967,422.213867 
	C659.890869,433.792328 694.377991,445.076416 728.706482,456.824402 
	C771.855042,471.590729 814.371582,487.977448 854.895569,509.073059 
	C884.386047,524.424988 912.724182,541.562866 936.119873,565.670837 
	C962.720032,593.080811 975.400940,625.877136 972.786865,664.091736 
	C971.975342,675.955627 969.575623,687.710876 967.903076,699.515869 
	C967.095154,699.904358 966.287231,700.292847 965.479370,700.681335 
	C964.324280,698.912720 963.411743,696.913147 961.979126,695.408752 
	C899.436096,629.728821 827.186707,577.187073 746.116577,536.763672 
	C711.150574,519.328796 674.899475,505.258423 636.136780,498.643341 
	C629.465454,497.504852 622.722839,496.784515 615.682556,496.857513 
	C617.523865,497.772095 619.352295,498.713928 621.208496,499.597198 
	C665.772217,520.803833 706.778503,547.724792 746.008911,577.465576 
	C773.527222,598.327271 799.922668,620.497986 823.377014,645.944763 
	C828.896484,651.933105 834.175049,658.219727 838.921570,664.830688 
	C858.283813,691.798523 856.880676,719.832825 842.136963,748.094666 
	C838.895996,754.307190 834.181091,759.750793 829.663696,766.239990 
	C823.481384,755.751221 818.233032,746.340881 812.512634,737.226929 
	C783.246338,690.599121 747.686646,649.756226 701.912415,618.544128 
	C669.233215,596.261108 633.641846,581.111023 593.937988,577.310120 
	C571.084412,575.122314 548.443848,577.518066 526.024353,582.509338 
	C510.424469,585.982300 494.675507,589.475647 478.577820,587.821899 
	C471.082916,587.051941 463.780884,584.404419 456.193909,582.312439 
z"/>
<path fill="#FACAC6" opacity="1.000000" stroke="none" 
	d="
M164.122040,569.866882 
	C191.612259,593.463806 222.903198,610.021790 258.128967,618.221985 
	C274.877563,622.120850 292.160492,624.651550 309.326324,625.646301 
	C350.696106,628.043640 377.781708,609.607666 392.646118,570.428223 
	C399.547028,552.238953 402.745941,533.243530 403.897552,513.891357 
	C404.314484,506.884766 404.978668,505.837708 411.911835,504.119812 
	C413.467743,503.734253 415.018341,503.327423 416.571381,502.930389 
	C416.554688,502.450623 416.537994,501.970825 416.521301,501.491028 
	C412.462311,501.225525 408.364838,500.462524 404.350464,500.773224 
	C372.002014,503.277069 340.628021,510.911591 309.695282,520.153503 
	C291.267059,525.659363 273.638245,533.876770 255.165207,539.189270 
	C216.429001,550.329346 177.323273,560.113831 137.386597,566.180176 
	C124.868546,568.081604 112.497147,570.702698 101.178368,576.837952 
	C89.762558,583.025757 83.466362,592.394043 84.018654,605.528137 
	C84.345406,613.298523 85.598595,621.030701 86.462944,628.776917 
	C86.624893,630.228394 86.918343,631.665100 86.139763,633.733459 
	C83.010918,629.980408 79.754013,626.325928 76.776482,622.456421 
	C66.560966,609.180847 58.108582,594.911133 52.778831,578.934021 
	C43.894226,552.300415 49.299988,528.105469 65.591789,505.951904 
	C76.146065,491.600311 89.713264,480.773804 105.745491,472.998840 
	C112.482666,469.731598 119.234329,466.463959 125.745422,462.782654 
	C127.315460,461.894989 128.824249,459.389954 128.881180,457.582092 
	C129.227737,446.574432 133.633911,443.353638 143.829208,447.510071 
	C148.749268,449.515900 153.610687,451.846924 158.121033,454.640442 
	C169.308304,461.569397 181.381714,465.552887 194.258331,468.207733 
	C203.238800,470.059265 212.275574,473.220184 220.352905,477.542267 
	C237.532700,486.734955 241.101791,503.537750 230.405991,519.898560 
	C229.603607,521.125854 228.761047,522.326965 227.060349,524.831482 
	C235.496490,523.939026 242.802124,523.471863 250.005661,522.349304 
	C275.859497,518.320251 299.899139,508.336243 324.190521,499.253357 
	C350.372864,489.463409 376.881989,480.771484 404.361664,475.454865 
	C410.476807,474.271759 417.040283,473.602875 423.133881,474.495575 
	C434.973572,476.230072 441.192963,484.292694 440.586975,497.940399 
	C440.136658,508.082123 437.566223,518.129700 434.993042,528.148743 
	C434.084229,518.347778 436.522339,508.234558 430.807800,499.420990 
	C430.295319,499.454041 429.782837,499.487061 429.270355,499.520111 
	C429.270355,501.236450 429.307556,502.953674 429.264893,504.668976 
	C428.335754,542.007507 418.473389,576.517883 396.610138,607.172241 
	C383.028046,626.215637 363.767853,636.425476 341.283051,639.688660 
	C294.921082,646.417114 250.323227,639.947083 208.510071,618.185181 
	C189.939087,608.519836 175.033188,594.714600 165.656479,575.584045 
	C164.927689,574.097107 164.373108,572.524719 163.834656,570.527466 
	C163.931732,570.062805 164.122040,569.866882 164.122040,569.866882 
M77.005333,500.543488 
	C75.764671,502.095978 74.400116,503.566254 73.305763,505.215790 
	C69.471916,510.994659 65.130989,516.538208 62.075321,522.711914 
	C54.879337,537.250793 54.859928,552.831360 57.155563,568.472961 
	C57.931850,573.762268 59.569389,578.925232 60.813339,584.145935 
	C61.987820,582.250305 62.035416,580.524597 61.979939,578.802185 
	C61.670174,569.184998 60.461777,559.494934 61.263069,549.973145 
	C62.015034,541.037476 63.229134,531.451660 67.155838,523.612488 
	C75.957848,506.040497 89.696281,492.640381 107.740723,484.080353 
	C111.188507,482.444763 114.745064,480.849121 117.779907,478.599030 
	C119.797302,477.103333 120.976601,474.477203 122.531036,472.357056 
	C119.979691,472.586395 117.077522,472.103912 114.933914,473.160461 
	C100.992035,480.032288 88.615509,489.178680 77.005333,500.543488 
M142.759125,482.022644 
	C139.703613,483.071289 136.007782,483.406189 133.793549,485.392639 
	C131.997040,487.004303 130.976807,490.825378 131.520035,493.236725 
	C131.893066,494.892517 135.430511,496.564240 137.739105,496.882599 
	C141.116150,497.348297 144.754272,497.040253 148.115417,496.304749 
	C161.485657,493.379211 173.208450,495.472534 182.335999,506.538055 
	C182.617920,506.879791 183.145325,507.019043 184.171906,507.599884 
	C181.910172,497.651306 176.526474,490.485138 167.714737,487.269012 
	C160.079239,484.482208 151.714050,483.694702 142.759125,482.022644 
M149.111420,478.047546 
	C157.614105,480.945526 166.116806,483.843506 175.434372,487.019226 
	C172.934906,484.863037 170.910583,482.950378 168.718781,481.254089 
	C157.796783,472.801239 145.795258,470.295624 132.721008,475.348816 
	C131.203232,475.935486 130.368256,478.288818 129.216736,479.823059 
	C130.822601,479.878571 132.452072,480.136047 134.029922,479.951721 
	C138.768127,479.398376 143.486191,478.672699 149.111420,478.047546 
M177.595917,489.519958 
	C177.595917,489.519958 177.470398,489.596619 177.595917,489.519958 
z"/>
<path fill="#FFFDFD" opacity="1.000000" stroke="none" 
	d="
M293.177124,578.860474 
	C309.877319,581.588806 320.800293,573.373047 328.998871,559.971008 
	C329.416351,559.288513 329.988739,558.700806 330.789093,557.689819 
	C333.808960,563.987366 336.531219,570.024658 339.575592,575.894958 
	C341.868347,580.315918 344.488953,584.575745 347.126282,588.805908 
	C348.816803,591.517395 351.037659,591.382874 352.593506,588.786682 
	C354.633179,585.383118 356.704987,581.881287 357.968414,578.152527 
	C361.517517,567.678101 364.659241,557.065552 368.419922,545.042236 
	C370.880127,551.240967 372.682404,556.483337 375.003967,561.484619 
	C379.763306,571.737549 377.904236,580.553955 372.326843,590.406677 
	C362.350067,608.031189 347.332855,616.409851 328.209808,619.088623 
	C293.661926,623.928162 261.485657,615.805481 231.014145,600.162354 
	C210.747803,589.758179 191.010712,578.323120 171.039032,567.345154 
	C170.606735,567.107544 170.202423,566.818848 168.653976,565.835999 
	C175.349182,565.005310 180.697906,564.331543 186.049255,563.679443 
	C221.046646,559.414551 254.328796,548.970703 287.146332,536.448425 
	C312.283295,526.856812 337.408203,516.859375 364.192688,512.610535 
	C375.138153,510.874237 386.268646,510.304291 398.312592,509.104340 
	C395.522247,531.146240 390.348206,551.120361 381.950928,570.424194 
	C377.540680,557.915039 373.286255,545.847778 369.031799,533.780518 
	C368.484985,533.918152 367.938141,534.055725 367.391296,534.193359 
	C362.787231,551.841187 359.214142,569.848450 349.924713,587.451233 
	C341.377380,574.665344 337.184692,561.492737 331.184662,548.011963 
	C323.273834,564.180115 313.515259,577.261475 292.962860,576.937744 
	C287.256897,576.864197 282.446198,576.864197 277.635468,576.864197 
	C277.638702,577.529602 277.641907,578.195068 277.645142,578.860474 
	C282.822479,578.860474 287.999786,578.860474 293.177124,578.860474 
z"/>
<path fill="#FFFEFE" opacity="1.000000" stroke="none" 
	d="
M546.048828,674.969299 
	C528.260864,659.697449 510.815186,644.000427 492.562408,629.305908 
	C480.749573,619.795959 467.756470,611.752014 455.527039,603.215027 
	C460.309296,603.215027 465.699036,603.126099 471.084778,603.235413 
	C479.566101,603.407593 488.057892,604.139099 496.521698,603.875916 
	C515.760071,603.277649 534.437317,607.089905 553.150208,610.551941 
	C562.569763,612.294617 571.835510,614.868103 581.628418,617.523987 
	C592.246277,623.245605 602.322205,628.680420 612.586060,633.733826 
	C629.232056,641.929504 644.679932,651.915527 658.538818,664.233093 
	C662.435242,667.696106 665.561279,672.025879 669.023499,675.976196 
	C669.006287,675.994263 668.975403,676.033508 668.593506,676.025513 
	C665.420288,674.987122 662.604126,674.018921 659.841614,672.916260 
	C642.054749,665.816589 623.951660,660.069214 604.527283,660.074280 
	C602.552734,660.074829 600.578247,660.620911 597.788940,661.034668 
	C610.347351,675.816589 617.512512,691.724609 618.963074,711.025330 
	C613.544006,703.764343 608.913513,697.169678 603.872131,690.905640 
	C597.844971,683.416931 590.228149,677.998047 580.953613,674.836243 
	C580.796997,674.635376 580.694519,674.588562 580.592041,674.541748 
	C580.724609,674.697693 580.857239,674.853760 581.020996,675.355347 
	C592.847107,689.977234 599.856384,706.563110 604.586731,724.324463 
	C602.218689,722.399048 600.518066,719.948608 598.365295,717.996887 
	C585.335449,706.184570 572.339539,694.326782 559.016296,682.851074 
	C555.235718,679.594666 550.400452,677.562744 546.048828,674.969299 
z"/>
<path fill="#FAD0CC" opacity="1.000000" stroke="none" 
	d="
M546.131409,675.294678 
	C550.400452,677.562744 555.235718,679.594666 559.016296,682.851074 
	C572.339539,694.326782 585.335449,706.184570 598.365295,717.996887 
	C600.518066,719.948608 602.218689,722.399048 604.586731,724.324463 
	C599.856384,706.563110 592.847107,689.977234 581.026001,675.350586 
	C580.999817,675.000183 581.007690,674.990234 581.007690,674.990234 
	C590.228149,677.998047 597.844971,683.416931 603.872131,690.905640 
	C608.913513,697.169678 613.544006,703.764343 618.963074,711.025330 
	C617.512512,691.724609 610.347351,675.816589 597.788940,661.034668 
	C600.578247,660.620911 602.552734,660.074829 604.527283,660.074280 
	C623.951660,660.069214 642.054749,665.816589 659.841614,672.916260 
	C662.604126,674.018921 665.420288,674.987122 668.718994,676.232056 
	C669.593201,676.423035 669.959961,676.399353 670.326782,676.375671 
	C669.898071,676.236450 669.469421,676.097229 669.040710,675.958069 
	C665.561279,672.025879 662.435242,667.696106 658.538818,664.233093 
	C644.679932,651.915527 629.232056,641.929504 612.586060,633.733826 
	C602.322205,628.680420 592.246277,623.245605 581.989868,617.664856 
	C596.425110,621.903931 611.225281,625.754028 625.432739,631.161499 
	C656.255859,642.893127 683.922302,659.886658 707.005737,683.726990 
	C726.062683,703.408752 740.225342,726.454651 752.187866,751.397034 
	C752.095703,751.904114 751.795105,752.211792 751.795105,752.211792 
	C741.423035,742.611511 731.623047,732.285217 720.556946,723.565735 
	C699.134155,706.685486 674.105164,697.940857 647.274597,694.104858 
	C639.231506,692.954834 631.167603,691.950012 622.731384,690.827881 
	C638.110291,723.900146 644.038452,757.336426 632.161865,792.281311 
	C626.173828,768.324585 612.293030,748.907410 596.896790,730.771484 
	C580.750793,711.752441 563.168518,693.952637 546.131409,675.294678 
z"/>
<path fill="#FFFDFC" opacity="1.000000" stroke="none" 
	d="
M795.932617,776.045593 
	C782.683044,758.739319 769.809204,741.129333 756.108582,724.187805 
	C723.961426,684.436035 686.047729,651.748596 638.977234,630.571838 
	C610.216370,617.632629 580.159912,609.119141 549.116577,603.898987 
	C542.758728,602.829834 536.403503,601.744690 528.878601,600.468811 
	C554.059204,596.862732 578.062744,592.213196 602.455566,595.163635 
	C630.238708,598.524231 656.533081,607.138306 681.020447,620.724609 
	C713.697388,638.854675 742.637817,661.534912 764.564575,692.226074 
	C782.330811,717.093689 792.518982,744.947937 796.010132,775.670654 
	C795.905457,776.087280 795.932617,776.045593 795.932617,776.045593 
z"/>
<path fill="#FDEBEA" opacity="1.000000" stroke="none" 
	d="
M233.535355,405.887878 
	C236.823990,417.978027 246.896072,419.010193 257.458313,412.460846 
	C267.114868,406.473114 276.145416,399.248871 284.633514,391.654877 
	C298.629852,379.132721 311.661865,365.531616 325.675507,353.030060 
	C337.437134,342.537628 349.818573,332.427338 364.971649,327.227203 
	C373.811401,324.193634 383.214600,322.526459 392.498322,321.145782 
	C400.498138,319.956055 408.687714,320.042267 417.020844,320.336884 
	C394.969208,324.437531 375.112701,333.065002 358.024567,348.063263 
	C359.653748,347.424194 361.238739,346.619110 362.918976,346.171814 
	C379.400299,341.784058 395.739502,336.640350 412.447052,333.404724 
	C423.140015,331.333954 433.826752,335.355408 443.912689,339.215759 
	C451.617462,342.164734 458.964203,346.049042 466.470215,349.517273 
	C466.389618,350.007263 466.309021,350.497284 466.228424,350.987274 
	C463.050232,350.987274 459.872070,350.987274 456.222900,350.949219 
	C446.820618,349.307831 437.937225,346.701538 428.949799,346.272369 
	C386.860748,344.262329 348.853333,355.905334 315.105530,381.422882 
	C299.717682,393.057983 284.050262,404.342529 268.183777,415.314880 
	C262.786896,419.047058 256.545471,421.732452 250.388260,424.117065 
	C247.307785,425.310089 243.421661,425.449188 240.120926,424.849213 
	C231.271698,423.240692 228.472656,415.146576 233.535355,405.887878 
z"/>
<path fill="#FFFBFB" opacity="1.000000" stroke="none" 
	d="
M362.705078,476.083130 
	C363.843658,475.806976 364.620789,475.597473 365.397919,475.388000 
	C365.648834,475.735992 365.899780,476.084015 366.150726,476.432007 
	C363.617920,478.116486 361.290497,480.351410 358.515503,481.386780 
	C348.415649,485.154999 338.343903,489.211487 327.935638,491.895447 
	C306.864960,497.328949 285.546967,501.796326 264.405334,506.966095 
	C257.674377,508.611969 251.178619,511.219513 244.499847,513.411743 
	C248.245209,494.025208 238.622833,481.259705 222.939896,472.081848 
	C216.474533,468.298218 209.220093,465.862976 202.376343,461.625336 
	C207.258789,462.229095 212.447800,461.976624 216.967148,463.594604 
	C231.465347,468.785065 245.717117,474.664093 260.060303,480.286865 
	C261.665558,480.916199 263.247345,481.605438 265.094788,481.852997 
	C259.538696,476.128815 252.301239,471.987518 249.846191,462.227814 
	C285.779724,484.299347 323.054504,489.200806 362.705078,476.083130 
M266.107910,482.491180 
	C266.357269,482.503571 266.606628,482.515991 266.855988,482.528381 
	C266.736755,482.412567 266.617554,482.296722 266.107910,482.491180 
z"/>
<path fill="#FBDAD7" opacity="1.000000" stroke="none" 
	d="
M397.962280,643.898132 
	C405.040314,641.953735 412.118347,640.009399 420.493500,637.708740 
	C413.761261,634.366028 407.644043,631.328735 402.108337,628.580139 
	C416.530365,625.038025 422.315704,622.768372 439.325684,626.813538 
	C439.620026,626.439819 439.914337,626.066101 440.208679,625.692383 
	C433.914246,620.735046 427.619843,615.777710 421.518127,610.972107 
	C431.268829,612.004333 440.884094,615.366943 450.350800,619.282532 
	C465.573059,625.578735 475.970154,636.992920 483.523651,651.171265 
	C487.348297,658.350403 490.448700,665.915405 493.523804,673.627319 
	C489.628784,670.976135 486.157898,667.913208 482.530945,665.047913 
	C471.382782,656.241150 459.348785,649.165894 445.403564,645.601013 
	C431.483734,642.042603 417.532135,643.377136 403.532440,644.617065 
	C401.711212,644.778381 399.820709,644.156982 397.962280,643.898132 
z"/>
<path fill="#FBD9D7" opacity="1.000000" stroke="none" 
	d="
M385.144989,428.044678 
	C386.433441,424.838135 387.721863,421.631592 388.715607,419.158417 
	C400.578766,419.158417 411.959503,419.158447 423.340240,419.158447 
	C439.129547,419.158447 454.918884,419.158417 470.708191,419.158417 
	C470.790131,419.703003 470.872070,420.247589 470.954010,420.792145 
	C469.910706,421.222717 468.899078,421.767151 467.819489,422.067139 
	C442.564392,429.084534 418.313812,438.199249 395.868896,452.230927 
	C384.400177,459.400726 371.486755,464.303986 359.089264,469.929657 
	C349.260986,474.389465 324.666626,474.583130 314.980774,469.020325 
	C317.526520,468.598114 319.405487,468.286499 321.974121,468.324554 
	C339.264069,471.058319 354.110382,465.587372 368.336609,458.048431 
	C382.825867,450.370056 397.028473,442.152466 411.445953,434.335815 
	C414.847290,432.491730 418.606689,431.308075 421.026062,430.306915 
	C409.658142,429.590210 397.401550,428.817444 385.144989,428.044678 
z"/>
<path fill="#FDE9E8" opacity="1.000000" stroke="none" 
	d="
M152.484314,400.151611 
	C152.748642,402.076233 152.735565,404.228668 152.731567,406.381073 
	C152.726990,408.831421 152.730515,411.281799 152.730515,413.732147 
	C153.549011,414.006927 154.367508,414.281708 155.186005,414.556519 
	C157.623764,410.784180 160.061523,407.011871 163.037994,402.405914 
	C165.500946,410.597137 161.801987,418.955597 167.263184,427.078735 
	C173.875732,412.608002 177.910080,397.918518 189.812622,387.690033 
	C189.261139,388.891266 188.681778,390.080566 188.162521,391.295532 
	C183.939133,401.177673 179.711121,411.057922 175.538589,420.961517 
	C175.164246,421.850098 174.832367,422.993256 175.070557,423.855164 
	C175.607269,425.797333 176.039215,428.562195 177.402069,429.261780 
	C178.797653,429.978119 181.697052,429.206268 183.158447,428.076843 
	C187.212662,424.943634 190.814529,421.232208 194.682175,417.848694 
	C199.292099,413.815826 203.963272,409.850983 208.685745,405.950897 
	C209.379059,405.378326 210.502213,405.326263 211.806122,405.062561 
	C205.901123,412.108276 200.536438,419.544617 199.786835,429.434509 
	C199.178329,437.463074 201.353989,444.490112 208.073257,451.476990 
	C201.667557,451.476990 196.663452,452.162384 191.943390,451.297607 
	C186.459976,450.292969 181.093826,448.245148 175.912369,446.084991 
	C166.918549,442.335419 162.297241,435.334320 161.919830,425.543976 
	C161.833008,423.291565 161.480728,421.049377 161.250610,418.802490 
	C160.833008,418.793915 160.415390,418.785339 159.997787,418.776764 
	C159.520401,423.229340 159.042999,427.681915 158.573242,432.063385 
	C149.227921,427.995758 146.430099,414.475891 152.484314,400.151611 
z"/>
<path fill="#FAC9C5" opacity="1.000000" stroke="none" 
	d="
M317.967285,406.159088 
	C321.600342,404.100616 324.315674,406.068970 326.874695,408.298798 
	C340.696259,420.342346 341.226440,440.280884 327.928436,454.397888 
	C317.936035,465.005737 305.574554,468.901764 291.643921,464.533936 
	C277.973236,460.247650 269.967194,450.257904 267.345306,436.136963 
	C266.135925,429.623444 267.635742,426.482025 272.666260,425.581482 
	C272.863159,446.049957 285.840271,458.552948 303.628021,454.890533 
	C316.932281,452.151245 329.173309,440.228485 325.022034,423.936462 
	C323.460815,417.809296 320.364044,412.073364 317.967285,406.159088 
z"/>
<path fill="#FFFBFB" opacity="1.000000" stroke="none" 
	d="
M397.592224,643.941467 
	C399.820709,644.156982 401.711212,644.778381 403.532440,644.617065 
	C417.532135,643.377136 431.483734,642.042603 445.403564,645.601013 
	C459.348785,649.165894 471.382782,656.241150 482.530945,665.047913 
	C486.157898,667.913208 489.628784,670.976135 493.503784,673.994385 
	C496.672028,682.135437 499.507568,690.230652 502.163330,698.672302 
	C501.983521,699.018677 502.022522,698.970337 502.022522,698.970337 
	C492.335083,690.646973 482.459045,682.531555 473.001282,673.954895 
	C455.638031,658.209351 434.603210,652.029236 411.966309,649.952148 
	C404.036041,649.224609 396.048309,649.123657 386.399811,648.654602 
	C390.851990,646.733521 394.037079,645.359192 397.592224,643.941467 
z"/>
<path fill="#FFFDFC" opacity="1.000000" stroke="none" 
	d="
M384.909851,428.291473 
	C397.401550,428.817444 409.658142,429.590210 421.026062,430.306915 
	C418.606689,431.308075 414.847290,432.491730 411.445953,434.335815 
	C397.028473,442.152466 382.825867,450.370056 368.336609,458.048431 
	C354.110382,465.587372 339.264069,471.058319 322.365479,468.393188 
	C347.953461,464.896027 367.638489,451.505585 382.972961,430.982544 
	C383.566833,430.187683 384.108643,429.353882 384.909851,428.291473 
z"/>
<path fill="#FBE1E0" opacity="1.000000" stroke="none" 
	d="
M317.611908,406.164246 
	C320.364044,412.073364 323.460815,417.809296 325.022034,423.936462 
	C329.173309,440.228485 316.932281,452.151245 303.628021,454.890533 
	C285.840271,458.552948 272.863159,446.049957 273.040680,425.681274 
	C276.699280,425.357971 277.059662,427.810913 277.273041,430.730103 
	C278.147430,442.691864 288.317017,450.321350 301.651733,449.168243 
	C313.425476,448.150146 321.448792,438.604462 319.942963,426.951904 
	C319.634705,424.566376 317.889648,422.366455 316.426788,419.754150 
	C315.347412,417.234161 314.648163,415.041046 313.948883,412.847931 
	C315.051422,410.621765 316.153961,408.395569 317.611908,406.164246 
z"/>
<path fill="#FDE9E8" opacity="1.000000" stroke="none" 
	d="
M401.616211,358.902557 
	C402.237823,364.044983 404.723022,366.467163 410.002747,366.039001 
	C422.697723,365.009521 435.394104,363.950623 448.107880,363.212708 
	C461.863525,362.414307 475.312561,363.373688 486.957153,372.515503 
	C470.643524,371.654236 454.281494,370.110870 437.883301,369.390106 
	C427.597443,368.938019 417.257904,369.815582 406.940948,369.889343 
	C404.148560,369.909332 401.248810,369.500824 398.592285,368.669342 
	C396.897888,368.139008 394.307556,366.419556 394.351349,365.322357 
	C394.419678,363.610596 396.196991,361.788605 397.611969,360.375549 
	C398.470490,359.518188 400.010040,359.342773 401.616211,358.902557 
z"/>
<path fill="#FCE6E4" opacity="1.000000" stroke="none" 
	d="
M401.628784,386.967773 
	C401.865967,391.037598 404.648193,392.569183 407.952942,392.908813 
	C413.852509,393.515045 419.824982,393.422913 425.720673,394.054810 
	C443.043823,395.911560 460.354828,397.895599 477.641663,400.060822 
	C480.128723,400.372284 482.456421,401.956238 484.957520,403.274780 
	C460.945465,399.835571 436.759094,397.098267 412.282776,397.770844 
	C408.333649,397.879333 404.275452,397.540985 400.436371,396.667603 
	C398.469086,396.220062 396.874847,394.132721 395.112000,392.786438 
	C396.416382,391.210266 397.652496,389.569122 399.060028,388.091156 
	C399.593903,387.530548 400.522461,387.345795 401.628784,386.967773 
z"/>
<path fill="#FFFBFB" opacity="1.000000" stroke="none" 
	d="
M313.577576,412.841980 
	C314.648163,415.041046 315.347412,417.234161 316.057800,419.780121 
	C313.989624,425.324432 310.076111,427.738312 305.923920,426.321014 
	C301.961517,424.968597 301.229248,421.922119 302.146332,418.334747 
	C303.287842,413.869690 307.907684,411.662720 313.577576,412.841980 
z"/>
<path fill="#FAC9C5" opacity="1.000000" stroke="none" 
	d="
M293.067627,578.557800 
	C287.999786,578.860474 282.822479,578.860474 277.645142,578.860474 
	C277.641907,578.195068 277.638702,577.529602 277.635468,576.864197 
	C282.446198,576.864197 287.256897,576.864197 292.530579,576.929932 
	C292.981689,577.415527 292.969879,577.835327 293.067627,578.557800 
z"/>
<path fill="#FAD0CC" opacity="1.000000" stroke="none" 
	d="
M753.026855,752.971069 
	C753.286926,753.279236 753.558838,753.579468 753.783508,753.911560 
	C753.800537,753.936646 753.481873,754.188782 753.319275,754.335388 
	C753.176453,754.081055 753.033569,753.826782 752.940918,753.290649 
	C752.991150,753.008789 753.026855,752.971069 753.026855,752.971069 
z"/>
<path fill="#FFFDFC" opacity="1.000000" stroke="none" 
	d="
M795.885315,776.102295 
	C796.020874,776.173523 796.176575,776.229736 796.332275,776.285950 
	C796.272766,776.248962 796.213257,776.212036 796.043213,776.110352 
	C795.932617,776.045593 795.905457,776.087280 795.885315,776.102295 
z"/>
<path fill="#FAD0CC" opacity="1.000000" stroke="none" 
	d="
M752.973022,753.027344 
	C752.645752,752.927002 752.336670,752.808167 751.911316,752.450562 
	C751.795105,752.211792 752.095703,751.904114 752.251404,751.749878 
	C752.609497,751.877747 752.811829,752.159851 753.020508,752.706543 
	C753.026855,752.971069 752.991150,753.008789 752.973022,753.027344 
z"/>
<path fill="#FFFBFB" opacity="1.000000" stroke="none" 
	d="
M501.965027,699.043579 
	C502.190491,699.109314 502.434448,699.150146 502.678436,699.191040 
	C502.496765,699.268372 502.315094,699.345703 502.078003,699.196716 
	C502.022522,698.970337 501.983521,699.018677 501.965027,699.043579 
z"/>
<path fill="#FACFCB" opacity="1.000000" stroke="none" 
	d="
M512.890686,676.104492 
	C512.607300,675.989258 512.400024,675.797913 512.192810,675.606506 
	C512.436951,675.559814 512.681030,675.513123 513.020386,675.669434 
	C513.115662,675.872498 512.966858,676.028320 512.890686,676.104492 
z"/>
<path fill="#FACAC6" opacity="1.000000" stroke="none" 
	d="
M163.834808,570.158936 
	C163.578003,570.024597 163.418121,569.794006 163.258240,569.563477 
	C163.484756,569.530151 163.711243,569.496765 164.029892,569.665161 
	C164.122040,569.866882 163.931732,570.062805 163.834808,570.158936 
z"/>
<path fill="#FDEDEC" opacity="1.000000" stroke="none" 
	d="
M445.350525,466.316620 
	C450.809540,463.420959 455.864899,460.536255 461.108490,458.048340 
	C463.422363,456.950531 466.152618,455.978943 468.635498,456.104492 
	C495.101349,457.442078 519.287842,449.363831 542.866455,438.586487 
	C546.263367,437.033813 549.735657,435.645966 553.420959,434.706360 
	C537.329712,447.290436 520.037964,458.224182 500.034485,462.508392 
	C480.428619,466.707428 460.261475,468.285645 440.340698,471.014099 
	C440.159210,470.415894 439.977753,469.817688 439.796295,469.219482 
	C441.538666,468.309296 443.281036,467.399109 445.350525,466.316620 
z"/>
<path fill="#FDEDEC" opacity="1.000000" stroke="none" 
	d="
M304.703613,321.080444 
	C288.382080,328.521729 271.962738,335.311890 259.113098,347.755157 
	C252.377487,354.277771 246.925964,362.119843 240.829208,369.310669 
	C235.471481,375.629852 229.488632,381.200409 220.876114,385.424011 
	C221.583832,383.708618 221.715027,382.949585 222.138916,382.428711 
	C229.762207,373.061340 237.630051,363.884460 245.013901,354.333069 
	C252.598694,344.521759 261.835144,336.935059 273.144379,331.989319 
	C282.558960,327.872101 292.122314,324.091522 301.667725,320.281921 
	C302.788513,319.834595 304.213501,320.149536 305.497498,320.111115 
	C305.451202,320.261353 305.431396,320.427948 305.351379,320.557312 
	C305.266113,320.695129 305.123962,320.797729 304.703613,321.080444 
z"/>
<path fill="#FAD0CC" opacity="1.000000" stroke="none" 
	d="
M588.001221,545.998779 
	C587.555908,545.875671 587.109375,545.753784 586.662842,545.631836 
	C587.032898,545.609375 587.403015,545.586853 587.885315,545.783447 
	C587.997559,546.002441 588.000000,546.000000 588.001221,545.998779 
z"/>
<path fill="#ED5346" opacity="1.000000" stroke="none" 
	d="
M591.759399,383.770691 
	C591.979919,383.515747 592.314636,383.368408 592.649292,383.221069 
	C592.638916,383.455933 592.628479,383.690796 592.359741,384.009705 
	C592.101379,384.093781 591.873474,383.878265 591.759399,383.770691 
z"/>
<path fill="#FDEDEC" opacity="1.000000" stroke="none" 
	d="
M219.449951,385.534393 
	C219.414841,385.476776 219.485062,385.592010 219.449951,385.534393 
z"/>
<path fill="#FFFEFE" opacity="1.000000" stroke="none" 
	d="
M782.014771,646.988770 
	C782.148132,647.142517 782.265930,647.309631 782.383789,647.476685 
	C782.283203,647.429199 782.182617,647.381714 782.027466,647.183716 
	C781.972839,647.033264 781.999268,647.002014 782.014771,646.988770 
z"/>
<path fill="#FCE6E4" opacity="1.000000" stroke="none" 
	d="
M77.249924,500.286560 
	C88.615509,489.178680 100.992035,480.032288 114.933914,473.160461 
	C117.077522,472.103912 119.979691,472.586395 122.531036,472.357056 
	C120.976601,474.477203 119.797302,477.103333 117.779907,478.599030 
	C114.745064,480.849121 111.188507,482.444763 107.740723,484.080353 
	C89.696281,492.640381 75.957848,506.040497 67.155838,523.612488 
	C63.229134,531.451660 62.015034,541.037476 61.263069,549.973145 
	C60.461777,559.494934 61.670174,569.184998 61.979939,578.802185 
	C62.035416,580.524597 61.987820,582.250305 60.813339,584.145935 
	C59.569389,578.925232 57.931850,573.762268 57.155563,568.472961 
	C54.859928,552.831360 54.879337,537.250793 62.075321,522.711914 
	C65.130989,516.538208 69.471916,510.994659 73.305763,505.215790 
	C74.400116,503.566254 75.764671,502.095978 77.249924,500.286560 
z"/>
<path fill="#ED5346" opacity="1.000000" stroke="none" 
	d="
M143.215256,482.023071 
	C151.714050,483.694702 160.079239,484.482208 167.714737,487.269012 
	C176.526474,490.485138 181.910172,497.651306 184.171906,507.599884 
	C183.145325,507.019043 182.617920,506.879791 182.335999,506.538055 
	C173.208450,495.472534 161.485657,493.379211 148.115417,496.304749 
	C144.754272,497.040253 141.116150,497.348297 137.739105,496.882599 
	C135.430511,496.564240 131.893066,494.892517 131.520035,493.236725 
	C130.976807,490.825378 131.997040,487.004303 133.793549,485.392639 
	C136.007782,483.406189 139.703613,483.071289 143.215256,482.023071 
z"/>
<path fill="#FCE6E4" opacity="1.000000" stroke="none" 
	d="
M148.661774,478.030884 
	C143.486191,478.672699 138.768127,479.398376 134.029922,479.951721 
	C132.452072,480.136047 130.822601,479.878571 129.216736,479.823059 
	C130.368256,478.288818 131.203232,475.935486 132.721008,475.348816 
	C145.795258,470.295624 157.796783,472.801239 168.718781,481.254089 
	C170.910583,482.950378 172.934906,484.863037 175.434372,487.019226 
	C166.116806,483.843506 157.614105,480.945526 148.661774,478.030884 
z"/>
<path fill="#FCE6E4" opacity="1.000000" stroke="none" 
	d="
M177.533157,489.558289 
	C177.470398,489.596619 177.595917,489.519958 177.533157,489.558289 
z"/>
<path fill="#FAD0CC" opacity="1.000000" stroke="none" 
	d="
M580.994812,675.005005 
	C580.857239,674.853760 580.724609,674.697693 580.592041,674.541748 
	C580.694519,674.588562 580.796997,674.635376 580.953613,674.836243 
	C581.007690,674.990234 580.999817,675.000183 580.994812,675.005005 
z"/>
<path fill="#FFFEFE" opacity="1.000000" stroke="none" 
	d="
M669.023499,675.976196 
	C669.469421,676.097229 669.898071,676.236450 670.326782,676.375671 
	C669.959961,676.399353 669.593201,676.423035 669.100891,676.240112 
	C668.975403,676.033508 669.006287,675.994263 669.023499,675.976196 
z"/>
<path fill="#ED5346" opacity="1.000000" stroke="none" 
	d="
M266.303131,482.336029 
	C266.617554,482.296722 266.736755,482.412567 266.855988,482.528381 
	C266.606628,482.515991 266.357269,482.503571 266.303131,482.336029 
z"/>
</svg>