<svg version="1.1" id="Layer_1" xmlns="http://www.w3.org/2000/svg" xmlns:xlink="http://www.w3.org/1999/xlink" x="0px" y="0px"
	 width="100%" viewBox="0 0 1024 1024" enable-background="new 0 0 1024 1024" xml:space="preserve">
<path fill="#000000" opacity="1.000000" stroke="none" 
	d="
M677.002686,309.650665 
	C699.661743,309.252197 721.834045,309.454346 743.865784,311.852234 
	C767.815369,314.458862 792.038330,315.710785 815.136841,323.611969 
	C822.268372,326.051392 829.135559,329.029816 835.112732,333.697296 
	C843.824707,340.500488 845.485901,348.731567 840.070129,358.334167 
	C837.091858,363.614838 833.237061,368.308685 828.238281,371.724640 
	C820.021851,377.339478 817.045959,385.528534 816.260559,394.801971 
	C815.418091,404.750854 814.671387,414.721466 814.340271,424.697754 
	C812.604065,477.019806 784.152832,509.171387 736.028259,523.107910 
	C708.200623,531.166565 679.773804,532.381775 650.974792,529.595154 
	C636.848267,528.228333 622.841553,526.721619 609.181519,522.788025 
	C573.769226,512.590393 553.192444,489.239319 546.698120,453.000519 
	C543.672791,436.119049 543.333435,418.894043 539.654968,402.124268 
	C539.156860,399.853485 538.438599,397.629578 537.787964,395.393921 
	C532.099731,375.850006 513.191162,374.506958 501.193268,379.422729 
	C491.468597,383.407135 488.453430,392.603729 486.446136,401.857513 
	C483.161774,416.998840 482.858093,432.576965 480.268860,447.826477 
	C476.809265,468.201782 470.444214,487.285400 454.813202,501.953156 
	C441.650513,514.304626 425.620514,521.024475 408.328644,524.932312 
	C389.441925,529.200623 370.147430,530.987061 350.885468,530.927612 
	C321.077911,530.835571 291.710968,527.274048 264.703613,513.129456 
	C235.718140,497.948853 218.596603,474.383270 213.495422,441.813751 
	C211.112869,426.601868 211.648254,411.262299 209.884323,396.050415 
	C208.747986,386.250793 206.121292,377.638245 197.446960,371.600342 
	C192.239685,367.975708 188.209442,362.963409 185.293304,357.208984 
	C180.919678,348.578430 182.095078,341.657166 189.129288,335.105469 
	C195.125656,329.520416 202.527374,326.407379 210.105652,323.821594 
	C228.048264,317.699280 246.735443,315.446777 265.491638,313.685272 
	C278.733154,312.441711 291.978546,311.234619 305.231659,310.123474 
	C309.207947,309.790131 313.215027,309.787384 317.209503,309.712952 
	C340.356873,309.281464 363.520691,309.247101 386.538361,311.922668 
	C409.830292,314.630066 432.885773,318.993164 455.954193,323.184448 
	C478.229889,327.231781 500.518921,331.030060 523.325134,329.743561 
	C538.978577,328.860535 554.305115,325.785339 569.699158,323.149323 
	C592.648193,319.219604 615.508850,314.649048 638.649231,312.037170 
	C651.192871,310.621368 663.829590,309.547729 677.002686,309.650665 
M635.893005,333.367310 
	C628.228455,342.813507 620.882812,352.495941 613.852539,362.428802 
	C593.494019,391.192657 575.930420,421.540771 561.652344,453.774567 
	C560.832031,455.626617 560.224792,457.351257 560.738525,459.512695 
	C564.540405,475.509583 572.669861,488.708710 585.839844,498.655029 
	C591.220459,502.718597 591.564575,502.534119 594.291138,496.529816 
	C622.971924,433.370087 659.135498,375.270477 709.216187,326.576355 
	C710.338684,325.484894 712.005859,324.587311 711.697998,322.402588 
	C709.652649,321.058868 707.278625,321.274872 704.978271,321.274384 
	C688.992188,321.270844 673.018555,321.097137 657.027344,322.037506 
	C648.755371,322.523956 641.569092,323.702087 637.222717,331.607697 
	C636.985291,332.039612 636.611267,332.396484 635.893005,333.367310 
M298.630646,326.050354 
	C272.386230,358.637360 251.177643,394.304169 232.339722,431.613861 
	C226.287521,443.600616 226.809631,453.830078 232.304382,465.001068 
	C237.909988,476.397430 245.906113,485.712280 256.665802,494.110352 
	C284.129181,431.076996 318.744415,373.318420 366.863159,322.850922 
	C363.068909,322.138000 360.991180,321.418060 358.910431,321.409119 
	C343.081757,321.341034 327.247131,321.193390 311.427094,321.585541 
	C307.208252,321.690094 302.170807,320.965454 298.630646,326.050354 
M611.688538,488.118195 
	C609.408997,492.931366 607.225525,497.793243 604.819275,502.542236 
	C602.902161,506.325867 603.437500,508.624969 607.853943,509.921661 
	C612.638489,511.326355 617.420898,512.727234 622.212952,514.102966 
	C627.094055,515.504211 629.405762,514.090149 631.200439,509.381836 
	C650.942871,457.587616 680.130554,411.649872 717.429077,370.738098 
	C729.662903,357.319214 741.893250,343.912659 755.008240,331.338837 
	C756.262939,330.135925 758.217957,329.014038 757.335754,326.808929 
	C756.606384,324.985840 754.639893,324.985992 753.035461,324.789307 
	C748.248901,324.202606 743.421509,323.916443 738.653809,323.215485 
	C733.474487,322.454010 729.491516,324.023926 725.604370,327.607758 
	C713.340027,338.915192 701.731812,350.837799 690.870178,363.476318 
	C658.624390,400.997345 633.290283,442.932007 611.688538,488.118195 
M345.291016,406.830200 
	C364.589813,378.091705 387.285980,352.192902 412.758942,327.740204 
	C403.025574,325.043762 394.150787,324.884552 385.467102,323.504852 
	C383.531250,323.197235 382.350250,324.472565 381.212677,325.669830 
	C374.333679,332.909546 367.251740,339.973999 360.674927,347.480164 
	C332.560974,379.566986 309.433838,415.048218 289.763458,452.824097 
	C282.386200,466.991638 275.390503,481.351227 268.959930,495.985474 
	C267.352661,499.643219 267.846161,501.901489 271.620789,503.410309 
	C275.788940,505.076416 279.837830,507.055237 284.049011,508.596252 
	C290.942230,511.118713 292.975891,510.165436 295.424011,503.466949 
	C307.883362,469.376648 324.621948,437.494324 345.291016,406.830200 
z"/>
<path fill="#000000" opacity="1.000000" stroke="none" 
	d="
M548.663208,879.576843 
	C546.498657,883.753418 544.769531,887.766235 542.421936,891.376831 
	C538.414429,897.540222 531.623901,898.868591 525.509827,894.774048 
	C516.666992,888.852173 507.899200,882.797852 500.611572,874.916138 
	C498.018768,872.112061 495.717346,869.105164 494.326202,864.940918 
	C497.657104,864.842224 499.749695,863.665344 498.705383,860.154602 
	C494.781769,846.964172 498.844879,834.490234 502.119537,821.951721 
	C502.664337,819.865723 503.446442,817.841248 504.130615,815.792297 
	C506.146698,809.754883 506.148956,809.755615 499.657318,808.742981 
	C499.159180,803.951111 502.178986,799.229431 500.142334,794.152344 
	C499.415344,792.340088 502.114349,791.994141 503.819153,792.679382 
	C506.301941,793.677185 508.066101,795.733521 509.903900,797.527344 
	C512.263245,796.125427 513.046997,794.058105 513.770996,792.076782 
	C515.952881,786.105713 518.792236,780.486938 522.366150,775.239319 
	C523.784424,773.156799 524.463684,771.008423 522.896729,768.764282 
	C521.443176,766.682556 519.381775,765.879272 516.809998,766.146606 
	C505.562195,767.316040 494.254181,767.931702 483.088501,769.851929 
	C480.754639,770.253357 478.400696,770.483704 476.330200,769.024719 
	C472.329712,766.205383 469.112915,767.906433 466.088379,770.711548 
	C462.915558,773.654297 461.530060,777.643127 460.067078,781.525696 
	C453.722076,798.363953 449.082245,815.733032 444.367035,833.066650 
	C442.195648,841.048889 440.607452,849.191101 438.803955,857.271667 
	C437.984711,860.942200 436.123627,862.843201 432.080780,861.951233 
	C430.218750,861.540405 428.281281,860.769043 426.293335,861.543396 
	C425.936066,864.627502 429.600616,864.241699 430.089539,866.414856 
	C424.903076,867.180115 418.662292,862.287842 418.393890,857.384094 
	C418.153595,852.994385 413.843414,852.096619 411.292419,851.526733 
	C400.710052,849.162781 396.335938,841.302185 394.104156,832.335754 
	C391.768127,822.950806 393.454803,813.501404 397.772552,804.682678 
	C398.273407,803.659729 398.853149,802.492920 398.808075,801.417480 
	C398.631561,797.202332 398.839600,793.669983 404.676453,794.231018 
	C406.260895,794.383240 407.324799,792.571899 407.107452,790.983215 
	C406.726196,788.196838 404.638824,786.141479 402.086395,786.267761 
	C396.549286,786.541626 390.707214,786.691406 386.235504,790.637695 
	C384.211304,792.423950 382.113403,793.362488 379.578247,793.591919 
	C373.411316,794.150146 367.448120,795.727112 361.476990,797.225891 
	C357.956329,798.109558 356.731689,796.999756 356.646210,793.339233 
	C356.401245,782.846680 362.347870,773.798950 372.189270,770.292786 
	C372.658447,770.125610 373.199493,769.795288 373.616547,769.900391 
	C383.442688,772.375549 387.737823,765.191223 392.931274,759.195374 
	C395.226379,756.545715 398.999664,755.803589 402.252563,754.634338 
	C405.933960,753.311096 408.407806,751.017700 410.346893,747.688477 
	C413.963470,741.479065 416.905182,734.976990 419.780823,728.406616 
	C421.662354,724.107605 420.184937,722.436340 416.144135,721.238464 
	C405.439789,718.065247 395.008240,714.114014 384.848938,709.466492 
	C383.193237,708.709106 381.440094,708.081299 380.373596,706.455139 
	C380.181061,704.567688 381.657654,703.827698 382.818573,702.981750 
	C386.901245,700.006775 390.487457,696.462952 393.336060,692.373047 
	C395.820251,688.806274 398.336975,688.186707 402.167877,689.993774 
	C409.402557,693.406433 416.925110,696.156067 424.638000,698.269714 
	C429.034149,699.474487 430.120819,701.481323 428.141693,705.740784 
	C426.193085,709.934570 424.315491,714.274719 424.234406,719.060120 
	C424.205200,720.782593 424.490265,722.591553 426.392700,723.161133 
	C428.540649,723.804321 429.312439,722.111877 429.873535,720.476501 
	C440.130890,690.579834 458.751221,665.069397 473.400055,637.476746 
	C479.570740,625.853638 485.716339,614.216736 491.085785,602.196655 
	C496.184814,590.782043 505.943329,588.316162 515.977356,596.295288 
	C522.600830,601.562256 525.936707,609.549377 531.294800,615.898315 
	C532.130005,616.888000 532.126099,618.757141 532.156799,620.226990 
	C532.389526,631.366150 533.218567,642.579529 530.142456,653.481567 
	C528.477661,659.381714 523.984131,663.831787 521.270203,669.292358 
	C515.050415,681.807129 506.944702,693.314209 500.739349,705.871948 
	C499.802521,707.767883 498.284485,708.923157 496.518402,709.960876 
	C493.087341,711.976990 490.910797,715.103699 489.274353,718.651001 
	C488.620605,720.068115 488.103485,721.508789 489.493164,722.774353 
	C490.934052,724.086304 492.625153,724.033081 494.089569,722.985168 
	C496.112366,721.537537 497.840546,719.665588 499.904816,718.290527 
	C515.980713,707.581787 533.425232,706.354126 551.521851,711.509949 
	C555.139038,712.540527 556.930969,711.700806 559.062500,709.039856 
	C573.843811,690.587402 584.935852,669.901245 595.699707,649.009766 
	C601.497986,637.755859 607.209351,626.457092 613.023560,615.211487 
	C617.354004,606.835632 627.713135,605.617371 634.120361,612.698364 
	C638.034180,617.023804 640.138672,622.283875 641.329102,627.870972 
	C643.711975,639.055664 645.046082,650.495300 640.424377,661.238586 
	C637.601501,667.800720 634.996338,674.342834 632.943176,681.164795 
	C631.732544,685.187500 629.855652,689.285889 626.462158,691.653137 
	C621.852417,694.868835 622.539612,699.758057 621.185242,704.015381 
	C620.833130,705.122375 620.964355,706.450928 622.371155,706.937561 
	C623.427307,707.302856 624.572266,706.821838 624.989136,705.950073 
	C629.351074,696.827515 638.054443,690.497070 640.818726,680.233765 
	C643.574829,670.000793 643.990601,670.087341 654.915894,671.604248 
	C657.894897,672.017883 660.448486,671.269348 662.919189,669.590637 
	C664.635071,668.424744 666.022156,666.479919 669.099976,666.679077 
	C669.473938,671.851013 668.908203,677.120239 669.992249,682.298706 
	C670.691101,685.636780 671.848999,688.664612 673.366211,691.625122 
	C674.035278,692.930603 674.657043,694.584229 676.644226,693.910645 
	C678.443176,693.300903 678.470703,691.798584 678.214844,690.191467 
	C677.613831,686.415955 677.270508,682.588318 676.467773,678.858215 
	C674.583435,670.102295 677.002258,662.311218 681.778259,655.172852 
	C690.373169,642.326416 702.899170,634.127869 716.126160,626.838013 
	C718.750061,625.391846 721.426270,624.040710 724.051392,622.596741 
	C726.110840,621.464050 728.015869,620.169312 728.185364,617.624512 
	C726.293701,614.861328 722.154480,617.801208 720.511780,613.571045 
	C725.305298,612.505859 730.117554,612.412415 734.312439,610.876160 
	C736.163696,613.170166 733.708740,613.921692 733.723694,615.449097 
	C734.130066,615.590698 734.555420,615.847961 734.995483,615.876221 
	C743.118408,616.397766 750.025940,611.915100 757.642090,610.323608 
	C759.199707,609.998108 759.659302,608.731018 759.228516,607.193604 
	C758.858337,605.872131 758.441101,604.565674 756.773865,604.454834 
	C755.951294,604.400208 755.036255,604.305847 754.300598,604.588074 
	C744.003845,608.537292 733.247314,607.081299 722.643982,607.315857 
	C706.156738,607.680603 689.667603,607.966370 673.178467,608.233032 
	C671.060791,608.267273 668.867065,608.668030 665.993164,607.256348 
	C674.305359,603.174988 682.933350,605.960938 691.480652,603.159058 
	C692.246460,602.505981 689.724182,601.912659 690.581604,600.370422 
	C693.895081,599.619507 697.253967,597.993042 700.420959,595.833618 
	C704.420898,593.106262 711.857971,594.198425 715.246704,597.555115 
	C716.966492,599.258667 716.126587,600.439758 714.149170,601.515991 
	C725.066650,604.423462 731.337524,602.216370 736.837280,593.700256 
	C739.450500,589.653870 741.985046,585.531006 744.192139,581.255310 
	C746.363770,577.048340 745.064941,575.198853 740.273865,574.939941 
	C737.913269,574.812439 735.371399,575.653503 732.201904,573.210205 
	C747.895996,569.969604 762.652405,567.888062 778.584351,567.029114 
	C774.760986,578.872986 767.480347,587.947876 763.138367,598.964722 
	C767.518799,599.912720 771.754211,599.672180 774.252563,603.507385 
	C774.783630,604.322693 777.051147,604.500427 777.343201,603.431458 
	C778.887146,597.781982 783.606018,599.179504 787.164612,599.165894 
	C796.805298,599.128906 806.439636,599.810303 816.091614,600.004089 
	C831.393555,600.311462 846.675110,599.413879 861.968628,599.937805 
	C870.458679,600.228699 878.965393,600.021057 887.464478,600.063721 
	C890.111145,600.077026 892.773987,600.066589 896.032898,601.510742 
	C893.389282,603.411011 890.796448,603.218323 888.356445,603.278931 
	C872.703369,603.667603 857.048157,603.968445 841.395508,604.371765 
	C839.368469,604.423950 836.993408,603.615662 835.080261,606.575623 
	C842.714355,612.698364 850.694580,618.880371 852.012024,629.712097 
	C849.510559,630.480774 849.509949,627.519409 847.135010,628.126465 
	C844.267578,633.741394 848.846008,638.840698 848.682312,645.251770 
	C853.006409,642.777161 848.200012,637.350525 853.558960,636.025269 
	C853.538574,640.638794 857.431580,644.755493 854.889221,649.908569 
	C852.655273,649.845825 853.671997,646.516785 850.902527,647.028687 
	C849.725098,649.769165 848.710693,652.880859 849.955750,656.046387 
	C850.988464,658.672241 853.128540,655.552673 854.646545,656.365906 
	C855.574646,658.575500 853.335205,660.146423 853.798645,663.004761 
	C865.943909,667.141541 878.482117,671.412170 891.020386,675.682800 
	C890.883850,676.108887 890.747375,676.535034 890.610840,676.961121 
	C886.619202,677.350525 882.942627,675.502319 879.125793,674.830811 
	C871.433472,673.477600 863.836426,671.555847 856.236328,669.718811 
	C853.234680,668.993225 851.166687,669.339355 849.866394,672.562744 
	C847.712830,677.900818 842.802917,680.851074 838.783142,684.541992 
	C836.318298,686.805115 834.447815,684.916626 832.806274,683.265015 
	C830.247375,680.690186 827.536682,679.683960 823.809509,680.649597 
	C816.349792,682.582214 815.325500,681.990051 811.554993,675.204224 
	C810.910217,674.043884 810.347107,672.820251 809.900574,671.570618 
	C806.856995,663.053467 801.782959,659.434692 792.652100,660.180176 
	C779.128906,661.284119 766.658081,665.630493 755.527893,673.516663 
	C751.915161,676.076477 753.025635,681.608582 758.009949,685.538452 
	C769.278137,694.422668 780.021057,703.878479 789.928162,714.274963 
	C796.144897,720.798828 801.818909,727.775085 807.369019,734.858459 
	C808.450378,736.238586 809.867737,737.778137 806.748901,738.607300 
	C813.493835,747.790649 818.427917,757.884827 818.759155,769.330688 
	C819.013123,778.103699 817.665222,786.923096 817.028931,795.721863 
	C816.704773,800.203918 816.312378,804.682251 816.070251,809.168762 
	C815.760193,814.914673 815.227356,815.251221 809.885559,812.690308 
	C808.889282,812.212708 807.891907,811.737366 806.536499,811.089600 
	C813.288879,809.057495 814.565857,804.876404 810.478027,798.513184 
	C809.699219,802.698975 808.244629,805.793701 803.302307,804.397644 
	C801.667419,803.935852 800.541931,805.218567 799.548584,806.400574 
	C792.732422,814.511658 784.263428,820.766296 775.830017,826.984314 
	C773.200012,828.923462 772.096924,830.704407 773.333862,833.534973 
	C774.414185,836.007202 773.338257,837.274536 771.403992,838.380066 
	C769.236267,839.619080 767.003113,840.763489 764.936890,842.154602 
	C762.500061,843.795410 760.617798,843.435608 759.623047,841.570618 
	C751.958557,842.364319 745.164124,846.083069 737.632263,843.165955 
	C733.652222,841.624512 730.765381,844.092529 728.687500,846.837952 
	C727.083008,848.957764 726.527405,851.871582 725.596680,854.203796 
	C726.638794,856.379333 728.948608,854.946960 730.282776,856.494019 
	C729.367676,858.838440 727.014221,859.117981 725.166809,859.910583 
	C712.042725,865.541077 698.158936,868.187805 684.106628,870.067078 
	C678.017090,870.881470 672.448425,868.896362 667.593201,865.505432 
	C659.050781,859.539429 650.759521,853.270630 641.362000,848.576904 
	C635.696045,845.746826 632.319092,840.510254 631.379333,834.334229 
	C630.655762,829.578430 628.720093,825.526733 626.623901,821.369934 
	C619.670593,807.581482 621.806335,795.994690 633.110962,785.229187 
	C643.742065,775.104919 644.163025,775.111084 654.383118,785.495361 
	C656.487244,787.633179 658.888733,789.548889 660.653381,791.936340 
	C665.186462,798.069397 671.262573,798.687927 678.034973,797.436340 
	C686.556824,795.861328 695.040283,794.127197 703.125671,790.900818 
	C705.359985,790.009277 707.167725,789.472534 708.293152,792.478271 
	C709.224915,794.966919 711.554260,794.897400 713.353760,793.880920 
	C720.284180,789.966370 728.066467,787.796387 734.716492,783.343384 
	C737.184692,781.690674 738.795776,779.793396 736.476990,776.781372 
	C736.015076,776.181396 735.652893,775.258545 735.731995,774.538025 
	C735.914062,772.878540 738.467590,771.737183 736.834167,769.631531 
	C733.777527,765.691162 731.274231,761.303223 727.455322,757.983459 
	C727.113708,757.686462 726.402588,757.374390 726.106628,757.530701 
	C720.944763,760.255981 719.343140,755.812500 717.285095,752.942932 
	C713.649841,747.874268 709.196289,743.497192 707.348572,737.010071 
	C706.022583,732.354675 700.550720,733.015442 696.937622,734.106995 
	C692.804443,735.355713 690.306396,734.088318 687.717407,731.368408 
	C680.682129,723.977356 675.353882,715.718140 673.775146,705.386841 
	C673.228210,701.808105 672.352783,698.279602 671.664856,694.911499 
	C668.615295,694.255432 667.033142,696.015625 665.248108,697.069702 
	C652.588623,704.545410 639.329712,710.739258 625.552429,715.846985 
	C623.675781,716.542664 621.791443,717.657166 620.227539,715.344177 
	C618.347229,712.563354 616.626404,713.751099 615.049927,715.611877 
	C613.976868,716.878418 613.032349,718.262451 612.112366,719.648376 
	C609.231812,723.987549 607.177246,729.193787 600.646179,729.358826 
	C599.483154,729.388184 598.287354,730.533325 597.214417,731.311829 
	C591.410706,735.522827 591.542542,738.652527 597.845337,742.131653 
	C597.725464,742.836792 597.780334,743.724426 597.429504,744.402039 
	C586.794312,764.942444 579.417175,787.075500 566.898804,806.714417 
	C565.382446,809.093323 563.196716,810.728027 561.764465,813.268066 
	C558.515869,819.029419 561.457153,824.365967 563.675720,828.330139 
	C567.930054,835.932007 565.371460,842.279053 562.640625,848.780457 
	C558.325684,859.052979 552.717224,868.755798 548.663208,879.576843 
M773.273682,706.242920 
	C765.624939,700.112488 758.008545,693.944885 749.876404,688.442871 
	C747.053589,686.533081 744.865540,687.450623 742.801575,689.501526 
	C740.579407,691.709656 741.771118,693.794617 743.316162,695.674622 
	C745.548401,698.390686 748.303894,700.524597 751.254517,702.430908 
	C762.960327,709.993774 775.885864,715.583679 786.783325,724.469543 
	C788.434753,725.816040 790.544434,726.687866 792.586731,723.756226 
	C786.771484,717.477600 780.216614,712.170593 773.273682,706.242920 
M811.971069,602.469604 
	C802.180481,599.201050 793.180481,603.316895 783.941711,605.507996 
	C795.527344,603.728882 807.259888,608.657288 819.379639,605.169006 
	C817.176392,602.628479 814.782959,603.261414 811.971069,602.469604 
M826.530212,607.077881 
	C828.313538,608.727783 830.104797,609.144775 831.344238,606.614014 
	C832.082214,605.107178 831.106567,603.810425 829.613831,603.715637 
	C827.829529,603.602356 825.126099,603.044922 826.530212,607.077881 
z"/>
<path fill="#000000" opacity="1.000000" stroke="none" 
	d="
M489.594238,233.343323 
	C484.241821,231.896164 479.449036,228.983078 472.435333,231.474884 
	C482.290344,240.403946 487.967438,250.606339 488.404358,263.610046 
	C473.007355,245.793930 452.820190,241.895294 431.176025,243.207443 
	C430.200439,239.890701 432.687775,237.713882 431.478271,234.512878 
	C426.549805,233.767960 421.431396,235.310150 416.322998,236.132187 
	C407.422180,237.564468 407.376038,237.737045 402.685730,229.884781 
	C387.122345,203.829514 366.800537,181.456345 347.187988,158.578125 
	C325.053162,132.757599 301.763672,107.989716 276.345032,85.321907 
	C265.891327,75.999496 255.047745,67.147026 243.202713,59.611450 
	C240.729416,58.037991 238.390839,56.041424 234.830505,55.876091 
	C233.233536,62.435177 234.774719,68.809273 235.821228,75.062782 
	C239.959671,99.792580 240.958328,124.577019 239.619934,149.639801 
	C238.167923,176.829910 232.644058,203.422546 229.461533,230.346115 
	C227.137039,250.010849 225.484650,269.729950 224.365173,289.495178 
	C224.255875,291.424896 223.891388,293.446472 225.132172,296.081177 
	C227.973404,288.527283 228.349731,281.103241 229.604782,273.915375 
	C232.806076,255.581055 236.510590,237.364471 240.823929,219.258133 
	C244.179703,205.171494 248.971741,191.552017 253.369614,177.789490 
	C257.883392,163.664261 258.994385,148.797684 261.705688,134.276581 
	C262.438965,130.349487 263.257721,126.409668 265.386963,122.974472 
	C267.930450,118.870979 270.916321,118.118530 275.145386,120.378334 
	C279.337677,122.618507 282.503387,126.052483 285.520111,129.641632 
	C291.602264,136.877914 297.383057,144.321915 302.693970,153.258560 
	C291.348969,155.549240 280.613831,157.752060 275.114563,170.310028 
	C305.454865,161.852692 332.015228,168.601059 356.284454,186.367432 
	C336.778503,181.632706 317.354218,177.631744 297.722504,186.181335 
	C319.415039,189.526657 341.666199,190.703384 360.805878,203.497131 
	C348.289368,203.228302 335.933685,202.983322 323.659882,205.984497 
	C335.093475,208.441315 346.505157,210.900223 357.114410,215.948715 
	C367.774384,221.021332 377.533447,227.343674 385.351532,236.568344 
	C370.208160,232.430817 355.298004,228.003601 339.291321,229.988632 
	C357.339569,237.895706 376.422455,243.905045 390.503601,258.371460 
	C389.635681,260.940704 387.816345,261.219421 386.386078,261.914795 
	C368.717438,270.505249 358.977112,285.186829 354.652679,303.784363 
	C353.914368,306.959412 353.261078,307.980896 349.950348,307.407288 
	C323.726105,302.863770 297.265503,302.470154 270.754700,303.211487 
	C249.414749,303.808197 228.300629,306.552643 207.298447,310.193390 
	C199.620712,311.524384 199.567108,311.720673 199.713699,303.661133 
	C200.052750,285.018402 201.776154,266.474976 203.416306,247.907837 
	C205.630127,222.846268 210.227417,198.135422 213.384201,173.226059 
	C217.331360,142.080231 217.640991,110.865189 212.156708,79.731636 
	C210.025986,67.635788 208.090073,55.372353 211.235153,43.058792 
	C214.533463,30.145239 222.861618,25.394028 235.669769,29.293470 
	C249.658020,33.552193 261.344727,41.904381 272.621735,50.768982 
	C301.550171,73.509018 326.866974,100.027061 351.522186,127.189354 
	C372.025269,149.777252 391.636749,173.122955 409.986694,197.507477 
	C412.390106,200.701263 414.846497,203.890884 416.873444,207.321655 
	C418.714569,210.437912 421.143799,211.095062 424.431610,210.571045 
	C463.262878,204.382126 502.394867,203.753784 541.549011,205.072891 
	C561.659363,205.750397 581.799866,207.083008 601.703186,210.521820 
	C604.495789,211.004333 606.670776,210.652298 608.570679,207.948654 
	C633.924255,171.868500 663.034546,138.920074 693.204102,106.865372 
	C713.788330,84.994881 735.274170,64.081039 759.459290,46.165928 
	C769.909485,38.424934 780.745117,31.125460 793.864807,28.524889 
	C804.146790,26.486811 811.346069,31.084574 814.288940,41.249947 
	C817.384949,51.944336 816.696167,62.770176 814.690125,73.436180 
	C809.698059,99.978371 808.990051,126.745033 810.505249,153.552719 
	C811.641418,173.654755 815.919800,193.420990 818.575623,213.365997 
	C821.122620,232.494171 823.336060,251.658142 824.481384,270.950195 
	C825.181580,282.744781 826.224487,294.510895 826.363647,306.340515 
	C826.412476,310.494110 825.023499,311.456909 820.981384,310.672821 
	C784.331787,303.563721 747.293823,301.766205 710.085449,303.457916 
	C699.640930,303.932800 689.235413,305.614899 678.858704,307.075073 
	C674.244019,307.724426 672.010437,306.550293 670.838440,301.732483 
	C666.324646,283.176300 655.596680,269.432770 638.120239,261.236816 
	C637.241394,260.824646 636.468201,260.187317 634.776489,259.091949 
	C649.383057,243.944885 668.403259,237.820374 686.639465,230.087799 
	C670.668091,227.861282 655.747314,232.601898 640.578186,236.562943 
	C657.270752,218.414474 678.620300,209.885956 702.433044,206.154037 
	C690.126587,202.641525 677.648010,203.527588 665.078308,203.460205 
	C684.069275,190.849106 706.019836,189.505905 727.609131,186.347916 
	C718.447754,180.951813 708.453186,180.924881 698.417236,181.385284 
	C688.486755,181.840851 678.937195,184.566025 669.255432,186.547287 
	C693.617371,168.907166 720.129761,161.680161 749.885559,170.191345 
	C749.170288,165.109863 745.813599,161.240860 739.923950,158.109726 
	C735.042419,155.514481 729.613403,154.706207 724.546204,153.590927 
	C724.345520,152.766586 724.100708,152.356949 724.216919,152.153336 
	C730.521179,141.104996 737.817871,130.764587 747.694336,122.639214 
	C753.986023,117.462967 758.483093,119.015518 761.424683,126.713043 
	C764.124268,133.777328 764.938965,141.321640 765.787354,148.698074 
	C767.440918,163.074554 771.814331,176.558441 776.639587,190.084091 
	C784.928284,213.317978 789.636780,237.506119 794.255859,261.678436 
	C795.878662,270.170715 797.179199,278.724304 798.754822,287.226196 
	C799.002747,288.564148 798.768677,290.276215 800.636230,291.340271 
	C800.636230,284.402130 801.099304,277.639130 800.554443,270.958313 
	C798.430298,244.911652 795.514587,218.949417 791.221497,193.156021 
	C786.918701,167.304382 784.763306,141.272629 785.814331,115.074631 
	C786.447937,99.281898 788.687866,83.617386 791.204773,68.008514 
	C791.837891,64.081963 792.171204,60.108650 791.370789,55.909595 
	C787.609680,55.738319 785.116882,58.170128 782.421082,59.871143 
	C765.989502,70.239334 751.526367,83.083443 737.559631,96.449036 
	C706.093506,126.560791 677.365479,159.172104 649.969299,193.001663 
	C639.675842,205.712387 629.753845,218.638229 621.653625,232.869995 
	C619.674500,236.347290 617.541687,237.567322 613.217285,236.758820 
	C606.965698,235.589951 600.648132,233.697144 594.260254,234.430542 
	C593.006958,237.387451 595.483765,239.623886 594.425049,242.909241 
	C573.116699,242.118637 552.855896,245.468643 537.536926,265.013458 
	C537.021912,257.065063 539.306702,251.524048 541.896301,246.091904 
	C544.565796,240.492233 549.017212,236.206741 553.064270,231.253723 
	C543.135559,229.588318 534.583679,232.840668 526.891968,238.484131 
	C518.978027,244.290680 515.609314,252.973618 513.054077,262.555359 
	C509.733490,249.147522 503.218262,238.565811 489.594238,233.343323 
z"/>
<path fill="#000000" opacity="1.000000" stroke="none" 
	d="
M166.342499,665.264954 
	C183.234329,659.942749 199.751923,654.749939 216.284119,649.604065 
	C219.354507,648.648376 222.162781,647.530884 224.057709,644.623169 
	C226.537689,640.817749 230.542679,638.334900 233.925003,635.599304 
	C236.293259,633.683899 241.032150,634.412598 244.701538,634.487305 
	C247.447113,634.543152 249.946091,634.065491 252.515060,633.266968 
	C255.882217,632.220398 257.706909,630.455750 256.694489,626.673645 
	C255.991196,624.046265 257.326660,622.608704 259.668549,621.955750 
	C261.786194,622.484314 260.056000,624.948608 261.972565,625.699890 
	C264.329865,626.073730 265.651123,624.327393 266.903656,622.524780 
	C270.897339,616.777039 274.739563,610.949158 277.322174,604.378540 
	C278.170624,602.219910 279.231384,600.118164 280.420044,598.124573 
	C284.415009,591.424316 289.209167,589.472046 296.437561,592.202393 
	C302.351410,594.436218 308.098785,597.117493 314.258301,598.655701 
	C316.351074,599.178223 317.179779,600.775696 317.848846,602.482056 
	C319.792664,607.439636 321.913025,612.352478 323.442474,617.439697 
	C324.559265,621.154175 326.237152,622.587891 330.353363,622.879089 
	C342.618835,623.746948 354.962402,624.091553 367.076416,626.552124 
	C368.054749,626.750793 369.050354,626.875793 370.017395,627.117188 
	C397.782562,634.050293 407.029846,663.086426 388.972870,686.769287 
	C380.565308,697.796387 369.369476,705.683411 358.248230,713.625916 
	C355.810059,715.367188 353.182648,716.845215 350.761169,718.607666 
	C348.308380,720.392883 346.143188,722.393738 342.700775,720.509521 
	C341.096222,719.631287 339.601776,721.242126 338.151642,722.002686 
	C325.167389,728.812866 313.280609,737.536011 299.989899,743.821899 
	C292.561218,747.335327 284.994568,750.231628 276.631165,750.244507 
	C274.295502,750.248169 272.861481,751.495178 271.981384,753.419250 
	C269.212921,759.471741 266.599030,765.595520 263.781738,771.624634 
	C262.695129,773.949951 264.122253,775.425964 265.117554,777.091553 
	C266.076965,778.697021 267.419739,780.586365 265.874817,782.108704 
	C262.374542,785.558105 260.939453,790.717041 256.481171,793.296204 
	C254.123550,794.659973 253.560501,796.924866 253.664978,799.273621 
	C253.786331,802.002258 256.310944,801.695129 258.390656,801.816101 
	C256.914581,810.164978 252.536331,817.029663 250.235413,824.633850 
	C245.368515,840.718384 239.077545,856.345398 234.739075,872.600830 
	C233.661819,876.637024 233.111572,880.769226 233.031204,884.950134 
	C232.942017,889.588867 231.096481,891.566284 225.994492,891.463989 
	C202.621078,890.994995 181.526413,872.302368 177.644897,849.312439 
	C175.775162,838.238098 178.047256,828.322327 181.816696,818.208191 
	C195.722687,780.895447 211.203537,744.239075 227.369110,707.863281 
	C230.141098,701.625671 232.934891,695.389526 235.992340,689.289978 
	C237.906647,685.470825 237.558563,682.751160 234.218674,679.746582 
	C230.721313,676.600342 227.104218,673.271790 225.334412,668.095154 
	C230.410767,669.310303 231.553452,676.896973 238.475128,675.332458 
	C236.294296,671.228210 234.964035,666.408325 232.812424,664.213013 
	C229.721939,661.059631 225.388748,656.995239 219.194916,658.462952 
	C198.960083,663.257812 178.647125,667.723938 158.356537,672.282227 
	C151.110703,673.910034 143.842926,675.440063 136.585175,677.014771 
	C136.398682,676.461121 136.212204,675.907532 136.025711,675.353882 
	C146.008240,672.039429 155.990768,668.724976 166.342499,665.264954 
M307.218018,729.764771 
	C306.007416,726.393127 299.795776,726.281433 296.636444,729.555542 
	C295.524567,730.707825 294.750275,731.947205 295.815277,733.472229 
	C296.715424,734.761230 298.029510,734.794800 299.333252,734.143372 
	C301.826935,732.897278 304.288940,731.587769 307.218018,729.764771 
z"/>
<path fill="#000000" opacity="1.000000" stroke="none" 
	d="
M822.910522,540.799927 
	C857.023193,537.369934 890.744141,535.740417 924.654785,536.987549 
	C826.445068,544.157349 730.405823,561.332153 637.600647,596.900024 
	C638.656006,593.936707 640.764709,593.479980 642.458252,592.663879 
	C650.710449,588.686584 658.977844,584.735535 667.324524,580.962463 
	C670.346008,579.596680 672.602722,578.223328 672.901184,574.363892 
	C673.166382,570.934082 674.272644,567.521973 675.352295,564.214600 
	C676.651672,560.234192 675.659241,557.563232 671.951416,555.493286 
	C665.312134,551.786682 665.221741,551.610229 668.185486,544.740662 
	C669.728333,541.164429 668.314758,538.736694 665.411133,536.150085 
	C670.034973,533.816589 674.425476,534.717712 678.513000,535.194824 
	C694.354065,537.043518 710.120544,535.837585 725.884827,534.520752 
	C728.940674,534.265442 730.193054,535.529175 732.341064,537.512695 
	C738.073547,542.806274 741.062744,551.822510 750.935852,551.942749 
	C756.820923,552.014343 760.390686,550.271362 762.792053,544.757385 
	C765.582214,538.350525 768.458435,531.956116 770.259094,525.166809 
	C770.645203,523.710754 770.808105,522.160706 772.436523,521.475525 
	C781.916016,517.487000 791.173096,513.020020 800.193481,507.916077 
	C801.935608,510.846710 800.403687,512.997437 799.723999,515.034180 
	C797.036621,523.087402 794.101868,531.058167 791.246887,539.055237 
	C789.551575,543.804077 790.390686,544.777222 795.210327,544.142151 
	C804.280151,542.946960 813.371948,541.918701 822.910522,540.799927 
z"/>
<path fill="#000000" opacity="1.000000" stroke="none" 
	d="
M533.923950,559.984741 
	C519.929565,564.871155 521.899963,575.583008 523.605530,586.201782 
	C523.841858,587.672852 524.045959,589.153442 524.156189,590.637695 
	C524.187073,591.054993 523.830566,591.501038 523.356750,592.648193 
	C517.956604,587.878723 511.673401,585.550659 504.953918,584.279724 
	C503.576874,584.019226 503.045929,583.027344 503.048523,581.741516 
	C503.050537,580.747192 503.109528,579.739563 503.278839,578.761292 
	C504.525726,571.555054 503.168457,566.762024 495.846252,562.196594 
	C481.337891,553.150635 469.214417,541.129089 463.150574,524.350464 
	C462.355377,522.150146 461.742828,519.905640 461.815887,517.529236 
	C461.995575,511.685455 466.521820,507.846039 472.212128,509.045563 
	C474.781525,509.587189 477.317139,510.608337 479.671478,511.800232 
	C498.314423,521.238342 517.756531,519.260498 537.191162,515.601746 
	C541.483826,514.793640 545.407654,512.073120 549.529907,510.299652 
	C553.316589,508.670654 557.284607,507.439484 560.796326,510.588898 
	C564.450195,513.865845 564.433105,518.245422 563.305969,522.628418 
	C561.488037,529.697693 557.845825,535.905212 553.141663,541.330627 
	C547.368713,547.988708 541.275085,554.397644 533.923950,559.984741 
z"/>
<path fill="#000000" opacity="1.000000" stroke="none" 
	d="
M380.024414,590.903870 
	C383.552032,592.973633 387.459564,593.762939 390.853058,597.936829 
	C295.600220,560.837036 197.498276,543.888306 97.241539,536.995728 
	C143.472046,535.083313 189.390503,538.579590 236.272354,544.726807 
	C232.655426,531.829834 227.265213,520.733643 224.581284,508.976318 
	C226.457932,507.594177 227.462387,508.889160 228.526871,509.458862 
	C235.873718,513.390564 243.237122,517.294739 250.980621,520.396423 
	C253.648849,521.465210 254.959671,523.037109 255.910202,525.942505 
	C258.234039,533.045593 261.423004,539.861206 264.104706,546.853577 
	C265.447815,550.355591 267.913635,552.021118 271.468750,552.762634 
	C277.001251,553.916626 282.606506,554.958984 287.943054,556.755310 
	C294.780579,559.056946 300.331238,555.613831 306.083313,553.380798 
	C309.214172,552.165405 308.366791,548.358887 304.584167,546.639648 
	C301.004272,545.012573 297.179688,544.001160 292.325470,543.342834 
	C297.900024,538.493347 302.281372,534.736389 309.570709,535.597839 
	C322.481842,537.123535 335.498474,536.399475 348.469879,535.626343 
	C350.233734,535.521240 352.135345,534.969299 354.019196,536.768005 
	C350.264954,539.407288 348.303864,542.360046 351.395508,546.969543 
	C352.789398,549.047791 351.037384,551.484558 349.159180,553.055969 
	C347.503693,554.441040 345.586761,555.510132 343.899811,556.861755 
	C340.244202,559.790710 340.024933,562.762085 343.211761,566.145874 
	C345.406830,568.476624 347.287476,570.845581 347.838501,574.209412 
	C348.349426,577.328186 351.497589,577.768250 353.810425,578.852844 
	C362.404480,582.883240 371.054260,586.794739 380.024414,590.903870 
z"/>
<path fill="#000000" opacity="1.000000" stroke="none" 
	d="
M262.156677,598.734741 
	C260.397125,591.299683 255.649200,585.536682 252.648727,578.904785 
	C251.037170,575.342773 248.469421,572.174500 247.765747,567.206970 
	C260.043274,567.483582 271.677979,569.076477 284.002930,571.858765 
	C279.926117,574.925232 278.897888,578.140625 281.978424,581.992920 
	C283.142761,583.448975 283.042572,585.098633 281.381989,586.368958 
	C275.705688,590.711487 272.935089,596.982971 270.366699,603.320374 
	C269.338379,605.857727 267.946350,606.993530 265.136292,606.788452 
	C250.022217,605.685974 234.862549,606.064209 219.723114,605.510620 
	C179.635239,604.044617 139.520676,603.309326 99.417221,602.264160 
	C98.123260,602.230408 96.834724,601.988281 94.776154,601.757141 
	C97.713379,599.118958 100.610924,600.015991 103.181580,600.008728 
	C154.145660,599.864563 205.109985,599.801453 256.074188,599.693237 
	C258.039764,599.689087 260.085449,600.090454 262.156677,598.734741 
z"/>
<path fill="#000000" opacity="1.000000" stroke="none" 
	d="
M455.013672,654.932861 
	C454.643707,655.524719 454.425720,655.792603 454.312866,656.099182 
	C450.197021,667.279114 442.085052,673.424011 430.655762,676.493103 
	C421.226440,679.025146 411.996521,682.372192 402.506500,684.782227 
	C401.753296,684.973511 400.928375,684.882385 399.849976,684.937073 
	C399.266815,680.990112 402.517456,678.294861 402.613892,674.947571 
	C402.874207,665.912231 408.604797,663.216431 416.299347,661.162476 
	C430.950958,657.251587 444.701202,650.909180 457.825592,643.273132 
	C458.787445,642.713562 459.712189,641.841370 461.506866,642.626221 
	C460.314148,647.077393 457.087189,650.531250 455.013672,654.932861 
z"/>
<path fill="#000000" opacity="1.000000" stroke="none" 
	d="
M556.307373,635.663940 
	C564.443481,641.233826 572.553650,646.147827 581.242554,650.017334 
	C584.746155,651.577637 585.820557,653.547180 583.485596,656.910095 
	C582.542664,658.268127 581.858765,659.808960 581.086243,661.281921 
	C576.871521,669.318665 576.797424,669.462891 568.612976,665.029480 
	C559.691101,660.196594 550.936340,655.055603 542.098206,650.067566 
	C540.276978,649.039734 538.539795,647.843079 538.935730,645.483887 
	C540.149780,638.250305 539.567139,630.959839 539.491516,622.005615 
	C545.357544,627.431763 550.485107,631.720825 556.307373,635.663940 
z"/>
<path fill="#000000" opacity="1.000000" stroke="none" 
	d="
M670.923767,621.766602 
	C681.702515,622.864075 692.132935,623.033325 703.384644,625.761108 
	C698.545898,629.616577 695.567139,633.863464 689.035889,632.193420 
	C676.006470,628.861633 662.931580,625.639587 649.654480,623.370361 
	C648.778809,623.220703 648.103760,622.815247 647.994202,621.308655 
	C655.496582,619.381592 662.978455,622.196960 670.923767,621.766602 
z"/>
<path fill="#000000" opacity="1.000000" stroke="none" 
	d="
M653.246460,643.327820 
	C652.111816,643.025146 651.245178,642.880676 651.235107,641.710327 
	C652.108521,640.244812 653.569336,640.742554 654.744507,640.957031 
	C661.583435,642.204834 668.419861,643.483765 675.210999,644.963684 
	C676.795349,645.308899 679.198059,645.717346 678.321411,648.432190 
	C677.441895,651.155701 675.450500,650.507141 673.436462,649.840393 
	C666.836060,647.655334 660.213989,645.535645 653.246460,643.327820 
z"/>
<path fill="#000000" opacity="1.000000" stroke="none" 
	d="
M343.964539,608.177612 
	C338.280243,607.664185 332.829498,608.897888 327.951752,605.951599 
	C336.913422,604.042969 345.712250,604.765503 354.475555,606.855286 
	C351.242340,608.758240 347.791016,607.930969 343.964539,608.177612 
z"/>
</svg>