<svg version="1.1" id="Layer_1" xmlns="http://www.w3.org/2000/svg" xmlns:xlink="http://www.w3.org/1999/xlink" x="0px" y="0px"
	 width="100%" viewBox="0 0 1024 1024" enable-background="new 0 0 1024 1024" xml:space="preserve">
<path fill="#000000" opacity="1.000000" stroke="none" 
	d="
M534.804932,713.682312 
	C594.730164,710.427551 650.690186,694.894470 702.951355,666.216919 
	C713.626404,660.359253 723.933044,653.925598 734.200439,647.402344 
	C737.076843,645.574829 738.764099,643.352295 739.400146,639.966064 
	C744.408386,613.301208 748.013916,586.475464 749.890076,559.389099 
	C750.939880,544.233765 750.644226,529.083252 751.076965,513.934448 
	C751.216125,509.061859 749.131104,507.370178 744.640320,507.394104 
	C734.641235,507.447388 724.641602,507.396332 714.642151,507.383575 
	C713.142395,507.381683 711.637024,507.434631 710.143921,507.327972 
	C706.156128,507.043152 703.233887,505.146118 703.265442,500.936981 
	C703.297058,496.740295 706.179932,494.719055 710.221558,494.692108 
	C721.387085,494.617737 732.553406,494.681946 743.719421,494.664856 
	C750.623352,494.654297 751.023926,494.367554 750.556824,487.730835 
	C747.035828,437.708740 739.141846,388.563171 721.160583,341.436005 
	C720.033081,338.480957 718.451172,336.323669 715.734863,334.632111 
	C670.361816,306.376617 621.229736,287.963623 568.705994,278.496521 
	C555.116333,276.047058 541.380981,274.591431 527.578613,273.859558 
	C525.501038,273.749420 523.436462,273.393860 521.365906,273.151794 
	C521.378662,272.505096 521.391418,271.858429 521.404114,271.211731 
	C527.405640,271.211731 533.408264,271.136353 539.408508,271.224060 
	C576.239258,271.762299 612.384644,276.985687 647.637268,287.725830 
	C701.097961,304.013245 748.964294,330.689697 792.093201,366.091339 
	C820.050110,389.039307 844.581421,415.234009 866.793335,443.721985 
	C893.009888,477.346039 895.094238,520.960083 870.422729,555.718018 
	C815.305725,633.368530 743.966614,690.358459 653.789429,722.554199 
	C625.344360,732.709839 595.951294,739.049622 565.881042,742.446045 
	C541.634888,745.184509 517.378296,745.951904 493.103668,744.012390 
	C419.264984,738.112915 351.892395,713.902100 290.854523,671.936523 
	C244.877518,640.325745 206.605240,601.062256 174.312180,555.712097 
	C150.001190,521.571411 151.747696,477.447662 179.775436,443.510559 
	C218.572723,396.533264 263.727295,357.588165 317.280426,328.462952 
	C318.997314,327.529175 320.776306,326.039642 322.685608,327.989166 
	C324.282318,329.619537 323.380066,331.410645 322.652985,333.094757 
	C308.229980,366.500366 300.441498,401.718597 294.535034,437.398071 
	C291.764313,454.135010 290.738892,471.102448 289.359863,488.012177 
	C288.970184,492.790497 290.745697,494.722076 295.500732,494.627533 
	C302.996948,494.478424 310.499634,494.563263 317.998169,494.660187 
	C323.042511,494.725403 325.969208,497.163849 325.951721,501.031189 
	C325.934235,504.900696 323.042999,507.293152 317.973724,507.355408 
	C310.475159,507.447510 302.971161,507.537201 295.476501,507.349304 
	C290.870392,507.233856 288.943665,508.811279 288.938110,513.709961 
	C288.908173,540.203430 290.119507,566.606079 293.152344,592.942139 
	C295.111115,609.951355 298.182770,626.754578 301.332458,643.558655 
	C301.818848,646.153564 302.906158,648.136230 305.210663,649.622009 
	C349.971863,678.480835 398.241272,698.400208 450.825897,707.809998 
	C478.497620,712.761780 506.307739,714.369690 534.804932,713.682312 
M214.660858,422.153076 
	C204.934708,434.005463 195.722168,446.245239 187.135025,458.946594 
	C170.052078,484.214111 171.193192,517.872864 189.772858,542.121277 
	C199.406921,554.694824 209.731400,566.676758 220.417328,578.348206 
	C225.028824,583.384949 229.982162,588.108765 234.780228,592.974670 
	C216.855087,524.083496 219.749786,456.809967 244.566635,390.320618 
	C233.434662,399.794281 224.389069,410.806519 214.660858,422.153076 
M809.849731,569.048340 
	C808.968689,574.551636 806.659241,579.783142 806.318787,585.814514 
	C808.503662,585.239441 809.549927,583.928223 810.670471,582.758301 
	C824.047180,568.792358 836.598755,554.098755 847.859009,538.394348 
	C865.227356,514.171021 865.072815,484.845703 847.771484,460.642914 
	C841.771606,452.249695 835.495911,444.044891 829.125061,435.927582 
	C820.139832,424.479156 810.527405,413.574860 799.404236,402.529175 
	C800.516235,406.182739 801.289612,408.695892 802.046143,411.214081 
	C811.128784,441.446777 816.531982,472.189972 816.427856,503.911011 
	C816.356689,525.604614 814.441223,547.012146 809.849731,569.048340 
z"/>
<path fill="#000000" opacity="1.000000" stroke="none" 
	d="
M184.856934,798.172852 
	C177.770676,793.118774 172.017609,787.681702 171.597382,778.458679 
	C171.475967,775.794067 171.650558,773.722412 173.430328,771.611450 
	C188.456772,753.789124 203.464920,735.950195 218.302002,717.970520 
	C221.066574,714.620422 223.268234,714.347717 226.485596,717.136047 
	C233.529984,723.241150 240.668320,729.243408 247.909714,735.113159 
	C251.152527,737.741699 251.239700,741.509155 252.088226,744.979919 
	C253.018555,748.785156 254.776413,750.627136 258.806213,749.049927 
	C262.199402,747.721985 264.787292,749.003784 267.387695,751.270081 
	C274.665192,757.612793 281.965851,763.946777 289.554871,769.905334 
	C292.647644,772.333618 293.609283,775.805359 295.659943,779.355774 
	C297.909210,776.195740 300.230652,776.694946 303.078369,778.160889 
	C310.920074,782.197754 318.944031,785.879211 326.869202,789.755798 
	C334.662659,793.567932 338.003723,803.219849 334.339172,810.849731 
	C330.159363,819.552551 326.044220,828.287170 321.997345,837.052429 
	C321.070862,839.059082 319.461212,841.419495 322.612152,843.041565 
	C325.900482,844.734497 327.132690,842.269592 328.232483,839.966431 
	C333.898407,828.100830 339.500946,816.204956 345.149811,804.331116 
	C345.853516,802.851990 346.317535,801.193481 347.824005,800.162231 
	C349.928040,800.037720 351.596039,801.235718 353.373352,802.090332 
	C359.373993,804.975952 365.154968,808.507690 371.416321,810.614075 
	C379.286041,813.261536 382.918030,819.024353 385.676422,826.051025 
	C386.440704,827.997986 386.069061,829.575684 385.255737,831.281738 
	C377.088165,848.413879 369.071777,865.619812 360.725494,882.664246 
	C356.076691,892.157776 346.061096,895.849060 336.173309,891.858826 
	C319.338226,885.064941 303.091553,876.936340 286.855835,868.872559 
	C272.775604,861.879211 266.688843,841.899170 273.346771,827.691162 
	C278.008972,817.741882 282.730499,807.820251 287.420807,797.884094 
	C288.328491,795.961121 289.595520,794.104248 288.538696,791.369202 
	C281.593109,791.164856 274.965759,793.681458 268.137115,794.658569 
	C263.566101,795.312622 258.100311,795.018372 254.776871,798.004089 
	C251.190063,801.226379 253.395172,806.835510 253.025696,811.367004 
	C252.174072,821.812073 251.777618,832.295166 251.269226,842.766357 
	C251.151917,845.182861 251.043121,847.318359 248.318878,848.494934 
	C245.655045,849.645325 244.240036,847.902649 242.635880,846.558960 
	C234.848022,840.035889 227.036652,833.538269 219.359604,826.886230 
	C213.847427,822.110107 214.907410,815.104126 213.828400,808.892883 
	C213.363358,806.215942 213.750473,803.390930 213.750473,799.847351 
	C210.011749,802.915894 207.845978,806.226624 205.445099,809.295898 
	C203.402954,811.906555 201.600769,812.390381 198.912582,809.944519 
	C194.482437,805.913818 189.753204,802.211853 184.856934,798.172852 
z"/>
<path fill="#000000" opacity="1.000000" stroke="none" 
	d="
M52.387917,603.540710 
	C47.228027,593.348022 46.595051,583.619690 50.367908,572.864380 
	C53.501015,563.932800 58.639854,558.551880 67.366348,555.647766 
	C75.980927,552.781067 84.441025,549.430847 93.419830,545.156189 
	C86.682106,545.026733 81.077583,546.917847 75.181435,546.681030 
	C60.239513,546.081055 51.232586,537.840271 49.746078,522.903564 
	C49.087612,516.287170 48.354286,509.675903 47.508488,503.081116 
	C46.771622,497.335571 44.459393,495.732391 38.685654,496.646332 
	C26.553125,498.566833 26.498611,498.574310 24.815216,486.403534 
	C23.767933,478.831757 22.866171,471.238708 21.993826,463.644287 
	C21.423868,458.682373 28.579231,449.277344 33.542519,448.677643 
	C53.517914,446.264130 73.509224,443.982574 93.491875,441.628601 
	C96.628586,441.259094 99.824608,441.050781 102.861488,440.261261 
	C106.799416,439.237518 108.356148,440.600922 108.789124,444.476990 
	C110.172424,456.860748 111.744774,469.223297 113.222198,481.596680 
	C114.266083,490.339142 115.247841,499.089020 116.306656,507.829651 
	C117.213913,515.319153 115.113358,521.906433 110.846481,528.046265 
	C107.549271,532.790771 105.212387,538.230652 100.198608,541.761414 
	C100.726074,542.022888 101.010368,542.296509 101.214348,542.246033 
	C115.951401,538.594543 123.253036,542.215454 128.941223,556.458496 
	C135.050171,571.755066 141.179871,587.053467 146.786194,602.537415 
	C151.091782,614.428711 146.254974,625.043518 140.502594,635.175415 
	C139.014053,637.797180 136.123795,639.155640 133.265167,640.273560 
	C120.859665,645.124817 108.522842,650.154968 96.073608,654.890137 
	C82.444763,660.074158 73.184166,656.058777 67.642906,642.466614 
	C62.430752,629.681763 57.563541,616.756287 52.387917,603.540710 
M99.128784,596.342773 
	C98.320549,596.471069 97.457817,596.461304 96.714668,596.754517 
	C94.793877,597.512695 93.876472,598.985962 94.144295,601.072998 
	C94.309555,602.360840 95.024689,603.506470 96.383698,603.148560 
	C98.591698,602.567078 101.111427,602.003418 102.128395,599.679321 
	C102.931374,597.844238 101.190033,597.141663 99.128784,596.342773 
z"/>
<path fill="#000000" opacity="1.000000" stroke="none" 
	d="
M1002.995361,471.699158 
	C1001.024170,487.666656 998.967163,503.172394 997.290833,518.719238 
	C996.374512,527.217773 987.893616,534.238647 979.400085,533.131531 
	C964.884338,531.239502 950.349915,529.490601 935.821472,527.696838 
	C934.879822,527.580566 933.855469,527.140015 932.739319,528.448547 
	C934.789062,531.057312 938.105774,531.406677 940.846619,532.434387 
	C944.368103,533.754700 945.642090,535.192505 943.936279,539.023254 
	C941.845276,543.719116 940.676880,548.824646 938.604004,553.530334 
	C937.002441,557.166016 938.320374,558.533386 941.551086,559.719727 
	C953.740295,564.195740 965.815063,568.988770 978.053955,573.320801 
	C982.435547,574.871704 983.880554,576.573914 981.886719,581.288391 
	C978.325562,589.708984 975.545654,598.456177 972.225098,606.983521 
	C969.229797,614.675659 959.634460,618.687805 951.983337,615.747131 
	C943.125366,612.342407 934.208008,609.088806 925.395203,605.572083 
	C921.487671,604.012878 918.718079,604.619873 918.014526,608.977173 
	C916.713806,617.032776 910.277222,620.030273 904.349609,623.654785 
	C902.898254,624.542175 901.677124,624.446472 900.139282,623.857727 
	C893.454590,621.298767 886.760315,618.747986 879.976624,616.471008 
	C876.036255,615.148438 875.483093,613.254944 876.941406,609.399841 
	C886.127930,585.115662 895.257812,560.805298 903.911804,536.328613 
	C905.551758,531.690186 909.373596,529.995667 912.317810,527.114502 
	C907.953003,521.966675 907.806885,521.949036 908.701477,514.531006 
	C911.665039,489.956818 914.704834,465.391602 917.806946,440.834503 
	C918.526550,435.138031 927.737488,428.141815 933.363892,428.797638 
	C939.150085,429.472015 944.913940,430.384094 950.714478,430.874023 
	C954.251221,431.172760 955.947632,432.501160 955.319031,436.183441 
	C955.123779,437.327484 955.173523,438.512604 954.990662,439.659698 
	C953.710815,447.689117 959.431885,452.393036 967.045837,449.616516 
	C968.366821,449.134827 968.775452,448.146759 969.118042,447.039337 
	C969.669434,445.256683 970.784058,443.871582 971.846130,442.363831 
	C976.683655,435.496460 983.054993,433.847748 990.943176,435.829926 
	C994.794983,436.797821 998.798218,437.315765 1002.765137,437.626465 
	C1006.164551,437.892731 1006.902771,439.429413 1006.496521,442.540527 
	C1005.248413,452.098114 1004.196533,461.681305 1002.995361,471.699158 
z"/>
<path fill="#000000" opacity="1.000000" stroke="none" 
	d="
M619.092712,529.449341 
	C615.202148,531.981079 611.551941,532.275574 608.149170,529.501953 
	C604.950745,526.894958 604.580933,523.518433 605.585144,519.572754 
	C609.350159,504.779510 608.668701,507.210327 595.691711,507.033478 
	C594.192261,507.013031 592.690063,507.090546 591.192688,507.032074 
	C588.172241,506.914215 586.659119,508.205017 586.276428,511.326965 
	C585.600281,516.842346 583.550903,521.956665 580.903687,526.815063 
	C578.431946,531.351318 574.369751,533.222351 570.190247,531.869995 
	C565.591736,530.382080 563.169983,526.505371 563.829468,521.334045 
	C564.228149,518.207581 564.922241,515.119385 565.464722,512.010620 
	C566.023560,508.807892 565.200134,506.813416 561.413330,506.956085 
	C557.418823,507.106567 553.411743,507.119324 549.416443,506.993622 
	C546.030762,506.887085 544.670227,508.452820 544.389709,511.711212 
	C544.004395,516.184753 543.554993,520.682861 542.666565,525.076111 
	C541.258362,532.039612 535.711792,536.237549 530.005859,535.086060 
	C523.456177,533.764282 520.125305,528.009277 521.481628,520.585876 
	C522.048218,517.484680 522.393127,514.340637 522.769165,511.207642 
	C523.131653,508.187469 521.631104,506.959747 518.699219,507.016357 
	C514.867676,507.090393 511.032257,507.110168 507.201385,507.024323 
	C504.237885,506.957947 503.013611,508.357025 502.919067,511.226379 
	C502.782227,515.382446 502.476532,519.532898 502.243042,523.685730 
	C501.861603,530.470581 496.987061,535.447754 490.931458,535.235046 
	C484.888306,535.022766 480.703247,530.226685 480.674377,523.335144 
	C480.657593,519.337341 480.774689,515.337769 480.897949,511.341064 
	C480.985260,508.509674 479.927551,506.932800 476.859558,506.994171 
	C472.528351,507.080841 468.194397,507.040161 463.861633,507.040894 
	C461.376190,507.041321 460.250824,508.238556 460.292572,510.747131 
	C460.361908,514.912292 460.404663,519.082092 460.289459,523.245239 
	C460.138397,528.703735 456.649506,532.662048 451.687958,533.237610 
	C446.976440,533.784241 443.052734,530.882385 441.582916,525.538025 
	C440.392090,521.208191 439.556458,516.804382 439.605438,512.271240 
	C439.645233,508.591309 437.953339,506.746582 434.083618,506.972290 
	C431.093750,507.146698 428.085968,507.008514 425.086212,507.020844 
	C418.048096,507.049805 417.969238,507.126923 418.088074,514.391602 
	C418.131714,517.057312 418.319733,519.723694 418.275757,522.387085 
	C418.205200,526.659729 416.338593,529.890503 412.047760,530.971924 
	C407.568909,532.100769 404.227295,530.135254 402.109467,526.177002 
	C399.977631,522.192749 398.192780,517.974792 397.763641,513.485718 
	C397.254913,508.163422 394.698090,506.381012 389.574738,507.003082 
	C386.453827,507.381989 383.248779,507.144348 380.084351,507.066986 
	C376.946686,506.990265 375.840820,508.591522 376.356415,511.454651 
	C376.916504,514.564758 377.647217,517.644348 378.309143,520.736084 
	C379.361328,525.650574 377.586945,529.577332 373.424500,531.533875 
	C369.182556,533.527771 364.399658,532.319214 361.557983,528.158081 
	C355.492004,519.275330 353.372681,509.269470 354.070251,498.686493 
	C354.622620,490.306854 356.629883,482.219055 360.622131,474.760864 
	C364.048676,468.359589 368.519562,468.398163 373.664825,473.493317 
	C379.123810,478.899048 377.964111,484.844177 376.903015,491.092255 
	C376.767914,491.887817 376.707092,492.695953 376.499207,494.447479 
	C382.674164,494.447479 388.560852,494.537140 394.442322,494.401184 
	C396.645447,494.350281 396.711731,492.267365 397.047363,490.676544 
	C398.114685,485.617432 399.407318,480.636902 401.721863,475.975189 
	C403.561157,472.270752 406.183441,469.506378 410.652649,470.167572 
	C415.481384,470.881958 417.738861,474.413635 418.191956,478.908936 
	C418.574585,482.705566 418.427277,486.568451 418.324829,490.396942 
	C418.246307,493.330719 419.361389,494.726562 422.399445,494.634521 
	C425.895844,494.528564 429.432220,494.311523 432.889832,494.695618 
	C437.899078,495.252136 439.494385,492.620117 439.577454,488.349976 
	C439.665436,483.822723 440.385895,479.399200 441.701935,475.104767 
	C443.160889,470.343872 447.482819,467.493591 451.889679,468.051544 
	C456.560638,468.642944 460.110657,472.607056 460.296692,477.749146 
	C460.453247,482.076843 460.438141,486.416412 460.325378,490.746216 
	C460.253204,493.516479 461.364258,494.694855 464.144104,494.633179 
	C468.474945,494.537048 472.810547,494.552124 477.142151,494.631042 
	C479.976105,494.682678 480.982025,493.296417 480.895752,490.626038 
	C480.755890,486.296570 480.621979,481.961761 480.683472,477.632050 
	C480.782043,470.692902 485.050690,465.981567 491.104279,465.912537 
	C496.988312,465.845398 501.862640,470.686310 502.209015,477.186035 
	C502.430511,481.342712 502.384216,485.515564 502.391022,489.681274 
	C502.396637,493.142090 503.766205,494.917969 507.518066,494.673523 
	C511.003326,494.446442 514.531250,494.400146 518.010010,494.668243 
	C522.319702,495.000305 523.252136,492.815521 522.683105,489.208649 
	C522.165161,485.925446 521.538635,482.659302 521.031921,479.374512 
	C520.032471,472.894989 524.027710,467.176697 530.279541,466.066101 
	C535.568237,465.126587 541.045715,468.943451 542.267944,474.962341 
	C543.292358,480.006683 543.932007,485.161255 544.283813,490.298370 
	C544.502502,493.491608 545.617249,494.819000 548.821228,494.648895 
	C554.093262,494.368958 559.410889,495.061615 565.116882,494.117218 
	C564.805725,490.445618 564.654968,486.996582 564.168762,483.595490 
	C563.903809,481.741760 563.674377,480.021912 564.401062,478.222961 
	C566.111816,473.987885 567.661438,469.458832 573.245850,469.299194 
	C578.549988,469.147614 580.564270,473.208405 582.322327,477.296204 
	C584.235596,481.744934 585.769104,486.333405 586.316040,491.157562 
	C586.601807,493.678223 587.803284,494.643463 590.214355,494.616364 
	C594.713440,494.565765 599.214905,494.534271 603.712769,494.623871 
	C606.517944,494.679718 607.779724,493.694305 607.115723,490.742218 
	C606.314514,487.180450 605.645508,483.589020 604.912292,480.011871 
	C603.817139,474.668488 605.363953,470.713501 609.396057,469.007416 
	C614.076660,467.026978 617.327271,469.178894 620.128845,472.812531 
	C624.168945,478.052429 626.926575,483.891205 628.276306,490.325256 
	C628.943970,493.507782 630.412537,494.805145 633.720337,494.655701 
	C638.678345,494.431671 643.653931,494.597412 648.915283,494.597412 
	C649.006592,489.671112 647.213928,485.729218 645.786194,481.721680 
	C643.793823,476.129272 644.772705,471.731323 648.675354,469.299591 
	C652.713745,466.783295 656.663147,467.801117 660.939941,472.460358 
	C674.843750,487.607483 675.732178,511.055054 662.924194,526.542664 
	C661.668762,528.060852 660.207764,529.554626 658.539612,530.555603 
	C655.074341,532.634888 651.486023,532.445435 648.325256,529.816467 
	C645.331238,527.326172 644.466736,524.111450 645.745483,520.365417 
	C647.127991,516.315186 649.216431,512.441772 649.051086,507.161835 
	C643.192322,507.161835 637.438660,507.064087 631.690857,507.204681 
	C628.974976,507.271118 628.953186,509.850037 628.498047,511.655090 
	C626.838135,518.238281 624.046875,524.188599 619.092712,529.449341 
z"/>
<path fill="#000000" opacity="1.000000" stroke="none" 
	d="
M873.222778,767.222046 
	C866.317627,774.010986 859.948486,780.877136 852.928833,786.997070 
	C847.039246,792.131775 839.548462,792.039246 832.809937,789.266357 
	C816.181396,782.423828 799.832397,774.902832 783.357422,767.685608 
	C781.431824,766.842041 779.535706,765.525879 777.229736,766.557312 
	C776.342346,768.393127 777.886475,769.399719 778.637512,770.515137 
	C789.336426,786.403503 800.016174,802.306335 810.927246,818.048584 
	C813.106201,821.192322 812.699524,822.818298 809.656921,824.804688 
	C801.567993,830.085876 793.660339,835.643677 785.616943,840.995850 
	C779.743652,844.904114 768.761597,842.885254 764.810120,837.117737 
	C751.728516,818.023926 738.753967,798.856689 725.657532,779.773132 
	C723.902039,777.215088 723.775940,775.628662 726.683533,773.751099 
	C733.672729,769.238159 740.448792,764.394836 747.303772,759.674500 
	C750.589966,757.411438 753.725891,754.929016 758.061646,754.905090 
	C760.022400,754.894287 761.246521,753.235291 762.542175,751.949463 
	C768.811340,745.728088 775.054993,739.480835 781.333374,733.268799 
	C786.936768,727.724609 796.672302,726.126770 803.873657,729.531494 
	C806.734253,730.883911 809.593750,732.238831 812.441711,733.617554 
	C813.943359,734.344482 815.418091,735.134827 817.412476,734.047974 
	C817.348145,729.905396 814.671692,726.726562 813.261108,723.129150 
	C811.328186,718.199341 806.773865,713.514282 807.564087,708.520874 
	C808.366394,703.450928 814.580505,700.918091 818.125061,696.979248 
	C820.907593,693.887329 824.262207,691.290955 826.900513,688.093140 
	C830.837769,683.320740 835.674988,681.806030 841.741455,681.504150 
	C846.533936,681.265747 848.520935,683.020630 850.193909,687.015930 
	C857.462280,704.373413 864.945190,721.640930 872.344543,738.943542 
	C874.439636,743.842773 876.144897,748.955139 878.708923,753.593933 
	C881.107849,757.934326 880.563599,760.993469 876.672852,763.816711 
	C875.474426,764.686279 874.534973,765.912781 873.222778,767.222046 
z"/>
<path fill="#000000" opacity="1.000000" stroke="none" 
	d="
M100.152191,699.761230 
	C93.906380,693.678650 96.024803,686.588135 96.804520,679.724915 
	C96.996910,678.031433 98.496490,677.290833 99.670174,676.437073 
	C118.917305,662.436157 138.213486,648.502563 157.432938,634.463928 
	C159.866608,632.686279 161.495605,632.867737 163.227310,635.280212 
	C175.746902,652.721680 188.311737,670.130615 200.864349,687.548401 
	C204.919083,693.174805 206.679672,699.454346 206.189774,706.359680 
	C205.895462,710.507996 205.762024,714.685852 205.132401,718.785278 
	C204.761719,721.198792 204.113647,723.930786 202.641663,725.753357 
	C195.110825,735.077881 186.528671,743.031555 173.900925,744.687317 
	C172.596741,744.858398 171.061371,745.129395 169.955368,744.634399 
	C164.442810,742.166931 163.028824,745.601990 161.854126,749.826233 
	C160.428299,754.953430 158.709488,760.000854 157.354691,765.145325 
	C156.765045,767.384338 155.578491,768.598633 153.424606,769.097229 
	C151.217163,769.608154 150.009262,768.252991 148.903656,766.725159 
	C142.756668,758.230469 136.376740,749.890320 130.569458,741.169006 
	C126.880936,735.629700 128.545441,729.303406 129.776749,723.301697 
	C130.302856,720.737305 131.736481,718.369385 131.602905,715.293030 
	C127.561928,714.842346 125.171165,717.737305 122.721901,719.844666 
	C119.025711,723.024780 116.688034,723.248779 113.803757,718.676575 
	C109.728065,712.215881 104.885910,706.238708 100.152191,699.761230 
z"/>
<path fill="#000000" opacity="1.000000" stroke="none" 
	d="
M759.568726,852.626343 
	C763.622925,856.739563 763.305786,859.368103 758.538513,861.513916 
	C748.970886,865.820251 739.472900,870.347900 729.659546,874.017639 
	C723.287415,876.400574 717.363892,872.908203 711.712524,870.169678 
	C709.212036,868.958069 706.995850,867.159973 704.115662,865.278687 
	C703.616699,869.932983 706.307678,872.923706 707.554321,876.288818 
	C709.831604,882.436157 709.927551,882.591797 703.932251,885.140137 
	C695.501709,888.723572 687.068237,892.301697 678.594055,895.779846 
	C672.541565,898.264099 662.252625,893.976318 659.712280,888.066467 
	C650.639954,866.960571 641.600647,845.840271 632.429565,824.777344 
	C631.043091,821.593018 631.168152,819.756104 634.747375,818.251770 
	C654.675171,809.876221 674.435425,801.097107 694.426208,792.877625 
	C710.588379,786.232300 731.671143,795.345947 738.486450,811.357544 
	C741.031616,817.337036 743.984375,823.188782 743.272217,829.992065 
	C743.134033,831.312622 743.102478,832.668518 742.765381,833.940063 
	C740.650635,841.916748 740.640381,841.885437 747.981567,845.953552 
	C751.767822,848.051575 755.494934,850.256287 759.568726,852.626343 
z"/>
<path fill="#000000" opacity="1.000000" stroke="none" 
	d="
M416.776093,823.845520 
	C432.543365,826.885315 447.904602,829.741272 463.220520,832.822449 
	C474.548920,835.101501 487.852081,851.760071 487.108673,862.385925 
	C486.796143,866.852844 485.864655,870.345947 480.129089,870.742615 
	C475.715668,871.048035 475.026855,873.024719 477.440338,876.805420 
	C481.462677,883.106262 482.200073,889.777161 480.490906,896.910461 
	C479.911865,899.327087 479.583160,901.804138 479.150513,904.255432 
	C476.919952,916.892456 467.108124,923.731628 454.470062,921.308960 
	C437.164825,917.991821 419.858795,914.672607 402.592316,911.161255 
	C389.292755,908.456726 377.230103,891.042175 379.621582,878.601135 
	C380.210663,875.536560 381.486053,874.021484 384.730499,873.613770 
	C389.725372,872.986084 390.625854,870.883789 388.248108,866.559387 
	C385.351318,861.291077 384.041901,855.790100 385.438446,849.776367 
	C386.226440,846.383240 387.062225,842.957397 387.358978,839.501831 
	C388.419128,827.158203 400.023376,821.331299 410.929199,822.923157 
	C412.738434,823.187195 414.543579,823.479248 416.776093,823.845520 
z"/>
<path fill="#000000" opacity="1.000000" stroke="none" 
	d="
M549.191895,833.925354 
	C566.731079,831.339600 583.862549,828.973572 600.936035,826.245483 
	C607.107666,825.259338 612.868530,825.585693 618.363525,828.604980 
	C621.718750,830.448547 624.997559,832.430908 628.340637,834.297241 
	C634.407715,837.684265 638.206726,842.810059 639.267822,849.612244 
	C640.536743,857.746704 643.730774,865.747742 641.396118,874.209229 
	C638.792236,883.646729 632.603821,889.387756 623.109131,891.244690 
	C614.783020,892.873108 606.372986,894.103210 597.968689,895.286865 
	C593.880737,895.862610 591.942444,897.357422 593.109741,901.847595 
	C593.983032,905.206726 594.031006,908.773743 594.789429,912.171570 
	C595.462830,915.188721 594.286499,916.643311 591.509583,917.107117 
	C581.337830,918.806274 571.176025,920.579712 560.974060,922.077393 
	C555.530334,922.876648 546.409058,915.535034 545.549988,910.072571 
	C541.959167,887.239014 538.399414,864.400452 534.725220,841.580261 
	C534.088928,837.628784 534.989624,835.649170 539.422180,835.576477 
	C542.542969,835.525208 545.648804,834.559448 549.191895,833.925354 
z"/>
<path fill="#000000" opacity="1.000000" stroke="none" 
	d="
M947.060059,665.000732 
	C943.732666,673.691223 936.365295,675.779175 928.743103,677.309937 
	C921.471924,678.770325 917.091248,688.485291 921.736023,694.102417 
	C924.841919,697.858643 924.914124,700.589539 922.137329,704.526855 
	C917.251831,711.454102 912.848206,718.732300 908.453064,725.990906 
	C904.789856,732.040649 898.109131,732.030823 892.559448,734.234680 
	C891.064575,734.828308 890.004944,732.947021 889.138306,731.755371 
	C873.873352,710.766785 858.643433,689.752747 843.358704,668.778564 
	C841.867188,666.731812 841.888733,665.005920 843.252686,662.884460 
	C849.909424,652.530212 856.010193,641.783630 863.197693,631.817749 
	C868.058960,625.077271 876.110352,623.937866 883.812866,625.237000 
	C899.382690,627.863220 914.841553,631.151489 930.337402,634.211426 
	C939.300171,635.981262 948.241821,637.857544 957.202820,639.636597 
	C958.664062,639.926758 960.219788,639.855286 961.622925,641.926758 
	C956.938171,649.340393 952.089722,657.013245 947.060059,665.000732 
z"/>
<path fill="#000000" opacity="1.000000" stroke="none" 
	d="
M678.440796,533.073364 
	C675.741394,536.518921 672.735779,539.078674 669.339600,541.173889 
	C667.067322,542.575684 664.870056,542.473511 663.180786,540.273804 
	C661.379517,537.928406 661.741760,535.618286 663.917053,533.682861 
	C666.133118,531.711121 668.448486,529.851196 670.711243,527.931641 
	C672.488281,526.424133 674.515259,525.668762 676.632629,526.880310 
	C678.873291,528.162415 679.856384,530.146179 678.440796,533.073364 
z"/>
<path fill="#000000" opacity="1.000000" stroke="none" 
	d="
M343.640381,497.455139 
	C343.505920,498.887238 343.457489,499.886444 343.348083,500.878967 
	C343.052216,503.563568 341.660797,505.247467 338.850067,505.223358 
	C336.058228,505.199432 334.569550,503.387024 334.231812,500.846252 
	C333.721497,497.007263 334.427185,493.194183 335.353485,489.490295 
	C335.926300,487.199982 337.729309,485.721191 340.203888,486.046936 
	C342.634949,486.366943 344.019196,488.156189 344.116882,490.550232 
	C344.204529,492.697266 343.855164,494.862152 343.640381,497.455139 
z"/>
<path fill="#000000" opacity="1.000000" stroke="none" 
	d="
M679.128296,478.031250 
	C673.836243,476.084869 671.630310,471.359528 668.372253,467.750702 
	C667.083130,466.322723 667.557800,464.258392 668.884094,462.730011 
	C670.380005,461.006073 672.393188,460.605652 674.267334,461.700409 
	C678.213379,464.005463 681.152954,467.482239 682.957031,471.570068 
	C684.269836,474.544739 682.887695,477.053406 679.128296,478.031250 
z"/>
<path fill="#000000" opacity="1.000000" stroke="none" 
	d="
M427.530762,542.623291 
	C428.801300,547.136841 426.649689,548.967285 422.887573,549.254456 
	C419.908752,549.481873 416.894501,549.414734 413.904877,549.280518 
	C411.116486,549.155273 408.977051,547.832397 408.880890,544.809448 
	C408.785370,541.805847 410.787018,539.993835 413.576019,540.076355 
	C418.215332,540.213684 423.297760,538.154724 427.530762,542.623291 
z"/>
<path fill="#000000" opacity="1.000000" stroke="none" 
	d="
M532.526245,549.246643 
	C528.933289,549.276550 525.782654,549.371582 522.644531,549.214844 
	C520.011719,549.083313 518.214722,547.642883 518.093567,544.896301 
	C517.961304,541.898560 519.777283,540.241394 522.611450,540.026367 
	C525.574402,539.801453 528.569824,539.863464 531.544495,539.975769 
	C534.202881,540.076111 536.583557,541.005127 537.061157,543.974304 
	C537.544189,546.976685 535.738220,548.551758 532.526245,549.246643 
z"/>
<path fill="#000000" opacity="1.000000" stroke="none" 
	d="
M557.148926,540.595215 
	C561.103027,539.452576 564.755188,539.872681 568.367188,539.996582 
	C571.372559,540.099548 573.472473,541.701599 573.401428,544.935303 
	C573.333313,548.036316 571.067078,549.119324 568.353394,549.256897 
	C565.550537,549.398865 562.736206,549.324585 559.926941,549.327393 
	C557.627136,549.329651 555.578308,548.731201 554.747437,546.334229 
	C553.945984,544.021790 554.721985,542.125732 557.148926,540.595215 
z"/>
<path fill="#000000" opacity="1.000000" stroke="none" 
	d="
M635.180542,539.874878 
	C637.632629,539.899170 639.646912,539.779602 641.626465,539.989014 
	C644.441345,540.286804 646.333313,541.768372 646.237976,544.836060 
	C646.150208,547.659424 644.300049,549.037292 641.702759,549.215088 
	C638.716553,549.419495 635.708679,549.343872 632.710571,549.328674 
	C629.713501,549.313477 627.265076,548.175110 627.104492,544.911743 
	C626.944519,541.663391 629.234680,540.268799 632.230225,539.953613 
	C633.056091,539.866699 633.894592,539.899841 635.180542,539.874878 
z"/>
<path fill="#000000" opacity="1.000000" stroke="none" 
	d="
M592.242798,547.944092 
	C590.042908,543.002258 591.278320,540.413574 595.871338,539.993896 
	C598.833862,539.723267 601.851318,539.824890 604.828613,540.009766 
	C607.837585,540.196472 610.047119,541.841919 609.947388,544.981873 
	C609.853882,547.921753 607.597046,549.348694 604.795227,549.261658 
	C600.709106,549.134644 596.488831,550.326843 592.242798,547.944092 
z"/>
<path fill="#000000" opacity="1.000000" stroke="none" 
	d="
M372.583496,543.195435 
	C373.411255,540.635376 375.000336,539.688171 377.240234,539.731934 
	C380.395905,539.793640 383.558167,539.768616 386.704620,539.976868 
	C389.569885,540.166565 391.419586,541.855408 391.537842,544.722595 
	C391.665405,547.815063 389.561371,549.204102 386.736420,549.255066 
	C383.590088,549.311829 380.406464,549.275391 377.297607,548.850891 
	C374.460205,548.463440 372.290497,546.975281 372.583496,543.195435 
z"/>
<path fill="#000000" opacity="1.000000" stroke="none" 
	d="
M349.199402,535.075073 
	C347.204803,532.791138 345.324005,530.876099 343.828033,528.696777 
	C342.184204,526.302124 341.791901,523.571350 344.433502,521.606567 
	C346.895569,519.775330 349.152710,520.925171 351.004578,522.975037 
	C352.563171,524.700256 354.024261,526.516968 355.635315,528.190369 
	C357.724396,530.360352 359.587250,532.769958 357.295990,535.587341 
	C354.859894,538.582764 352.025665,537.540466 349.199402,535.075073 
z"/>
<path fill="#000000" opacity="1.000000" stroke="none" 
	d="
M448.723572,549.035156 
	C445.927856,547.743896 444.753418,545.922180 445.557404,543.254700 
	C446.293610,540.812012 448.313477,540.033142 450.600830,539.953064 
	C453.420654,539.854309 456.254028,539.805237 459.067993,539.968262 
	C462.057190,540.141418 464.255646,541.539368 464.145844,544.873657 
	C464.043854,547.971741 461.856201,549.160339 459.094025,549.240540 
	C455.777832,549.336853 452.454559,549.191284 448.723572,549.035156 
z"/>
<path fill="#000000" opacity="1.000000" stroke="none" 
	d="
M577.773010,449.810150 
	C580.194214,451.169250 581.405457,452.823456 580.600403,455.280334 
	C579.721863,457.961487 577.510315,458.417603 575.037048,458.376465 
	C572.233459,458.329803 569.428467,458.366730 566.624573,458.331604 
	C563.996521,458.298706 562.112122,457.196472 561.805664,454.407837 
	C561.465881,451.315826 563.357605,449.787689 566.093079,449.386566 
	C569.850342,448.835602 573.645935,448.686127 577.773010,449.810150 
z"/>
<path fill="#000000" opacity="1.000000" stroke="none" 
	d="
M452.581604,453.300110 
	C455.362915,448.993408 466.526367,447.515289 470.021362,450.625336 
	C472.733063,453.038361 472.027313,457.513245 468.530273,457.987701 
	C464.328888,458.557770 459.971558,458.367523 455.721100,458.022278 
	C453.604797,457.850372 452.437775,455.979675 452.581604,453.300110 
z"/>
<path fill="#000000" opacity="1.000000" stroke="none" 
	d="
M362.181396,464.990845 
	C359.584961,467.128143 357.267487,469.019043 354.938477,470.895599 
	C352.878082,472.555725 350.636108,472.989624 348.656372,471.015686 
	C346.575562,468.940918 346.616791,466.322144 348.573853,464.299438 
	C350.750153,462.050049 353.334503,460.176636 355.841736,458.271912 
	C357.988068,456.641479 360.379822,455.885101 362.585693,458.108673 
	C364.724274,460.264404 364.425873,462.564941 362.181396,464.990845 
z"/>
<path fill="#000000" opacity="1.000000" stroke="none" 
	d="
M497.117188,540.250488 
	C499.744385,541.516663 501.430634,543.089294 500.618713,545.825256 
	C499.855713,548.396362 497.752136,549.283813 495.215637,549.283081 
	C492.409393,549.282227 489.600464,549.337769 486.797699,549.233948 
	C484.020569,549.131042 481.896271,547.935730 481.782196,544.883728 
	C481.658112,541.562439 483.882751,540.141663 486.828827,540.005737 
	C490.116119,539.854126 493.420380,540.070312 497.117188,540.250488 
z"/>
<path fill="#000000" opacity="1.000000" stroke="none" 
	d="
M650.208679,450.162628 
	C652.798889,451.573242 654.412781,453.278503 653.333862,455.969788 
	C652.243225,458.690521 649.840393,459.269348 647.121521,459.001068 
	C644.476440,458.740021 641.827576,458.476074 639.173828,458.354980 
	C636.445007,458.230469 634.636597,456.951263 634.370728,454.256531 
	C634.062500,451.132416 636.204712,449.514130 638.912842,449.410156 
	C642.538208,449.271027 646.188538,449.783752 650.208679,450.162628 
z"/>
<path fill="#000000" opacity="1.000000" stroke="none" 
	d="
M543.620972,451.698181 
	C545.120728,456.503845 542.985474,458.290161 538.812439,458.349213 
	C535.654236,458.393951 532.488220,458.418640 529.337219,458.243713 
	C527.090759,458.119019 525.671753,456.648621 525.213257,454.508148 
	C524.701782,452.120758 526.178101,450.428802 528.172729,449.965790 
	C533.331116,448.768311 538.616638,447.672333 543.620972,451.698181 
z"/>
<path fill="#000000" opacity="1.000000" stroke="none" 
	d="
M431.486816,458.220764 
	C427.719574,458.310883 424.394318,458.352509 421.069397,458.332733 
	C418.417816,458.316956 416.368347,457.098816 416.094147,454.417603 
	C415.788330,451.427643 417.861420,449.896667 420.585358,449.400635 
	C423.877441,448.801117 427.209747,448.861115 430.516022,449.360352 
	C432.801697,449.705536 434.707306,450.684509 435.130035,453.213959 
	C435.554871,455.755768 434.228577,457.300720 431.486816,458.220764 
z"/>
<path fill="#000000" opacity="1.000000" stroke="none" 
	d="
M398.626404,455.648376 
	C395.539429,458.502838 384.408936,459.440887 381.593414,457.439117 
	C378.910767,455.531769 379.056335,451.363617 382.174805,450.129669 
	C386.756348,448.316864 391.631287,448.399719 396.283844,449.982117 
	C398.542175,450.750214 399.395630,452.826843 398.626404,455.648376 
z"/>
<path fill="#000000" opacity="1.000000" stroke="none" 
	d="
M489.076599,452.374023 
	C492.499969,449.035553 502.000000,447.921600 505.593689,450.098663 
	C507.297394,451.130829 508.299286,452.647369 507.891327,454.678650 
	C507.498993,456.632050 506.256073,458.112610 504.196808,458.199921 
	C500.376892,458.361969 496.522552,458.510193 492.726135,458.173187 
	C489.749695,457.908936 488.615204,455.682617 489.076599,452.374023 
z"/>
<path fill="#000000" opacity="1.000000" stroke="none" 
	d="
M598.018005,453.278198 
	C601.071106,448.999786 611.528015,447.499146 615.284424,450.432465 
	C616.536377,451.410095 617.252625,452.706512 617.087891,454.327454 
	C616.902710,456.148682 615.875610,457.699371 614.161133,457.972687 
	C609.729858,458.678955 605.210510,458.802338 600.802124,457.884186 
	C598.887756,457.485443 597.945374,455.730591 598.018005,453.278198 
z"/>
<path fill="#000000" opacity="1.000000" stroke="none" 
	d="
M689.176453,511.376068 
	C683.457947,512.719666 681.664185,511.327179 681.949890,506.121521 
	C682.103394,503.325378 682.456299,500.538879 682.763306,497.752869 
	C683.030762,495.326477 684.179016,493.770599 686.849304,493.712036 
	C689.343384,493.657349 691.202698,494.650330 691.382507,497.222290 
	C691.712708,501.948090 692.244446,506.767242 689.176453,511.376068 
z"/>
</svg>