<svg version="1.1" id="Layer_1" xmlns="http://www.w3.org/2000/svg" xmlns:xlink="http://www.w3.org/1999/xlink" x="0px" y="0px"
	 width="100%" viewBox="0 0 1080 1080" enable-background="new 0 0 1080 1080" xml:space="preserve">
<path fill="#FFFFFF" opacity="1.000000" stroke="none" 
	d="
M1.000000,414.000000 
	C1.000000,276.015869 1.000000,138.531738 1.000000,1.023800 
	C360.942596,1.023800 720.885193,1.023800 1080.913818,1.023800 
	C1080.913818,360.901031 1080.913818,720.802063 1080.913818,1080.851562 
	C721.000061,1080.851562 361.000031,1080.851562 1.000000,1080.851562 
	C1.000000,858.781006 1.000000,636.640503 1.000000,414.000000 
M940.440002,696.992615 
	C980.189087,503.864594 1019.938110,310.736603 1059.714233,117.477104 
	C963.033752,117.477104 867.128357,117.477104 771.046082,117.477104 
	C746.519958,255.098038 722.043396,392.440918 697.363403,530.925171 
	C695.836243,528.632019 694.916809,527.349670 694.097229,526.006470 
	C650.151184,453.984741 606.189087,381.972809 562.357483,309.881500 
	C560.441711,306.730652 558.441650,305.647888 554.851868,305.749695 
	C545.692627,306.009460 536.510437,306.098541 527.359070,305.725403 
	C522.795959,305.539337 520.337219,307.091675 517.964600,310.997253 
	C474.418915,382.679016 430.707001,454.259827 387.022919,525.857483 
	C386.153168,527.283020 385.195679,528.655090 383.664185,530.989380 
	C358.867981,392.270477 334.316101,254.918549 309.761230,117.549820 
	C213.744400,117.549820 118.068398,117.549820 22.112825,117.549820 
	C27.798613,145.176407 33.395927,172.372299 38.992882,199.568268 
	C54.852936,276.633331 70.716812,353.697540 86.571648,430.763672 
	C101.722702,504.408905 116.862991,578.056335 132.010437,651.702393 
	C146.822647,723.718262 161.682327,795.724548 176.340164,867.771851 
	C177.209732,872.046021 178.675690,873.274475 183.019119,873.266968 
	C264.018158,873.126587 345.017548,873.139587 426.016693,873.244690 
	C429.592590,873.249329 431.650391,872.235474 433.599548,869.158569 
	C463.615570,821.774536 493.770721,774.478638 523.895508,727.163513 
	C529.322815,718.639221 534.759033,710.120667 540.431396,701.222656 
	C541.691345,703.081238 542.653381,704.423462 543.537415,705.815247 
	C578.074219,760.186157 612.608459,814.558594 647.119080,868.946106 
	C648.656494,871.369080 649.952271,873.270447 653.543701,873.264709 
	C735.709412,873.133606 817.875366,873.144897 900.041260,873.231567 
	C903.376160,873.235107 904.517090,872.224670 905.157410,868.919739 
	C908.447876,851.937317 912.080811,835.021423 915.560303,818.075378 
	C923.790649,777.991028 932.002075,737.902649 940.440002,696.992615 
z"/>
<path fill="#28BA37" opacity="1.000000" stroke="none" 
	d="
M940.330566,697.404297 
	C932.002075,737.902649 923.790649,777.991028 915.560303,818.075378 
	C912.080811,835.021423 908.447876,851.937317 905.157410,868.919739 
	C904.517090,872.224670 903.376160,873.235107 900.041260,873.231567 
	C817.875366,873.144897 735.709412,873.133606 653.543701,873.264709 
	C649.952271,873.270447 648.656494,871.369080 647.119080,868.946106 
	C612.608459,814.558594 578.074219,760.186157 543.537415,705.815247 
	C542.653381,704.423462 541.691345,703.081238 540.431396,701.222656 
	C534.759033,710.120667 529.322815,718.639221 523.895508,727.163513 
	C493.770721,774.478638 463.615570,821.774536 433.599548,869.158569 
	C431.650391,872.235474 429.592590,873.249329 426.016693,873.244690 
	C345.017548,873.139587 264.018158,873.126587 183.019119,873.266968 
	C178.675690,873.274475 177.209732,872.046021 176.340164,867.771851 
	C161.682327,795.724548 146.822647,723.718262 132.010437,651.702393 
	C116.862991,578.056335 101.722702,504.408905 86.571648,430.763672 
	C70.716812,353.697540 54.852936,276.633331 38.992882,199.568268 
	C33.395927,172.372299 27.798613,145.176407 22.112825,117.549820 
	C118.068398,117.549820 213.744400,117.549820 309.761230,117.549820 
	C334.316101,254.918549 358.867981,392.270477 383.664185,530.989380 
	C385.195679,528.655090 386.153168,527.283020 387.022919,525.857483 
	C430.707001,454.259827 474.418915,382.679016 517.964600,310.997253 
	C520.337219,307.091675 522.795959,305.539337 527.359070,305.725403 
	C536.510437,306.098541 545.692627,306.009460 554.851868,305.749695 
	C558.441650,305.647888 560.441711,306.730652 562.357483,309.881500 
	C606.189087,381.972809 650.151184,453.984741 694.097229,526.006470 
	C694.916809,527.349670 695.836243,528.632019 697.363403,530.925171 
	C722.043396,392.440918 746.519958,255.098038 771.046082,117.477104 
	C867.128357,117.477104 963.033752,117.477104 1059.714233,117.477104 
	C1019.938110,310.736603 980.189087,503.864594 940.330566,697.404297 
M734.934570,442.411499 
	C727.181458,485.747223 719.428345,529.083008 711.594910,572.867615 
	C708.187256,572.867615 705.030701,572.624146 701.929504,572.934021 
	C698.630188,573.263672 696.836853,571.918213 695.169128,569.177551 
	C647.734863,491.228546 600.146912,413.372864 552.877380,335.324249 
	C549.162476,329.190399 545.410400,326.123505 538.079895,326.939240 
	C534.493286,327.338379 532.546448,328.390076 530.704163,331.422729 
	C501.224670,379.950226 471.614288,428.398224 442.043518,476.870331 
	C423.399292,507.431793 404.791565,538.015564 386.081909,568.536926 
	C385.048859,570.222168 383.378082,572.416931 381.749390,572.658813 
	C377.729095,573.255859 373.560547,572.854553 369.412384,572.854553 
	C343.487854,427.872742 317.683136,283.560944 291.862915,139.162506 
	C210.694672,139.162506 129.946304,139.162506 48.388260,139.162506 
	C97.324944,376.936646 146.170486,614.268005 195.020584,851.621338 
	C196.374756,851.733826 197.189941,851.860718 198.005142,851.860779 
	C270.498779,851.870544 342.992462,851.893921 415.485779,851.739929 
	C417.344604,851.735962 419.886414,850.239563 420.943726,848.659180 
	C427.516418,838.834839 433.753845,828.786377 440.106323,818.814575 
	C470.257568,771.484863 500.398254,724.148315 530.609619,676.856934 
	C531.702332,675.146484 533.260437,673.040710 535.001709,672.555786 
	C543.052734,670.313843 547.746338,672.484375 552.302612,679.658875 
	C587.832458,735.605225 623.405762,791.524048 658.857117,847.520081 
	C660.870422,850.700134 662.977783,851.971191 666.831543,851.964355 
	C738.325012,851.837952 809.818787,851.871582 881.312500,851.871582 
	C883.084045,851.871582 884.855591,851.871582 886.728394,851.871582 
	C935.680908,614.018738 984.502197,376.803833 1033.409912,139.169159 
	C951.664490,139.169159 870.580505,139.169159 788.999146,139.169159 
	C787.139587,149.467056 785.270813,159.733307 783.433350,170.005157 
	C775.967773,211.740189 768.498047,253.474472 761.055786,295.213684 
	C752.358826,343.989655 743.688843,392.770447 734.934570,442.411499 
z"/>
<path fill="#000000" opacity="1.000000" stroke="none" 
	d="
M734.970825,441.980347 
	C743.688843,392.770447 752.358826,343.989655 761.055786,295.213684 
	C768.498047,253.474472 775.967773,211.740189 783.433350,170.005157 
	C785.270813,159.733307 787.139587,149.467056 788.999146,139.169159 
	C870.580505,139.169159 951.664490,139.169159 1033.409912,139.169159 
	C984.502197,376.803833 935.680908,614.018738 886.728394,851.871582 
	C884.855591,851.871582 883.084045,851.871582 881.312500,851.871582 
	C809.818787,851.871582 738.325012,851.837952 666.831543,851.964355 
	C662.977783,851.971191 660.870422,850.700134 658.857117,847.520081 
	C623.405762,791.524048 587.832458,735.605225 552.302612,679.658875 
	C547.746338,672.484375 543.052734,670.313843 535.001709,672.555786 
	C533.260437,673.040710 531.702332,675.146484 530.609619,676.856934 
	C500.398254,724.148315 470.257568,771.484863 440.106323,818.814575 
	C433.753845,828.786377 427.516418,838.834839 420.943726,848.659180 
	C419.886414,850.239563 417.344604,851.735962 415.485779,851.739929 
	C342.992462,851.893921 270.498779,851.870544 198.005142,851.860779 
	C197.189941,851.860718 196.374756,851.733826 195.020584,851.621338 
	C146.170486,614.268005 97.324944,376.936646 48.388260,139.162506 
	C129.946304,139.162506 210.694672,139.162506 291.862915,139.162506 
	C317.683136,283.560944 343.487854,427.872742 369.412384,572.854553 
	C373.560547,572.854553 377.729095,573.255859 381.749390,572.658813 
	C383.378082,572.416931 385.048859,570.222168 386.081909,568.536926 
	C404.791565,538.015564 423.399292,507.431793 442.043518,476.870331 
	C471.614288,428.398224 501.224670,379.950226 530.704163,331.422729 
	C532.546448,328.390076 534.493286,327.338379 538.079895,326.939240 
	C545.410400,326.123505 549.162476,329.190399 552.877380,335.324249 
	C600.146912,413.372864 647.734863,491.228546 695.169128,569.177551 
	C696.836853,571.918213 698.630188,573.263672 701.929504,572.934021 
	C705.030701,572.624146 708.187256,572.867615 711.594910,572.867615 
	C719.428345,529.083008 727.181458,485.747223 734.970825,441.980347 
z"/>
</svg>