<svg version="1.1" id="Layer_1" xmlns="http://www.w3.org/2000/svg" xmlns:xlink="http://www.w3.org/1999/xlink" x="0px" y="0px"
	 width="100%" viewBox="0 0 1080 1080" enable-background="new 0 0 1080 1080" xml:space="preserve">
<path fill="#FFFFFF" opacity="1.000000" stroke="none" 
	d="
M572.000000,1081.000000 
	C381.355286,1081.000000 191.210556,1081.000000 1.032916,1081.000000 
	C1.032916,721.063477 1.032916,361.126984 1.032916,1.095229 
	C360.894958,1.095229 720.789917,1.095229 1080.842529,1.095229 
	C1080.842529,360.999939 1080.842529,720.999939 1080.842529,1081.000000 
	C911.459900,1081.000000 741.979919,1081.000000 572.000000,1081.000000 
M505.128540,312.768188 
	C495.117676,316.674377 485.137665,320.662109 475.088654,324.467499 
	C460.402985,330.028656 445.667755,335.458923 430.029602,341.071503 
	C389.844879,341.071503 349.660126,341.071503 308.815216,341.071503 
	C308.815216,351.637451 308.815216,361.724396 307.970459,371.879028 
	C303.214569,372.605225 298.466370,373.387177 293.701263,374.046875 
	C280.879089,375.822144 268.049042,377.540344 255.223648,379.292358 
	C251.917938,379.743958 249.652435,380.782288 250.241425,385.012421 
	C253.261734,406.704254 255.674622,428.488312 259.084137,450.116486 
	C263.863739,480.435730 268.354553,510.855011 274.750885,540.851501 
	C283.332642,581.096680 292.523438,621.282349 303.527161,660.917603 
	C311.820709,690.790771 323.070374,719.868530 333.628265,749.074768 
	C337.624451,760.129456 343.370453,770.551514 347.356964,781.451172 
	C334.627747,781.451172 321.898499,781.451172 309.332031,781.451172 
	C309.332031,795.108582 309.332031,808.004150 309.332031,821.142944 
	C330.805359,821.142944 351.938843,821.142944 373.410034,821.696045 
	C385.422974,836.742859 396.799774,852.356812 409.594696,866.706421 
	C429.884125,889.461121 452.539825,909.856262 477.824554,926.957214 
	C493.326935,937.442017 509.799988,946.491638 526.015198,957.053467 
	C526.694153,971.175293 527.976318,985.300171 527.904846,999.418213 
	C527.807983,1018.548157 534.244385,1035.128784 545.221802,1050.310425 
	C549.250793,1055.882446 557.171875,1056.855103 562.347656,1052.290161 
	C564.567810,1050.331909 566.544434,1048.010620 568.273987,1045.597900 
	C577.784973,1032.329590 579.720825,1016.758118 580.892517,1001.187500 
	C581.903198,987.757019 581.817749,974.244080 582.665222,960.139038 
	C582.545532,957.588623 582.425842,955.038269 582.314148,951.999084 
	C582.363220,951.658997 582.521423,951.380981 583.528931,951.055359 
	C608.445801,936.175781 631.531494,918.802551 653.659912,900.064514 
	C678.387878,879.125244 700.641174,855.856934 720.690857,830.433716 
	C751.335388,791.576111 770.890198,747.182373 785.941467,700.480957 
	C798.950989,660.114929 809.929810,619.201416 818.452454,577.679810 
	C824.890686,546.313599 830.517334,514.771423 835.960999,483.213654 
	C839.428406,463.112732 842.017212,442.856110 844.776123,422.638733 
	C846.369080,410.965820 847.327820,399.205841 848.951904,387.537933 
	C849.671326,382.369232 847.291260,380.754486 842.858154,380.138916 
	C834.967529,379.043182 827.030823,378.109497 819.239380,376.498596 
	C790.314270,370.518219 761.387329,364.527466 732.561279,358.091766 
	C699.238953,350.652252 666.959106,339.699799 634.955139,327.938904 
	C622.634644,323.411285 610.431030,318.565399 598.028992,312.954315 
	C598.028992,304.679108 598.028992,296.403900 598.028992,286.798523 
	C617.676270,288.442078 636.376465,289.962646 655.067749,291.585358 
	C667.478271,292.662842 679.865540,294.022522 692.284607,294.979095 
	C697.413208,295.374146 702.421753,293.721436 703.994019,288.448029 
	C707.568542,276.459534 708.379089,264.334717 703.266235,252.382385 
	C701.049255,247.199478 697.147827,245.228622 691.809753,245.621506 
	C687.008789,245.974854 682.220032,246.490250 677.423279,246.904114 
	C648.904236,249.364761 620.385559,251.889908 591.708801,250.887772 
	C585.600403,250.674316 579.502319,250.165817 572.976868,249.767441 
	C572.976868,240.369171 571.911926,231.293732 573.319092,222.619308 
	C574.413940,215.870239 575.096252,209.644058 572.965027,203.158005 
	C572.456848,201.611343 572.152710,199.929993 572.123047,198.303879 
	C571.673523,173.655334 571.275208,149.005829 570.912109,124.355858 
	C570.893311,123.080696 570.899841,121.520065 571.568909,120.564484 
	C577.526184,112.056175 577.570496,112.080231 588.635620,111.322411 
	C590.295715,111.208702 591.966858,111.253204 593.626343,111.133827 
	C601.382324,110.575882 606.059570,104.873924 604.758423,97.146339 
	C603.768005,91.264488 602.687378,85.351402 601.006714,79.640625 
	C595.096558,59.558411 583.953247,43.534683 564.828735,33.736599 
	C561.908508,32.240479 559.146240,29.928366 557.075989,27.373669 
	C550.045410,18.698044 537.046265,16.760555 530.034790,24.826933 
	C524.691711,30.973806 518.170288,35.154053 511.965546,39.998352 
	C508.593994,42.630646 505.667023,45.917870 502.880798,49.199440 
	C491.428101,62.688244 487.742981,79.228745 485.201385,96.057030 
	C483.940826,104.403358 488.045929,109.263809 496.472198,110.714157 
	C498.594330,111.079437 500.802826,110.916809 502.944031,111.203041 
	C508.238373,111.910751 514.471985,110.900948 516.333252,118.243469 
	C516.473206,118.795586 517.380310,119.112206 517.682434,119.672264 
	C518.463989,121.121254 519.703735,122.640480 519.715576,124.139908 
	C519.903931,147.962112 519.963684,171.785675 519.919495,195.608688 
	C519.916016,197.468063 519.217285,199.481216 518.335449,201.156403 
	C514.946106,207.594910 513.307373,214.331863 515.751953,221.323608 
	C518.794189,230.024826 518.134644,238.811920 517.992493,246.847137 
	C506.430603,246.847137 495.453735,247.125656 484.495667,246.790543 
	C459.884247,246.037842 435.282867,244.959686 410.675842,244.057465 
	C400.797729,243.695267 396.827240,246.569244 394.464447,255.806717 
	C391.635620,266.866333 392.011108,277.938812 395.136169,288.841187 
	C397.947876,298.650604 404.490540,301.323944 413.976868,297.244537 
	C418.527863,295.287506 423.156281,292.913940 427.960022,292.249237 
	C444.724243,289.929596 461.551544,287.936005 478.412994,286.501007 
	C487.425934,285.733978 496.557800,286.364899 505.916168,286.364899 
	C505.916168,295.152344 505.916168,303.930267 505.128540,312.768188 
z"/>
<path fill="#030405" opacity="1.000000" stroke="none" 
	d="
M373.072357,821.142944 
	C351.938843,821.142944 330.805359,821.142944 309.332031,821.142944 
	C309.332031,808.004150 309.332031,795.108582 309.332031,781.451172 
	C321.898499,781.451172 334.627747,781.451172 348.236694,781.473877 
	C352.811707,781.478638 351.663177,778.662903 351.669586,776.777283 
	C351.733734,757.956360 351.953583,739.130188 351.569366,720.316956 
	C351.443024,714.130432 350.516205,707.698059 348.547913,701.852051 
	C329.993164,646.743164 316.346222,590.392700 305.955353,533.254395 
	C300.480713,503.149963 296.026489,472.856873 291.351257,442.611877 
	C289.760498,432.320770 288.903168,421.916229 287.694458,411.422333 
	C294.121918,410.527191 299.876007,409.830353 305.593933,408.908905 
	C319.713745,406.633392 333.828339,404.318817 347.909149,401.818024 
	C349.298981,401.571167 351.464783,399.991791 351.528595,398.926514 
	C351.882782,393.012604 351.698425,387.066437 351.698425,380.694092 
	C337.115723,380.694092 323.192780,380.694092 308.815216,380.694092 
	C308.815216,377.429596 308.815216,374.620483 308.815216,371.811340 
	C308.815216,361.724396 308.815216,351.637451 308.815216,341.071503 
	C349.660126,341.071503 389.844879,341.071503 430.954285,341.114624 
	C456.741089,341.157745 481.603210,341.157745 505.916168,341.157745 
	C505.916168,331.227142 505.916168,321.967682 505.916168,312.708191 
	C505.916168,303.930267 505.916168,295.152344 505.916168,286.364899 
	C496.557800,286.364899 487.425934,285.733978 478.412994,286.501007 
	C461.551544,287.936005 444.724243,289.929596 427.960022,292.249237 
	C423.156281,292.913940 418.527863,295.287506 413.976868,297.244537 
	C404.490540,301.323944 397.947876,298.650604 395.136169,288.841187 
	C392.011108,277.938812 391.635620,266.866333 394.464447,255.806717 
	C396.827240,246.569244 400.797729,243.695267 410.675842,244.057465 
	C435.282867,244.959686 459.884247,246.037842 484.495667,246.790543 
	C495.453735,247.125656 506.430603,246.847137 517.992493,246.847137 
	C518.134644,238.811920 518.794189,230.024826 515.751953,221.323608 
	C513.307373,214.331863 514.946106,207.594910 518.335449,201.156403 
	C519.217285,199.481216 519.916016,197.468063 519.919495,195.608688 
	C519.963684,171.785675 519.903931,147.962112 519.715576,124.139908 
	C519.703735,122.640480 518.463989,121.121254 517.682434,119.672264 
	C517.380310,119.112206 516.473206,118.795586 516.333252,118.243469 
	C514.471985,110.900948 508.238373,111.910751 502.944031,111.203041 
	C500.802826,110.916809 498.594330,111.079437 496.472198,110.714157 
	C488.045929,109.263809 483.940826,104.403358 485.201385,96.057030 
	C487.742981,79.228745 491.428101,62.688244 502.880798,49.199440 
	C505.667023,45.917870 508.593994,42.630646 511.965546,39.998352 
	C518.170288,35.154053 524.691711,30.973806 530.034790,24.826933 
	C537.046265,16.760555 550.045410,18.698044 557.075989,27.373669 
	C559.146240,29.928366 561.908508,32.240479 564.828735,33.736599 
	C583.953247,43.534683 595.096558,59.558411 601.006714,79.640625 
	C602.687378,85.351402 603.768005,91.264488 604.758423,97.146339 
	C606.059570,104.873924 601.382324,110.575882 593.626343,111.133827 
	C591.966858,111.253204 590.295715,111.208702 588.635620,111.322411 
	C577.570496,112.080231 577.526184,112.056175 571.568909,120.564484 
	C570.899841,121.520065 570.893311,123.080696 570.912109,124.355858 
	C571.275208,149.005829 571.673523,173.655334 572.123047,198.303879 
	C572.152710,199.929993 572.456848,201.611343 572.965027,203.158005 
	C575.096252,209.644058 574.413940,215.870239 573.319092,222.619308 
	C571.911926,231.293732 572.976868,240.369171 572.976868,249.767441 
	C579.502319,250.165817 585.600403,250.674316 591.708801,250.887772 
	C620.385559,251.889908 648.904236,249.364761 677.423279,246.904114 
	C682.220032,246.490250 687.008789,245.974854 691.809753,245.621506 
	C697.147827,245.228622 701.049255,247.199478 703.266235,252.382385 
	C708.379089,264.334717 707.568542,276.459534 703.994019,288.448029 
	C702.421753,293.721436 697.413208,295.374146 692.284607,294.979095 
	C679.865540,294.022522 667.478271,292.662842 655.067749,291.585358 
	C636.376465,289.962646 617.676270,288.442078 598.028992,286.798523 
	C598.028992,296.403900 598.028992,304.679108 598.014771,313.883789 
	C598.000610,325.230408 598.000610,335.647552 598.000610,346.387970 
	C600.906128,346.903046 604.000183,347.441193 607.090271,348.000885 
	C645.487000,354.956055 681.735779,367.147003 713.075378,391.370911 
	C714.483826,392.459595 716.201111,393.411713 717.916443,393.798889 
	C732.188110,397.020020 746.448669,400.318604 760.799622,403.152740 
	C777.732971,406.496826 794.753235,409.400513 811.844055,412.514832 
	C811.844055,414.211853 812.021606,415.864838 811.817139,417.469086 
	C809.229370,437.771301 806.933960,458.119141 803.867249,478.349701 
	C800.302856,501.862366 796.150085,525.288086 792.058777,548.717712 
	C789.599365,562.801880 786.321350,576.755554 784.246826,590.890503 
	C782.534302,602.559326 782.451477,614.460205 780.940125,626.167053 
	C777.232239,654.887634 769.589539,682.506714 755.937012,708.196716 
	C751.345642,716.836426 744.905945,724.617798 741.170044,733.567444 
	C721.759949,780.066406 692.014038,819.032349 655.601562,853.286072 
	C634.449341,873.184143 611.528320,890.833923 587.256348,906.765320 
	C585.558228,907.879883 583.467651,910.018799 583.406433,911.746887 
	C582.941284,924.877136 582.936768,938.023621 582.788696,951.165100 
	C582.521423,951.380981 582.363220,951.658997 582.191895,952.640442 
	C582.118713,955.777100 582.167847,958.272339 582.216919,960.767639 
	C581.817749,974.244080 581.903198,987.757019 580.892517,1001.187500 
	C579.720825,1016.758118 577.784973,1032.329590 568.273987,1045.597900 
	C566.544434,1048.010620 564.567810,1050.331909 562.347656,1052.290161 
	C557.171875,1056.855103 549.250793,1055.882446 545.221802,1050.310425 
	C534.244385,1035.128784 527.807983,1018.548157 527.904846,999.418213 
	C527.976318,985.300171 526.694153,971.175293 526.001587,956.142212 
	C525.622131,942.585938 525.389648,929.934021 524.740601,917.303467 
	C524.647827,915.498474 522.944031,913.084595 521.303894,912.152039 
	C480.629303,889.028259 445.401581,859.451538 415.426514,823.547607 
	C414.340363,822.246521 412.197205,821.140991 410.531708,821.119873 
	C398.047394,820.961121 385.559265,821.098328 373.072357,821.142944 
M683.052002,783.878845 
	C652.842468,800.830017 620.065796,810.001648 585.285461,815.606323 
	C585.285461,835.484558 585.285461,855.131348 585.285461,875.570557 
	C595.693176,867.986145 606.071716,860.833313 616.003052,853.105835 
	C641.713013,833.101196 665.084839,810.704041 685.055664,784.039856 
	C684.941284,783.721924 684.826904,783.403992 684.712524,783.086060 
	C684.391541,783.306763 684.070618,783.527527 683.052002,783.878845 
M726.946167,728.410278 
	C742.687744,708.171509 753.459351,685.447021 760.023560,660.774658 
	C774.256287,607.279419 774.664734,553.317871 762.759766,499.519287 
	C748.495972,435.061249 709.419739,392.391510 646.530762,371.640747 
	C610.728088,359.827332 573.805603,355.343414 536.372375,355.112762 
	C466.546082,354.682465 396.715851,354.895477 326.887238,354.853241 
	C325.599792,354.852478 324.312317,355.006866 322.898926,355.096893 
	C322.898926,359.118561 322.898926,362.856354 322.898926,367.064331 
	C337.042847,367.064331 350.956360,367.064331 364.907745,367.064331 
	C364.907745,509.945587 364.907745,652.353577 364.907745,795.295776 
	C350.773682,795.295776 336.875061,795.295776 322.980255,795.295776 
	C322.980255,799.589233 322.980255,803.344482 322.980255,807.470703 
	C324.597534,807.470703 325.898712,807.470764 327.199860,807.470703 
	C386.362793,807.469177 445.525940,807.566650 504.688538,807.429749 
	C541.571777,807.344421 578.239929,804.864685 614.220337,795.977600 
	C658.456726,785.051270 697.394165,765.250427 726.946167,728.410278 
M549.434570,36.164219 
	C546.783630,34.473598 543.883484,31.157120 541.546692,31.515411 
	C538.798645,31.936754 536.455750,35.462273 534.103271,37.808292 
	C532.909668,38.998638 532.345825,41.420559 531.048340,41.817223 
	C509.113983,48.522774 496.772705,78.172142 496.581238,99.325859 
	C505.741943,100.362686 514.936279,101.403320 524.244568,102.456848 
	C524.602722,105.558601 524.920349,108.309456 525.227783,110.971733 
	C527.321045,111.172714 529.072327,111.340858 531.037903,111.529579 
	C531.037903,141.442688 531.070007,170.926392 530.951538,200.409500 
	C530.945007,202.037216 529.937500,203.829117 528.968079,205.253433 
	C525.973267,209.653488 524.356689,214.550400 526.607971,219.386292 
	C529.277100,225.119919 529.153442,230.959869 529.170715,236.914062 
	C529.192200,244.336044 529.175842,251.758133 529.175842,258.579071 
	C519.755798,258.579071 510.934662,258.809662 502.129059,258.537415 
	C471.153473,257.579651 440.184174,256.415588 409.207336,255.505829 
	C407.957062,255.469101 405.855682,256.979462 405.501862,258.170441 
	C402.527069,268.182281 403.367249,278.088318 406.610168,287.743591 
	C442.285889,272.804260 479.680328,276.305267 516.685852,273.867889 
	C517.245789,296.833618 517.780334,318.757629 518.323364,341.030396 
	C525.046814,341.030396 531.418274,341.030396 537.996216,341.030396 
	C537.996216,320.222992 537.996216,299.680786 537.996216,277.565704 
	C541.864746,281.217346 544.788086,283.976776 547.657715,286.685516 
	C552.572815,284.633240 557.737976,282.476593 563.428162,280.100708 
	C562.737915,301.698730 562.091248,321.934082 561.438049,342.372711 
	C569.972961,343.185150 577.687134,343.919434 585.734436,344.685455 
	C586.360168,321.986115 586.978149,299.566559 587.608765,276.689880 
	C623.518677,274.656189 658.487915,281.837769 694.390991,283.846741 
	C694.390991,275.815613 694.534180,268.401794 694.323059,260.998108 
	C694.234314,257.887543 692.441040,256.466003 688.976562,256.957520 
	C684.202026,257.634888 679.341064,257.674927 674.539368,258.193848 
	C644.357422,261.455750 614.120422,263.444336 583.752747,261.860352 
	C576.496033,261.481842 569.271912,260.476532 561.515198,259.708252 
	C562.731262,244.820084 558.932129,230.402008 563.101868,216.056854 
	C563.904541,213.295563 562.648804,209.905853 562.210754,206.824799 
	C561.932800,204.870529 561.086670,202.957474 561.047485,201.014786 
	C560.462280,172.026840 559.965210,143.037094 559.472778,114.047340 
	C559.456604,113.097145 559.709717,112.142380 559.831604,111.232307 
	C561.985901,110.987114 563.893311,110.770012 566.031006,110.526703 
	C566.031006,107.227890 566.031006,104.288025 566.031006,101.095108 
	C575.469543,100.644165 584.651733,100.205475 594.389954,99.740219 
	C592.820862,93.142235 591.839050,87.026497 589.899658,81.231194 
	C584.076233,63.829670 574.287659,49.564899 556.468323,42.573334 
	C553.299316,41.329964 550.872009,40.082363 549.434570,36.164219 
M536.224304,923.184204 
	C537.248352,949.140503 538.706360,975.089661 539.138062,1001.055786 
	C539.408508,1017.323486 545.110657,1031.110840 555.123230,1044.401489 
	C557.271606,1041.473999 559.586304,1038.877808 561.271423,1035.922607 
	C567.093262,1025.712036 569.428101,1014.310913 569.754395,1002.884216 
	C571.479553,942.455078 572.693542,882.011292 574.079529,821.572510 
	C574.112366,820.140869 574.083679,818.707825 574.083679,817.414062 
	C559.993591,818.661316 546.475037,819.857971 532.624573,821.083984 
	C533.819458,855.049255 535.001221,888.643127 536.224304,923.184204 
M326.339630,513.158997 
	C332.916656,552.667480 340.600983,591.936279 351.463562,630.460754 
	C351.463562,563.721252 351.463562,496.981781 351.463562,429.797821 
	C349.538818,430.049805 347.917664,430.240723 346.303131,430.477051 
	C338.404419,431.633270 330.524719,432.940552 322.604797,433.924774 
	C315.322601,434.829773 315.326508,434.675385 316.374664,442.134277 
	C319.660919,465.520081 322.928436,488.908508 326.339630,513.158997 
M503.139526,868.386292 
	C509.558899,872.384766 515.978271,876.383301 523.304565,880.946716 
	C522.592041,860.230530 521.925049,840.837769 521.254883,821.352844 
	C496.187103,821.352844 471.692535,821.352844 446.433502,821.352844 
	C463.862488,839.259583 482.321533,854.671387 503.139526,868.386292 
M781.787598,456.277771 
	C782.325134,451.324768 782.596313,446.323608 783.479980,441.433105 
	C784.265503,437.085510 783.450500,434.577301 778.496948,434.790344 
	C777.684570,434.825317 776.858521,434.544006 776.038818,434.409058 
	C767.139832,432.944031 758.240845,431.479065 748.485046,429.873016 
	C761.916138,450.393127 770.211914,472.173553 776.821594,494.717194 
	C778.445984,482.203705 780.070312,469.690247 781.787598,456.277771 
z"/>
<path fill="#83E9F9" opacity="1.000000" stroke="none" 
	d="
M583.158813,951.110229 
	C582.936768,938.023621 582.941284,924.877136 583.406433,911.746887 
	C583.467651,910.018799 585.558228,907.879883 587.256348,906.765320 
	C611.528320,890.833923 634.449341,873.184143 655.601562,853.286072 
	C692.014038,819.032349 721.759949,780.066406 741.170044,733.567444 
	C744.905945,724.617798 751.345642,716.836426 755.937012,708.196716 
	C769.589539,682.506714 777.232239,654.887634 780.940125,626.167053 
	C782.451477,614.460205 782.534302,602.559326 784.246826,590.890503 
	C786.321350,576.755554 789.599365,562.801880 792.058777,548.717712 
	C796.150085,525.288086 800.302856,501.862366 803.867249,478.349701 
	C806.933960,458.119141 809.229370,437.771301 811.817139,417.469086 
	C812.021606,415.864838 811.844055,414.211853 811.844055,412.514832 
	C794.753235,409.400513 777.732971,406.496826 760.799622,403.152740 
	C746.448669,400.318604 732.188110,397.020020 717.916443,393.798889 
	C716.201111,393.411713 714.483826,392.459595 713.075378,391.370911 
	C681.735779,367.147003 645.487000,354.956055 607.090271,348.000885 
	C604.000183,347.441193 600.906128,346.903046 598.000610,346.387970 
	C598.000610,335.647552 598.000610,325.230408 598.087402,314.338898 
	C610.431030,318.565399 622.634644,323.411285 634.955139,327.938904 
	C666.959106,339.699799 699.238953,350.652252 732.561279,358.091766 
	C761.387329,364.527466 790.314270,370.518219 819.239380,376.498596 
	C827.030823,378.109497 834.967529,379.043182 842.858154,380.138916 
	C847.291260,380.754486 849.671326,382.369232 848.951904,387.537933 
	C847.327820,399.205841 846.369080,410.965820 844.776123,422.638733 
	C842.017212,442.856110 839.428406,463.112732 835.960999,483.213654 
	C830.517334,514.771423 824.890686,546.313599 818.452454,577.679810 
	C809.929810,619.201416 798.950989,660.114929 785.941467,700.480957 
	C770.890198,747.182373 751.335388,791.576111 720.690857,830.433716 
	C700.641174,855.856934 678.387878,879.125244 653.659912,900.064514 
	C631.531494,918.802551 608.445801,936.175781 583.158813,951.110229 
z"/>
<path fill="#7BCFE0" opacity="1.000000" stroke="none" 
	d="
M308.392822,371.845184 
	C308.815216,374.620483 308.815216,377.429596 308.815216,380.694092 
	C323.192780,380.694092 337.115723,380.694092 351.698425,380.694092 
	C351.698425,387.066437 351.882782,393.012604 351.528595,398.926514 
	C351.464783,399.991791 349.298981,401.571167 347.909149,401.818024 
	C333.828339,404.318817 319.713745,406.633392 305.593933,408.908905 
	C299.876007,409.830353 294.121918,410.527191 287.694458,411.422333 
	C288.903168,421.916229 289.760498,432.320770 291.351257,442.611877 
	C296.026489,472.856873 300.480713,503.149963 305.955353,533.254395 
	C316.346222,590.392700 329.993164,646.743164 348.547913,701.852051 
	C350.516205,707.698059 351.443024,714.130432 351.569366,720.316956 
	C351.953583,739.130188 351.733734,757.956360 351.669586,776.777283 
	C351.663177,778.662903 352.811707,781.478638 348.717651,781.379272 
	C343.370453,770.551514 337.624451,760.129456 333.628265,749.074768 
	C323.070374,719.868530 311.820709,690.790771 303.527161,660.917603 
	C292.523438,621.282349 283.332642,581.096680 274.750885,540.851501 
	C268.354553,510.855011 263.863739,480.435730 259.084137,450.116486 
	C255.674622,428.488312 253.261734,406.704254 250.241425,385.012421 
	C249.652435,380.782288 251.917938,379.743958 255.223648,379.292358 
	C268.049042,377.540344 280.879089,375.822144 293.701263,374.046875 
	C298.466370,373.387177 303.214569,372.605225 308.392822,371.845184 
z"/>
<path fill="#7BCFE0" opacity="1.000000" stroke="none" 
	d="
M373.241211,821.419495 
	C385.559265,821.098328 398.047394,820.961121 410.531708,821.119873 
	C412.197205,821.140991 414.340363,822.246521 415.426514,823.547607 
	C445.401581,859.451538 480.629303,889.028259 521.303894,912.152039 
	C522.944031,913.084595 524.647827,915.498474 524.740601,917.303467 
	C525.389648,929.934021 525.622131,942.585938 525.912598,955.708374 
	C509.799988,946.491638 493.326935,937.442017 477.824554,926.957214 
	C452.539825,909.856262 429.884125,889.461121 409.594696,866.706421 
	C396.799774,852.356812 385.422974,836.742859 373.241211,821.419495 
z"/>
<path fill="#7CCFE0" opacity="1.000000" stroke="none" 
	d="
M505.522339,312.738190 
	C505.916168,321.967682 505.916168,331.227142 505.916168,341.157745 
	C481.603210,341.157745 456.741089,341.157745 431.416321,341.051361 
	C445.667755,335.458923 460.402985,330.028656 475.088654,324.467499 
	C485.137665,320.662109 495.117676,316.674377 505.522339,312.738190 
z"/>
<path fill="#83E9F9" opacity="1.000000" stroke="none" 
	d="
M582.441101,960.453369 
	C582.167847,958.272339 582.118713,955.777100 582.187866,952.884827 
	C582.425842,955.038269 582.545532,957.588623 582.441101,960.453369 
z"/>
<path fill="#83E9F9" opacity="1.000000" stroke="none" 
	d="
M726.717102,728.684570 
	C697.394165,765.250427 658.456726,785.051270 614.220337,795.977600 
	C578.239929,804.864685 541.571777,807.344421 504.688538,807.429749 
	C445.525940,807.566650 386.362793,807.469177 327.199860,807.470703 
	C325.898712,807.470764 324.597534,807.470703 322.980255,807.470703 
	C322.980255,803.344482 322.980255,799.589233 322.980255,795.295776 
	C336.875061,795.295776 350.773682,795.295776 364.907745,795.295776 
	C364.907745,652.353577 364.907745,509.945587 364.907745,367.064331 
	C350.956360,367.064331 337.042847,367.064331 322.898926,367.064331 
	C322.898926,362.856354 322.898926,359.118561 322.898926,355.096893 
	C324.312317,355.006866 325.599792,354.852478 326.887238,354.853241 
	C396.715851,354.895477 466.546082,354.682465 536.372375,355.112762 
	C573.805603,355.343414 610.728088,359.827332 646.530762,371.640747 
	C709.419739,392.391510 748.495972,435.061249 762.759766,499.519287 
	C774.664734,553.317871 774.256287,607.279419 760.023560,660.774658 
	C753.459351,685.447021 742.687744,708.171509 726.717102,728.684570 
M633.175476,481.184357 
	C630.761902,462.832886 626.969238,444.836487 620.070862,427.562195 
	C608.769592,399.262512 589.105530,379.768616 559.202148,372.850525 
	C543.761292,369.278351 527.616333,368.618164 511.745911,367.096680 
	C505.066650,366.456329 498.274841,366.990021 491.681000,366.990021 
	C491.681000,510.144775 491.681000,652.516602 491.681000,795.659790 
	C506.521393,795.121582 521.044800,795.275940 535.429565,793.938721 
	C571.089478,790.623962 597.796814,773.380920 613.864685,740.931641 
	C629.005188,710.355225 633.981812,677.277161 635.818237,643.773682 
	C637.358093,615.681335 637.959595,587.482361 637.522827,559.353210 
	C637.122559,533.575195 634.777771,507.827423 633.175476,481.184357 
z"/>
<path fill="#82E7F7" opacity="1.000000" stroke="none" 
	d="
M549.621582,36.485603 
	C550.872009,40.082363 553.299316,41.329964 556.468323,42.573334 
	C574.287659,49.564899 584.076233,63.829670 589.899658,81.231194 
	C591.839050,87.026497 592.820862,93.142235 594.389954,99.740219 
	C584.651733,100.205475 575.469543,100.644165 566.031006,101.095108 
	C566.031006,104.288025 566.031006,107.227890 566.031006,110.526703 
	C563.893311,110.770012 561.985901,110.987114 559.831604,111.232307 
	C559.709717,112.142380 559.456604,113.097145 559.472778,114.047340 
	C559.965210,143.037094 560.462280,172.026840 561.047485,201.014786 
	C561.086670,202.957474 561.932800,204.870529 562.210754,206.824799 
	C562.648804,209.905853 563.904541,213.295563 563.101868,216.056854 
	C558.932129,230.402008 562.731262,244.820084 561.515198,259.708252 
	C569.271912,260.476532 576.496033,261.481842 583.752747,261.860352 
	C614.120422,263.444336 644.357422,261.455750 674.539368,258.193848 
	C679.341064,257.674927 684.202026,257.634888 688.976562,256.957520 
	C692.441040,256.466003 694.234314,257.887543 694.323059,260.998108 
	C694.534180,268.401794 694.390991,275.815613 694.390991,283.846741 
	C658.487915,281.837769 623.518677,274.656189 587.608765,276.689880 
	C586.978149,299.566559 586.360168,321.986115 585.734436,344.685455 
	C577.687134,343.919434 569.972961,343.185150 561.438049,342.372711 
	C562.091248,321.934082 562.737915,301.698730 563.428162,280.100708 
	C557.737976,282.476593 552.572815,284.633240 547.657715,286.685516 
	C544.788086,283.976776 541.864746,281.217346 537.996216,277.565704 
	C537.996216,299.680786 537.996216,320.222992 537.996216,341.030396 
	C531.418274,341.030396 525.046814,341.030396 518.323364,341.030396 
	C517.780334,318.757629 517.245789,296.833618 516.685852,273.867889 
	C479.680328,276.305267 442.285889,272.804260 406.610168,287.743591 
	C403.367249,278.088318 402.527069,268.182281 405.501862,258.170441 
	C405.855682,256.979462 407.957062,255.469101 409.207336,255.505829 
	C440.184174,256.415588 471.153473,257.579651 502.129059,258.537415 
	C510.934662,258.809662 519.755798,258.579071 529.175842,258.579071 
	C529.175842,251.758133 529.192200,244.336044 529.170715,236.914062 
	C529.153442,230.959869 529.277100,225.119919 526.607971,219.386292 
	C524.356689,214.550400 525.973267,209.653488 528.968079,205.253433 
	C529.937500,203.829117 530.945007,202.037216 530.951538,200.409500 
	C531.070007,170.926392 531.037903,141.442688 531.037903,111.529579 
	C529.072327,111.340858 527.321045,111.172714 525.227783,110.971733 
	C524.920349,108.309456 524.602722,105.558601 524.244568,102.456848 
	C514.936279,101.403320 505.741943,100.362686 496.581238,99.325859 
	C496.772705,78.172142 509.113983,48.522774 531.048340,41.817223 
	C532.345825,41.420559 532.909668,38.998638 534.103271,37.808292 
	C536.455750,35.462273 538.798645,31.936754 541.546692,31.515411 
	C543.883484,31.157120 546.783630,34.473598 549.621582,36.485603 
z"/>
<path fill="#82E8F7" opacity="1.000000" stroke="none" 
	d="
M536.203613,922.710571 
	C535.001221,888.643127 533.819458,855.049255 532.624573,821.083984 
	C546.475037,819.857971 559.993591,818.661316 574.083679,817.414062 
	C574.083679,818.707825 574.112366,820.140869 574.079529,821.572510 
	C572.693542,882.011292 571.479553,942.455078 569.754395,1002.884216 
	C569.428101,1014.310913 567.093262,1025.712036 561.271423,1035.922607 
	C559.586304,1038.877808 557.271606,1041.473999 555.123230,1044.401489 
	C545.110657,1031.110840 539.408508,1017.323486 539.138062,1001.055786 
	C538.706360,975.089661 537.248352,949.140503 536.203613,922.710571 
z"/>
<path fill="#78CBDB" opacity="1.000000" stroke="none" 
	d="
M326.271423,512.727417 
	C322.928436,488.908508 319.660919,465.520081 316.374664,442.134277 
	C315.326508,434.675385 315.322601,434.829773 322.604797,433.924774 
	C330.524719,432.940552 338.404419,431.633270 346.303131,430.477051 
	C347.917664,430.240723 349.538818,430.049805 351.463562,429.797821 
	C351.463562,496.981781 351.463562,563.721252 351.463562,630.460754 
	C340.600983,591.936279 332.916656,552.667480 326.271423,512.727417 
z"/>
<path fill="#81E6F6" opacity="1.000000" stroke="none" 
	d="
M684.634644,784.510315 
	C665.084839,810.704041 641.713013,833.101196 616.003052,853.105835 
	C606.071716,860.833313 595.693176,867.986145 585.285461,875.570557 
	C585.285461,855.131348 585.285461,835.484558 585.285461,815.606323 
	C620.065796,810.001648 652.842468,800.830017 683.616821,784.010193 
	C684.332581,784.264465 684.483582,784.387390 684.634644,784.510315 
z"/>
<path fill="#7ACEDF" opacity="1.000000" stroke="none" 
	d="
M502.837708,868.185425 
	C482.321533,854.671387 463.862488,839.259583 446.433502,821.352844 
	C471.692535,821.352844 496.187103,821.352844 521.254883,821.352844 
	C521.925049,840.837769 522.592041,860.230530 523.304565,880.946716 
	C515.978271,876.383301 509.558899,872.384766 502.837708,868.185425 
z"/>
<path fill="#80E4F4" opacity="1.000000" stroke="none" 
	d="
M781.741150,456.727264 
	C780.070312,469.690247 778.445984,482.203705 776.821594,494.717194 
	C770.211914,472.173553 761.916138,450.393127 748.485046,429.873016 
	C758.240845,431.479065 767.139832,432.944031 776.038818,434.409058 
	C776.858521,434.544006 777.684570,434.825317 778.496948,434.790344 
	C783.450500,434.577301 784.265503,437.085510 783.479980,441.433105 
	C782.596313,446.323608 782.325134,451.324768 781.741150,456.727264 
z"/>
<path fill="#81E6F6" opacity="1.000000" stroke="none" 
	d="
M683.965637,783.944946 
	C684.070618,783.527527 684.391541,783.306763 684.712524,783.086060 
	C684.826904,783.403992 684.941284,783.721924 684.845154,784.275085 
	C684.483582,784.387390 684.332581,784.264465 683.965637,783.944946 
z"/>
<path fill="#030506" opacity="1.000000" stroke="none" 
	d="
M633.232605,481.625336 
	C634.777771,507.827423 637.122559,533.575195 637.522827,559.353210 
	C637.959595,587.482361 637.358093,615.681335 635.818237,643.773682 
	C633.981812,677.277161 629.005188,710.355225 613.864685,740.931641 
	C597.796814,773.380920 571.089478,790.623962 535.429565,793.938721 
	C521.044800,795.275940 506.521393,795.121582 491.681000,795.659790 
	C491.681000,652.516602 491.681000,510.144775 491.681000,366.990021 
	C498.274841,366.990021 505.066650,366.456329 511.745911,367.096680 
	C527.616333,368.618164 543.761292,369.278351 559.202148,372.850525 
	C589.105530,379.768616 608.769592,399.262512 620.070862,427.562195 
	C626.969238,444.836487 630.761902,462.832886 633.232605,481.625336 
M622.893738,513.753479 
	C621.579468,501.174286 620.657043,488.538788 618.858887,476.029144 
	C616.177612,457.374359 611.686096,439.158875 602.720459,422.361664 
	C600.933960,419.014587 598.708801,415.901642 596.685913,412.680756 
	C596.294922,412.835846 595.903931,412.990967 595.512939,413.146057 
	C592.746948,526.999939 589.980957,640.853821 587.182556,756.042603 
	C589.213501,753.799011 590.572388,752.751404 591.342285,751.374451 
	C596.672668,741.840942 602.948792,732.660095 606.924194,722.578552 
	C618.163574,694.076111 622.015564,663.902222 622.750244,633.588562 
	C623.710266,593.981995 622.954041,554.333862 622.893738,513.753479 
M566.192505,691.500000 
	C565.604126,718.502563 565.015747,745.505188 564.424805,772.623413 
	C565.847839,771.882263 567.374512,770.829529 569.063782,770.254395 
	C574.682190,768.341614 575.859436,764.415100 575.962097,758.766052 
	C576.815796,711.783508 577.957153,664.805847 579.097656,617.828857 
	C580.828552,546.532227 582.646240,475.237732 584.302307,403.939423 
	C584.345459,402.083435 583.490356,399.333954 582.123962,398.466888 
	C575.771240,394.435547 569.090454,390.921082 561.439026,386.608337 
	C561.439026,389.898865 561.424683,391.497162 561.441162,393.095154 
	C561.587280,407.259277 561.665771,421.424530 561.900879,435.587158 
	C563.311157,520.558411 564.757812,605.529114 566.192505,691.500000 
M528.025940,687.495728 
	C529.075623,718.563721 530.125305,749.631775 531.182556,780.924377 
	C536.051147,780.183899 540.438232,779.516724 544.351990,778.921509 
	C532.718018,646.741516 539.296326,514.680969 537.774902,382.384705 
	C531.394104,381.919342 525.381653,381.480835 518.929138,381.010254 
	C521.969727,483.410309 524.984863,584.954468 528.025940,687.495728 
M505.004089,772.473755 
	C505.004089,775.401123 505.004089,778.328552 505.004089,781.136719 
	C510.306152,781.136719 514.912292,781.136719 519.522156,781.136719 
	C515.551025,648.955139 511.589539,517.095154 507.628082,385.235168 
	C507.157928,385.140106 506.687744,385.045044 506.217590,384.950012 
	C505.813629,387.005035 505.057068,389.059906 505.056152,391.115112 
	C504.999481,517.902527 505.004669,644.690002 505.004089,772.473755 
z"/>
<path fill="#82E8F8" opacity="1.000000" stroke="none" 
	d="
M622.914917,514.228516 
	C622.954041,554.333862 623.710266,593.981995 622.750244,633.588562 
	C622.015564,663.902222 618.163574,694.076111 606.924194,722.578552 
	C602.948792,732.660095 596.672668,741.840942 591.342285,751.374451 
	C590.572388,752.751404 589.213501,753.799011 587.182556,756.042603 
	C589.980957,640.853821 592.746948,526.999939 595.512939,413.146057 
	C595.903931,412.990967 596.294922,412.835846 596.685913,412.680756 
	C598.708801,415.901642 600.933960,419.014587 602.720459,422.361664 
	C611.686096,439.158875 616.177612,457.374359 618.858887,476.029144 
	C620.657043,488.538788 621.579468,501.174286 622.914917,514.228516 
z"/>
<path fill="#81E5F5" opacity="1.000000" stroke="none" 
	d="
M566.192383,691.000000 
	C564.757812,605.529114 563.311157,520.558411 561.900879,435.587158 
	C561.665771,421.424530 561.587280,407.259277 561.441162,393.095154 
	C561.424683,391.497162 561.439026,389.898865 561.439026,386.608337 
	C569.090454,390.921082 575.771240,394.435547 582.123962,398.466888 
	C583.490356,399.333954 584.345459,402.083435 584.302307,403.939423 
	C582.646240,475.237732 580.828552,546.532227 579.097656,617.828857 
	C577.957153,664.805847 576.815796,711.783508 575.962097,758.766052 
	C575.859436,764.415100 574.682190,768.341614 569.063782,770.254395 
	C567.374512,770.829529 565.847839,771.882263 564.424805,772.623413 
	C565.015747,745.505188 565.604126,718.502563 566.192383,691.000000 
z"/>
<path fill="#80E4F4" opacity="1.000000" stroke="none" 
	d="
M528.013000,686.997192 
	C524.984863,584.954468 521.969727,483.410309 518.929138,381.010254 
	C525.381653,381.480835 531.394104,381.919342 537.774902,382.384705 
	C539.296326,514.680969 532.718018,646.741516 544.351990,778.921509 
	C540.438232,779.516724 536.051147,780.183899 531.182556,780.924377 
	C530.125305,749.631775 529.075623,718.563721 528.013000,686.997192 
z"/>
<path fill="#79CCDD" opacity="1.000000" stroke="none" 
	d="
M505.004089,771.975586 
	C505.004669,644.690002 504.999481,517.902527 505.056152,391.115112 
	C505.057068,389.059906 505.813629,387.005035 506.217590,384.950012 
	C506.687744,385.045044 507.157928,385.140106 507.628082,385.235168 
	C511.589539,517.095154 515.551025,648.955139 519.522156,781.136719 
	C514.912292,781.136719 510.306152,781.136719 505.004089,781.136719 
	C505.004089,778.328552 505.004089,775.401123 505.004089,771.975586 
z"/>
</svg>