<?xml version="1.0" standalone="no"?>
<!DOCTYPE svg PUBLIC "-//W3C//DTD SVG 20010904//EN"
 "http://www.w3.org/TR/2001/REC-SVG-20010904/DTD/svg10.dtd">
<svg version="1.0" xmlns="http://www.w3.org/2000/svg"
 width="600.000000pt" height="600.000000pt" viewBox="0 0 600.000000 600.000000"
 preserveAspectRatio="xMidYMid meet">
<g transform="translate(0.000000,600.000000) scale(0.100000,-0.100000)"
fill="#982abc" stroke="none">
<path d="M226 5542 c-33 -107 -39 -366 -12 -457 34 -112 94 -207 203 -317 31
-32 53 -58 49 -58 -7 0 -148 79 -208 117 -21 12 -40 23 -43 23 -11 0 -4 -49
14 -103 52 -150 160 -296 321 -433 50 -42 90 -78 90 -80 0 -2 -10 1 -22 5 -19
8 -182 75 -236 98 -28 12 66 -187 133 -282 82 -115 204 -211 415 -324 52 -28
91 -51 85 -51 -5 0 -61 13 -122 29 -62 16 -113 27 -113 24 0 -2 21 -31 46 -64
162 -210 343 -345 535 -399 39 -11 74 -22 77 -25 3 -3 -51 -5 -119 -5 l-124
-1 70 -65 c87 -81 196 -155 272 -185 47 -18 79 -23 168 -23 61 -1 124 2 140 6
l30 7 -32 -14 c-17 -8 -67 -24 -110 -37 -43 -12 -80 -23 -81 -24 -8 -5 17 -38
63 -85 107 -109 225 -127 361 -55 38 20 94 59 124 86 30 27 57 46 61 42 3 -4
11 -32 18 -63 15 -71 60 -165 100 -211 17 -20 31 -38 31 -42 0 -3 -18 -6 -41
-6 -34 0 -47 -6 -80 -40 -36 -36 -53 -43 -129 -53 -8 -1 -25 -17 -37 -36 -31
-45 -30 -102 2 -166 l26 -50 -75 -76 c-95 -97 -108 -133 -76 -207 26 -59 98
-132 183 -182 31 -19 57 -38 57 -41 0 -22 -280 -176 -442 -244 -38 -15 -68
-31 -68 -35 0 -14 65 -66 121 -98 69 -39 149 -62 213 -62 43 0 48 -2 36 -14
-18 -17 -135 -56 -167 -56 -34 0 -29 -13 25 -62 83 -74 132 -93 239 -93 l92 0
-82 -76 -82 -77 50 -8 c28 -5 104 -9 170 -9 109 1 125 3 178 28 62 28 164 123
192 178 9 17 18 29 20 27 2 -2 -3 -32 -12 -68 -29 -126 -4 -202 126 -375 46
-60 97 -136 114 -167 18 -32 34 -58 37 -57 3 0 16 22 29 48 13 27 62 100 108
163 47 62 99 141 116 176 27 59 29 69 25 150 -3 48 -8 96 -12 107 -5 13 1 9
15 -10 62 -80 126 -137 188 -168 63 -31 70 -32 186 -32 66 0 143 4 170 8 l50
9 -83 76 -84 77 94 0 c109 0 158 20 242 96 l49 45 -101 32 c-56 18 -104 37
-107 42 -4 6 13 10 42 10 64 1 125 15 188 46 57 28 146 93 152 110 2 6 -22 22
-54 34 -98 39 -330 158 -399 204 l-66 44 74 47 c90 58 123 87 159 144 55 86
30 166 -83 266 l-55 48 28 55 c32 61 36 94 15 144 -20 47 -33 56 -91 62 -42 5
-55 12 -81 42 -25 29 -40 37 -77 41 -26 3 -47 8 -47 10 0 3 13 22 29 42 42 53
77 128 97 207 10 38 20 71 21 73 2 3 20 -11 41 -31 98 -95 207 -148 302 -148
68 0 158 48 220 118 54 61 59 72 33 72 -19 0 -207 60 -201 64 2 2 40 -2 86 -8
188 -23 310 26 516 208 l68 61 -123 5 -124 5 90 28 c200 64 368 189 520 387
23 30 44 60 48 66 4 7 -40 0 -106 -17 -61 -16 -119 -29 -127 -29 -8 0 21 19
65 41 209 107 340 205 424 317 51 66 133 222 146 274 l7 27 -131 -53 c-72 -29
-131 -51 -131 -49 0 2 15 16 33 31 140 116 265 254 321 354 36 65 85 213 74
224 -4 3 -61 -26 -129 -65 -67 -39 -124 -71 -126 -71 -3 0 25 33 63 73 145
156 185 231 204 382 11 90 1 234 -23 345 l-12 52 -50 -78 c-77 -123 -188 -265
-266 -343 -39 -39 -75 -71 -79 -71 -4 0 -1 39 6 88 20 132 18 134 -39 36 -116
-198 -236 -356 -326 -432 l-49 -41 -8 77 -9 77 -39 -70 c-46 -83 -134 -216
-176 -265 l-30 -35 6 81 c4 45 3 99 0 119 l-7 38 -33 -75 c-66 -152 -162 -283
-351 -477 -136 -139 -242 -221 -360 -276 -122 -57 -240 -90 -284 -78 -30 8
-26 17 16 37 l36 17 -33 20 -33 21 54 30 54 31 -57 12 c-67 13 -99 39 -134
107 -13 26 -34 54 -46 63 -148 104 -189 126 -228 123 -22 -1 -57 9 -95 28 -58
28 -65 29 -205 29 -140 0 -147 -1 -205 -29 -36 -18 -73 -29 -95 -28 -39 1 -63
-10 -174 -83 -63 -41 -81 -59 -100 -100 -35 -72 -70 -100 -149 -114 l-42 -7
47 -30 c26 -16 48 -32 48 -35 0 -3 -12 -11 -27 -18 l-28 -13 24 -19 c13 -10
31 -19 40 -19 14 -1 14 -2 -2 -15 -23 -17 -66 -12 -172 22 -179 57 -293 133
-482 325 -180 182 -271 302 -337 443 -18 39 -38 81 -44 95 -9 20 -11 2 -9 -97
1 -66 -2 -119 -6 -116 -21 13 -130 171 -178 258 -29 52 -54 93 -56 91 -2 -1
-7 -36 -11 -77 l-7 -73 -73 69 c-84 79 -189 219 -287 383 -37 61 -68 112 -69
112 -1 0 4 -45 12 -101 8 -55 11 -103 8 -106 -18 -18 -214 213 -327 384 -49
74 -69 98 -73 85z m89 -167 c77 -111 156 -203 248 -292 89 -85 103 -111 95
-179 -5 -49 -32 -41 -116 32 -42 37 -86 75 -97 83 -32 26 98 -136 207 -256 34
-39 72 -96 96 -147 22 -46 52 -103 67 -126 15 -23 25 -44 23 -46 -2 -2 -21 8
-43 23 -33 22 -37 23 -31 7 31 -76 31 -104 1 -104 -8 0 -61 30 -117 68 -129
84 -141 91 -98 52 84 -75 170 -139 237 -179 83 -47 103 -71 169 -196 26 -49
60 -108 76 -129 55 -77 20 -101 -69 -48 -78 47 -163 92 -163 88 0 -9 156 -114
240 -162 99 -56 145 -90 264 -196 184 -163 393 -267 534 -268 36 0 72 -15 72
-30 0 -21 -75 -20 -229 5 -90 14 -165 24 -167 22 -2 -1 68 -20 154 -41 269
-67 352 -102 352 -150 0 -49 -69 -76 -230 -90 -25 -2 16 -1 90 3 286 13 320 8
320 -44 0 -34 -36 -73 -119 -128 -109 -71 -31 -43 105 38 39 24 64 15 64 -24
0 -41 -83 -113 -190 -165 -131 -63 -200 -56 -307 31 -24 19 -43 40 -43 46 0 7
37 25 83 41 80 28 341 155 333 163 -2 2 -43 -8 -91 -22 -222 -64 -376 -80
-470 -47 -58 20 -168 91 -240 155 l-50 44 295 8 c162 4 304 11 315 16 17 6 15
8 -11 8 -75 2 -308 23 -390 36 -115 18 -246 63 -323 109 -73 45 -189 152 -254
235 -27 33 -46 61 -44 61 3 0 114 -27 248 -59 134 -33 245 -58 247 -57 1 2
-39 20 -90 41 -123 51 -340 163 -462 239 -102 64 -220 170 -273 246 -38 56
-105 181 -100 187 3 2 20 -3 38 -11 90 -40 382 -156 385 -153 2 2 -39 34 -92
71 -203 144 -341 276 -423 404 -31 49 -95 191 -88 198 1 2 49 -24 106 -57 57
-32 105 -59 107 -59 1 0 42 -23 91 -51 146 -85 153 -85 68 -8 -207 187 -326
326 -367 427 -21 51 -23 73 -23 222 0 159 7 214 24 194 4 -5 29 -40 56 -79z
m5452 -64 c10 -188 -24 -307 -124 -426 -46 -55 -175 -184 -298 -298 -47 -44
-36 -39 165 73 118 66 218 120 223 120 4 0 7 -5 7 -11 0 -19 -68 -157 -101
-206 -78 -113 -276 -292 -461 -417 -32 -22 -58 -40 -58 -42 0 -1 99 37 220 86
121 49 220 84 220 79 0 -5 -12 -33 -26 -62 -80 -158 -206 -284 -398 -396 -112
-66 -349 -185 -424 -213 -103 -39 -39 -29 188 26 123 31 226 53 228 51 7 -7
-83 -112 -152 -178 -167 -160 -331 -219 -685 -247 -74 -5 -149 -10 -165 -10
-22 -1 -27 -3 -16 -9 8 -5 148 -11 310 -15 162 -4 296 -8 298 -10 8 -9 -171
-141 -235 -173 -121 -60 -259 -55 -507 19 -54 16 -101 27 -103 24 -8 -8 271
-143 346 -167 39 -13 71 -26 71 -30 0 -4 -21 -26 -47 -48 -56 -50 -135 -76
-201 -67 -85 12 -193 74 -274 159 -31 33 -34 45 -15 72 13 17 16 17 58 -12 42
-28 158 -83 175 -83 4 0 -19 16 -52 36 -82 49 -134 101 -134 135 0 57 26 61
330 46 80 -4 141 -5 135 -2 -5 2 -64 11 -129 20 -159 20 -200 49 -143 103 36
34 101 58 297 107 102 26 187 50 190 52 3 3 -8 3 -25 0 -16 -3 -96 -16 -178
-28 -120 -18 -152 -20 -174 -10 -40 18 -18 30 83 45 191 28 354 120 579 327
58 53 113 91 210 143 60 33 235 153 235 161 0 2 -52 -26 -115 -61 -167 -94
-193 -84 -111 44 24 37 57 95 75 129 42 84 82 127 158 169 77 43 268 194 246
194 -5 0 -53 -32 -108 -70 -109 -76 -145 -87 -145 -45 0 15 7 40 16 56 21 41
15 44 -26 14 -50 -37 -54 -31 -15 29 18 29 52 91 74 137 29 62 62 108 123 175
46 50 112 129 148 175 l64 84 -106 -97 c-132 -121 -155 -126 -149 -33 3 53 21
82 83 136 69 60 182 193 265 311 52 75 57 79 65 58 5 -13 11 -71 15 -129z
m-5052 -263 c85 -128 160 -221 245 -302 l83 -79 8 -81 c28 -254 126 -476 283
-643 43 -45 75 -83 72 -83 -4 0 -23 7 -43 15 -20 8 -38 13 -40 11 -10 -9 63
-103 127 -166 80 -78 194 -145 304 -179 68 -21 102 -25 213 -25 73 -1 133 -4
133 -7 0 -11 -34 -36 -80 -59 -100 -51 -241 -34 -415 50 -238 114 -435 304
-607 583 -61 100 -168 300 -168 315 0 6 42 -16 93 -48 50 -32 94 -57 95 -55 2
2 -14 27 -36 57 -41 55 -125 215 -158 302 -32 88 -26 32 10 -75 18 -57 32
-105 31 -107 -5 -6 -72 120 -96 178 -34 85 -67 214 -89 341 -21 124 -22 129
-16 129 1 0 25 -33 51 -72z m4614 12 c-24 -148 -43 -233 -71 -320 -31 -96 -82
-208 -113 -245 -19 -23 -20 -29 25 109 18 53 30 99 28 101 -2 3 -23 -43 -47
-100 -44 -108 -102 -211 -154 -279 -35 -45 -34 -44 91 34 45 27 82 48 82 45 0
-13 -96 -195 -154 -293 -139 -233 -296 -408 -472 -525 -265 -176 -491 -214
-619 -104 l-39 34 110 -5 c137 -5 238 18 373 84 71 35 112 64 172 121 70 67
145 161 136 170 -2 2 -21 -4 -42 -12 -20 -9 -39 -15 -41 -13 -2 2 25 33 59 69
160 165 263 395 292 654 9 74 20 94 100 170 75 72 175 195 239 294 26 40 49
72 51 70 2 -2 -1 -29 -6 -59z m-4190 -395 c34 -49 86 -118 115 -151 50 -57 56
-69 75 -155 22 -96 55 -178 91 -229 11 -15 20 -31 20 -34 0 -3 -22 3 -50 14
-27 11 -50 17 -50 13 0 -4 19 -35 41 -70 63 -96 163 -183 272 -237 90 -43 230
-85 291 -87 17 0 40 -4 51 -8 16 -6 10 -11 -33 -25 -28 -10 -52 -21 -52 -25 0
-10 222 -31 322 -31 74 0 77 -1 98 -31 25 -35 23 -39 -22 -48 l-33 -7 49 -32
c27 -17 53 -33 59 -35 5 -1 2 -17 -8 -36 -23 -46 -35 -138 -28 -224 l6 -72 16
45 c19 55 39 90 50 90 4 0 12 -48 16 -107 4 -60 9 -119 10 -132 1 -14 -2 -45
-7 -70 -4 -24 -6 -46 -3 -49 2 -2 16 21 32 52 27 55 43 71 43 40 0 -30 50
-119 90 -161 47 -51 56 -54 35 -13 -30 59 -14 50 52 -27 36 -43 76 -100 88
-128 47 -106 45 -104 40 -65 -10 82 -15 160 -10 160 14 0 87 -131 107 -192
l23 -70 10 49 11 48 17 -58 c10 -32 21 -55 26 -53 5 3 14 26 21 51 17 60 30
66 30 16 0 -53 13 -52 30 2 21 73 90 197 109 197 4 0 4 -30 0 -67 -13 -113
-10 -123 15 -56 13 35 30 71 37 80 48 62 134 162 137 159 2 -2 -4 -21 -13 -42
l-16 -39 31 30 c45 43 70 80 96 142 l22 55 33 -61 c18 -33 35 -59 36 -57 2 2
-1 25 -8 52 -8 37 -8 81 2 183 l13 133 23 -26 c12 -14 25 -43 29 -63 6 -31 8
-34 15 -18 16 41 9 188 -11 245 -25 70 -25 66 8 74 15 3 41 17 57 31 29 24 29
25 7 25 -13 0 -33 5 -44 11 -20 11 -20 12 13 40 31 26 41 29 109 29 90 0 292
19 303 29 4 4 -16 15 -45 26 -61 22 -55 27 67 45 154 23 315 100 418 199 35
33 137 171 137 185 0 3 -23 -3 -50 -14 -28 -11 -50 -18 -50 -17 0 2 20 41 44
88 24 47 49 112 56 145 21 103 41 144 101 211 32 35 79 98 105 139 26 40 50
74 54 74 4 0 5 -35 3 -77 -8 -169 -54 -355 -120 -487 -19 -37 -36 -66 -38 -65
-2 2 7 42 19 89 36 135 40 177 8 85 -65 -182 -137 -302 -250 -411 -59 -59 -71
-74 -52 -70 14 3 48 8 75 11 l50 6 -76 -74 c-87 -85 -184 -146 -290 -180 -70
-23 -159 -42 -159 -33 0 2 41 18 91 36 49 18 88 34 86 36 -2 2 -35 -7 -74 -20
-101 -34 -206 -50 -290 -42 l-73 6 14 -28 c21 -41 91 -101 145 -125 39 -17 43
-21 26 -28 -11 -4 -47 -11 -80 -15 l-59 -7 53 -48 53 -47 -33 -17 c-33 -18
-111 -17 -154 1 -17 7 -16 3 8 -38 15 -26 27 -49 27 -51 0 -2 -13 -7 -30 -10
-44 -9 -65 -52 -85 -175 -18 -115 -56 -245 -78 -277 -13 -17 -15 -15 -22 33
-4 29 -10 54 -14 57 -5 2 -14 -15 -21 -38 -30 -103 -62 -132 -125 -115 -23 6
-57 8 -77 4 -50 -9 -105 -66 -119 -121 -11 -42 -22 -55 -32 -37 -10 16 35 109
69 145 43 44 34 48 -19 8 -46 -35 -70 -65 -90 -113 l-15 -36 -164 2 c-89 1
-169 5 -176 9 -6 5 -19 23 -28 40 -21 42 -72 95 -109 114 l-30 15 32 -33 c33
-35 72 -111 73 -141 0 -9 -8 -17 -17 -17 -10 -1 -34 -4 -54 -7 -35 -6 -37 -4
-44 25 -10 46 -42 79 -87 92 -31 8 -38 13 -27 20 50 31 144 -17 187 -96 11
-19 11 -19 12 -1 0 27 -37 88 -68 111 -28 21 -107 27 -148 12 -36 -13 -79 33
-105 111 -22 63 -23 65 -30 37 -4 -16 -7 -45 -8 -64 -3 -94 -69 79 -100 262
-20 118 -39 156 -87 172 -40 13 -40 12 -17 38 11 12 26 33 33 45 11 22 10 23
-12 15 -12 -4 -51 -8 -85 -8 -47 0 -67 4 -80 18 -17 17 -17 19 1 29 11 6 35
25 54 43 l35 32 -59 7 c-101 13 -107 19 -48 49 64 32 110 71 129 108 8 15 15
30 15 33 0 3 -33 3 -73 0 -85 -8 -175 6 -279 41 -39 13 -74 23 -76 21 -2 -2
38 -18 87 -36 50 -18 91 -35 91 -37 0 -7 -71 7 -145 28 -123 36 -285 139 -350
225 l-27 36 48 -7 c27 -3 60 -8 74 -11 19 -4 10 8 -41 54 -117 108 -197 235
-259 416 -16 44 -29 76 -29 69 -1 -17 35 -172 49 -207 21 -56 1 -37 -33 30
-44 87 -82 202 -101 302 -15 81 -33 291 -23 282 2 -3 32 -45 66 -95z m244
-167 c110 -166 340 -412 487 -522 126 -94 273 -154 403 -165 l69 -6 13 -38 c7
-21 9 -40 4 -43 -5 -3 -42 -11 -82 -19 l-72 -13 80 -2 80 -3 -84 -10 c-50 -5
-117 -6 -170 -1 l-86 9 80 32 c44 17 71 32 60 32 -196 7 -406 70 -542 162 -37
25 -43 27 -28 10 11 -13 54 -46 95 -73 88 -59 56 -59 -50 0 -63 35 -230 188
-230 211 0 6 28 0 66 -14 81 -31 83 -31 57 -2 -43 45 -133 266 -133 324 0 9
-3 14 -6 11 -5 -6 11 -111 23 -152 3 -11 1 -16 -5 -12 -13 8 -58 144 -71 216
-13 74 -22 150 -17 150 2 0 29 -37 59 -82z m3284 9 c-7 -77 -47 -232 -73 -276
l-15 -26 6 35 c17 105 13 107 -19 9 -20 -58 -54 -133 -76 -167 l-39 -61 67 24
c36 13 68 23 70 21 2 -2 -20 -31 -47 -64 -54 -65 -142 -133 -228 -176 -79 -40
-85 -31 -13 19 36 24 81 58 100 75 33 30 32 30 -19 -5 -134 -88 -273 -137
-450 -156 -58 -6 -107 -12 -108 -13 -1 -1 33 -15 75 -31 l77 -30 -88 -9 c-55
-5 -120 -5 -170 1 l-82 10 80 3 80 2 -74 14 c-41 7 -78 17 -83 22 -5 5 -2 24
6 44 15 34 17 35 83 41 76 7 183 40 276 87 206 105 487 382 625 617 21 35 39
63 41 63 2 0 1 -33 -2 -73z m-1567 -186 c31 -5 71 -16 90 -23 l34 -14 -60 -42
c-32 -23 -57 -42 -54 -42 3 0 37 13 75 30 81 34 124 37 180 11 72 -32 73 -44
11 -79 -70 -40 -84 -61 -18 -28 94 47 140 37 183 -40 17 -30 49 -70 71 -88
l40 -35 -33 -3 -33 -3 35 -39 34 -39 -29 7 c-25 6 -28 5 -21 -11 18 -43 17
-118 -3 -170 -11 -29 -16 -51 -12 -48 4 3 22 -1 40 -9 l32 -13 -27 -22 c-15
-11 -35 -21 -43 -21 -11 0 -6 -10 17 -34 36 -37 30 -46 -32 -40 -35 3 -49 -8
-27 -21 32 -20 89 -190 70 -209 -7 -7 -10 -6 -10 2 0 6 -18 21 -41 33 l-41 20
7 -51 c4 -29 2 -87 -6 -138 l-13 -87 -22 70 -22 70 -1 -71 c-1 -39 -9 -95 -18
-125 l-16 -54 -12 60 -11 60 -12 -51 c-16 -64 -42 -105 -114 -184 -60 -66 -69
-64 -48 10 l9 35 -52 -56 c-29 -30 -67 -76 -84 -102 -33 -51 -49 -44 -33 14 5
18 8 34 6 36 -4 4 -48 -87 -67 -139 -7 -21 -16 -38 -19 -38 -3 0 -23 41 -44
90 -21 50 -40 90 -42 90 -3 0 -2 -22 2 -50 4 -27 5 -50 2 -50 -3 0 -19 21 -36
48 -44 65 -134 162 -128 137 2 -11 8 -36 12 -55 l6 -35 -21 20 c-12 10 -47 50
-78 88 -42 50 -61 84 -73 130 -17 61 -18 62 -24 27 -3 -19 -7 -48 -9 -65 -2
-27 -5 -24 -20 24 -9 30 -17 75 -18 100 0 43 -17 105 -18 71 -1 -8 -6 -32 -12
-54 -18 -66 -31 -26 -33 102 l-1 120 -25 -10 c-14 -5 -36 -19 -49 -31 l-24
-22 7 48 c8 53 32 113 67 165 l22 33 -40 -4 c-58 -7 -74 6 -40 33 35 27 34 33
-5 51 -40 17 -46 35 -16 43 46 12 50 19 33 59 -17 42 -20 123 -5 162 10 26 9
27 -16 21 l-26 -7 31 38 32 38 -36 3 -36 3 40 30 c23 16 55 53 71 83 17 30 38
60 46 67 23 19 85 14 133 -10 56 -29 44 -9 -16 26 l-46 27 33 28 c61 50 127
50 230 -1 68 -34 65 -18 -6 26 -24 15 -44 31 -44 34 0 10 53 30 106 38 69 12
149 12 214 2z m-644 -1739 c-16 -16 -18 -16 -32 2 -8 11 -14 35 -14 53 l0 34
32 -36 c29 -34 30 -37 14 -53z m1125 15 c-12 -30 -23 -34 -41 -12 -9 11 -6 21
17 51 27 37 28 37 31 13 2 -14 -2 -37 -7 -52z m-126 3 c17 -6 14 -9 -18 -15
-54 -11 -86 -39 -93 -86 -7 -40 -15 -45 -61 -33 -30 8 -29 22 7 71 45 61 109
86 165 63z m-870 -54 c27 -11 35 -22 40 -50 9 -43 -1 -59 -31 -53 -18 3 -25
-2 -33 -24 -13 -37 -22 -36 -44 0 -19 33 -47 46 -77 36 -26 -8 -25 3 3 33 17
20 18 24 5 19 -26 -9 -23 19 4 37 28 20 88 20 133 2z m965 -6 c25 -25 26 -42
3 -33 -14 6 -13 2 5 -21 25 -32 30 -55 7 -36 -21 18 -62 4 -82 -28 -9 -15 -18
-29 -20 -31 -8 -11 -33 25 -34 48 0 14 -3 20 -6 14 -5 -15 -49 -18 -57 -5 -3
5 -1 26 5 46 8 28 19 41 42 51 48 21 113 19 137 -5z m-1154 -32 c-4 -18 -9
-49 -12 -69 -6 -35 -7 -36 -35 -26 -21 8 -37 8 -59 0 -27 -10 -30 -9 -30 9 0
52 60 118 108 118 34 0 34 -1 28 -32z m1299 -3 c46 -48 63 -131 20 -95 -15 12
-53 10 -87 -5 -15 -6 -18 -1 -18 31 0 22 -4 54 -9 72 -10 32 -9 32 26 32 28 0
43 -8 68 -35z m-1463 -77 c-2 -20 1 -39 7 -43 6 -3 11 -15 11 -25 0 -16 -5
-18 -35 -13 -29 5 -41 1 -60 -17 l-25 -23 0 37 c0 73 41 130 90 123 11 -2 14
-12 12 -39z m1581 33 c27 -11 57 -74 57 -121 0 -35 -10 -38 -28 -9 -12 18 -21
21 -58 16 -24 -2 -44 -3 -44 -2 0 1 7 19 15 39 9 20 13 47 9 61 -7 28 6 32 49
16z m-583 -11 c107 -14 202 -55 224 -99 20 -38 20 -44 -2 -90 -14 -27 -19 -65
-21 -142 -2 -117 9 -204 46 -362 14 -60 23 -110 22 -111 -10 -8 -213 -56 -284
-67 -114 -18 -350 -15 -465 5 -139 24 -250 56 -250 71 0 7 11 60 24 117 47
196 56 420 21 487 -24 48 -19 80 20 116 39 38 105 62 197 74 93 12 371 13 468
1z m-746 -36 c11 -11 16 -34 16 -77 l-1 -62 -34 37 c-19 21 -35 48 -35 60 0
19 2 20 10 8 8 -12 10 -10 10 11 0 22 7 39 16 39 1 0 10 -7 18 -16z m1059 -24
c-1 -22 2 -29 7 -20 16 26 22 2 6 -27 -21 -41 -45 -60 -55 -44 -12 19 -6 98 9
116 20 24 35 12 33 -25z m154 -6 c3 -8 0 -27 -6 -41 -11 -23 -10 -25 3 -13 20
16 20 7 1 -30 -14 -26 -72 -77 -80 -69 -7 8 17 126 31 147 17 26 42 29 51 6z
m-1343 -13 c11 -12 20 -43 23 -81 6 -59 5 -62 -13 -52 -24 13 -47 39 -64 72
-13 24 -12 24 5 10 17 -14 17 -14 7 7 -29 54 3 87 42 44z m128 -113 c43 -27
48 -45 48 -172 0 -123 -45 -392 -71 -420 -4 -5 -37 5 -74 23 -76 35 -73 20
-35 156 15 56 24 120 27 212 5 127 6 132 25 122 28 -15 29 -9 13 46 -8 26 -15
64 -15 84 l0 36 23 -32 c12 -18 38 -42 59 -55z m1104 -19 c-20 -67 -20 -72 3
-59 32 16 34 13 27 -47 -9 -85 17 -259 60 -396 4 -14 -8 -23 -61 -47 -37 -17
-70 -30 -74 -30 -8 0 -43 144 -62 250 -6 36 -11 121 -11 190 0 120 1 125 23
139 13 8 42 34 64 57 38 40 40 41 43 19 2 -13 -4 -47 -12 -76z m-1352 68 c19
-28 48 -109 41 -115 -8 -8 -63 19 -82 41 -17 20 -17 20 1 13 19 -6 19 -6 3 12
-17 19 -23 53 -10 65 13 13 33 7 47 -16z m1572 15 c13 -8 13 -70 0 -91 -10
-15 -76 -45 -83 -37 -8 8 25 97 44 118 18 20 23 21 39 10z m-1466 -130 l0 -25
-19 24 c-10 13 -22 35 -26 49 l-7 25 26 -24 c14 -14 26 -35 26 -49z m1356 31
c-8 -16 -22 -36 -32 -44 -15 -13 -16 -12 -9 11 8 26 45 73 52 66 3 -2 -2 -17
-11 -33z m-1481 -43 c16 -11 54 -25 84 -31 l54 -11 -6 -92 c-7 -93 -47 -280
-64 -297 -11 -11 -144 73 -194 124 -79 79 -87 129 -33 203 48 64 105 124 119
124 5 0 23 -9 40 -20z m1625 0 c35 -19 140 -150 140 -176 0 -64 -62 -135 -190
-221 -55 -36 -73 -44 -80 -34 -22 37 -55 212 -55 300 l0 93 68 18 c38 10 71
21 74 24 9 9 22 7 43 -4z m-1570 -511 c-14 -11 -46 -34 -72 -51 -27 -17 -47
-33 -45 -34 1 -2 23 4 47 12 47 16 84 12 113 -13 24 -22 22 -89 -4 -137 l-20
-38 29 20 c36 27 93 89 128 142 19 28 34 40 50 40 13 0 24 -6 24 -12 0 -17
-34 -72 -78 -128 -31 -40 -32 -42 -6 -18 45 42 78 51 105 29 22 -17 22 -21 10
-62 -7 -24 -22 -60 -34 -79 -46 -79 13 -1 79 103 58 92 75 113 97 115 15 2 27
1 27 -3 0 -10 -42 -88 -78 -145 l-35 -55 51 48 c56 52 81 58 113 26 24 -24 21
-59 -11 -134 -38 -89 -9 -42 60 95 62 124 73 140 95 140 14 0 25 -3 25 -6 0
-3 -13 -44 -30 -91 -36 -101 -37 -111 -7 -59 28 50 40 54 56 19 12 -25 28
-165 31 -263 2 -69 18 4 26 116 6 108 23 174 43 174 6 0 20 -18 31 -40 11 -22
22 -40 25 -40 2 0 -11 43 -29 95 l-33 95 23 0 c29 0 49 -28 108 -154 25 -55
48 -97 51 -94 3 3 -2 21 -10 41 -22 54 -20 104 6 117 30 17 63 5 111 -38 l41
-37 -39 65 c-36 60 -64 114 -64 125 0 3 11 5 24 5 18 0 32 -13 57 -52 81 -132
112 -178 116 -175 2 2 -6 24 -17 48 -24 54 -25 82 -4 104 19 19 45 13 94 -23
l35 -26 -36 44 c-36 47 -79 113 -79 124 0 3 11 6 25 6 18 0 35 -14 64 -52 47
-64 147 -161 136 -133 -34 85 -37 105 -25 135 22 53 76 57 185 15 11 -5 -15
15 -57 44 -43 29 -80 57 -84 62 -22 37 43 7 165 -74 43 -29 136 -80 205 -112
69 -33 125 -62 126 -65 0 -10 -116 -78 -165 -96 -36 -14 -76 -19 -145 -19 -89
0 -99 3 -157 34 -34 18 -81 49 -105 69 l-43 36 40 -43 c80 -85 226 -178 330
-211 22 -7 44 -16 48 -20 10 -9 -28 -37 -89 -68 -122 -62 -275 -21 -401 107
l-56 56 30 -45 c28 -41 159 -175 258 -263 22 -19 37 -39 32 -43 -4 -4 -58 -8
-120 -8 -178 -1 -235 27 -340 166 -30 40 -89 136 -131 213 -42 77 -76 137 -76
134 0 -8 48 -147 94 -273 43 -115 54 -197 36 -260 -7 -26 -41 -83 -82 -138
-39 -51 -93 -126 -120 -166 l-50 -73 -60 88 c-33 48 -80 113 -105 143 -107
129 -118 214 -52 400 75 212 99 283 99 289 0 3 -27 -45 -60 -107 -110 -212
-199 -332 -277 -374 -66 -36 -158 -51 -261 -42 l-85 7 140 136 c78 75 156 158
173 185 32 48 31 47 -37 -22 -94 -96 -177 -136 -278 -136 -55 0 -82 6 -126 27
-31 15 -64 36 -74 47 -17 19 -17 20 1 26 129 45 246 114 339 200 28 26 39 39
25 30 -14 -9 -45 -30 -70 -47 -91 -61 -207 -75 -321 -39 -61 18 -179 84 -179
98 1 4 58 35 128 69 70 34 172 91 227 126 93 60 133 79 145 69 3 -2 -6 -12
-20 -23z"/>
<path d="M2811 4004 c15 -16 41 -55 59 -86 17 -32 45 -69 62 -83 62 -52 139
-21 196 80 18 33 45 73 60 89 l27 29 -33 -22 c-18 -13 -45 -39 -60 -58 -71
-94 -83 -103 -121 -103 -44 1 -55 9 -109 80 -22 31 -56 66 -74 79 l-33 24 26
-29z"/>
<path d="M3304 3841 c-17 -11 -49 -41 -70 -67 -113 -139 -161 -177 -192 -152
-13 11 -14 10 -10 -2 3 -10 23 -17 54 -20 27 -3 59 -11 71 -18 80 -44 165 35
188 178 6 36 9 41 16 25 4 -11 8 -42 9 -70 l2 -50 14 45 c8 25 13 61 10 80
l-5 35 24 -28 c34 -39 33 -8 -1 32 -30 36 -64 40 -110 12z m10 -73 c-14 -81
-36 -130 -68 -149 -34 -20 -63 -24 -85 -10 -11 7 3 29 64 100 43 50 81 91 86
91 5 0 6 -15 3 -32z"/>
<path d="M2577 3832 c-10 -10 -17 -27 -16 -38 0 -17 1 -17 16 4 23 32 29 27
25 -21 -2 -24 3 -58 11 -77 l15 -35 1 62 c1 75 16 90 25 25 9 -67 52 -149 87
-167 36 -19 80 -19 105 0 10 8 36 15 56 15 42 0 68 8 68 21 0 6 -8 6 -18 0
-31 -16 -80 18 -162 114 -41 48 -86 93 -100 101 -36 20 -94 18 -113 -4z m258
-221 c-20 -20 -80 -6 -105 26 -21 27 -50 113 -50 147 1 16 21 -1 85 -69 71
-76 82 -92 70 -104z"/>
<path d="M2585 3575 c-4 -25 -5 -64 -2 -85 3 -27 1 -40 -8 -44 -23 -9 -48 -56
-55 -104 l-7 -46 26 32 c14 18 29 32 34 32 4 0 7 -22 7 -48 0 -52 24 -145 46
-176 12 -17 14 -15 25 28 6 25 15 48 19 51 9 6 84 -147 104 -214 9 -30 16 -67
16 -83 0 -37 16 -35 56 8 l34 35 57 -120 c32 -66 60 -121 63 -121 3 0 15 26
28 58 13 31 40 86 59 121 35 64 36 64 49 40 7 -14 24 -30 38 -37 24 -11 26
-10 31 26 11 63 36 134 78 217 l40 80 13 -30 c7 -16 13 -38 14 -47 0 -28 16
-21 33 15 24 50 40 123 35 162 -2 19 -2 35 2 35 10 0 26 -15 43 -40 l17 -24 0
24 c0 47 -21 99 -46 119 -20 16 -25 26 -20 46 3 13 3 50 0 81 l-7 58 -22 -50
c-28 -64 -68 -110 -116 -134 -57 -29 -86 -25 -138 18 -63 53 -83 62 -134 62
-31 0 -54 -7 -78 -25 -87 -63 -119 -77 -153 -71 -49 9 -114 71 -147 139 l-27
59 -7 -47z m468 -96 c12 -7 41 -29 64 -50 35 -32 50 -39 83 -39 23 0 54 7 70
15 17 9 30 12 30 7 0 -4 -26 -37 -58 -73 -82 -93 -94 -112 -136 -220 -45 -118
-85 -161 -128 -138 -37 20 -55 49 -89 143 -33 90 -66 143 -145 228 -24 26 -44
51 -44 57 0 5 18 1 40 -10 64 -31 81 -26 167 53 35 31 50 38 83 38 23 0 51 -5
63 -11z m317 -28 c-9 -18 -8 -21 8 -21 10 0 27 -7 38 -15 18 -15 17 -16 -15
-9 -30 6 -33 4 -27 -12 20 -49 18 -184 -3 -184 -4 0 -15 17 -25 37 -17 36 -18
37 -33 18 -30 -40 -85 -159 -113 -244 -27 -83 -28 -85 -39 -57 -6 16 -10 36
-7 45 20 73 14 72 -39 -9 -31 -47 -70 -114 -86 -150 l-30 -65 -34 70 c-36 72
-50 98 -101 177 l-31 46 5 -53 c2 -29 0 -61 -5 -70 -8 -14 -14 -4 -31 51 -28
91 -119 277 -132 269 -6 -3 -18 -21 -27 -38 -15 -29 -17 -30 -24 -12 -11 29
-11 130 1 161 10 26 10 26 -22 20 -31 -5 -32 -5 -14 9 11 8 28 15 38 15 16 0
17 3 8 21 -7 11 -9 23 -6 26 3 3 14 -14 25 -38 10 -24 49 -80 87 -124 48 -58
83 -113 124 -200 64 -136 103 -179 148 -169 52 13 96 70 143 189 30 77 58 122
113 184 25 28 60 77 78 110 18 33 34 56 36 51 2 -5 -2 -18 -8 -29z"/>
<path d="M2902 3287 c18 -24 34 -43 36 -42 1 1 -3 20 -10 41 -10 28 -19 40
-36 42 -22 3 -21 2 10 -41z"/>
<path d="M3074 3295 c-21 -51 -17 -65 7 -25 11 19 28 41 37 48 14 11 13 12 -7
12 -16 0 -26 -10 -37 -35z"/>
<path d="M2706 2035 c-3 -8 -15 -15 -26 -15 -11 0 -20 -4 -20 -10 0 -5 11 -10
24 -10 13 0 27 -6 30 -12 5 -10 7 -10 12 0 3 6 18 12 34 12 16 0 31 -6 34 -12
5 -10 7 -10 12 0 3 6 16 12 28 12 12 0 28 -6 35 -12 11 -10 14 -10 18 0 6 14
53 17 53 2 0 -5 7 -10 15 -10 8 0 15 5 15 10 0 15 57 12 64 -2 5 -10 7 -10 12
0 3 6 18 12 34 12 16 0 31 -6 34 -12 5 -10 7 -10 12 0 3 6 18 12 34 12 16 0
31 -6 34 -12 5 -10 7 -10 12 0 3 6 18 12 34 12 16 0 31 -6 34 -12 5 -10 7 -10
12 0 3 6 14 12 24 12 10 0 22 5 25 10 3 6 -3 10 -14 10 -11 0 -25 8 -30 18 -9
14 -12 15 -20 3 -13 -20 -61 -24 -61 -5 0 19 -16 18 -24 -1 -7 -21 -43 -19
-56 3 -10 16 -10 16 -20 0 -6 -10 -20 -18 -30 -18 -10 0 -24 8 -29 18 -9 15
-12 15 -20 2 -13 -19 -41 -19 -63 -1 -15 12 -18 12 -24 -3 -8 -20 -54 -22 -54
-1 0 8 -5 15 -10 15 -6 0 -13 -7 -16 -15 -4 -8 -17 -15 -30 -15 -15 0 -24 6
-24 15 0 8 -4 15 -9 15 -5 0 -11 -7 -15 -15 -3 -8 -15 -15 -26 -15 -11 0 -23
7 -26 15 -4 8 -10 15 -14 15 -4 0 -10 -7 -14 -15z"/>
</g>
</svg>
