<?xml version="1.0" standalone="no"?> <!DOCTYPE svg PUBLIC "-//W3C//DTD SVG 20010904//EN" "http://www.w3.org/TR/2001/REC-SVG-20010904/DTD/svg10.dtd"> <svg version="1.0" xmlns="http://www.w3.org/2000/svg" width="2000.000000pt" height="2000.000000pt" viewBox="0 0 2000.000000 2000.000000" preserveAspectRatio="xMidYMid meet"> <g transform="translate(0.000000,2000.000000) scale(0.100000,-0.100000)" fill="#daac00" stroke="none"> <path d="M5805 19588 c-8 -5 -16 -37 -20 -80 -4 -40 -13 -85 -20 -99 -8 -14 -17 -54 -21 -90 -4 -35 -13 -73 -19 -84 -7 -11 -16 -48 -19 -82 -4 -35 -13 -78 -21 -95 -7 -18 -16 -60 -20 -93 -4 -33 -13 -71 -20 -85 -7 -14 -16 -52 -20 -85 -4 -33 -13 -71 -20 -85 -7 -14 -16 -54 -20 -90 -4 -36 -13 -76 -20 -90 -7 -14 -16 -52 -20 -85 -4 -33 -13 -71 -20 -85 -7 -14 -16 -52 -20 -85 -4 -33 -13 -71 -20 -85 -7 -14 -15 -54 -19 -89 -4 -36 -13 -76 -20 -90 -8 -14 -17 -53 -21 -86 -4 -33 -13 -71 -20 -85 -7 -14 -16 -54 -20 -90 -4 -36 -13 -76 -20 -90 -7 -14 -16 -52 -20 -85 -4 -33 -13 -71 -20 -85 -7 -14 -16 -54 -20 -90 -4 -36 -13 -76 -20 -90 -7 -14 -16 -52 -20 -85 -4 -33 -14 -73 -20 -90 -7 -16 -16 -57 -20 -90 -5 -33 -13 -69 -20 -80 -7 -11 -16 -49 -20 -84 -3 -36 -12 -76 -19 -90 -8 -14 -17 -53 -21 -86 -4 -33 -13 -74 -20 -92 -7 -17 -17 -58 -20 -90 -4 -32 -13 -69 -20 -83 -7 -14 -16 -52 -19 -85 -4 -33 -13 -73 -20 -90 -8 -16 -17 -57 -21 -90 -4 -33 -13 -71 -20 -85 -7 -14 -16 -52 -20 -85 -4 -33 -12 -69 -18 -80 -6 -11 -16 -51 -23 -90 -7 -38 -19 -88 -27 -111 -9 -22 -17 -62 -19 -88 -3 -47 -3 -47 962 -46 531 0 1000 3 1043 7 105 8 113 -7 67 -127 -10 -25 -21 -70 -25 -100 -4 -30 -13 -66 -20 -80 -7 -14 -16 -52 -20 -85 -4 -33 -13 -71 -20 -85 -7 -14 -16 -54 -20 -90 -4 -35 -13 -74 -20 -85 -7 -11 -16 -49 -20 -85 -4 -36 -13 -76 -20 -90 -7 -14 -16 -52 -20 -85 -4 -33 -13 -71 -20 -85 -7 -14 -16 -51 -20 -83 -3 -32 -12 -73 -20 -90 -7 -18 -15 -55 -19 -84 -4 -28 -13 -67 -20 -85 -8 -18 -17 -60 -21 -93 -4 -33 -13 -69 -20 -80 -6 -11 -15 -49 -19 -84 -4 -36 -13 -76 -20 -90 -8 -14 -17 -53 -21 -86 -4 -33 -13 -71 -20 -85 -7 -14 -15 -54 -19 -89 -4 -36 -13 -76 -21 -90 -7 -14 -16 -53 -20 -86 -4 -33 -13 -71 -20 -85 -7 -14 -16 -51 -20 -83 -3 -32 -12 -73 -20 -90 -7 -18 -15 -57 -19 -87 -13 -110 -40 -153 -130 -213 -143 -94 -152 -98 -268 -99 -58 -1 -114 -7 -128 -14 -14 -6 -48 -15 -77 -19 -29 -4 -57 -13 -63 -20 -6 -8 -24 -17 -40 -20 -16 -3 -34 -13 -41 -21 -6 -8 -17 -14 -24 -14 -7 0 -24 -11 -39 -25 -15 -14 -32 -25 -38 -25 -6 0 -41 -24 -77 -53 -99 -80 -197 -137 -231 -136 -8 0 -37 13 -65 29 -27 16 -61 35 -75 41 -76 36 -108 49 -126 49 -11 0 -31 8 -44 18 -22 15 -52 17 -223 18 -168 1 -200 4 -215 18 -10 9 -24 16 -30 16 -6 0 -17 8 -24 18 -7 9 -23 23 -36 30 -12 6 -32 18 -44 25 -13 6 -32 19 -43 28 -11 9 -33 20 -50 23 -16 4 -37 13 -45 20 -8 7 -31 17 -50 23 -19 6 -66 23 -105 38 -93 34 -194 63 -283 80 -40 8 -81 19 -92 25 -10 6 -54 13 -97 16 -43 3 -100 13 -128 22 -67 23 -655 25 -694 4 -12 -8 -52 -18 -88 -23 -36 -5 -74 -16 -86 -24 -12 -8 -29 -15 -38 -15 -63 0 -265 -157 -284 -221 -4 -13 -16 -44 -27 -67 -18 -39 -20 -57 -16 -151 4 -71 11 -116 21 -132 8 -13 18 -42 22 -64 4 -22 12 -47 20 -55 7 -8 15 -28 19 -44 4 -16 16 -41 27 -54 10 -14 19 -30 19 -36 0 -32 226 -207 286 -222 14 -4 28 -12 31 -19 2 -7 19 -16 38 -19 18 -4 38 -13 44 -20 6 -7 30 -17 54 -20 23 -4 51 -13 63 -21 11 -7 43 -16 70 -20 27 -4 60 -13 74 -20 14 -7 66 -16 115 -20 50 -4 101 -12 115 -18 14 -6 126 -13 250 -16 192 -5 230 -9 253 -23 14 -10 33 -18 41 -18 8 0 36 -17 63 -37 79 -62 107 -80 133 -88 14 -4 32 -14 41 -21 8 -8 38 -17 65 -20 27 -4 60 -14 74 -23 21 -13 56 -16 210 -16 192 0 210 -3 210 -36 0 -19 -37 -80 -53 -87 -4 -2 -14 -18 -22 -35 -8 -18 -35 -68 -59 -112 -60 -108 -105 -191 -133 -245 -13 -25 -28 -52 -33 -60 -6 -8 -14 -26 -20 -40 -5 -14 -14 -32 -20 -40 -5 -8 -14 -26 -20 -40 -5 -14 -14 -32 -20 -40 -5 -8 -14 -26 -20 -40 -5 -14 -14 -32 -20 -40 -5 -8 -14 -26 -20 -40 -5 -14 -14 -32 -20 -40 -5 -8 -14 -26 -20 -40 -5 -14 -14 -32 -19 -40 -6 -8 -22 -42 -36 -75 -14 -33 -33 -73 -40 -90 -48 -103 -65 -145 -65 -158 0 -8 -7 -20 -15 -27 -8 -7 -17 -28 -21 -49 -4 -20 -12 -43 -19 -51 -7 -8 -16 -31 -20 -50 -4 -19 -13 -42 -20 -50 -7 -8 -16 -33 -20 -55 -3 -22 -13 -47 -20 -55 -7 -8 -16 -37 -20 -65 -4 -27 -13 -57 -20 -65 -7 -8 -16 -37 -20 -64 -4 -27 -13 -59 -20 -70 -7 -12 -16 -46 -19 -76 -4 -30 -12 -60 -17 -67 -6 -6 -15 -45 -20 -85 -6 -40 -16 -93 -24 -118 -7 -25 -16 -76 -20 -115 -3 -38 -12 -108 -20 -154 -10 -56 -15 -156 -15 -304 0 -220 0 -220 -41 -258 -22 -20 -52 -40 -66 -44 -15 -3 -38 -15 -51 -26 -14 -10 -28 -19 -33 -19 -8 0 -59 -33 -93 -60 -21 -16 -201 -196 -221 -220 -7 -8 -15 -25 -19 -36 -4 -12 -15 -29 -26 -39 -11 -10 -20 -27 -20 -37 0 -11 -9 -31 -20 -45 -11 -14 -20 -35 -20 -46 0 -11 -7 -28 -16 -38 -9 -10 -19 -44 -23 -76 -4 -32 -12 -68 -19 -80 -18 -32 -15 -247 3 -300 13 -36 13 -48 0 -90 -8 -26 -15 -64 -15 -83 0 -19 -8 -51 -18 -70 -11 -19 -22 -48 -26 -65 -4 -16 -16 -50 -27 -75 -11 -25 -26 -58 -34 -75 -40 -92 -95 -308 -95 -377 0 -44 62 -32 73 15 4 12 20 36 37 52 44 43 57 25 42 -58 -7 -36 -12 -125 -12 -198 -1 -281 -36 -365 -250 -589 -136 -142 -200 -224 -215 -271 -4 -13 -16 -40 -26 -59 -11 -19 -19 -46 -19 -60 0 -14 -7 -43 -15 -65 -20 -55 -19 -234 1 -310 34 -130 23 -215 -42 -336 -7 -14 -16 -53 -19 -85 -4 -33 -13 -79 -22 -103 -11 -30 -16 -84 -17 -175 -1 -119 1 -135 22 -179 24 -47 24 -47 90 -45 55 3 67 0 65 -12 -8 -53 -27 -128 -37 -150 -8 -14 -16 -49 -20 -79 -4 -30 -13 -68 -20 -85 -7 -18 -16 -58 -21 -91 -4 -32 -13 -68 -20 -79 -7 -12 -16 -50 -20 -86 -3 -36 -12 -74 -19 -85 -7 -11 -16 -49 -20 -84 -4 -36 -13 -76 -20 -90 -8 -14 -17 -53 -21 -86 -4 -33 -13 -71 -20 -85 -7 -14 -16 -52 -20 -85 -4 -33 -13 -71 -20 -85 -7 -14 -16 -51 -20 -83 -3 -32 -12 -73 -20 -90 -7 -18 -16 -59 -20 -91 -4 -33 -13 -69 -20 -80 -7 -12 -16 -50 -20 -86 -3 -36 -12 -74 -19 -85 -8 -11 -17 -50 -21 -85 -4 -36 -13 -74 -19 -85 -7 -11 -16 -49 -20 -84 -4 -36 -13 -76 -20 -90 -8 -14 -17 -53 -21 -86 -4 -33 -13 -71 -20 -85 -7 -14 -16 -52 -20 -85 -4 -33 -13 -71 -20 -85 -7 -14 -16 -51 -20 -83 -3 -32 -13 -73 -20 -90 -7 -18 -16 -59 -20 -92 -4 -33 -13 -71 -20 -85 -7 -14 -15 -49 -19 -79 -4 -30 -13 -66 -20 -80 -8 -14 -17 -55 -21 -91 -4 -36 -13 -76 -20 -90 -7 -14 -16 -52 -20 -85 -4 -33 -13 -71 -20 -85 -7 -14 -16 -52 -20 -85 -4 -33 -13 -69 -20 -80 -7 -11 -16 -45 -20 -75 -4 -30 -14 -62 -22 -72 -8 -9 -13 -29 -11 -45 3 -28 3 -28 83 -23 126 8 15242 6 15317 -2 67 -7 67 -7 87 46 11 29 23 82 27 117 4 35 12 75 19 89 7 14 16 51 20 83 3 32 13 73 20 90 7 18 16 59 20 92 4 33 13 71 20 85 7 14 16 54 20 90 4 36 13 74 20 85 7 11 16 50 20 85 4 36 13 76 20 90 7 14 16 54 20 90 4 36 13 76 20 90 7 14 16 51 20 83 3 32 12 73 20 90 7 18 16 59 20 92 4 33 12 69 18 80 7 11 17 52 23 90 7 39 17 88 23 110 22 84 42 173 54 240 7 39 18 79 24 90 6 11 14 49 18 85 4 36 14 77 21 92 8 15 14 40 14 55 0 16 7 53 16 83 8 30 21 87 28 125 6 39 17 79 23 90 6 11 14 49 18 85 4 36 13 74 19 85 7 11 16 49 20 84 4 36 13 76 21 90 7 14 16 55 20 91 4 36 13 76 20 90 7 14 16 51 20 83 3 32 13 73 20 90 7 18 16 59 20 92 4 33 13 71 20 85 7 14 16 52 20 85 4 33 13 71 20 85 7 14 15 54 19 89 4 36 13 76 21 90 7 14 16 53 20 86 4 33 14 73 20 90 7 16 16 57 20 90 4 33 14 72 21 87 8 15 14 40 14 55 0 16 7 53 16 83 8 30 21 87 28 125 6 39 17 79 23 90 6 11 14 49 18 85 4 36 13 76 20 90 7 14 16 52 20 85 4 33 13 71 20 85 7 14 16 54 20 90 4 36 13 76 20 90 7 14 16 52 20 85 4 33 13 71 20 85 7 14 16 52 20 85 4 33 12 69 18 80 6 11 16 54 23 95 7 41 17 93 23 115 22 82 42 172 55 240 7 39 18 81 23 95 6 14 14 52 18 85 4 33 13 72 21 87 8 15 14 40 14 55 0 16 7 53 16 83 8 30 21 87 28 125 7 39 17 79 23 90 6 11 14 49 18 85 4 36 13 76 20 90 7 14 16 52 20 85 4 33 13 71 20 85 7 14 16 51 20 83 3 32 12 73 20 90 7 18 16 59 20 92 4 33 13 71 20 85 7 14 16 52 20 85 4 33 13 71 20 85 7 14 16 45 19 70 4 25 14 62 23 83 21 49 8 60 -62 53 -71 -8 -1783 -8 -1795 -1 -6 3 -10 19 -10 34 0 16 -6 34 -14 40 -8 7 -17 27 -20 45 -4 19 -13 39 -21 46 -7 6 -17 25 -20 41 -4 16 -11 31 -16 35 -5 3 -16 20 -24 37 -18 38 -75 132 -99 161 -9 12 -46 59 -82 106 -36 47 -108 126 -160 177 -112 109 -114 118 -44 188 97 98 109 132 100 285 -4 55 -4 55 76 135 87 87 122 135 164 225 7 14 19 38 27 53 13 25 24 78 40 195 3 23 0 77 -7 118 -12 72 -14 76 -48 90 -24 10 -39 11 -46 4 -5 -5 -20 -10 -33 -10 -12 0 -30 -8 -40 -18 -10 -10 -38 -31 -63 -47 -47 -30 -66 -46 -103 -81 -40 -38 -59 -44 -89 -28 -21 11 -28 23 -34 61 -3 27 -12 55 -19 63 -8 8 -17 29 -21 45 -3 17 -13 38 -21 47 -8 9 -17 34 -19 55 -5 33 -1 43 33 78 41 44 83 101 83 114 0 5 8 19 19 32 10 13 22 35 26 49 4 14 13 32 20 40 7 8 16 26 20 40 4 14 13 32 20 40 7 8 16 26 20 39 19 61 139 208 190 232 11 6 31 16 45 24 18 11 60 15 151 15 126 0 126 0 173 -43 34 -32 46 -51 46 -72 0 -16 7 -36 15 -45 9 -10 16 -50 21 -115 3 -55 12 -112 20 -127 8 -15 14 -47 14 -72 0 -64 30 -78 112 -56 68 19 235 217 253 299 3 16 12 35 20 41 7 6 16 27 20 47 3 20 13 46 22 59 8 13 18 47 23 76 23 140 62 208 120 208 14 0 35 7 46 15 10 8 26 15 35 15 9 0 38 20 65 45 54 49 79 55 117 25 14 -11 29 -20 34 -20 41 0 336 -346 466 -548 58 -89 117 -152 143 -152 37 0 31 35 -21 119 -25 40 -45 75 -45 77 0 2 -20 32 -44 67 -24 34 -55 80 -70 102 -15 22 -39 53 -54 70 -15 16 -40 45 -55 65 -66 83 -107 129 -190 214 -133 138 -123 124 -102 132 11 5 21 1 27 -9 5 -10 14 -17 21 -17 16 0 133 -105 222 -199 181 -192 242 -251 258 -251 24 0 34 30 14 42 -10 5 -17 15 -17 23 0 8 -9 19 -21 25 -11 6 -23 19 -27 29 -14 37 -247 293 -340 374 -82 71 -86 78 -79 135 7 61 27 75 92 67 83 -10 293 -107 483 -222 21 -12 51 -29 68 -37 17 -8 36 -22 44 -30 17 -22 47 -20 60 4 11 20 -13 50 -86 105 -14 11 -34 28 -42 38 -9 9 -20 17 -24 17 -4 0 -24 12 -45 26 -21 14 -80 46 -131 71 -50 25 -95 49 -98 54 -3 5 -16 9 -28 9 -13 0 -29 6 -35 14 -7 8 -27 18 -44 22 -105 23 -178 151 -96 169 42 10 244 -14 312 -36 31 -10 72 -19 91 -19 19 0 53 -9 77 -20 24 -11 59 -20 78 -20 18 0 48 -8 65 -19 17 -10 53 -21 80 -25 27 -3 57 -12 65 -20 9 -7 35 -16 59 -19 24 -3 51 -12 60 -20 9 -9 35 -19 57 -22 22 -4 48 -14 57 -22 20 -18 62 -13 66 7 4 22 -56 80 -83 80 -12 0 -28 7 -35 15 -7 8 -27 17 -46 21 -18 3 -38 12 -45 20 -6 8 -23 14 -36 14 -14 0 -36 9 -50 20 -14 11 -37 20 -52 20 -14 0 -39 9 -56 20 -16 11 -43 20 -60 20 -16 0 -43 7 -59 15 -16 8 -54 18 -85 21 -31 4 -67 12 -81 19 -14 7 -54 16 -90 20 -35 4 -82 14 -104 21 -22 8 -66 15 -99 16 -89 2 -141 55 -107 108 13 20 128 18 161 -3 13 -9 42 -19 64 -23 22 -4 56 -15 75 -25 19 -11 44 -19 55 -19 11 0 34 -9 50 -20 18 -12 47 -20 73 -20 39 0 43 2 40 22 -2 14 -14 25 -33 31 -16 6 -33 16 -37 22 -4 7 -23 16 -42 19 -19 4 -39 13 -46 21 -7 8 -23 15 -36 15 -12 0 -30 7 -39 16 -9 10 -33 20 -53 25 -20 4 -55 14 -77 23 -22 8 -61 15 -87 16 -52 0 -78 18 -78 55 0 34 26 38 131 25 102 -13 119 -10 119 22 0 48 -12 53 -137 58 -102 4 -122 8 -150 28 -46 32 -50 56 -17 95 30 37 128 107 148 107 7 0 21 9 31 20 10 11 23 20 30 20 7 0 48 18 91 40 43 22 86 40 95 40 9 0 22 7 29 15 7 8 27 17 45 21 36 6 48 22 35 45 -14 21 -108 16 -155 -10 -22 -11 -49 -21 -60 -21 -11 0 -33 -9 -50 -20 -16 -11 -36 -20 -43 -20 -8 0 -25 -9 -39 -20 -14 -11 -33 -20 -43 -20 -10 0 -28 -9 -42 -19 -30 -24 -121 -42 -158 -31 -27 8 -94 73 -149 146 -16 21 -37 47 -45 57 -9 9 -16 21 -16 26 0 4 -8 19 -18 32 -19 26 -72 151 -72 172 0 6 -7 24 -14 39 -8 15 -18 52 -21 82 -5 38 -18 71 -43 108 -29 43 -36 65 -40 115 -5 68 -2 73 85 181 71 87 63 120 -54 238 -69 69 -115 105 -265 209 -109 76 -103 70 -455 427 -110 112 -221 217 -245 233 -23 16 -61 43 -83 60 -22 17 -51 36 -65 43 -14 7 -32 16 -40 21 -30 19 -107 51 -122 51 -9 0 -27 15 -40 33 -24 30 -25 41 -30 199 -4 132 -9 172 -22 192 -9 14 -16 35 -16 46 0 24 -45 124 -67 149 -7 9 -25 31 -39 48 -71 90 -185 126 -337 104 -44 -6 -88 -18 -97 -26 -9 -8 -21 -15 -26 -15 -31 0 -244 -141 -274 -182 -3 -4 -23 -19 -45 -35 -46 -32 -126 -38 -166 -12 -13 9 -42 19 -64 23 -22 4 -50 14 -62 21 -11 8 -52 17 -90 21 -37 4 -79 12 -93 19 -14 7 -68 16 -120 20 -52 4 -113 13 -135 20 -22 8 -80 17 -130 20 -49 3 -99 12 -110 19 -11 7 -50 15 -87 18 -44 2 -73 10 -86 21 -10 9 -33 17 -51 17 -18 0 -50 9 -70 19 -20 11 -48 22 -62 25 -15 3 -51 29 -80 58 -83 81 -207 178 -228 178 -11 0 -31 32 -31 48 0 5 13 12 29 15 30 6 41 27 41 80 0 15 7 41 15 57 8 15 18 55 21 87 4 32 11 67 17 78 6 11 16 52 23 90 7 39 20 95 28 125 9 30 16 68 16 85 0 17 6 39 14 50 7 11 16 48 20 82 4 35 13 78 20 95 8 18 17 60 21 93 4 33 13 71 20 85 7 14 16 52 20 85 4 33 13 71 20 85 7 14 16 54 20 90 4 36 13 76 20 90 7 14 16 52 20 85 4 33 13 71 20 85 7 14 16 54 20 90 4 36 13 76 20 90 7 14 15 51 19 83 3 32 13 71 20 85 8 15 17 56 21 92 4 36 13 74 20 85 7 11 16 50 20 85 4 36 13 76 20 90 7 14 16 52 19 85 4 33 13 74 21 90 7 17 16 57 20 90 4 33 13 71 20 85 7 14 16 52 20 85 4 33 13 74 20 92 7 17 17 58 20 90 4 32 13 69 20 83 7 14 16 51 20 83 3 32 13 73 20 90 7 18 16 59 20 92 4 33 13 71 20 85 7 14 16 52 20 85 4 33 13 74 20 92 8 17 17 58 20 90 4 32 13 69 20 83 7 14 16 52 20 85 4 33 13 71 20 85 7 14 16 45 20 70 4 25 13 55 21 67 17 28 18 53 2 53 -900 5 -8914 3 -8923 -2z m8535 -318 c9 -17 7 -28 -9 -54 -12 -18 -21 -46 -21 -62 -1 -16 -8 -47 -16 -69 -9 -22 -20 -69 -26 -104 -5 -36 -15 -76 -22 -90 -8 -14 -17 -53 -21 -86 -4 -33 -13 -74 -20 -90 -6 -17 -16 -57 -20 -90 -4 -33 -13 -71 -20 -85 -7 -14 -15 -50 -19 -81 -3 -31 -12 -71 -20 -90 -7 -19 -17 -61 -21 -93 -4 -33 -13 -69 -20 -80 -8 -12 -17 -50 -21 -86 -3 -36 -12 -79 -19 -97 -8 -17 -17 -58 -20 -90 -4 -32 -13 -69 -20 -83 -7 -14 -16 -52 -20 -85 -4 -33 -13 -71 -20 -85 -7 -14 -15 -54 -19 -89 -4 -35 -13 -73 -21 -85 -8 -11 -17 -50 -21 -86 -4 -36 -12 -76 -19 -90 -7 -14 -16 -52 -20 -85 -4 -33 -13 -71 -20 -85 -7 -14 -16 -56 -20 -94 -4 -39 -13 -79 -20 -90 -7 -12 -15 -46 -19 -77 -3 -31 -12 -71 -20 -90 -8 -19 -17 -61 -21 -94 -5 -33 -14 -69 -20 -80 -7 -11 -16 -47 -20 -80 -3 -33 -12 -73 -19 -90 -8 -16 -17 -60 -21 -97 -3 -36 -13 -74 -20 -85 -8 -10 -15 -38 -15 -63 -1 -25 -8 -63 -16 -85 -9 -22 -20 -74 -25 -115 -5 -41 -15 -81 -23 -88 -10 -11 -178 -13 -899 -12 -488 0 -900 3 -917 6 -55 11 -77 -14 -85 -98 -4 -40 -13 -84 -20 -98 -7 -14 -15 -51 -19 -83 -3 -32 -13 -71 -20 -85 -8 -15 -17 -56 -21 -92 -4 -36 -13 -76 -20 -90 -7 -14 -15 -49 -19 -79 -4 -30 -13 -66 -20 -80 -7 -14 -16 -55 -20 -90 -4 -35 -13 -73 -20 -85 -8 -11 -16 -47 -20 -79 -3 -32 -12 -73 -20 -91 -8 -18 -17 -62 -21 -97 -4 -35 -13 -73 -20 -84 -7 -11 -16 -47 -20 -80 -4 -33 -13 -71 -20 -85 -7 -14 -16 -52 -20 -85 -4 -33 -13 -71 -20 -85 -7 -14 -15 -54 -19 -89 -4 -36 -13 -76 -20 -90 -8 -14 -17 -53 -21 -86 -4 -33 -13 -71 -20 -85 -7 -14 -16 -52 -20 -85 -4 -33 -13 -71 -20 -85 -7 -14 -16 -52 -19 -85 -4 -33 -13 -73 -21 -90 -7 -16 -16 -55 -20 -85 -4 -30 -13 -66 -20 -80 -7 -14 -15 -53 -18 -88 -4 -34 -14 -76 -23 -93 -8 -17 -18 -57 -21 -88 -3 -31 -11 -67 -18 -81 -7 -14 -15 -51 -19 -83 -3 -32 -12 -71 -20 -85 -7 -15 -17 -54 -21 -87 -3 -33 -13 -70 -21 -82 -8 -12 -14 -37 -14 -55 0 -19 -7 -58 -16 -88 -8 -30 -21 -87 -28 -127 -7 -40 -18 -78 -23 -85 -6 -7 -14 -44 -18 -83 -4 -38 -13 -79 -20 -90 -6 -11 -15 -47 -20 -79 -4 -33 -13 -69 -20 -80 -7 -12 -16 -49 -19 -83 -4 -35 -13 -78 -20 -95 -8 -18 -17 -58 -21 -88 -4 -30 -13 -66 -20 -80 -7 -14 -15 -54 -19 -89 -4 -36 -13 -76 -20 -90 -8 -14 -17 -53 -21 -86 -4 -33 -13 -71 -20 -85 -7 -14 -16 -52 -20 -85 -3 -33 -12 -69 -19 -80 -7 -11 -16 -48 -20 -82 -4 -35 -13 -78 -21 -97 -8 -19 -18 -61 -21 -93 -4 -32 -12 -67 -19 -78 -6 -11 -15 -46 -19 -78 -3 -32 -12 -73 -20 -90 -7 -18 -16 -61 -20 -97 -4 -36 -12 -71 -18 -78 -6 -7 -17 -45 -24 -85 -13 -73 -34 -161 -59 -252 -7 -27 -17 -72 -21 -100 -3 -27 -12 -61 -19 -75 -7 -14 -15 -51 -19 -83 -3 -32 -12 -71 -20 -85 -7 -15 -16 -55 -19 -90 -4 -34 -13 -75 -21 -90 -7 -15 -17 -56 -21 -92 -4 -35 -13 -74 -20 -85 -7 -11 -16 -49 -20 -85 -4 -36 -13 -74 -19 -85 -7 -11 -16 -48 -19 -83 -4 -34 -13 -72 -21 -85 -8 -12 -17 -51 -21 -87 -4 -35 -13 -74 -20 -85 -7 -11 -15 -47 -19 -80 -3 -33 -15 -85 -26 -115 -11 -30 -19 -70 -20 -88 0 -18 -6 -45 -14 -60 -7 -15 -16 -53 -20 -85 -3 -32 -13 -72 -21 -87 -8 -16 -15 -46 -15 -67 -1 -21 -8 -56 -16 -78 -9 -22 -20 -67 -26 -100 -5 -33 -15 -78 -23 -100 -8 -22 -17 -62 -20 -90 -4 -27 -13 -61 -20 -75 -7 -14 -16 -55 -19 -91 -4 -36 -13 -78 -21 -92 -7 -15 -17 -52 -21 -84 -4 -32 -12 -67 -19 -78 -7 -11 -15 -47 -18 -80 -4 -34 -13 -76 -21 -95 -7 -19 -17 -60 -21 -90 -4 -30 -13 -66 -20 -80 -7 -14 -15 -54 -19 -89 -4 -36 -13 -76 -20 -90 -8 -14 -17 -53 -21 -86 -4 -33 -13 -71 -20 -85 -7 -14 -16 -52 -20 -85 -4 -33 -14 -72 -21 -87 -8 -15 -14 -43 -14 -63 0 -19 -9 -61 -20 -93 -11 -31 -23 -82 -27 -112 -3 -30 -12 -67 -19 -82 -8 -15 -14 -42 -14 -60 -1 -18 -8 -51 -16 -73 -9 -22 -20 -71 -25 -110 -5 -38 -15 -81 -23 -95 -7 -14 -16 -50 -20 -81 -3 -30 -12 -69 -20 -85 -8 -16 -17 -56 -21 -89 -4 -33 -13 -71 -20 -85 -7 -14 -15 -50 -19 -81 -3 -31 -12 -71 -20 -90 -7 -19 -17 -61 -21 -93 -4 -33 -13 -69 -20 -80 -7 -12 -16 -50 -20 -86 -4 -36 -13 -76 -20 -90 -7 -14 -16 -52 -20 -85 -4 -33 -13 -72 -21 -87 -8 -15 -14 -41 -14 -57 0 -17 -9 -57 -19 -88 -11 -32 -23 -83 -26 -113 -4 -30 -13 -66 -20 -80 -7 -14 -15 -54 -19 -90 -4 -36 -13 -74 -20 -85 -7 -11 -16 -47 -20 -80 -4 -33 -13 -73 -21 -90 -7 -16 -16 -55 -20 -85 -4 -30 -14 -66 -23 -80 -9 -14 -16 -48 -16 -82 -1 -58 -1 -58 1773 -58 975 0 1777 3 1782 5 4 3 61 12 126 21 64 8 123 20 131 26 7 6 36 15 64 19 28 5 58 15 67 23 9 8 29 18 45 22 27 6 135 73 170 105 9 8 28 23 42 34 100 74 314 315 314 353 0 4 11 23 25 42 14 19 25 40 25 48 0 8 9 25 20 39 11 14 20 34 20 43 0 10 7 23 15 30 8 7 15 22 15 34 0 12 9 40 20 61 11 22 23 58 26 80 4 22 12 49 19 60 6 11 15 46 19 78 3 32 13 73 20 91 8 18 17 57 21 87 4 29 13 63 20 74 7 11 16 47 20 80 4 33 13 71 20 85 7 14 15 49 19 79 4 30 13 66 20 80 7 14 16 55 20 90 4 35 13 73 21 85 7 11 16 46 20 76 4 30 13 65 21 77 8 12 14 42 14 65 1 24 8 61 16 83 9 22 20 67 26 100 6 33 16 72 23 86 8 14 17 54 21 90 4 35 13 73 20 84 7 11 16 45 20 75 4 30 12 66 19 80 7 14 15 48 18 77 3 29 12 65 20 80 8 15 18 57 22 93 4 36 13 72 20 80 7 8 16 44 19 80 4 36 13 74 20 85 7 11 16 47 21 80 4 33 12 69 18 80 6 11 14 44 17 73 5 52 5 52 2085 53 1448 0 2081 -4 2083 -11 2 -6 -5 -27 -16 -48 -10 -20 -22 -58 -25 -85 -4 -26 -13 -57 -21 -70 -8 -12 -17 -51 -21 -87 -4 -36 -13 -76 -20 -90 -7 -14 -16 -54 -20 -90 -4 -35 -13 -74 -20 -85 -7 -11 -15 -49 -19 -83 -3 -35 -12 -78 -20 -95 -8 -18 -17 -59 -20 -92 -4 -33 -13 -69 -20 -80 -7 -11 -16 -51 -21 -89 -4 -39 -13 -79 -20 -90 -7 -12 -15 -49 -19 -84 -3 -34 -12 -72 -20 -85 -7 -12 -17 -53 -20 -90 -4 -38 -13 -79 -20 -90 -8 -12 -16 -47 -20 -78 -3 -31 -12 -72 -20 -91 -8 -18 -18 -63 -22 -98 -4 -36 -13 -74 -20 -85 -8 -11 -14 -33 -14 -50 0 -17 -7 -55 -16 -85 -8 -30 -21 -86 -28 -125 -6 -38 -17 -79 -23 -90 -6 -11 -14 -49 -18 -85 -4 -36 -13 -76 -20 -90 -7 -14 -16 -52 -20 -84 -4 -33 -13 -69 -20 -80 -7 -12 -16 -52 -19 -90 -4 -38 -13 -80 -20 -95 -8 -14 -17 -55 -21 -91 -4 -35 -13 -74 -20 -85 -7 -11 -16 -49 -20 -85 -4 -36 -13 -74 -19 -85 -7 -11 -16 -48 -19 -83 -4 -34 -13 -75 -21 -90 -7 -15 -16 -56 -20 -91 -4 -36 -13 -76 -20 -90 -8 -14 -17 -52 -21 -84 -3 -32 -12 -73 -20 -90 -7 -18 -16 -59 -20 -92 -4 -33 -13 -71 -20 -85 -7 -14 -15 -54 -19 -89 -4 -36 -13 -76 -20 -90 -8 -14 -17 -53 -21 -85 -4 -33 -13 -69 -20 -80 -7 -12 -16 -52 -20 -91 -4 -38 -13 -81 -20 -95 -7 -14 -16 -52 -20 -85 -4 -33 -13 -69 -20 -80 -7 -11 -15 -51 -19 -90 -4 -38 -13 -79 -20 -90 -7 -11 -16 -49 -20 -84 -4 -36 -14 -77 -21 -91 -7 -14 -17 -55 -21 -91 -4 -35 -12 -75 -19 -89 -7 -14 -15 -51 -19 -84 -3 -32 -12 -68 -18 -80 -6 -11 -17 -55 -23 -96 -7 -41 -17 -88 -23 -105 -6 -16 -18 -66 -27 -110 -9 -44 -22 -109 -29 -145 -7 -36 -18 -74 -23 -85 -6 -11 -14 -47 -18 -80 -4 -33 -13 -71 -20 -85 -7 -14 -16 -54 -20 -90 -4 -36 -13 -76 -20 -90 -7 -14 -15 -54 -19 -90 -4 -36 -13 -74 -20 -85 -7 -11 -16 -48 -19 -83 -4 -34 -13 -75 -21 -90 -7 -15 -16 -56 -20 -91 -4 -36 -14 -74 -22 -85 -8 -11 -14 -39 -14 -62 0 -23 -9 -70 -20 -104 -11 -34 -20 -73 -20 -85 0 -49 -6 -53 -83 -49 -128 7 -14622 4 -14685 -2 -59 -7 -62 -6 -73 20 -11 23 -9 30 9 56 12 16 22 39 22 52 0 13 8 52 19 88 29 98 52 198 63 265 5 33 15 71 22 85 8 14 17 54 21 90 4 36 13 76 20 90 7 14 16 52 20 85 4 33 13 68 21 79 8 11 14 38 14 59 0 20 9 64 20 96 11 33 23 86 26 118 4 32 12 65 19 73 7 8 16 44 19 80 4 36 13 74 20 85 7 11 16 48 19 83 4 34 13 75 21 90 7 15 17 54 21 86 4 33 13 69 20 80 7 12 15 46 19 77 3 31 12 71 20 90 8 19 17 61 21 94 4 33 13 71 20 85 7 14 15 51 19 83 3 32 12 73 20 91 7 17 16 58 21 91 4 32 13 68 20 79 7 12 15 46 19 77 3 31 12 71 20 90 8 19 17 61 21 94 4 33 14 69 21 80 8 11 14 38 14 60 1 22 8 58 16 80 9 22 20 69 25 105 6 36 17 77 25 92 7 14 14 39 14 55 0 52 22 147 39 166 12 14 24 17 52 13 81 -13 1822 -7 1831 6 4 7 8 34 8 59 0 26 6 62 14 80 8 19 17 61 21 94 5 33 13 69 20 80 7 11 16 49 20 84 3 36 13 77 20 91 7 14 17 55 20 91 4 35 13 73 20 84 6 11 15 45 18 76 4 31 13 71 21 90 8 19 17 63 21 99 4 36 13 74 20 85 6 11 15 47 20 80 4 33 13 74 20 91 7 17 16 55 20 85 4 30 13 65 20 79 7 14 16 52 20 85 4 33 13 71 20 85 7 14 15 54 19 89 4 35 13 73 20 85 8 11 17 52 20 90 4 38 13 80 20 95 7 14 17 53 21 86 4 33 13 71 20 85 7 14 16 50 20 80 4 30 13 66 20 80 7 14 15 53 18 88 3 34 12 73 20 85 8 12 17 53 22 91 4 39 13 79 20 90 7 12 15 48 18 81 4 34 13 77 21 96 8 20 18 60 22 90 3 30 12 63 19 74 6 11 15 48 18 83 4 34 13 75 21 90 7 15 16 56 20 91 4 35 13 73 21 85 7 11 16 50 20 86 4 36 13 76 20 90 7 14 15 51 19 83 3 32 12 71 20 85 7 15 17 53 21 85 3 32 13 73 20 90 7 18 16 57 20 87 4 30 13 66 20 80 7 14 15 53 18 88 4 34 13 75 21 90 8 15 17 54 21 87 4 33 13 69 20 80 6 11 15 49 19 84 4 36 13 76 21 90 7 14 16 55 20 91 4 35 13 74 20 85 8 11 17 52 21 90 4 39 12 79 19 90 7 11 15 46 18 78 3 32 12 68 20 80 8 12 17 53 21 90 4 38 13 79 20 90 8 12 17 49 21 82 4 33 13 74 20 90 6 17 16 57 20 90 4 33 13 71 20 85 7 14 15 49 19 79 4 30 13 69 20 86 8 18 17 61 21 96 4 35 13 75 20 89 7 14 16 54 20 90 4 36 13 77 21 92 7 14 16 53 20 85 3 32 12 67 19 78 7 11 16 50 20 85 4 36 13 74 20 85 7 11 16 50 20 85 4 35 13 74 20 85 7 11 16 49 20 85 3 36 12 74 19 85 7 11 16 48 19 83 4 34 13 75 21 90 8 16 18 57 21 93 4 35 13 73 20 84 6 11 15 48 18 83 4 34 13 75 21 90 7 15 17 54 21 87 4 33 13 71 20 85 7 14 16 52 20 85 4 33 13 71 20 85 7 14 16 52 20 84 4 33 13 73 20 90 7 17 18 64 24 105 6 41 15 79 20 85 5 6 11 35 15 65 4 30 13 66 20 80 7 14 16 53 19 86 4 34 13 76 21 95 7 19 17 60 21 90 4 30 13 66 20 80 7 14 15 54 19 89 4 36 13 76 20 90 8 14 17 53 21 86 4 33 13 71 20 85 7 14 16 52 20 85 4 33 13 72 21 87 8 15 14 43 14 63 0 19 9 60 19 90 11 31 23 81 27 113 3 31 13 69 20 84 8 15 14 41 14 57 0 17 9 57 19 88 11 32 22 85 26 118 4 33 12 69 19 80 7 11 16 45 19 76 4 31 14 73 22 93 8 20 18 64 22 99 3 34 12 71 19 82 6 11 15 47 19 80 4 33 13 71 20 85 7 14 16 52 20 85 4 33 13 71 20 85 7 14 15 53 18 88 4 34 13 75 21 90 7 15 17 54 21 87 4 33 13 71 20 85 7 14 15 51 19 83 3 32 13 71 20 85 8 15 17 56 21 92 4 36 13 74 19 85 7 11 16 50 19 87 3 37 13 78 21 90 7 13 17 50 21 83 4 33 13 71 20 85 7 14 15 51 19 83 3 32 13 72 21 87 8 16 15 44 15 62 1 18 8 51 16 73 52 138 47 173 -22 162 -43 -7 -2044 -11 -2050 -4 -6 6 13 87 37 157 10 30 22 80 25 110 4 30 13 64 20 75 8 11 14 33 14 50 0 17 7 55 15 85 9 30 20 84 26 120 6 36 17 77 25 92 8 14 14 39 14 55 0 16 7 56 16 88 9 33 22 89 28 125 7 36 17 74 23 85 6 11 13 46 17 78 3 32 12 71 20 85 7 15 16 56 20 91 4 35 13 73 20 85 8 11 16 51 19 88 4 37 13 80 20 95 8 15 18 55 22 88 4 33 13 71 20 85 7 14 16 52 20 85 3 33 12 69 19 80 7 11 16 50 19 87 3 37 13 78 20 90 8 13 18 52 22 87 3 36 12 76 19 90 7 14 16 55 20 90 4 36 13 76 20 90 7 14 16 55 20 90 4 35 13 73 21 85 7 11 16 50 20 85 4 35 13 78 20 95 7 17 16 56 20 86 4 30 13 66 20 80 7 14 15 51 19 83 3 32 12 71 20 85 7 15 16 57 19 94 3 37 14 83 24 103 19 35 19 35 4108 36 2274 0 4099 4 4110 9 35 15 64 11 75 -10z m-723 -3546 c3 -9 -1 -31 -10 -48 -9 -17 -21 -43 -26 -58 -9 -24 -16 -28 -48 -28 -24 0 -45 -7 -60 -22 -30 -28 -46 -14 -52 45 -1 4 -13 7 -28 7 -31 0 -99 62 -88 79 3 6 28 11 55 11 27 0 52 5 55 10 9 14 48 13 63 -2 16 -16 83 -11 102 7 19 19 29 19 37 -1z m-1152 -25 c4 -5 -8 -25 -27 -44 -28 -30 -40 -35 -78 -35 -34 0 -48 -5 -58 -20 -9 -16 -23 -20 -62 -20 -28 0 -50 -4 -50 -9 0 -11 -55 -31 -87 -31 -16 0 -43 -19 -80 -56 -42 -41 -62 -54 -77 -51 -116 29 -121 31 -124 69 -2 20 -10 42 -18 48 -15 13 -17 57 -5 100 6 20 13 24 34 22 15 -1 27 2 27 7 0 23 70 29 327 30 180 1 274 -3 278 -10z m1120 -153 c24 -17 13 -49 -16 -44 -31 4 -49 35 -29 48 20 13 23 12 45 -4z m-1795 -44 c0 -20 34 -55 63 -65 29 -11 18 -52 -13 -52 -18 0 -29 9 -42 33 -9 19 -24 39 -33 46 -12 9 -15 19 -11 34 9 27 36 29 36 4z m1365 -63 c101 -21 114 -25 216 -73 31 -14 61 -26 66 -26 6 0 16 -7 23 -15 6 -8 35 -30 63 -49 94 -63 280 -257 270 -282 -3 -7 -10 -14 -15 -14 -5 0 -21 -9 -35 -20 -42 -33 -164 -29 -217 7 -23 16 -43 31 -46 35 -8 11 -80 58 -89 58 -4 0 -22 11 -41 25 -19 14 -42 25 -52 25 -10 0 -21 7 -24 15 -4 8 -24 18 -45 21 -21 4 -44 12 -50 20 -6 7 -32 16 -57 20 -26 4 -57 13 -69 21 -58 38 -547 36 -609 -3 -12 -7 -46 -16 -75 -20 -30 -4 -61 -12 -69 -19 -8 -7 -33 -16 -54 -20 -22 -3 -49 -13 -60 -21 -11 -8 -27 -14 -35 -14 -13 0 -67 -23 -176 -76 -27 -14 -68 -38 -90 -54 -65 -48 -82 -55 -100 -40 -21 17 -19 29 10 84 14 26 25 61 26 79 1 67 42 117 101 124 24 3 50 11 58 18 8 8 33 17 55 21 22 4 49 13 60 19 11 7 38 16 60 20 22 4 45 11 52 17 7 5 36 16 65 23 84 22 169 45 218 60 25 8 83 19 130 25 46 7 88 14 93 17 17 10 185 21 262 17 44 -3 125 -14 180 -25z m473 8 c2 -11 -3 -17 -17 -17 -23 0 -35 15 -26 31 10 15 39 6 43 -14z m342 -282 c0 -3 -4 -13 -9 -23 -5 -9 -12 -25 -15 -35 -8 -25 -30 -16 -34 14 -2 17 4 27 20 35 27 13 38 16 38 9z m93 -88 c27 -10 22 -56 -8 -67 -22 -8 -24 -14 -19 -37 4 -16 11 -30 16 -31 4 -2 6 -8 3 -13 -4 -5 -13 -5 -23 0 -9 5 -25 12 -34 15 -23 7 -24 63 -1 88 15 16 15 20 0 36 -12 13 -13 22 -5 35 10 18 11 18 31 -1 12 -10 30 -22 40 -25z m-1228 -88 c66 -5 129 -16 141 -24 11 -7 42 -16 67 -20 25 -4 52 -13 58 -21 6 -8 18 -14 26 -14 19 0 140 -57 148 -70 3 -5 15 -10 25 -10 11 0 27 -8 37 -18 10 -10 39 -31 65 -46 26 -14 60 -38 75 -52 16 -15 53 -42 83 -62 30 -19 60 -40 65 -46 14 -15 42 -32 85 -53 19 -10 46 -25 60 -33 25 -16 140 -42 187 -42 30 0 58 25 50 45 -3 8 -35 30 -72 48 -111 57 -115 59 -115 79 0 29 42 51 109 59 33 4 66 13 74 19 8 7 46 15 83 19 38 3 83 13 99 22 40 21 579 30 641 10 22 -6 66 -14 98 -18 40 -4 62 -12 70 -23 19 -31 -8 -42 -117 -50 -183 -12 -315 -41 -442 -99 -59 -27 -175 -129 -213 -189 -9 -14 -22 -29 -29 -33 -7 -4 -13 -16 -13 -26 0 -9 -7 -26 -15 -37 -31 -40 1 -53 60 -23 40 20 55 21 170 17 134 -5 208 3 234 26 9 7 27 17 41 21 14 4 33 14 42 22 10 9 46 17 85 20 37 3 77 10 88 16 10 5 77 14 149 18 99 7 140 14 174 30 38 19 56 21 138 17 64 -4 100 -10 112 -20 9 -9 28 -19 41 -23 76 -23 334 -259 447 -410 64 -85 86 -93 144 -50 19 14 45 25 59 25 14 1 37 7 51 15 31 18 113 19 143 3 12 -7 48 -15 80 -19 32 -4 66 -14 75 -22 9 -8 31 -18 49 -22 17 -3 37 -12 43 -20 6 -8 25 -17 41 -20 16 -4 31 -11 34 -16 4 -5 15 -9 26 -9 31 0 23 41 -18 85 -21 22 -54 59 -73 82 -44 52 -144 132 -196 157 -102 49 -124 55 -204 61 -47 4 -103 11 -125 16 -22 5 -86 13 -142 18 -57 5 -111 16 -125 24 -12 8 -38 18 -55 22 -18 4 -35 11 -39 16 -3 5 -20 15 -37 23 -46 19 -84 63 -69 78 9 9 44 7 149 -6 76 -10 183 -21 238 -25 61 -5 113 -14 132 -24 18 -9 47 -17 65 -17 18 0 50 -9 71 -20 20 -11 44 -20 52 -20 14 0 61 -22 115 -52 8 -5 29 -15 46 -23 17 -7 36 -21 44 -29 7 -9 18 -16 25 -16 7 0 24 -10 37 -22 14 -13 45 -39 69 -58 74 -60 150 -131 315 -296 152 -153 298 -290 346 -326 167 -126 233 -185 236 -210 4 -29 -32 -70 -83 -95 -16 -8 -41 -21 -55 -28 -14 -8 -32 -15 -41 -15 -9 0 -22 -6 -28 -14 -7 -8 -30 -17 -51 -21 -21 -4 -44 -13 -50 -20 -6 -8 -24 -17 -40 -20 -16 -3 -34 -13 -41 -21 -6 -8 -17 -14 -23 -14 -18 0 -95 -56 -118 -86 -13 -16 -22 -43 -24 -68 -2 -57 -1 -55 -29 -66 -17 -7 -45 -5 -88 4 -137 31 -351 24 -567 -18 -101 -20 -312 -20 -365 0 -22 9 -54 19 -71 23 -48 12 -116 56 -170 109 -69 68 -188 129 -276 141 -29 4 -62 12 -73 18 -11 6 -101 14 -200 18 -99 4 -207 13 -240 20 -33 7 -89 16 -124 19 -36 3 -72 12 -80 20 -9 7 -28 16 -43 20 -98 23 -228 174 -244 284 -9 62 -40 124 -61 120 -17 -3 -48 -84 -59 -155 -15 -100 74 -263 199 -363 34 -27 69 -56 78 -63 9 -8 29 -17 45 -21 16 -4 36 -13 44 -20 14 -12 33 -18 140 -46 19 -5 49 -10 65 -10 34 0 95 -54 114 -100 6 -14 15 -32 20 -40 5 -8 22 -42 37 -75 33 -69 88 -125 159 -162 43 -22 69 -27 180 -33 72 -5 148 -13 170 -19 68 -18 204 -13 250 9 22 11 48 19 58 20 9 0 34 9 54 20 21 11 56 20 79 20 22 0 63 7 90 15 54 17 188 18 218 3 10 -6 51 -14 90 -19 40 -5 89 -18 111 -29 22 -11 46 -20 55 -20 17 0 93 -37 131 -63 13 -10 31 -17 40 -17 9 0 24 -9 34 -20 10 -11 23 -20 28 -20 5 0 34 -20 63 -45 28 -25 57 -45 63 -45 6 0 20 -5 31 -12 22 -14 39 -3 22 14 -7 7 -12 19 -12 27 -1 54 -206 271 -256 271 -6 0 -17 7 -24 15 -7 8 -26 15 -42 15 -16 0 -45 7 -65 15 -19 8 -54 15 -77 15 -49 0 -116 17 -116 30 0 23 30 28 265 45 65 5 115 3 180 -9 50 -9 109 -16 132 -16 23 0 45 -4 48 -10 3 -5 25 -14 48 -20 23 -6 47 -17 52 -23 6 -7 29 -25 53 -41 74 -50 129 -153 141 -261 7 -57 34 -72 69 -37 25 25 38 124 23 178 -27 98 -6 130 50 74 17 -16 54 -46 82 -66 264 -181 347 -280 347 -407 0 -50 -5 -70 -21 -91 -37 -47 5 -96 53 -62 12 9 37 16 55 16 30 0 33 -3 33 -29 0 -28 -58 -91 -84 -91 -20 0 -87 -54 -84 -68 3 -17 98 -51 144 -52 45 0 66 -20 66 -62 0 -20 -3 -41 -6 -47 -14 -22 -101 -51 -170 -57 -74 -7 -146 -35 -146 -57 0 -13 123 -67 152 -67 8 0 23 -7 34 -15 10 -8 30 -15 44 -15 39 -1 52 -14 48 -51 -3 -29 -8 -34 -35 -40 -18 -3 -39 -11 -46 -17 -7 -6 -40 -14 -74 -17 -63 -8 -123 -35 -123 -57 0 -7 19 -29 42 -50 42 -37 42 -37 22 -65 -21 -28 -73 -45 -139 -44 -60 0 -162 18 -186 33 -13 9 -36 18 -51 22 -89 21 -127 79 -89 139 12 17 27 44 33 60 7 15 16 27 21 27 4 0 15 15 23 33 54 112 120 203 218 300 114 112 136 157 136 273 0 64 -5 93 -19 120 -54 101 -140 123 -236 60 -109 -73 -158 -88 -293 -94 -114 -4 -130 -2 -210 23 -48 15 -94 31 -102 36 -8 5 -26 14 -40 20 -14 6 -43 19 -65 29 -86 40 -201 33 -222 -13 -36 -77 -43 -103 -43 -146 0 -110 67 -195 261 -331 186 -131 259 -236 259 -375 0 -60 -2 -65 -31 -86 -17 -12 -49 -27 -72 -34 -23 -7 -55 -20 -72 -29 -16 -9 -38 -16 -48 -16 -9 0 -34 -9 -54 -20 -21 -11 -54 -20 -73 -20 -20 0 -46 -7 -58 -16 -12 -8 -59 -19 -105 -24 -45 -5 -95 -13 -110 -19 -43 -17 -322 -14 -355 3 -15 7 -58 16 -95 19 -42 3 -75 11 -86 21 -10 9 -28 16 -42 16 -13 0 -35 6 -49 14 -14 8 -50 26 -80 42 -69 34 -178 116 -261 194 -61 57 -63 61 -45 75 27 21 58 19 89 -5 14 -11 40 -23 59 -27 18 -3 49 -14 68 -23 19 -10 61 -21 94 -25 32 -4 75 -12 95 -20 44 -15 302 -30 355 -20 26 5 41 15 49 32 16 37 -1 45 -113 54 -56 4 -107 13 -114 18 -7 6 -34 14 -60 17 -26 4 -64 15 -84 25 -20 11 -44 19 -53 19 -9 0 -22 6 -28 14 -7 8 -23 17 -37 20 -28 7 -140 83 -193 131 -90 80 -101 93 -101 118 0 36 13 41 57 17 21 -11 44 -20 51 -20 7 0 30 -8 50 -19 41 -21 115 -47 177 -63 22 -6 52 -16 66 -24 14 -7 46 -16 70 -20 24 -4 64 -15 89 -24 25 -10 74 -20 109 -24 36 -4 77 -14 92 -22 37 -19 95 -18 103 1 7 20 -52 75 -82 75 -12 0 -39 9 -59 20 -21 11 -47 20 -58 20 -11 0 -33 9 -50 20 -16 11 -38 20 -48 20 -10 0 -35 9 -55 19 -20 11 -59 29 -87 41 -27 12 -57 25 -65 31 -8 5 -24 13 -35 18 -30 13 -123 74 -187 123 -59 44 -75 82 -42 95 25 9 154 -13 204 -36 25 -11 57 -21 71 -21 15 0 32 -7 39 -15 7 -8 28 -17 49 -21 20 -3 48 -14 63 -25 15 -10 37 -19 50 -19 13 0 37 -9 53 -20 17 -11 41 -20 54 -20 13 0 38 -9 57 -20 18 -12 57 -24 86 -27 29 -3 57 -12 61 -19 12 -20 47 -17 47 4 -1 24 -40 68 -70 77 -14 4 -32 13 -40 19 -8 7 -40 23 -70 36 -30 13 -62 29 -70 36 -8 6 -26 15 -40 19 -14 4 -32 13 -40 20 -8 7 -26 16 -40 20 -13 4 -36 15 -50 25 -14 9 -44 30 -68 46 -24 16 -60 38 -80 49 -80 43 -36 125 69 125 24 1 55 7 69 15 19 11 67 14 195 15 194 0 212 5 175 47 -36 40 -41 43 -85 43 -22 0 -77 8 -123 17 -80 17 -85 17 -195 -5 -62 -12 -123 -22 -134 -22 -11 0 -40 -9 -64 -20 -24 -11 -56 -20 -70 -20 -15 0 -29 -7 -33 -15 -3 -8 -17 -15 -31 -15 -14 0 -34 -9 -45 -20 -11 -11 -31 -22 -45 -26 -14 -3 -60 -40 -103 -81 -116 -112 -133 -118 -259 -103 -132 17 -605 -2 -808 -31 -38 -5 -113 -16 -165 -23 -52 -8 -122 -21 -155 -30 -32 -9 -70 -16 -83 -16 -12 0 -36 -7 -52 -15 -16 -9 -51 -18 -77 -22 -27 -3 -61 -15 -78 -25 -22 -13 -50 -18 -102 -18 -71 0 -71 0 -116 53 -32 37 -46 64 -50 92 -2 22 -12 58 -20 80 -9 22 -16 65 -17 95 0 35 -6 64 -17 80 -25 35 -26 489 -2 535 9 17 19 55 23 85 4 30 13 62 20 70 7 8 18 34 24 56 7 23 19 47 27 54 8 7 15 17 15 22 0 5 18 34 41 64 22 30 38 62 35 70 -6 16 -62 19 -72 3 -3 -6 -19 -16 -34 -23 -76 -31 -300 -256 -300 -300 0 -8 -6 -19 -14 -25 -8 -7 -18 -25 -21 -41 -3 -16 -12 -34 -20 -40 -7 -6 -17 -30 -20 -53 -4 -23 -13 -49 -21 -58 -7 -8 -16 -49 -20 -90 -4 -40 -13 -86 -20 -101 -20 -38 -19 -323 0 -375 8 -21 17 -65 20 -98 4 -32 13 -66 20 -75 7 -8 16 -31 20 -51 4 -21 13 -42 21 -49 8 -7 15 -18 15 -24 1 -47 121 -166 209 -208 61 -28 71 -30 155 -26 61 3 99 9 116 20 14 9 41 19 60 23 19 4 45 13 57 21 12 8 28 14 35 14 7 0 36 11 63 25 28 13 58 25 67 25 10 0 35 9 56 20 42 22 156 30 174 12 11 -11 -35 -122 -52 -122 -5 0 -12 -9 -15 -20 -4 -12 -15 -28 -24 -38 -25 -24 -35 -81 -16 -88 8 -3 40 7 71 23 88 44 112 58 200 118 16 10 76 67 134 125 148 148 170 159 317 165 65 3 140 9 168 15 27 6 109 11 180 13 130 2 130 2 133 -49 4 -67 -33 -104 -104 -104 -25 0 -55 -6 -67 -14 -12 -8 -41 -17 -64 -21 -23 -4 -47 -13 -54 -21 -6 -8 -17 -14 -24 -14 -25 0 -193 -97 -255 -147 -117 -94 -320 -337 -320 -383 0 -6 -9 -23 -20 -37 -11 -14 -20 -35 -20 -46 0 -11 -7 -28 -16 -38 -8 -9 -18 -43 -21 -75 -3 -33 -12 -71 -19 -86 -19 -37 -19 -249 0 -286 7 -15 16 -49 19 -77 3 -27 15 -68 26 -90 12 -21 21 -51 21 -66 0 -15 6 -32 14 -38 8 -7 17 -27 20 -45 4 -19 13 -39 21 -46 8 -7 17 -27 21 -46 3 -18 12 -38 20 -45 8 -6 14 -16 14 -23 0 -6 11 -33 24 -61 77 -164 85 -195 61 -231 -18 -28 -13 -44 15 -44 24 0 74 -65 66 -85 -7 -19 -72 -20 -79 -1 -3 7 -18 17 -33 20 -15 4 -39 16 -52 27 -14 10 -34 19 -46 19 -11 0 -34 9 -51 20 -16 11 -42 20 -56 20 -15 0 -37 8 -50 18 -13 11 -46 22 -73 25 -27 4 -55 12 -61 17 -7 6 -48 17 -91 24 -44 8 -91 19 -105 25 -88 33 -641 31 -730 -4 -20 -7 -65 -17 -100 -21 -35 -3 -71 -12 -79 -19 -8 -7 -42 -16 -75 -20 -33 -4 -67 -13 -75 -21 -9 -7 -43 -16 -75 -19 -33 -4 -76 -13 -96 -22 -46 -19 -155 -13 -222 12 -51 19 -158 114 -177 156 -6 13 -21 42 -35 64 -13 22 -31 54 -40 70 -28 51 -50 88 -80 135 -16 25 -36 56 -43 70 -7 14 -32 57 -57 95 -25 39 -50 81 -56 95 -6 14 -16 32 -24 40 -7 8 -16 26 -20 40 -4 14 -16 36 -26 49 -11 13 -19 30 -19 38 0 8 -9 26 -20 40 -11 14 -20 35 -20 47 0 12 -8 33 -17 46 -45 63 -45 374 -1 442 8 13 18 39 22 59 3 21 13 42 21 49 8 7 15 20 15 30 0 9 8 28 19 41 10 13 22 35 26 49 4 14 12 31 18 38 5 7 17 26 26 42 49 90 93 160 100 160 5 0 14 13 20 28 7 16 26 44 44 63 17 19 39 49 49 66 18 33 25 78 11 71 -5 -3 -23 -10 -40 -17 -18 -7 -33 -17 -33 -22 0 -4 -11 -14 -24 -21 -53 -28 -247 -210 -334 -313 -23 -27 -48 -57 -55 -65 -11 -13 -81 -120 -115 -175 -11 -19 -31 -60 -90 -183 -29 -61 -51 -65 -65 -13 -5 19 -15 44 -23 55 -8 11 -14 30 -14 42 0 12 -7 27 -15 34 -7 6 -17 31 -21 55 -3 25 -12 49 -19 55 -7 6 -16 34 -20 63 -4 29 -13 63 -20 77 -7 14 -19 96 -26 182 -15 180 -1 446 26 497 8 16 18 48 21 72 4 24 13 53 19 64 7 11 16 36 19 56 4 21 13 42 20 48 8 7 17 27 20 45 4 19 13 36 20 39 7 3 16 22 20 41 4 20 11 36 17 36 5 0 13 10 18 23 5 13 34 61 65 106 56 82 56 82 56 179 0 83 4 104 25 147 13 28 25 53 25 58 0 4 15 29 33 55 18 26 38 58 45 72 7 14 25 48 41 75 16 28 30 59 30 70 1 11 7 29 15 40 7 11 16 41 19 67 4 26 16 64 27 85 11 21 20 45 20 55 0 9 5 20 11 24 6 3 17 21 25 40 12 30 97 160 146 224 108 143 152 190 175 190 19 0 53 -28 53 -43 0 -6 7 -17 15 -26 77 -82 88 -141 33 -185 -18 -14 -40 -31 -48 -38 -9 -7 -63 -44 -120 -83 -187 -124 -263 -222 -281 -366 -5 -39 -15 -80 -24 -92 -9 -13 -15 -43 -15 -74 0 -29 -9 -79 -19 -110 -11 -32 -22 -88 -25 -125 -3 -37 -12 -80 -19 -95 -8 -15 -17 -66 -21 -112 -4 -46 -13 -95 -20 -110 -7 -14 -16 -65 -20 -112 -3 -47 -12 -104 -20 -125 -7 -22 -17 -91 -20 -154 -4 -63 -14 -137 -21 -165 -8 -27 -17 -89 -21 -137 -6 -77 -5 -88 10 -94 11 -4 27 3 45 20 15 14 32 26 38 26 7 0 18 8 25 18 7 9 20 22 29 27 50 31 273 197 299 222 20 19 144 107 199 141 116 71 156 142 72 127 -20 -3 -48 -15 -63 -26 -15 -10 -36 -19 -46 -19 -11 0 -31 -9 -45 -20 -14 -11 -32 -20 -40 -20 -8 0 -25 -9 -38 -19 -30 -23 -95 -51 -120 -51 -22 0 -25 25 -6 57 22 39 130 198 141 208 6 6 24 30 41 55 36 54 34 52 144 167 75 78 120 117 276 238 22 17 58 39 90 54 12 5 27 16 34 24 7 9 25 19 41 22 16 3 34 13 41 21 6 8 19 14 28 14 9 0 26 7 38 15 11 8 39 17 61 21 60 9 66 44 10 58 -36 8 -196 -10 -239 -28 -19 -7 -61 -17 -94 -21 -33 -4 -67 -13 -75 -20 -8 -7 -31 -15 -51 -19 -21 -4 -42 -13 -49 -21 -7 -8 -19 -15 -28 -15 -26 0 -115 -65 -169 -125 -35 -37 -58 -55 -68 -51 -20 7 -19 65 2 96 11 16 19 55 24 122 4 70 11 104 23 117 9 9 16 27 16 37 0 25 46 76 83 92 15 7 49 12 75 12 85 0 256 22 283 36 14 7 53 16 85 20 33 4 66 12 74 19 8 7 40 16 70 20 30 4 62 13 70 20 8 7 33 16 55 19 22 4 49 13 60 20 11 8 36 17 55 21 19 4 42 13 50 20 8 7 27 15 42 19 74 17 238 142 238 180 0 30 -92 106 -127 106 -13 0 -26 7 -29 15 -3 8 -22 17 -42 21 -21 4 -44 12 -52 19 -14 10 -65 23 -188 44 -98 18 -86 80 25 130 13 6 46 29 74 51 58 46 97 52 129 18 11 -12 20 -27 20 -32 0 -25 168 -156 200 -156 7 0 22 -8 33 -17 26 -24 219 -32 245 -11 9 8 29 19 45 26 28 12 37 40 15 47 -7 2 -47 13 -88 25 -41 11 -82 25 -90 31 -8 5 -25 13 -38 19 -64 27 -194 150 -347 326 -57 65 -252 262 -291 294 -38 31 -85 60 -97 60 -7 0 -30 10 -52 22 -36 19 -54 22 -168 21 -143 -1 -156 5 -117 54 32 42 138 51 355 32z m3246 -21 c55 -57 91 -254 54 -291 -22 -23 -57 -21 -88 3 -14 11 -40 23 -59 27 -18 3 -45 12 -60 19 -15 8 -45 14 -68 14 -109 0 -161 88 -78 131 26 14 75 51 126 97 20 18 37 22 88 22 52 0 67 -4 85 -22z m-456 -28 c0 -20 -6 -26 -29 -28 -20 -3 -27 0 -22 10 3 7 9 21 12 31 10 26 39 17 39 -13z m-1677 -18 c4 -25 -19 -30 -37 -9 -8 10 -7 17 1 25 17 17 32 10 36 -16z m-1644 -31 c-6 -44 -4 -50 15 -56 23 -7 28 -39 9 -51 -7 -4 -18 2 -26 14 -14 21 -42 29 -55 15 -4 -3 0 -14 9 -24 9 -10 14 -25 11 -34 -12 -29 -43 -15 -90 39 -39 46 -44 56 -32 66 18 15 45 6 45 -15 0 -27 17 -16 24 15 3 17 12 30 19 30 8 0 19 11 25 25 7 15 20 25 32 25 19 0 20 -4 14 -49z m2796 -10 c0 -27 -14 -33 -36 -16 -16 13 -17 16 -4 25 24 15 40 12 40 -9z m436 -28 c3 -10 17 -41 30 -70 37 -79 31 -123 -16 -123 -34 0 -90 19 -90 31 0 5 -65 9 -144 9 -79 0 -151 3 -160 6 -12 5 -16 20 -16 59 0 61 15 78 41 47 16 -20 27 -22 124 -22 81 0 110 4 121 15 9 8 24 15 34 15 11 0 27 11 36 25 19 29 32 32 40 8z m-3817 -54 c33 -31 33 -31 -20 -85 -74 -74 -83 -72 -77 19 3 41 8 79 12 85 13 21 50 12 85 -19z m970 -27 c20 -11 54 -27 76 -38 74 -35 125 -114 74 -114 -11 0 -41 9 -67 19 -103 42 -225 34 -292 -19 -41 -32 -43 -33 -56 -15 -31 41 -11 91 56 144 48 38 57 41 112 41 39 0 73 -7 97 -18z m-621 -65 c7 -8 11 -53 10 -108 -1 -71 3 -101 15 -124 18 -31 25 -175 9 -175 -12 0 -232 -225 -308 -315 -37 -44 -70 -82 -73 -85 -4 -3 -29 -39 -56 -80 -27 -41 -52 -77 -55 -80 -13 -12 -60 -100 -60 -113 0 -8 -6 -20 -14 -26 -7 -6 -16 -25 -20 -42 -3 -17 -14 -42 -25 -55 -10 -13 -17 -32 -15 -42 8 -28 -21 -59 -43 -46 -27 16 -30 81 -5 108 11 11 23 42 26 67 4 26 16 64 26 85 11 21 20 52 20 69 0 16 9 48 19 71 10 23 22 65 26 95 4 30 13 65 20 79 7 14 16 52 20 85 4 33 14 72 21 87 8 15 14 41 14 59 0 71 51 148 197 297 189 193 225 220 251 189z m192 -62 c0 -8 9 -19 20 -25 21 -11 27 -30 10 -30 -15 0 -59 53 -53 62 8 13 23 9 23 -7z m707 -112 c100 -100 189 -213 167 -213 -28 0 -104 27 -122 43 -35 32 -278 31 -321 -1 -69 -51 -98 -2 -43 74 39 53 63 72 137 107 17 8 39 24 49 36 33 36 60 27 133 -46z m-569 -95 c11 -18 22 -46 26 -61 5 -20 14 -29 35 -33 19 -4 33 -16 42 -37 11 -25 19 -31 38 -29 32 3 51 -15 51 -49 0 -34 42 -79 73 -79 29 0 47 -18 47 -47 0 -14 14 -37 35 -56 19 -17 35 -36 35 -42 0 -15 42 -51 68 -60 20 -6 23 -12 20 -36 -4 -26 -2 -29 23 -29 40 0 77 -33 60 -54 -7 -9 -26 -16 -42 -16 -16 0 -38 -9 -50 -21 -17 -17 -28 -19 -65 -13 -27 4 -44 2 -44 -4 0 -15 -57 -32 -111 -32 -27 0 -49 -4 -49 -9 0 -11 -55 -31 -86 -31 -13 0 -27 -7 -32 -16 -5 -9 -18 -14 -32 -12 -21 3 -24 9 -26 53 -2 63 7 80 51 95 28 9 36 18 41 46 9 50 -5 186 -22 199 -7 5 -15 28 -18 50 -2 22 -5 42 -6 45 0 3 -7 -3 -15 -13 -23 -32 -53 -16 -69 36 -3 10 -15 17 -31 17 -27 0 -32 11 -12 28 10 9 12 39 9 127 -4 111 -4 115 16 115 12 0 28 -13 40 -32z m92 -18 c0 -33 -15 -41 -22 -12 -6 21 1 42 13 42 5 0 9 -13 9 -30z m-131 -740 c29 -40 18 -56 -20 -28 -31 23 -37 43 -16 51 6 3 12 6 13 6 0 1 10 -13 23 -29z m-1029 -245 c21 -22 22 -31 17 -85 -4 -33 -4 -60 0 -60 15 0 31 37 26 61 -6 33 8 43 52 35 42 -8 56 -48 27 -80 -10 -11 -25 -42 -32 -69 -7 -26 -17 -50 -21 -53 -5 -3 -9 -22 -9 -42 -1 -20 -8 -55 -17 -77 -9 -22 -17 -62 -18 -90 -2 -67 -12 -95 -35 -95 -14 0 -21 9 -25 38 -3 20 -11 51 -17 67 -7 17 -13 80 -15 140 -2 61 -8 119 -14 131 -18 35 -7 77 21 84 27 6 41 63 21 83 -15 15 -14 37 2 37 8 0 24 -11 37 -25z m-102 -351 c-5 -28 -28 -29 -28 -1 0 13 3 27 7 31 10 10 25 -10 21 -30z m752 -120 c0 -13 -5 -24 -10 -24 -6 0 -16 -12 -22 -27 -10 -25 -12 -26 -16 -8 -2 10 1 21 7 23 6 2 11 16 11 31 0 15 3 31 6 34 12 11 24 -3 24 -29z m-723 -13 c-6 -26 16 -84 47 -126 13 -17 13 -25 1 -52 -19 -45 -45 -44 -45 1 0 46 -16 54 -35 16 -20 -38 -32 -38 -43 2 -12 48 -30 46 -34 -4 -4 -55 -31 -61 -36 -8 -4 43 52 109 64 77 18 -47 47 14 45 92 -1 26 16 44 32 34 5 -3 7 -17 4 -32z m6213 25 c6 -8 10 -23 9 -33 -2 -10 3 -29 10 -42 22 -39 29 -77 19 -94 -12 -22 -34 -22 -46 -1 -14 26 -59 20 -83 -10 -37 -47 -79 -20 -79 50 0 47 -3 45 83 59 34 5 37 9 37 39 0 47 24 62 50 32z m-80 -21 c0 -16 -27 -27 -36 -14 -3 5 -3 16 0 24 6 17 36 9 36 -10z m-2133 7 c7 -4 22 -34 33 -67 21 -62 44 -95 66 -95 20 0 86 32 110 53 14 11 33 17 50 15 26 -3 29 -7 32 -47 3 -39 -1 -48 -34 -82 -21 -22 -46 -39 -55 -39 -10 0 -24 -7 -32 -15 -84 -83 -297 73 -297 218 0 45 86 85 127 59z m-4064 -26 c3 -8 0 -22 -7 -31 -10 -15 -14 -15 -24 -2 -14 17 -6 47 13 47 7 0 15 -6 18 -14z m832 -68 c32 -14 32 -25 0 -40 -34 -15 -67 11 -45 36 15 19 13 19 45 4z m-122 -50 c-10 -21 -12 -21 -18 -5 -10 25 2 54 17 39 8 -8 8 -18 1 -34z m-8437 -10 c22 -5 73 -15 114 -22 41 -6 85 -17 97 -24 12 -6 37 -12 55 -12 18 0 50 -9 71 -20 20 -11 50 -20 66 -20 16 0 34 -6 40 -14 7 -8 30 -17 52 -21 21 -4 39 -11 39 -16 0 -6 16 -17 35 -25 54 -22 44 -64 -14 -64 -10 0 -30 9 -44 20 -20 16 -51 22 -153 30 -70 6 -130 12 -133 14 -16 10 -245 -15 -260 -28 -9 -7 -30 -17 -48 -21 -17 -3 -37 -13 -44 -21 -6 -8 -20 -14 -31 -14 -27 0 -78 -59 -78 -90 0 -15 7 -35 15 -46 8 -10 15 -26 15 -35 0 -9 9 -24 20 -34 11 -10 22 -27 26 -39 7 -22 73 -94 188 -204 38 -37 85 -82 103 -100 35 -33 40 -64 12 -70 -19 -3 -50 10 -104 43 -36 22 -67 41 -139 82 -11 7 -28 17 -36 23 -8 6 -27 18 -41 28 -64 42 -90 61 -191 140 -59 47 -109 91 -112 98 -7 19 -30 18 -46 -1 -11 -13 -10 -22 4 -48 30 -56 42 -76 59 -95 10 -10 17 -22 17 -26 0 -11 99 -127 123 -145 22 -16 41 -61 30 -72 -10 -10 -86 12 -138 40 -22 12 -45 21 -51 21 -9 0 -71 30 -163 80 -53 28 -191 135 -191 147 0 7 12 15 28 18 90 19 123 62 102 133 -16 55 -24 170 -15 219 9 50 120 158 171 167 22 4 49 14 60 21 12 8 50 16 85 18 97 7 362 -3 405 -15z m8524 -37 c0 -31 -29 -49 -45 -27 -18 24 -8 46 21 46 17 0 24 -6 24 -19z m-5528 -66 c4 -19 1 -25 -13 -25 -13 0 -19 7 -19 23 0 44 24 46 32 2z m4753 -5 c10 -16 -38 -70 -60 -67 -22 2 -24 39 -4 64 13 15 55 17 64 3z m-4903 -114 c-2 -21 -12 -55 -22 -75 -10 -20 -21 -58 -25 -86 -4 -27 -13 -61 -20 -75 -7 -14 -16 -54 -20 -90 -4 -36 -14 -77 -21 -92 -8 -15 -14 -43 -14 -62 0 -20 -9 -62 -19 -93 -11 -32 -22 -81 -25 -110 -4 -28 -13 -67 -20 -85 -7 -18 -16 -58 -20 -89 -3 -31 -13 -72 -21 -92 -8 -20 -15 -55 -15 -77 0 -22 -7 -57 -15 -77 -8 -20 -19 -71 -24 -115 -5 -43 -14 -84 -20 -92 -6 -7 -14 -57 -18 -110 -5 -80 -9 -99 -25 -107 -22 -12 -23 -35 -1 -85 24 -55 25 -350 1 -386 -9 -13 -19 -51 -23 -84 -4 -32 -14 -67 -23 -77 -12 -13 -13 -20 -4 -29 14 -14 16 -54 3 -62 -5 -3 -7 -16 -3 -28 4 -16 -3 -28 -27 -49 -26 -21 -33 -36 -35 -67 -1 -22 -10 -47 -19 -56 -19 -20 -21 -39 -7 -66 8 -15 6 -24 -10 -40 -11 -11 -20 -29 -20 -39 0 -32 -11 -51 -30 -51 -38 0 -43 28 -54 284 -2 59 -9 113 -15 119 -12 12 -15 189 -3 201 4 4 8 122 9 261 2 253 2 253 26 279 25 27 25 27 60 4 37 -23 51 -68 26 -84 -8 -4 -8 -9 0 -17 7 -7 19 -2 38 19 67 71 69 78 76 245 3 87 12 176 20 204 8 28 20 109 26 180 6 72 18 155 26 185 8 30 15 69 15 87 0 19 9 59 19 91 11 31 23 75 27 97 3 22 13 53 21 68 15 31 14 78 -2 84 -16 5 -72 -57 -125 -138 -8 -12 -22 -30 -30 -38 -8 -9 -37 -49 -64 -89 -27 -40 -53 -75 -58 -78 -4 -3 -15 -20 -24 -37 -8 -18 -26 -50 -39 -72 -14 -22 -32 -54 -40 -72 -8 -17 -19 -34 -24 -37 -5 -4 -12 -19 -16 -35 -3 -16 -13 -35 -21 -42 -8 -6 -14 -19 -14 -28 0 -9 -9 -34 -20 -56 -11 -21 -23 -55 -26 -74 -4 -20 -12 -43 -19 -51 -7 -8 -16 -40 -20 -70 -4 -30 -13 -66 -20 -80 -7 -14 -16 -68 -20 -120 -4 -52 -13 -126 -21 -163 -18 -89 -18 -330 1 -471 40 -306 41 -1157 1 -1235 -9 -16 -16 -52 -16 -78 -1 -26 -8 -66 -16 -88 -9 -22 -19 -63 -24 -92 -4 -29 -15 -62 -24 -75 -9 -12 -16 -34 -16 -48 0 -14 -9 -40 -20 -58 -11 -18 -20 -38 -20 -44 0 -19 -63 -142 -77 -151 -7 -4 -13 -14 -13 -22 0 -28 23 -27 64 3 32 24 46 28 54 20 17 -17 15 -33 -7 -76 -10 -20 -22 -62 -26 -92 -4 -30 -13 -66 -20 -80 -7 -14 -15 -51 -19 -83 -3 -32 -12 -71 -20 -85 -7 -15 -16 -56 -20 -91 -4 -35 -15 -78 -25 -96 -16 -31 -71 -85 -85 -85 -3 0 -31 -17 -63 -38 -81 -52 -89 -57 -168 -98 -38 -20 -81 -42 -95 -50 -14 -7 -32 -14 -41 -14 -9 0 -22 -6 -28 -14 -7 -8 -27 -18 -44 -21 -18 -4 -39 -13 -47 -20 -8 -7 -31 -16 -50 -20 -19 -4 -46 -13 -60 -19 -14 -7 -38 -19 -54 -27 -25 -12 -51 -42 -71 -84 -18 -38 -55 -174 -55 -202 0 -19 -6 -46 -14 -61 -7 -15 -17 -58 -20 -97 -4 -38 -13 -88 -21 -110 -8 -22 -17 -66 -20 -97 -3 -31 -13 -62 -21 -69 -8 -6 -14 -23 -14 -37 0 -24 -42 -97 -65 -114 -5 -4 -89 -7 -185 -5 -165 2 -177 3 -204 25 -33 25 -88 29 -106 7 -8 -10 -12 -58 -13 -149 0 -153 7 -171 90 -216 40 -21 52 -22 180 -19 129 4 138 3 141 -15 5 -24 -23 -47 -105 -86 -59 -29 -63 -33 -63 -65 0 -44 7 -46 172 -46 122 0 224 11 250 27 6 4 36 13 67 20 31 7 94 27 141 44 47 17 96 35 110 39 14 5 56 23 94 40 76 36 96 34 96 -5 0 -46 -50 -78 -270 -176 -142 -64 -267 -133 -303 -170 -10 -10 -27 -18 -39 -18 -12 0 -30 -8 -41 -17 -16 -15 -39 -18 -132 -18 -93 0 -116 3 -132 18 -11 9 -31 17 -45 17 -14 0 -33 9 -43 20 -10 11 -26 20 -35 20 -9 0 -28 9 -41 20 -13 12 -52 43 -86 69 -89 69 -198 209 -239 306 -7 19 -18 36 -23 39 -5 3 -12 21 -15 40 -4 19 -13 39 -21 46 -8 7 -15 23 -15 37 0 13 -9 41 -20 63 -11 22 -20 51 -20 64 0 14 -6 43 -14 63 -8 21 -17 60 -21 86 -7 54 -29 72 -51 42 -24 -33 -9 -357 20 -413 7 -15 16 -47 20 -72 4 -25 13 -54 20 -65 7 -11 16 -36 20 -56 3 -21 13 -42 21 -49 8 -7 17 -27 21 -46 3 -18 12 -38 20 -45 8 -6 14 -16 14 -22 0 -37 198 -336 288 -435 63 -69 77 -91 64 -104 -18 -18 -90 -11 -118 11 -15 12 -36 21 -47 21 -61 0 -288 224 -338 333 -14 31 -55 61 -70 51 -21 -13 9 -136 50 -204 47 -80 66 -218 36 -270 -8 -14 -14 -34 -15 -46 0 -12 -11 -42 -25 -68 -16 -30 -25 -63 -25 -91 0 -40 4 -47 52 -89 28 -25 64 -48 80 -51 15 -4 28 -10 28 -15 0 -8 59 -48 92 -62 9 -4 39 -23 67 -42 28 -20 55 -36 60 -36 5 0 16 -6 23 -14 8 -7 27 -21 43 -29 82 -44 210 -164 270 -251 36 -53 76 -99 98 -113 34 -21 94 -79 141 -133 38 -46 36 -120 -4 -120 -35 0 -60 22 -70 62 -16 59 -97 138 -142 138 -13 0 -9 -45 7 -66 8 -10 15 -38 15 -61 0 -50 -17 -63 -84 -63 -51 0 -76 19 -76 56 0 37 -49 103 -88 120 -95 39 -192 -17 -192 -111 0 -42 -32 -65 -93 -65 -60 0 -79 15 -110 83 -28 62 -117 86 -190 51 -24 -12 -43 -33 -64 -73 -27 -52 -32 -56 -68 -59 -75 -6 -103 5 -111 44 -6 32 -72 104 -96 104 -14 0 -29 -49 -22 -74 10 -40 -12 -76 -46 -76 -40 0 -47 21 -20 64 13 23 20 48 18 68 -3 30 -6 33 -42 36 -45 4 -101 -40 -111 -89 -4 -15 -13 -33 -21 -40 -8 -6 -14 -17 -14 -23 0 -6 -12 -37 -27 -68 -43 -89 -63 -76 -63 40 1 37 8 85 16 107 9 22 19 54 23 70 9 35 48 102 73 127 10 10 18 26 18 36 0 10 7 27 15 38 19 25 19 62 -1 115 -12 31 -18 92 -21 210 -5 166 -5 166 42 255 25 49 52 96 60 104 7 8 15 24 19 35 9 28 78 99 176 179 91 73 102 86 153 156 39 55 42 86 56 540 11 352 17 448 31 465 5 6 14 33 20 60 6 27 15 54 21 61 5 6 22 34 37 60 27 49 27 49 27 330 0 247 2 284 16 300 9 11 20 33 24 51 3 17 13 37 21 44 8 6 14 16 14 22 0 20 109 173 167 234 59 62 125 106 148 97 27 -11 34 -59 45 -309 6 -143 16 -300 23 -350 6 -49 12 -144 13 -210 2 -159 1 -155 23 -155 20 0 42 31 93 130 16 30 33 62 38 70 47 80 61 230 33 365 -16 78 -18 142 -18 492 0 393 0 402 21 430 12 15 30 28 40 28 18 0 19 -12 25 -180 4 -99 12 -196 18 -215 6 -19 15 -116 21 -215 5 -99 14 -198 19 -220 6 -22 13 -112 17 -200 3 -88 12 -207 20 -264 8 -58 14 -168 14 -245 0 -78 4 -147 9 -155 26 -40 70 64 81 190 4 53 13 105 19 117 6 11 13 67 17 124 3 56 11 117 16 133 6 17 17 98 24 180 6 83 17 168 23 190 6 22 11 96 10 165 0 69 -1 131 0 138 2 19 41 14 47 -5 3 -10 11 -34 19 -53 7 -19 18 -55 24 -80 38 -145 51 -169 95 -170 15 0 17 5 12 33 -3 17 -15 86 -25 152 -11 66 -24 132 -29 146 -6 15 -14 60 -18 100 -3 41 -13 90 -21 109 -8 19 -17 67 -20 105 -3 39 -12 83 -20 98 -8 16 -17 61 -20 100 -3 40 -11 83 -18 97 -7 14 -16 68 -20 120 -4 52 -15 113 -24 135 -25 62 -24 561 2 623 9 23 17 64 17 90 1 26 7 58 15 72 8 14 15 39 15 55 1 48 22 80 51 77 39 -4 47 -26 47 -120 -1 -99 17 -150 96 -271 24 -36 49 -76 55 -89 7 -13 21 -32 32 -43 10 -10 19 -28 19 -38 0 -11 4 -22 9 -25 12 -8 71 -113 71 -127 0 -6 9 -22 20 -36 11 -14 20 -34 20 -43 0 -10 6 -23 14 -29 8 -7 17 -27 20 -45 4 -19 13 -39 20 -46 8 -6 17 -29 21 -50 4 -21 12 -44 20 -50 7 -6 16 -27 20 -48 3 -20 12 -46 19 -57 7 -11 16 -38 20 -59 4 -22 14 -49 22 -60 8 -11 14 -36 14 -56 1 -19 9 -53 20 -75 11 -22 19 -45 20 -51 0 -17 27 -25 38 -11 5 7 15 46 21 87 6 41 16 102 22 135 14 78 4 375 -15 430 -7 22 -17 72 -21 110 -3 39 -12 79 -19 90 -7 11 -16 44 -20 74 -4 29 -13 63 -21 75 -7 11 -16 41 -20 66 -4 25 -13 55 -21 67 -7 12 -17 41 -20 65 -4 24 -13 52 -20 63 -7 11 -16 40 -20 65 -4 25 -12 52 -19 60 -7 8 -17 38 -21 65 -4 28 -13 60 -21 72 -8 12 -18 61 -23 110 -5 48 -14 106 -19 128 -15 58 -13 176 3 253 8 37 17 103 21 147 3 44 11 85 16 91 5 7 15 40 21 75 6 35 17 73 23 84 7 11 16 36 19 56 3 19 15 53 26 74 11 22 20 47 20 56 0 9 6 22 14 28 8 7 17 27 20 45 4 19 13 39 21 46 8 7 15 18 15 25 0 12 44 101 85 170 13 22 31 54 41 70 54 96 265 392 295 415 4 3 31 34 60 70 60 73 190 200 319 311 47 40 90 77 95 82 41 35 311 217 322 217 5 0 18 9 28 20 10 11 24 20 32 20 7 0 21 9 31 20 10 13 26 20 42 18 23 -3 25 -7 22 -42z m-2156 -21 c4 -8 17 -15 30 -15 34 0 85 -23 109 -49 19 -23 19 -23 -5 -42 -14 -10 -38 -23 -55 -27 -34 -10 -95 -63 -95 -83 0 -17 -30 -49 -46 -49 -25 0 -64 -102 -64 -168 0 -34 4 -62 8 -62 8 0 56 -98 67 -138 5 -16 14 -23 28 -21 38 2 45 0 52 -21 8 -25 45 -27 45 -3 0 14 2 15 13 4 10 -11 10 -14 0 -18 -39 -14 28 -123 76 -123 11 0 22 -8 26 -18 3 -11 17 -24 30 -30 14 -6 25 -16 25 -22 0 -16 -46 -12 -60 5 -15 18 -61 20 -77 4 -12 -12 -33 -4 -33 12 0 5 7 9 15 9 8 0 15 5 15 10 0 6 -7 10 -15 10 -8 0 -15 -4 -15 -10 0 -15 -36 -12 -50 5 -7 8 -19 15 -26 15 -8 0 -19 12 -24 26 -8 19 -15 24 -29 19 -27 -8 -83 17 -108 49 -13 16 -31 26 -47 26 -15 0 -31 8 -38 20 -7 11 -24 20 -37 20 -28 0 -87 57 -96 92 -4 14 -18 29 -36 35 -32 13 -36 24 -14 47 21 21 19 33 -10 58 -18 15 -25 31 -23 48 2 21 -3 27 -29 35 -18 5 -33 13 -33 17 0 5 -11 18 -25 30 -20 17 -25 31 -25 69 0 45 -2 48 -27 51 -17 2 -28 9 -28 18 0 13 21 15 143 12 142 -3 142 -3 152 23 7 17 16 25 27 23 26 -5 28 -35 3 -43 -30 -10 -14 -25 20 -18 20 3 39 0 56 -12 30 -19 41 -12 46 30 4 38 42 48 65 15 20 -28 33 -22 47 20 8 25 18 36 34 38 28 4 41 30 21 43 -21 13 -26 11 -32 -11 -6 -23 -27 -27 -27 -5 0 8 5 15 10 15 6 0 15 11 20 25 11 28 37 33 46 10z m6981 -38 c1 -46 -10 -77 -23 -64 -8 8 -6 95 2 109 11 18 21 -3 21 -45z m-5477 -76 c0 -11 -5 -23 -11 -27 -15 -9 -33 12 -26 30 9 23 37 20 37 -3z m-135 -51 c0 -9 -11 -16 -27 -18 -31 -4 -40 -35 -13 -46 17 -6 21 -36 4 -36 -6 0 -19 -10 -28 -22 -11 -13 -24 -19 -34 -15 -21 8 -12 33 14 40 25 7 24 23 -1 37 -21 11 -17 40 6 40 7 0 18 9 24 21 13 23 55 23 55 -1z m-697 -27 c5 -17 -26 -29 -40 -15 -6 6 -7 15 -3 22 9 14 37 9 43 -7z m562 -121 c0 -2 -15 -20 -32 -38 -35 -36 -68 -43 -88 -19 -17 21 -4 35 33 35 21 0 36 7 45 20 10 17 42 19 42 2z m-838 -48 c52 -13 105 -15 305 -12 261 4 270 2 232 -45 -10 -14 -19 -30 -19 -36 0 -5 -6 -14 -13 -18 -6 -4 -25 -25 -40 -45 -34 -46 -128 -138 -141 -138 -6 0 -27 -12 -47 -26 -36 -25 -41 -26 -167 -22 -107 2 -133 6 -149 21 -11 9 -26 17 -33 17 -34 0 -169 118 -237 209 -23 29 -32 98 -15 116 12 12 256 -3 324 -21z m12218 -178 c28 -19 68 -37 87 -41 20 -3 45 -13 57 -20 12 -7 39 -16 61 -20 22 -4 56 -14 75 -23 51 -23 270 -24 296 -1 11 9 35 20 54 23 19 4 55 23 80 42 63 48 85 57 114 50 20 -5 26 -13 26 -34 -1 -35 -29 -68 -110 -129 -91 -68 -158 -137 -166 -170 -4 -15 -12 -35 -19 -43 -8 -8 -16 -32 -20 -53 -4 -20 -16 -54 -26 -74 -11 -21 -19 -42 -19 -49 0 -15 -49 -36 -70 -29 -26 8 -33 30 -40 131 -5 87 -7 94 -43 137 -40 48 -108 94 -156 103 -17 4 -36 13 -42 20 -6 8 -26 14 -43 14 -17 0 -48 9 -69 20 -20 11 -44 20 -52 20 -9 0 -32 12 -51 28 -30 24 -34 33 -34 73 0 25 3 49 7 52 15 15 54 5 103 -27z m-12983 -122 c8 -20 -17 -36 -34 -22 -10 8 -10 14 -2 24 15 18 28 18 36 -2z m7163 -205 c5 -84 -7 -150 -29 -157 -18 -6 -24 46 -17 140 6 95 11 111 29 105 7 -2 14 -37 17 -88z m-5965 60 c0 -7 -8 -15 -17 -17 -18 -3 -25 18 -11 32 10 10 28 1 28 -15z m-35 -72 c0 -13 -9 -32 -20 -42 -11 -10 -20 -22 -20 -27 0 -5 -21 -36 -47 -68 -54 -67 -89 -79 -112 -37 -7 12 -30 35 -52 50 -54 39 -48 77 12 77 33 0 42 -12 41 -51 -1 -35 9 -43 33 -25 18 13 17 25 -7 58 -10 14 -9 21 6 37 22 24 44 17 52 -16 6 -24 6 -24 29 -3 13 12 26 33 29 46 9 34 56 35 56 1z m10201 -23 c25 -31 -26 -65 -127 -83 -22 -4 -51 -15 -64 -24 -14 -9 -32 -17 -41 -17 -9 0 -28 -9 -42 -20 -14 -11 -30 -20 -36 -20 -10 0 -65 -34 -106 -65 -10 -8 -24 -15 -30 -15 -5 0 -41 -30 -80 -65 -71 -66 -116 -82 -123 -44 -7 39 287 289 370 314 13 4 33 14 46 22 52 32 210 44 233 17z m164 -84 c4 -7 13 -7 26 0 22 12 39 6 39 -15 0 -18 -7 -21 -55 -29 -47 -8 -82 11 -72 38 7 18 52 22 62 6z m-4289 -47 c4 -14 2 -47 -5 -72 -6 -25 -12 -57 -12 -71 -2 -51 28 -241 39 -252 7 -7 12 -19 12 -27 0 -9 11 -38 25 -66 13 -27 25 -58 25 -67 0 -9 4 -19 10 -23 5 -3 23 -32 39 -65 17 -32 45 -81 63 -107 19 -26 39 -61 46 -76 13 -29 17 -35 57 -81 14 -16 25 -37 25 -47 0 -10 6 -22 13 -26 13 -9 67 -85 67 -96 0 -4 18 -33 40 -64 22 -32 40 -61 40 -66 0 -4 15 -29 34 -55 18 -27 37 -59 41 -73 4 -13 16 -35 26 -48 11 -13 19 -33 19 -43 0 -11 9 -31 20 -45 11 -14 20 -35 20 -46 0 -11 9 -34 19 -51 11 -17 22 -52 26 -78 4 -26 13 -53 21 -59 16 -13 19 -55 4 -64 -18 -11 -64 26 -125 103 -62 77 -173 200 -212 236 -13 11 -23 29 -23 42 0 12 -7 27 -15 34 -8 6 -17 22 -21 33 -4 12 -27 57 -53 100 -25 44 -55 94 -66 113 -57 98 -139 229 -151 242 -8 7 -14 17 -14 22 0 5 -15 30 -32 55 -18 26 -38 54 -43 63 -42 70 -62 96 -102 134 -27 25 -29 55 -7 106 8 20 22 73 29 117 7 44 18 98 24 120 6 22 11 68 11 103 0 54 3 65 25 84 15 13 25 32 25 48 0 46 26 56 36 13z m4208 -19 c4 -11 13 -14 30 -10 41 10 57 -33 16 -46 -10 -3 -14 -16 -12 -42 3 -31 0 -38 -17 -43 -28 -7 -27 -13 14 -60 19 -23 41 -58 47 -80 9 -26 20 -39 35 -41 14 -2 29 -18 42 -45 15 -31 33 -49 68 -67 34 -18 49 -33 53 -51 8 -43 44 -79 78 -79 22 0 32 -6 37 -20 5 -15 15 -20 40 -20 25 0 35 -5 40 -20 5 -15 15 -20 41 -20 65 0 71 -8 79 -121 5 -74 12 -110 27 -136 23 -39 27 -171 6 -184 -21 -13 -49 10 -43 34 4 16 -1 29 -18 45 -15 14 -23 31 -20 41 3 12 -12 35 -48 70 -55 55 -93 66 -102 31 -5 -21 -40 -27 -66 -11 -19 12 -6 28 29 36 37 8 37 15 5 43 -15 14 -39 22 -60 22 -33 0 -34 -1 -23 -25 14 -31 -10 -62 -50 -67 -15 -2 -31 -12 -37 -23 -27 -54 -59 -85 -87 -85 -16 0 -28 -5 -28 -13 0 -7 -9 -30 -20 -52 -26 -52 -25 -87 5 -150 20 -43 30 -53 56 -59 31 -6 32 -7 25 -51 -6 -48 12 -71 37 -46 30 30 61 4 33 -28 -16 -19 -28 -66 -19 -75 4 -3 17 6 29 21 22 27 23 27 41 10 17 -18 17 -19 -5 -37 -24 -20 -24 -20 37 -76 39 -36 61 -64 61 -78 0 -40 -68 -86 -127 -86 -14 0 -32 -8 -39 -17 -18 -25 -50 -5 -46 29 2 16 -3 28 -12 31 -10 4 -16 18 -16 37 0 39 -27 41 -32 3 -5 -42 -39 -38 -50 6 -8 28 -6 37 11 53 24 22 24 23 11 49 -6 10 -19 19 -29 19 -9 0 -24 13 -32 29 -58 117 -98 193 -107 204 -24 30 -29 224 -7 266 8 14 48 59 90 100 73 73 86 93 65 106 -20 12 -10 43 18 54 98 41 103 50 99 165 -3 101 -3 101 -32 99 -32 -3 -45 10 -45 45 0 21 -51 82 -69 82 -5 0 -11 -9 -14 -20 -3 -11 -10 -20 -16 -20 -17 0 -13 47 5 54 41 16 0 27 -110 31 -106 4 -122 3 -151 -15 -18 -11 -39 -20 -47 -20 -9 0 -47 -33 -87 -72 -73 -76 -87 -109 -54 -133 17 -13 10 -35 -12 -35 -7 0 -15 7 -19 15 -5 13 -36 22 -36 11 0 -2 -3 -11 -6 -20 -4 -12 0 -16 15 -16 21 0 27 -10 14 -23 -3 -4 -14 0 -24 9 -23 21 -39 10 -39 -25 0 -16 -7 -34 -14 -41 -8 -6 -20 -27 -26 -46 -6 -19 -15 -34 -19 -34 -12 0 -33 -193 -30 -270 3 -60 1 -73 -14 -81 -31 -18 -57 -1 -57 36 0 20 -6 35 -15 39 -8 3 -15 13 -15 23 0 10 -9 32 -20 48 -18 27 -20 47 -20 211 0 141 3 184 14 200 8 10 12 29 10 41 -4 15 3 29 25 49 17 15 31 33 31 40 0 17 53 34 72 23 10 -6 21 -1 36 16 27 31 36 31 60 0 26 -33 32 -32 32 5 0 27 3 30 33 30 21 0 36 7 45 20 7 12 23 20 40 20 16 0 32 8 40 20 7 12 23 20 40 20 17 0 32 8 40 21 9 14 20 19 33 16 14 -4 24 3 35 25 12 22 20 28 35 24 10 -3 28 -9 39 -12 28 -9 26 19 -2 31 -13 6 -23 17 -23 25 0 20 83 36 108 20 14 -8 22 -8 33 1 18 15 18 29 0 29 -18 0 -25 20 -19 53 6 30 37 37 47 11z m-10374 -44 c16 -10 5 -40 -18 -48 -15 -5 -26 23 -18 43 6 17 15 19 36 5z m920 -245 c0 -31 -13 -45 -41 -45 -15 0 -10 58 7 74 21 22 34 11 34 -29z m11342 -132 c22 -20 24 -61 3 -69 -8 -4 -15 -13 -15 -22 0 -8 -11 -35 -25 -59 -22 -37 -30 -43 -60 -43 -18 0 -35 6 -38 13 -8 24 6 37 39 37 30 0 34 3 34 27 0 14 -7 34 -15 43 -14 15 -14 18 0 30 8 7 15 18 15 24 0 14 20 36 34 36 5 0 18 -7 28 -17z m-1940 -106 c21 -23 38 -49 38 -58 0 -14 -65 -69 -83 -69 -12 0 -100 -63 -132 -95 -30 -31 -95 -120 -95 -131 0 -3 -10 -26 -21 -52 -26 -57 -24 -205 4 -259 10 -18 17 -42 17 -55 0 -13 9 -36 20 -53 11 -16 20 -40 20 -51 0 -12 9 -33 20 -47 11 -14 20 -32 20 -40 0 -9 6 -22 13 -29 15 -14 36 -52 63 -108 9 -19 19 -37 23 -40 4 -3 22 -34 40 -70 18 -36 39 -76 46 -90 8 -14 24 -50 36 -82 22 -56 22 -56 2 -95 -23 -44 -68 -71 -92 -56 -10 6 -17 28 -19 53 -2 24 -12 55 -23 68 -10 14 -19 36 -19 51 0 14 -9 37 -20 51 -11 14 -20 37 -20 51 0 14 -9 34 -20 44 -11 10 -20 27 -20 37 0 11 -9 31 -20 45 -11 14 -20 35 -20 45 0 11 -9 31 -20 45 -11 14 -20 33 -20 42 0 9 -9 30 -20 46 -11 17 -20 39 -20 50 0 11 -8 31 -17 45 -9 13 -20 42 -24 64 -4 23 -14 61 -23 86 -23 68 -40 223 -28 262 6 18 13 49 16 69 4 21 13 42 21 49 8 7 15 20 15 30 0 9 9 29 20 43 11 14 20 32 20 41 0 9 9 24 20 33 11 10 20 22 20 28 0 6 26 40 58 74 88 94 154 102 224 28z m-3752 13 c6 -11 17 -20 25 -20 21 0 27 -17 14 -41 -14 -28 -3 -109 16 -109 10 0 13 14 12 58 -2 51 0 57 18 57 17 0 21 -9 26 -60 4 -33 10 -70 14 -82 6 -19 4 -23 -14 -23 -12 0 -26 -11 -35 -27 -14 -28 -14 -28 -25 0 -6 16 -11 37 -11 48 0 10 -6 19 -12 19 -18 0 -71 68 -63 80 3 6 13 10 21 10 14 0 19 26 8 54 -3 9 -12 16 -20 16 -8 0 -14 9 -14 20 0 11 7 20 15 20 8 0 19 -9 25 -20z m5985 -68 c16 -8 44 -18 60 -22 29 -5 30 -8 33 -63 2 -40 -2 -68 -14 -90 -9 -18 -20 -54 -25 -81 -4 -27 -15 -56 -24 -66 -8 -9 -15 -25 -15 -36 0 -10 -9 -32 -20 -49 -11 -16 -20 -37 -20 -46 0 -23 -45 -61 -67 -57 -16 3 -19 18 -25 123 -3 66 -11 138 -17 160 -6 22 -11 77 -11 121 0 130 41 160 145 106z m-12837 -67 c-2 -14 -7 -26 -13 -26 -5 0 -11 12 -13 26 -2 18 1 25 13 25 12 0 15 -7 13 -25z m11794 -25 c22 -27 22 -34 1 -55 -9 -10 -20 -42 -24 -72 -4 -30 -15 -63 -23 -72 -9 -10 -16 -33 -16 -52 0 -19 -9 -51 -20 -72 -11 -20 -20 -51 -20 -68 0 -17 -5 -40 -11 -51 -6 -12 -16 -42 -23 -67 -21 -88 -58 -59 -92 74 -17 64 -41 138 -65 197 -10 26 -19 55 -19 66 0 11 -9 47 -20 81 -19 61 -16 104 9 112 6 2 77 3 158 3 139 -2 148 -3 165 -24z m229 -6 c33 -17 34 -37 3 -42 -14 -2 -24 6 -32 23 -19 41 -17 43 29 19z m-12095 -28 c8 -22 -14 -56 -37 -56 -11 0 -19 3 -17 8 33 67 43 76 54 48z m6309 -127 c3 -15 26 -48 51 -74 24 -26 44 -52 44 -57 0 -6 11 -23 25 -40 37 -43 42 -76 16 -94 -26 -19 -27 -34 -1 -34 13 0 20 7 20 20 0 28 28 37 48 16 16 -16 15 -19 -7 -37 -25 -20 -25 -20 6 -45 17 -13 37 -40 43 -58 6 -19 18 -40 26 -46 39 -33 -11 -126 -83 -157 -38 -15 -39 -20 -16 -45 21 -24 6 -41 -37 -40 -25 1 -30 -3 -30 -23 0 -13 -4 -27 -10 -30 -5 -3 -7 -19 -3 -35 3 -18 0 -36 -8 -46 -11 -14 -10 -18 6 -30 10 -8 22 -14 27 -14 18 0 8 -80 -12 -98 -24 -20 -20 -84 8 -140 16 -31 16 -35 -1 -63 -10 -18 -17 -51 -17 -83 0 -29 -5 -57 -11 -63 -7 -7 -5 -25 6 -61 19 -58 17 -77 -11 -77 -23 0 -32 -48 -14 -70 7 -8 9 -22 6 -31 -6 -15 -8 -15 -26 1 -23 21 -40 12 -40 -20 0 -13 -7 -31 -16 -40 -9 -8 -14 -24 -11 -35 3 -14 -8 -31 -40 -61 -25 -23 -49 -56 -54 -75 -6 -20 -30 -51 -61 -79 -45 -41 -50 -48 -35 -56 41 -23 2 -59 -63 -59 -26 0 -31 -5 -40 -39 -6 -22 -23 -51 -40 -65 -19 -15 -30 -34 -30 -50 0 -37 -18 -76 -35 -76 -8 0 -15 -7 -15 -15 0 -8 7 -15 15 -15 9 0 18 7 21 15 4 8 12 15 19 15 23 0 28 -20 9 -41 -18 -19 -17 -21 11 -43 28 -23 28 -23 8 -34 -17 -9 -24 -8 -39 9 -10 11 -26 18 -36 16 -14 -4 -18 1 -18 24 0 29 -1 30 -35 23 -31 -5 -36 -3 -44 19 -7 19 -18 26 -46 29 -40 5 -61 -16 -49 -47 6 -13 1 -16 -22 -13 -28 3 -29 5 -31 63 -2 68 9 121 39 183 16 35 18 48 9 74 -10 27 -8 35 9 53 11 12 18 29 15 37 -3 8 5 36 19 62 14 26 25 54 24 64 0 22 22 142 29 162 4 8 7 26 9 40 5 49 21 110 34 125 7 8 10 22 6 30 -6 17 23 85 37 85 5 0 6 18 2 39 -12 73 4 152 38 183 29 28 29 29 23 111 -8 104 1 141 37 145 27 3 35 16 17 27 -15 9 -12 41 5 55 8 7 15 25 15 40 0 16 -7 30 -15 34 -8 3 -15 15 -15 26 0 11 7 20 15 20 9 0 15 -9 15 -21 0 -14 5 -19 18 -17 21 4 27 64 11 125 -10 37 -8 47 14 90 14 26 28 71 32 98 4 28 13 64 20 80 7 17 13 37 14 45 2 59 19 151 30 164 7 8 11 21 8 28 -6 18 20 78 45 106 22 22 22 22 64 -19 24 -23 46 -55 49 -70z m795 56 c16 -19 4 -35 -25 -35 -27 0 -39 14 -31 35 7 19 40 19 56 0z m-7045 -19 c15 -23 12 -56 -6 -56 -5 0 -14 11 -19 24 -5 13 -14 27 -19 31 -18 10 -12 25 9 25 11 0 26 -11 35 -24z m-79 -43 c16 -25 18 -54 20 -266 1 -160 5 -242 13 -250 6 -6 11 -26 11 -43 0 -18 5 -36 10 -39 17 -10 11 -44 -10 -57 -12 -8 -20 -24 -20 -40 0 -42 -10 -58 -36 -58 -24 0 -32 14 -14 25 17 11 11 37 -10 42 -11 3 -24 20 -31 41 -10 31 -13 34 -24 19 -17 -23 -46 -21 -52 3 -7 26 -19 25 -55 -5 -54 -46 -63 -34 -62 82 0 98 2 105 38 177 31 62 43 76 62 76 33 0 38 15 9 28 -36 17 -33 50 8 67 64 27 105 97 60 103 -13 2 -23 10 -23 17 0 27 20 65 34 65 7 0 16 9 19 20 7 28 32 25 53 -7z m7164 -33 c0 -10 -5 -22 -10 -25 -13 -8 -24 20 -16 41 8 20 26 9 26 -16z m3943 -125 c5 -16 15 -44 23 -62 8 -17 14 -43 14 -58 0 -15 8 -42 19 -59 10 -17 21 -51 25 -76 4 -24 14 -52 22 -61 9 -10 18 -44 21 -77 5 -49 9 -61 25 -66 30 -7 16 -31 -21 -34 -40 -4 -58 10 -66 51 -4 18 -13 41 -19 52 -7 11 -16 36 -20 56 -11 60 -41 107 -100 154 -33 27 -56 54 -56 65 0 28 91 151 109 148 8 -2 18 -16 24 -33z m-1008 -150 c0 -36 -28 -46 -44 -16 -15 27 -3 53 23 49 16 -2 21 -10 21 -33z m-2837 -37 c-2 -13 -10 -23 -18 -23 -8 0 -16 10 -18 23 -3 17 2 22 18 22 16 0 21 -5 18 -22z m4244 -25 c30 -6 46 -50 34 -97 -6 -25 8 -44 19 -26 10 17 55 12 61 -7 3 -10 12 -31 21 -46 17 -31 11 -57 -12 -57 -10 0 -15 10 -15 30 0 17 -4 30 -9 30 -24 0 -29 -85 -6 -94 8 -3 15 -14 15 -24 0 -11 -7 -25 -15 -32 -10 -8 -15 -31 -15 -68 0 -36 -5 -61 -16 -73 -14 -16 -14 -19 5 -38 12 -12 21 -27 21 -33 0 -7 8 -3 18 9 19 24 72 42 72 24 0 -6 -4 -11 -8 -11 -4 0 -14 -15 -22 -32 -7 -18 -15 -36 -18 -40 -2 -5 7 -8 20 -8 54 -1 65 -46 12 -52 -20 -2 -30 -11 -37 -31 -12 -37 -2 -45 21 -17 22 27 52 22 52 -9 0 -28 -60 -91 -87 -91 -28 0 -38 -17 -23 -35 16 -19 -1 -63 -36 -96 -18 -17 -24 -33 -24 -65 0 -46 -12 -60 -47 -56 -14 2 -23 -4 -28 -18 -6 -19 -13 -21 -98 -18 -92 3 -92 3 -95 31 -2 16 4 39 12 52 9 13 16 29 16 35 0 6 11 28 25 48 14 20 25 50 25 67 0 17 7 40 15 51 31 41 0 160 -56 209 -40 36 -99 116 -99 135 0 13 14 23 51 35 40 14 49 20 43 34 -16 37 -9 55 27 73 36 17 59 56 59 99 0 10 9 20 19 24 27 8 34 35 16 55 -22 25 -21 126 3 139 9 6 26 8 37 5 11 -3 32 -8 47 -11z m-4202 -47 c0 -8 10 -22 21 -30 13 -9 19 -21 16 -30 -9 -22 -28 -20 -34 4 -3 11 -11 20 -19 20 -17 0 -27 17 -20 35 7 19 36 19 36 1z m2795 4 c8 -13 -3 -50 -15 -50 -18 0 -33 42 -19 51 18 11 27 11 34 -1z m-2690 -20 c0 -22 -29 -18 -33 3 -3 14 1 18 15 15 10 -2 18 -10 18 -18z m2765 -92 c0 -17 8 -40 17 -50 15 -17 15 -19 -1 -31 -22 -16 -13 -63 15 -78 19 -10 27 -49 10 -49 -5 0 -16 -3 -24 -6 -10 -3 -18 3 -22 17 -4 13 -16 30 -27 38 -18 15 -18 18 -3 54 11 27 13 43 5 57 -14 26 -13 77 3 83 20 7 27 -2 27 -35z m1214 -1 c-3 -9 -12 -17 -19 -17 -19 0 -27 30 -14 47 16 19 43 -6 33 -30z m-5357 -22 c5 -16 -14 -38 -26 -31 -18 12 -13 48 6 44 9 -2 18 -7 20 -13z m1397 -30 c9 -25 -5 -46 -28 -43 -15 2 -22 11 -24 31 -3 23 0 27 21 27 14 0 27 -7 31 -15z m-7728 -40 c4 -9 -4 -23 -17 -34 -30 -24 -14 -50 19 -32 23 12 32 6 32 -25 0 -42 -39 -33 -108 27 -15 12 1 39 23 39 7 0 15 9 18 20 6 24 25 26 33 5z m7791 -52 c8 -21 31 -55 49 -76 19 -20 34 -46 34 -57 0 -26 59 -80 89 -80 13 0 30 8 37 18 10 13 15 14 25 5 10 -10 9 -16 -4 -31 -37 -40 4 -112 63 -112 20 0 31 -6 35 -20 4 -14 15 -20 36 -20 18 0 33 -7 41 -20 12 -19 24 -20 165 -20 84 0 153 4 153 9 0 15 59 31 111 31 27 0 49 4 49 9 0 15 59 31 111 31 27 0 49 4 49 9 0 17 68 32 132 29 51 -2 63 0 63 12 0 9 -11 16 -27 18 -16 2 -28 9 -28 17 0 8 -12 21 -27 29 -24 12 -25 16 -11 21 10 4 27 0 40 -9 12 -9 29 -16 37 -16 8 0 22 -6 30 -14 9 -8 43 -16 76 -18 59 -3 60 -3 63 25 5 39 46 38 67 -3 14 -26 21 -30 58 -30 23 0 55 7 71 15 36 19 54 19 72 0 20 -20 51 -19 62 1 5 9 18 14 33 12 20 -2 23 -8 21 -30 -4 -32 -7 -31 100 -28 68 1 78 -1 90 -19 11 -18 23 -21 80 -21 57 0 70 -3 80 -20 10 -15 24 -20 59 -20 50 0 109 -17 109 -31 0 -5 13 -9 29 -9 35 0 91 -19 91 -31 0 -5 22 -9 49 -9 41 0 54 5 84 33 20 17 49 43 66 57 37 30 64 74 71 115 4 25 10 31 36 33 22 2 34 9 37 23 6 24 49 26 68 3 10 -13 10 -19 0 -36 -10 -16 -10 -23 2 -36 27 -31 57 -110 57 -150 0 -35 -7 -45 -75 -111 -41 -40 -75 -77 -75 -81 0 -5 -8 -11 -18 -14 -35 -11 -51 -193 -30 -347 10 -76 14 -89 35 -98 21 -10 23 -15 17 -53 -5 -36 -4 -41 7 -30 34 32 80 2 58 -39 -13 -25 -3 -78 21 -104 27 -31 43 -92 37 -144 -5 -41 -3 -48 21 -68 25 -20 26 -23 11 -38 -30 -31 0 -97 81 -181 39 -39 70 -79 70 -88 0 -25 19 -19 30 9 12 32 59 35 67 5 7 -25 19 -26 26 -1 3 11 17 22 36 26 33 7 40 19 16 29 -20 7 -19 36 1 36 8 0 31 -12 50 -26 30 -24 34 -25 40 -9 5 11 1 21 -9 27 -10 5 -17 17 -17 26 0 10 -6 24 -12 31 -11 11 -10 13 5 7 10 -3 29 -6 42 -6 17 0 25 -6 27 -22 2 -18 10 -22 40 -23 20 -1 48 -9 62 -18 27 -18 116 -24 116 -8 0 19 67 31 169 31 95 0 107 2 119 20 8 13 23 20 42 20 17 0 30 4 30 9 0 12 55 31 89 31 15 0 31 8 39 20 8 13 23 20 41 20 19 0 32 6 35 18 5 14 18 17 72 18 56 0 70 4 84 22 10 12 20 18 24 15 10 -10 7 -43 -4 -43 -16 0 -11 -24 8 -41 35 -30 42 -31 52 -4 15 40 33 20 26 -29 -8 -49 17 -83 54 -73 33 8 105 -96 94 -137 -4 -16 -1 -25 10 -29 9 -4 16 -14 16 -24 0 -10 9 -31 20 -48 11 -16 20 -37 20 -46 0 -8 11 -26 25 -39 14 -14 25 -35 25 -50 0 -34 45 -79 62 -62 7 7 18 12 25 12 21 0 15 -20 -9 -29 -22 -8 -22 -8 7 -35 18 -17 25 -30 19 -36 -6 -6 -172 -11 -414 -12 -305 -2 -404 -6 -407 -15 -3 -9 95 -13 426 -15 327 -2 433 -6 443 -15 6 -7 8 -13 3 -13 -468 -9 -2379 -9 -2389 -1 -20 17 -72 30 -94 24 -11 -2 -25 -16 -31 -29 -6 -13 -18 -24 -26 -24 -8 0 -21 -11 -27 -25 -13 -29 -52 -34 -78 -10 -16 14 -18 13 -23 -14 -5 -23 -15 -34 -43 -46 -21 -8 -43 -24 -51 -34 -9 -13 -20 -17 -35 -13 -32 8 -115 93 -124 125 -4 20 -14 30 -35 34 -21 4 -31 14 -39 39 -13 39 -46 52 -81 34 -28 -15 -49 8 -49 52 0 22 -6 29 -27 34 -16 4 -38 12 -49 20 -12 7 -50 14 -84 16 -51 2 -65 7 -74 23 -6 11 -12 22 -13 24 -2 2 -9 -2 -17 -8 -26 -22 -38 -3 -32 48 6 42 5 44 -9 27 -13 -17 -18 -18 -39 -6 -35 18 -42 42 -17 59 28 18 26 31 -4 31 -16 0 -25 -6 -25 -15 0 -20 -29 -19 -37 1 -4 10 0 20 10 26 18 10 23 38 7 38 -5 0 -27 15 -47 33 -39 35 -119 77 -144 77 -8 0 -23 -7 -33 -15 -11 -8 -28 -15 -37 -15 -22 0 -102 -83 -109 -113 -4 -13 -15 -23 -29 -25 -19 -3 -22 -8 -17 -28 5 -18 0 -27 -21 -41 -40 -26 -113 -105 -114 -123 0 -8 -13 -37 -28 -65 -25 -45 -32 -50 -58 -47 -24 2 -32 -2 -36 -18 -4 -16 -12 -20 -33 -18 -41 4 -45 -27 -4 -35 32 -7 41 -31 14 -41 -30 -11 -52 -6 -57 14 -7 28 -42 25 -69 -5 -13 -15 -32 -25 -49 -25 -19 0 -30 -6 -34 -20 -5 -15 -15 -20 -40 -20 -25 0 -35 -5 -40 -20 -5 -17 -15 -20 -58 -20 -42 0 -55 -4 -65 -21 -10 -16 -20 -19 -38 -15 -31 8 -45 -19 -19 -38 14 -10 15 -15 5 -21 -8 -5 -18 -2 -25 8 -20 28 -53 21 -71 -15 -26 -50 -68 -65 -94 -33 -8 9 -21 13 -36 9 -15 -4 -34 0 -49 10 -20 13 -30 14 -46 6 -22 -12 -20 -37 2 -32 28 7 99 -9 99 -23 0 -18 -23 -25 -83 -25 -29 0 -88 -7 -132 -14 -68 -12 -83 -19 -105 -45 -22 -27 -30 -30 -60 -25 -32 5 -40 1 -88 -46 -42 -41 -51 -56 -46 -75 4 -17 0 -26 -15 -34 -11 -6 -26 -23 -33 -37 -17 -35 -30 -34 -49 4 -9 18 -21 38 -27 45 -6 7 -9 22 -6 34 8 31 -11 60 -46 66 -33 7 -43 43 -15 53 19 8 9 24 -14 24 -37 0 -45 26 -22 66 20 33 21 54 2 54 -5 0 -11 -9 -14 -21 -10 -38 -42 -19 -43 26 -1 22 -2 50 -3 62 0 12 -21 45 -46 74 -25 29 -45 57 -45 62 0 17 -51 115 -66 128 -8 6 -14 21 -14 33 0 13 -23 47 -55 82 -30 32 -50 61 -45 62 6 2 19 -3 29 -12 10 -9 23 -16 29 -16 6 0 15 -8 21 -17 9 -17 11 -17 29 1 11 10 40 20 64 23 25 4 48 14 56 25 8 10 25 18 42 18 20 0 31 6 35 20 5 15 15 20 40 20 25 0 35 5 40 20 4 14 15 20 35 20 17 0 40 10 57 26 28 25 28 25 4 43 -24 18 -24 18 -1 34 12 8 31 30 41 47 17 27 24 30 56 28 31 -3 37 0 42 21 4 13 23 33 43 44 35 21 37 21 55 4 27 -24 35 -22 81 23 22 22 50 40 61 40 12 0 31 11 43 25 13 15 32 25 49 25 24 0 28 4 31 33 4 46 42 46 46 0 3 -32 3 -32 100 -35 53 -2 177 -2 275 0 177 3 177 3 177 33 0 36 24 48 49 25 17 -16 19 -15 35 10 16 24 21 25 67 19 33 -5 49 -3 49 4 0 6 -10 11 -22 11 -56 1 -60 44 -6 56 25 5 34 2 47 -15 20 -27 32 -18 25 19 -5 25 -2 28 47 46 45 16 55 24 63 52 7 26 5 36 -9 52 -19 21 -14 50 9 50 7 0 16 -7 20 -15 7 -20 36 -19 36 1 0 9 -9 28 -20 44 -11 15 -24 39 -30 54 -12 31 -26 34 -33 5 -3 -12 -10 -18 -16 -14 -16 10 -13 45 4 45 8 0 15 9 15 20 0 11 -6 20 -14 20 -8 0 -18 -9 -21 -20 -7 -21 -14 -24 -39 -14 -11 4 -16 19 -16 50 0 42 -1 44 -30 44 -17 0 -33 -6 -36 -14 -9 -24 -33 -27 -45 -5 -8 16 -7 25 5 38 18 20 21 41 7 41 -6 0 -13 -5 -16 -11 -13 -21 -108 0 -132 28 -21 26 -22 26 -48 9 -39 -26 -71 -18 -67 16 2 24 -2 28 -37 38 -41 11 -71 41 -71 72 0 9 -13 26 -30 38 -21 15 -30 30 -30 50 0 19 -9 35 -27 49 -51 38 -55 43 -49 65 2 11 -2 30 -10 40 -8 11 -14 28 -14 37 0 10 -24 41 -54 69 -74 70 -83 95 -68 183 7 39 17 76 23 83 6 7 8 23 4 35 -4 12 -4 49 0 84 5 51 10 65 28 73 34 16 37 15 54 -25z m-7401 -55 c-3 -13 -6 -39 -6 -57 0 -49 -16 -26 -23 32 -4 42 -2 47 15 47 16 0 19 -5 14 -22z m6647 -16 c9 -8 26 -20 36 -26 34 -20 76 -50 86 -61 6 -6 37 -32 70 -58 111 -87 187 -159 310 -292 64 -69 135 -184 141 -228 12 -89 70 -189 148 -259 17 -15 39 -35 48 -44 20 -19 51 -38 88 -53 14 -6 38 -17 53 -26 16 -8 37 -15 48 -15 10 0 47 -10 80 -21 52 -18 78 -21 159 -17 54 3 105 1 114 -4 41 -23 3 -71 -69 -89 -28 -6 -55 -15 -60 -20 -6 -4 -53 -16 -105 -26 -176 -34 -435 -21 -585 29 -127 42 -164 34 -166 -36 0 -17 -12 -56 -27 -86 -27 -55 -27 -55 -82 -58 -44 -2 -65 2 -103 23 -62 32 -77 32 -109 -5 -19 -22 -28 -46 -33 -92 -11 -98 -59 -168 -115 -168 -7 0 -23 -9 -37 -20 -14 -11 -34 -20 -43 -20 -10 0 -23 -6 -29 -14 -7 -8 -24 -17 -38 -21 -15 -3 -38 -15 -51 -26 -14 -10 -33 -19 -42 -19 -10 0 -23 -7 -30 -16 -16 -18 -75 -44 -101 -44 -25 0 -70 73 -77 124 -3 23 -11 50 -17 61 -7 11 -16 38 -20 59 -4 22 -15 51 -26 64 -37 48 -27 75 58 144 114 92 170 153 245 265 80 118 149 271 163 358 4 22 14 63 23 90 12 39 15 92 15 235 0 167 -3 195 -27 287 -30 118 -31 127 -11 146 17 18 88 5 118 -21z m-7111 6 c8 -21 -2 -38 -23 -38 -19 0 -27 29 -12 43 11 11 31 8 35 -5z m10636 -56 c4 -27 -18 -38 -47 -22 -38 20 -22 51 24 47 12 -1 21 -11 23 -25z m-8955 -2 c9 -11 17 -32 17 -46 0 -14 4 -34 10 -44 14 -26 2 -50 -25 -50 -21 0 -23 -4 -22 -46 2 -60 -19 -70 -28 -14 -5 30 -3 45 7 53 8 7 20 29 27 51 12 35 11 41 -8 67 -35 47 -16 73 22 29z m7732 -74 c18 -13 18 -14 -3 -25 -39 -21 -71 -8 -58 24 7 19 36 19 61 1z m173 -13 c2 -8 -6 -13 -22 -13 -28 0 -43 15 -24 23 20 8 41 3 46 -10z m1973 -130 c3 -49 -5 -91 -21 -118 -10 -16 -20 -46 -24 -66 -4 -21 -13 -42 -21 -49 -8 -7 -15 -20 -15 -30 0 -9 -9 -29 -20 -43 -11 -14 -20 -28 -20 -31 0 -3 -14 -25 -30 -48 -33 -46 -99 -88 -136 -88 -50 0 -164 104 -164 149 0 26 65 91 149 146 36 25 84 57 107 72 22 16 47 33 56 38 51 33 74 52 86 67 17 23 52 23 53 1z m944 -43 c7 -12 -28 -115 -47 -137 -9 -10 -19 -28 -22 -40 -4 -13 -11 -23 -16 -23 -5 0 -16 -13 -25 -29 -20 -39 -141 -158 -168 -167 -12 -3 -29 -12 -37 -19 -27 -23 -57 -27 -74 -10 -21 22 -20 50 5 121 11 32 24 76 28 97 9 39 22 53 81 88 19 11 76 44 125 74 85 51 137 67 150 45z m-12627 -385 c2 -110 6 -153 17 -168 8 -12 15 -42 16 -67 0 -25 4 -53 8 -63 4 -10 4 -43 1 -73 -6 -49 -4 -56 17 -69 29 -19 29 -28 1 -87 -24 -51 -50 -68 -103 -68 -38 0 -45 15 -18 35 9 7 13 17 9 23 -12 20 -54 14 -67 -9 -8 -16 -14 -18 -22 -10 -9 9 -8 17 1 31 6 11 12 35 12 53 0 19 2 36 5 39 3 3 7 79 8 169 1 90 6 171 12 179 5 8 11 26 12 40 3 44 20 109 32 124 7 8 10 24 6 35 -6 20 19 44 40 37 6 -1 11 -63 13 -151z m10940 97 c37 -90 40 -94 93 -177 52 -80 159 -174 198 -175 8 0 23 -8 34 -17 28 -26 386 -24 462 2 39 13 103 18 295 22 241 5 245 5 273 -17 35 -27 34 -47 -2 -79 -16 -14 -68 -62 -115 -105 -88 -81 -178 -149 -213 -160 -13 -4 -29 1 -46 14 -36 28 -42 26 -87 -32 -79 -103 -104 -119 -116 -70 -11 42 -53 92 -79 92 -18 0 -33 -16 -63 -63 -32 -51 -47 -65 -78 -75 -57 -17 -68 -4 -59 74 6 55 4 65 -14 83 -27 27 -55 27 -74 -2 -18 -28 -217 -227 -227 -227 -4 0 -19 -11 -35 -25 -29 -28 -43 -28 -59 -3 -7 12 -3 26 16 55 21 31 27 54 33 128 6 86 2 111 -24 155 -5 8 -14 26 -20 40 -6 14 -22 43 -35 65 -43 74 -86 158 -86 168 0 6 -7 18 -15 27 -19 21 -36 154 -30 245 2 39 4 80 4 93 1 16 7 22 24 22 17 0 27 -12 45 -58z m-10834 -648 c12 -31 6 -56 -15 -61 -17 -5 -20 -11 -15 -33 3 -16 -1 -35 -8 -46 -13 -17 -14 -17 -25 4 -12 22 -5 72 9 72 5 0 12 15 15 33 11 51 27 63 39 31z m12156 -125 c0 -5 -11 -11 -24 -15 -15 -3 -26 -14 -28 -27 -2 -16 -11 -23 -30 -25 -24 -3 -28 0 -28 23 0 16 7 28 18 31 9 3 28 11 41 19 25 13 51 10 51 -6z m-5972 -298 c18 -22 32 -44 32 -48 0 -5 8 -16 18 -25 93 -91 437 -547 463 -615 5 -13 13 -23 18 -23 5 0 14 -12 20 -27 11 -28 21 -47 53 -94 9 -15 20 -38 23 -52 4 -14 13 -28 20 -31 8 -3 17 -21 21 -41 3 -20 12 -39 20 -42 7 -2 16 -19 20 -36 3 -18 12 -39 19 -47 7 -8 17 -33 23 -55 14 -54 31 -103 51 -145 17 -36 86 -110 103 -110 14 0 168 -102 168 -111 0 -4 26 -11 58 -15 31 -3 68 -12 82 -19 14 -7 49 -15 79 -19 29 -4 63 -13 75 -21 11 -7 40 -16 63 -20 23 -4 47 -13 53 -20 6 -7 29 -16 50 -20 21 -4 44 -12 50 -20 6 -7 26 -16 44 -19 19 -4 39 -13 45 -20 7 -8 24 -17 38 -21 15 -3 38 -15 51 -26 14 -10 29 -19 34 -19 5 0 29 -16 52 -35 24 -19 48 -35 54 -35 6 0 54 -34 106 -76 105 -83 123 -116 68 -128 -30 -7 -89 -57 -117 -99 -28 -44 -23 -159 9 -206 15 -20 26 -42 26 -48 0 -6 9 -22 21 -37 14 -18 19 -37 17 -63 -3 -34 -6 -38 -34 -41 -27 -3 -36 3 -67 45 -62 84 -116 130 -194 168 -17 8 -34 19 -37 24 -3 5 -17 12 -31 15 -14 4 -34 15 -45 26 -11 11 -29 20 -39 20 -24 0 -140 111 -170 162 -21 36 -132 118 -158 118 -7 0 -30 9 -50 20 -21 11 -48 20 -61 20 -13 0 -37 8 -55 17 -18 9 -66 20 -107 24 -41 4 -100 14 -130 23 -34 10 -95 16 -165 16 -67 1 -125 6 -149 15 -48 17 -247 40 -270 32 -33 -13 -15 -50 29 -62 22 -5 49 -15 60 -21 11 -6 40 -14 65 -17 25 -3 59 -13 75 -21 17 -9 47 -16 68 -16 21 0 53 -6 72 -14 19 -8 56 -18 82 -22 26 -3 57 -11 68 -17 11 -6 45 -16 75 -23 87 -20 214 -66 260 -95 8 -5 35 -19 59 -31 25 -12 75 -51 113 -87 97 -93 119 -111 138 -111 10 0 23 -7 30 -15 7 -8 17 -15 23 -15 11 0 112 -44 137 -60 8 -5 30 -16 48 -24 41 -19 139 -116 152 -152 16 -40 0 -47 -51 -25 -33 15 -66 21 -128 21 -83 0 -83 0 -133 -47 -50 -48 -50 -48 -44 -111 6 -75 2 -88 -34 -107 -26 -13 -30 -12 -69 16 -23 16 -46 40 -51 52 -14 36 -118 147 -194 208 -73 58 -234 149 -264 149 -10 0 -34 9 -55 20 -46 25 -105 27 -114 3 -4 -11 0 -21 12 -27 10 -6 25 -19 34 -28 8 -10 19 -18 23 -18 9 0 125 -88 196 -148 71 -61 100 -91 197 -197 44 -49 89 -98 101 -109 11 -12 24 -34 28 -50 7 -28 7 -28 -31 -22 -21 4 -74 9 -118 12 -76 6 -84 4 -125 -22 -82 -51 -95 -75 -95 -177 0 -106 -15 -127 -91 -127 -50 0 -112 -26 -117 -49 -6 -31 11 -92 33 -115 14 -16 20 -33 18 -52 -3 -27 -7 -29 -49 -32 -59 -4 -96 11 -111 45 -7 16 -20 39 -30 52 -11 14 -18 41 -18 65 0 22 -7 61 -15 86 -8 25 -17 56 -19 70 -6 31 -85 115 -146 155 -56 37 -130 115 -130 136 0 9 -9 27 -20 40 -11 13 -40 49 -64 80 -43 54 -175 169 -195 169 -6 0 -18 8 -28 19 -10 10 -29 22 -43 26 -13 4 -37 17 -53 29 -21 16 -32 18 -45 10 -33 -21 -23 -42 53 -115 95 -92 244 -278 271 -339 6 -14 18 -31 27 -39 10 -7 17 -22 17 -32 0 -10 9 -24 20 -31 23 -14 27 -60 7 -76 -8 -7 -19 -6 -37 3 -58 32 -167 7 -211 -49 -12 -16 -25 -46 -30 -69 -7 -43 6 -163 20 -181 5 -6 14 -31 21 -56 7 -25 21 -57 31 -71 10 -15 19 -32 19 -39 0 -7 11 -25 25 -42 44 -53 24 -109 -28 -75 -58 38 -296 272 -360 353 -94 118 -124 164 -161 241 -9 17 -20 34 -25 37 -5 4 -13 21 -17 39 -3 17 -15 43 -25 56 -11 13 -19 34 -19 46 0 12 -6 28 -14 34 -8 7 -17 31 -21 54 -4 23 -16 61 -27 84 -21 46 -19 102 7 153 7 14 16 54 20 90 4 36 13 75 21 87 8 12 14 35 14 50 0 16 7 53 16 83 8 30 22 89 29 130 18 94 42 200 48 206 6 6 77 -25 77 -34 0 -5 23 -24 52 -42 48 -31 62 -42 109 -85 9 -8 20 -15 24 -15 12 0 88 -52 98 -67 4 -7 13 -13 19 -13 15 0 90 -51 101 -67 4 -7 13 -13 19 -13 6 0 55 -29 108 -65 53 -36 100 -65 103 -65 4 0 33 -18 64 -40 32 -22 63 -40 69 -40 6 0 19 -9 29 -20 10 -11 24 -20 31 -20 7 0 39 -17 71 -38 84 -54 95 -61 130 -77 17 -8 34 -19 38 -25 13 -21 116 -63 127 -52 20 20 -13 72 -70 114 -30 22 -62 48 -71 57 -9 9 -57 49 -106 90 -116 95 -221 190 -354 320 -58 57 -115 111 -126 120 -58 48 -70 80 -70 186 0 65 6 121 17 160 57 196 65 247 43 265 -22 18 -91 14 -136 -9 -21 -11 -66 -23 -101 -27 -35 -4 -80 -15 -100 -25 -21 -11 -49 -19 -63 -19 -23 0 -25 4 -25 41 0 23 8 56 19 73 10 17 22 55 25 85 4 30 13 66 20 80 8 14 17 53 21 86 4 33 13 71 20 85 7 14 16 52 20 85 4 33 13 71 20 85 7 14 16 51 20 83 3 32 13 73 20 90 7 18 16 57 20 87 4 30 13 66 20 80 7 14 15 54 19 89 4 36 13 76 20 90 8 14 17 53 21 86 4 33 12 69 18 80 6 11 16 54 23 95 6 41 17 102 24 135 7 33 14 70 16 83 6 31 16 28 52 -17z m2822 -211 c4 -8 17 -37 29 -65 12 -27 26 -57 32 -65 5 -8 13 -24 18 -36 12 -26 130 -205 145 -219 6 -5 29 -36 50 -67 61 -91 69 -95 102 -63 24 24 26 32 21 80 -10 102 25 129 73 58 37 -55 77 -99 160 -180 96 -93 101 -98 123 -106 23 -9 22 -60 -3 -115 -11 -24 -22 -66 -26 -95 -4 -29 -13 -61 -19 -72 -7 -11 -16 -47 -20 -80 -4 -33 -12 -69 -19 -80 -7 -11 -16 -47 -21 -80 -4 -33 -13 -71 -20 -85 -7 -14 -16 -52 -20 -84 -4 -33 -13 -69 -20 -80 -7 -12 -16 -48 -20 -81 -4 -33 -13 -71 -20 -85 -7 -14 -16 -52 -20 -85 -5 -33 -14 -69 -21 -80 -7 -11 -15 -47 -19 -80 -4 -33 -13 -69 -20 -80 -6 -11 -15 -47 -20 -80 -4 -33 -13 -71 -20 -85 -7 -14 -16 -52 -20 -85 -4 -33 -13 -69 -20 -81 -7 -11 -16 -47 -20 -80 -4 -32 -13 -70 -20 -84 -7 -14 -16 -50 -20 -80 -4 -30 -14 -67 -21 -82 -8 -15 -14 -37 -14 -50 0 -13 -7 -48 -16 -78 -8 -30 -20 -82 -25 -115 -6 -33 -17 -69 -24 -81 -7 -12 -17 -39 -21 -60 -3 -21 -12 -46 -19 -54 -7 -8 -16 -30 -20 -48 -4 -18 -13 -36 -20 -38 -7 -3 -16 -21 -19 -40 -4 -19 -10 -34 -14 -34 -5 0 -31 -35 -59 -78 -76 -115 -257 -292 -299 -292 -6 0 -17 -6 -23 -14 -7 -8 -27 -18 -44 -21 -18 -4 -39 -13 -47 -20 -8 -7 -37 -17 -65 -23 -27 -6 -68 -15 -90 -20 -22 -6 -165 -12 -318 -15 -246 -5 -279 -3 -284 10 -4 9 1 21 9 27 8 6 22 25 31 41 30 58 55 72 144 78 147 11 334 121 419 248 80 118 100 218 55 275 -32 40 -27 67 17 98 21 14 45 26 53 26 8 0 22 8 31 18 9 9 29 28 45 42 35 32 83 101 83 121 0 8 8 26 17 39 20 28 24 125 10 243 -7 63 -6 67 12 67 24 0 71 -20 71 -31 0 -13 83 -69 102 -69 25 0 35 30 15 45 -9 6 -21 31 -26 56 -5 24 -17 49 -25 55 -9 6 -19 25 -22 42 -3 17 -12 33 -20 36 -8 3 -14 10 -14 16 0 9 -168 224 -225 287 -9 10 -37 45 -63 78 -26 33 -59 74 -73 90 -15 17 -54 62 -87 101 -33 39 -87 93 -118 120 -32 27 -66 56 -75 64 -39 33 -55 46 -94 72 -22 15 -44 28 -48 28 -5 0 -20 9 -34 20 -14 11 -34 20 -43 20 -10 0 -23 6 -29 14 -7 8 -27 18 -44 21 -18 4 -41 13 -52 19 -11 7 -37 18 -57 25 -21 7 -38 17 -38 22 0 5 -18 12 -40 15 -22 4 -45 13 -51 20 -6 8 -21 14 -33 14 -12 0 -39 9 -61 20 -22 11 -49 20 -61 20 -12 0 -41 9 -65 20 -24 11 -58 20 -76 20 -39 0 -63 23 -63 60 0 42 30 58 190 101 25 6 63 20 86 30 23 11 53 19 68 19 14 0 43 9 63 20 21 11 50 20 66 20 15 0 38 6 50 14 12 8 41 17 64 21 23 4 47 13 54 21 6 8 23 14 38 14 14 0 42 8 61 19 19 10 51 22 70 26 19 4 42 13 50 20 8 7 29 16 47 20 17 3 37 12 43 20 6 8 25 17 41 20 16 4 31 11 35 16 3 5 20 16 37 24 43 20 99 53 106 62 3 4 13 13 22 18 64 40 102 71 156 126 92 94 91 92 102 122 6 15 14 27 19 27 5 0 21 26 36 58 15 31 34 69 42 84 8 14 14 37 14 51 0 49 61 76 80 37z m-2312 -163 c2 -10 -3 -17 -12 -17 -18 0 -29 16 -21 31 9 14 29 6 33 -14z m-5410 -44 c-2 -10 -10 -18 -18 -18 -8 0 -16 8 -18 18 -2 12 3 17 18 17 15 0 20 -5 18 -17z m8375 -99 c11 -11 -5 -34 -24 -34 -12 0 -19 7 -19 20 0 19 28 28 43 14z m-8487 -138 c-4 -56 -13 -97 -22 -107 -16 -18 -19 -55 -4 -64 13 -8 13 -92 0 -100 -6 -4 -8 -16 -5 -26 5 -14 -1 -27 -19 -44 -22 -20 -26 -33 -26 -79 0 -60 -14 -131 -36 -184 -8 -18 -14 -62 -14 -97 0 -35 -4 -67 -10 -70 -5 -3 -10 -23 -10 -43 0 -28 -3 -33 -12 -24 -26 26 -36 12 -43 -60 -4 -40 -13 -80 -20 -88 -7 -8 -21 -32 -30 -54 -16 -33 -17 -40 -4 -50 27 -21 49 -86 29 -86 -5 0 -10 7 -10 15 0 23 -24 18 -35 -7 -12 -28 -44 -30 -59 -4 -16 27 -41 53 -65 66 -12 6 -21 17 -21 25 0 27 -25 15 -40 -18 -17 -36 -43 -46 -68 -24 -38 32 -163 28 -197 -7 -16 -15 -37 -18 -175 -21 -25 -1 -56 -7 -68 -14 -30 -16 -68 -7 -82 20 -13 24 -1 43 42 65 36 19 39 54 3 54 -14 0 -29 -8 -35 -20 -6 -11 -17 -20 -25 -20 -8 0 -15 9 -15 20 0 11 6 20 13 20 8 0 19 11 25 25 13 29 21 31 48 10 27 -20 51 -18 64 6 7 11 25 25 41 31 22 8 29 16 29 37 0 17 11 38 30 56 17 16 30 34 30 40 0 5 9 27 20 48 12 22 20 56 20 85 0 26 7 57 14 68 8 12 15 30 16 40 1 60 17 153 27 166 7 7 12 23 11 33 0 11 4 42 10 68 12 59 81 136 122 137 14 0 31 9 38 20 8 13 23 20 42 20 27 0 31 4 29 26 0 4 18 15 39 24 22 10 43 28 47 39 5 17 14 21 50 21 39 0 46 4 60 29 31 60 88 79 105 35 10 -24 30 -25 30 -1 0 6 14 25 31 43 28 29 34 31 61 22 31 -11 31 -11 24 -102z m8724 -117 c0 -25 -33 -22 -38 4 -2 12 3 17 17 17 15 0 21 -6 21 -21z m-9552 -686 c5 -17 -26 -29 -40 -15 -6 6 -7 15 -3 22 9 14 37 9 43 -7z m-80 -125 c3 -13 -3 -18 -22 -18 -20 0 -26 5 -26 21 0 26 43 23 48 -3z m5389 -74 c4 -10 0 -20 -10 -26 -18 -9 -24 -38 -9 -38 5 0 17 9 27 20 23 25 68 23 73 -2 2 -12 -6 -22 -25 -29 -27 -10 -27 -11 -8 -24 11 -8 25 -19 32 -25 7 -5 32 -10 57 -10 35 0 48 -5 56 -20 13 -25 29 -25 46 -2 10 13 15 14 25 5 10 -10 4 -20 -24 -50 -21 -20 -37 -45 -37 -55 0 -27 -26 -22 -48 9 -18 25 -24 26 -108 28 -89 2 -89 2 -87 79 1 61 -1 76 -13 76 -24 0 -27 27 -7 54 21 29 51 34 60 10z m-4727 -234 c0 -11 -6 -20 -13 -20 -19 0 -27 10 -20 26 8 21 33 17 33 -6z m-73 -208 c18 -69 -20 -138 -50 -91 -10 17 18 129 33 129 4 0 12 -17 17 -38z m7508 -19 c20 -20 43 -51 51 -68 7 -17 20 -37 28 -45 9 -7 16 -16 16 -21 0 -5 14 -28 30 -51 17 -24 38 -54 48 -68 9 -13 29 -38 45 -54 15 -17 27 -36 27 -42 0 -6 -12 -14 -27 -17 -33 -6 -99 34 -178 108 -27 25 -62 53 -77 61 -16 8 -28 19 -28 24 0 5 -8 11 -17 14 -31 10 -73 56 -73 80 0 35 66 116 94 116 13 0 39 -16 61 -37z m-7585 -68 c8 -10 11 -33 8 -67 -4 -41 -2 -55 11 -64 14 -11 14 -14 -1 -31 -12 -14 -15 -31 -11 -70 5 -49 4 -53 -21 -65 -20 -9 -26 -17 -22 -32 8 -31 -12 -46 -64 -46 -43 0 -51 4 -84 40 -35 39 -37 40 -106 40 -38 0 -70 -4 -70 -9 0 -11 -55 -31 -85 -31 -12 0 -30 -9 -40 -20 -10 -11 -28 -20 -41 -20 -12 0 -38 -15 -57 -32 -20 -18 -49 -45 -65 -59 -16 -14 -35 -36 -41 -47 -7 -12 -18 -22 -26 -22 -8 0 -15 -6 -15 -14 0 -7 -25 -37 -55 -65 -42 -40 -55 -59 -55 -81 0 -19 -6 -31 -19 -35 -25 -8 -37 -116 -26 -240 9 -111 -5 -111 -100 -5 -76 85 -81 89 -100 63 -11 -15 -15 -15 -29 -4 -11 9 -13 17 -7 25 7 8 4 16 -10 24 -10 7 -19 21 -19 31 0 31 -21 36 -42 11 -22 -27 -51 -18 -56 17 -2 12 -12 29 -23 39 -19 17 -25 51 -11 69 4 6 46 11 93 11 85 2 85 2 157 74 40 40 72 80 72 89 0 9 6 26 14 37 8 11 16 43 18 70 3 49 3 49 157 52 141 2 156 4 168 22 9 12 26 20 43 20 20 0 31 6 35 20 5 14 15 20 38 20 21 0 36 7 45 20 7 11 23 20 38 20 27 0 73 44 74 71 0 27 23 39 73 39 50 0 50 0 44 35 -7 40 6 44 75 23 27 -8 42 -8 49 -1 7 7 3 12 -15 17 -41 10 -35 46 8 46 18 0 39 7 46 15 16 19 34 19 50 0z m7630 -400 c0 -7 -7 -16 -16 -19 -20 -8 -8 -26 17 -26 12 0 29 -10 39 -22 19 -23 19 -23 50 15 35 41 80 52 80 19 0 -10 5 -23 12 -30 18 -18 3 -25 -21 -11 -27 17 -39 4 -18 -19 25 -28 20 -82 -13 -150 -33 -65 -98 -132 -129 -132 -10 0 -21 -7 -25 -15 -7 -19 -46 -20 -46 -1 0 7 7 19 15 26 29 24 18 38 -25 33 -40 -6 -40 -6 -40 30 0 21 -6 37 -14 40 -27 11 -49 72 -34 97 11 18 11 22 -4 31 -30 17 -22 42 11 37 25 -4 30 -1 35 23 3 16 14 30 26 34 24 8 26 21 5 29 -8 3 -15 10 -15 16 0 17 28 11 39 -7 9 -17 11 -16 32 4 23 23 39 22 39 -2z m-7646 -52 c8 -19 -8 -38 -23 -29 -16 10 -13 46 3 46 8 0 17 -8 20 -17z m7164 -33 c30 -15 43 -28 48 -48 16 -73 79 -176 166 -267 21 -22 38 -43 38 -47 0 -4 21 -28 46 -53 54 -54 55 -79 3 -83 -32 -3 -42 4 -121 83 -47 47 -91 85 -97 85 -5 0 -18 8 -28 18 -10 10 -53 46 -95 80 -141 114 -187 199 -120 222 15 6 34 14 42 19 25 16 74 12 118 -9z m-7348 -62 c0 -24 -9 -61 -19 -84 -10 -23 -22 -65 -26 -95 -4 -30 -13 -65 -20 -79 -7 -14 -16 -52 -20 -85 -4 -33 -13 -71 -20 -85 -7 -14 -16 -52 -20 -85 -4 -33 -11 -68 -17 -78 -5 -10 -15 -55 -23 -100 -24 -145 -39 -202 -55 -205 -10 -1 -35 24 -65 65 -27 37 -67 86 -87 108 -48 49 -52 92 -10 101 54 12 54 12 35 41 -10 16 -38 53 -63 84 -77 97 -80 102 -80 139 0 19 8 49 19 66 10 17 22 41 26 53 18 56 114 163 160 177 11 4 31 15 44 25 13 11 33 19 45 19 12 0 32 7 44 16 23 16 100 40 135 43 14 1 17 -7 17 -41z m-1160 -99 c15 -27 6 -49 -20 -49 -15 0 -20 7 -20 28 0 46 21 57 40 21z m8286 -224 c8 -31 36 -33 56 -3 20 29 48 18 48 -20 0 -34 16 -52 48 -52 17 0 27 -8 35 -30 10 -25 17 -30 45 -30 61 0 95 -36 56 -58 -24 -13 -8 -32 27 -32 16 0 29 -4 29 -8 0 -9 67 -82 75 -82 15 0 2 41 -15 50 -11 6 -18 15 -15 21 11 16 54 10 93 -15 20 -12 47 -26 60 -30 23 -8 30 -40 11 -52 -7 -4 -24 -7 -39 -6 -21 0 -30 -7 -43 -34 -15 -30 -20 -33 -36 -24 -35 18 -48 12 -43 -19 5 -39 -25 -51 -51 -20 -16 20 -19 21 -35 5 -10 -9 -24 -16 -30 -16 -6 0 -32 -18 -57 -40 -25 -22 -54 -40 -64 -40 -33 0 -81 -56 -81 -94 0 -27 -5 -36 -22 -42 -21 -6 -21 -7 5 -26 30 -22 22 -48 -14 -48 -25 0 -24 -27 1 -35 23 -7 27 -33 5 -41 -22 -9 -18 -24 6 -24 17 0 20 -5 17 -32 -3 -30 -6 -33 -33 -31 -82 5 -954 2 -978 -3 -15 -4 -33 -1 -41 5 -10 8 -16 9 -21 1 -8 -13 -52 -13 -60 0 -3 6 -15 5 -30 -2 -23 -10 -29 -7 -75 42 -28 29 -50 57 -50 62 0 16 31 20 48 7 47 -38 59 -40 65 -9 4 17 17 34 33 42 23 11 38 32 64 88 10 20 41 24 64 7 17 -12 18 -18 7 -47 -12 -36 -7 -50 11 -32 7 7 39 12 73 12 61 0 61 0 148 87 81 81 87 89 87 128 0 56 31 88 45 45 9 -28 22 -25 28 8 4 17 1 31 -9 38 -17 13 -18 30 -4 39 14 9 80 -61 80 -85 0 -16 6 -18 34 -13 26 4 36 1 47 -15 8 -10 30 -23 49 -27 60 -13 72 -23 65 -56 -6 -27 -5 -29 24 -29 20 0 35 -7 43 -20 14 -22 101 -30 113 -10 3 5 24 14 45 20 22 6 40 15 40 21 0 5 12 14 27 20 27 10 27 10 -2 33 -16 13 -25 28 -21 34 10 17 46 15 52 -3 4 -8 12 -15 19 -15 18 0 27 97 14 165 -6 31 -8 63 -5 70 8 22 -21 40 -39 25 -13 -11 -14 -8 -9 17 4 22 2 32 -10 36 -21 8 -20 37 1 52 22 16 7 36 -22 29 -13 -3 -26 0 -30 6 -13 21 -14 144 -1 152 21 14 36 8 42 -17z m-328 -14 c46 -14 70 -47 78 -108 3 -29 12 -58 20 -64 8 -6 14 -17 14 -24 0 -8 11 -27 25 -43 14 -17 25 -33 25 -37 0 -4 27 -39 60 -79 64 -77 79 -123 38 -112 -13 3 -28 6 -34 6 -6 0 -31 19 -56 43 -39 36 -110 100 -214 195 -14 12 -31 22 -38 22 -6 0 -18 6 -24 12 -7 7 -30 17 -50 23 -34 10 -37 14 -40 49 -3 32 2 44 29 72 18 19 42 34 53 34 12 0 28 5 36 10 19 12 37 12 78 1z m-2048 -51 c0 -20 -5 -30 -15 -30 -18 0 -30 24 -21 45 10 28 36 17 36 -15z m95 -140 c16 -51 72 -161 87 -171 5 -3 23 -29 42 -57 57 -89 199 -245 300 -329 27 -22 46 -45 43 -50 -3 -5 -144 -8 -329 -7 -323 3 -323 3 -320 51 2 26 12 68 23 92 10 24 19 53 19 65 0 12 7 46 16 76 14 52 26 108 58 290 8 41 14 76 15 78 5 16 38 -11 46 -38z m974 -47 c21 -26 21 -26 1 -48 -24 -26 -28 -106 -5 -125 8 -6 17 -22 21 -33 6 -22 73 -105 128 -162 16 -16 35 -44 42 -61 8 -18 19 -34 26 -37 10 -4 10 -7 0 -18 -11 -12 -15 -11 -26 4 -7 9 -19 17 -26 17 -42 0 -350 312 -350 354 0 8 -7 19 -15 26 -24 20 -18 56 16 84 46 39 158 39 188 -1z m-6423 -27 c3 -14 12 -27 21 -30 8 -3 11 -10 8 -16 -9 -14 -25 -12 -25 3 0 8 -11 19 -25 25 -30 14 -33 42 -5 42 12 0 22 -9 26 -24z m8354 5 c0 -22 -21 -33 -40 -21 -18 11 -4 40 20 40 13 0 20 -7 20 -19z m-1045 -141 c0 -13 -5 -25 -12 -27 -13 -5 -27 32 -18 47 11 18 30 5 30 -20z m84 -59 c18 -11 5 -31 -20 -31 -18 0 -26 20 -12 33 8 9 15 9 32 -2z m-6881 -163 c-3 -34 -20 -42 -26 -13 -5 22 5 45 18 45 7 0 10 -14 8 -32z m6202 -2 c0 -16 -37 -28 -46 -15 -8 14 5 29 27 29 10 0 19 -6 19 -14z m-6295 -92 c14 -9 25 -22 25 -29 0 -7 5 -15 12 -17 7 -3 13 -15 13 -29 1 -13 5 -37 10 -53 7 -25 3 -32 -29 -62 -55 -51 -88 -44 -46 9 35 44 23 63 -16 26 -32 -30 -111 -39 -120 -13 -3 11 -10 27 -15 36 -11 22 -12 65 0 72 4 3 38 11 75 18 36 7 66 16 66 20 0 5 -4 8 -10 8 -5 0 -10 7 -10 15 0 19 15 19 45 -1z m5996 -54 c19 0 29 -5 29 -15 0 -8 4 -15 9 -15 16 0 71 -51 71 -66 0 -24 -31 -29 -47 -8 -14 19 -15 18 -30 -3 -25 -37 -93 -28 -93 12 0 24 21 38 44 29 8 -3 17 -1 21 5 10 18 -24 25 -50 11 -31 -17 -55 -7 -55 23 0 32 10 40 44 33 16 -3 41 -6 57 -6z m-333 -63 c3 -12 -3 -17 -22 -17 -25 0 -35 18 -19 34 12 12 38 2 41 -17z m249 -22 c8 -25 -23 -48 -55 -40 -33 7 -45 38 -19 49 20 8 70 2 74 -9z m-7580 -82 c5 -14 -36 -53 -54 -53 -7 0 -13 11 -13 25 0 35 57 59 67 28z m-120 -39 c8 -21 -13 -42 -28 -27 -13 13 -5 43 11 43 6 0 13 -7 17 -16z m-62 -14 c10 -31 -4 -59 -31 -66 -35 -9 -54 2 -54 30 0 45 72 76 85 36z"/> <path d="M5667 16513 c-6 -33 1 -53 19 -53 10 0 14 12 14 40 0 47 -25 56 -33 13z"/> <path d="M7430 16131 c0 -15 6 -21 21 -21 14 0 19 5 17 17 -5 26 -38 29 -38 4z"/> <path d="M11541 16141 c-11 -7 -10 -14 8 -40 36 -50 50 -41 30 18 -12 33 -16 36 -38 22z"/> <path d="M7342 16093 c2 -10 10 -18 18 -18 22 0 18 29 -3 33 -14 3 -18 -1 -15 -15z"/> <path d="M11667 16094 c-9 -10 15 -54 30 -54 16 0 16 2 1 35 -11 25 -19 30 -31 19z"/> <path d="M7637 16051 c-7 -36 1 -64 17 -58 13 5 12 65 -2 79 -6 6 -11 -2 -15 -21z"/> <path d="M7562 15961 c3 -26 32 -50 44 -38 5 4 -5 20 -20 35 -28 27 -28 27 -24 3z"/> <path d="M10603 12608 c2 -7 12 -13 22 -13 10 0 20 6 23 13 2 7 -6 12 -23 12 -17 0 -25 -5 -22 -12z"/> <path d="M10595 12388 c-9 -22 -2 -63 10 -63 14 0 18 41 6 62 -9 17 -10 17 -16 1z"/> <path d="M6675 11730 c-9 -15 5 -110 16 -110 15 0 21 63 11 113 -3 11 -20 9 -27 -3z"/> <path d="M10277 10694 c-10 -11 -9 -52 3 -59 6 -3 13 1 16 10 8 19 -8 60 -19 49z"/> <path d="M9585 8200 c-7 -12 2 -130 10 -139 19 -18 35 92 19 133 -7 18 -20 21 -29 6z"/> <path d="M5716 7372 c-9 -26 2 -82 15 -82 5 0 9 6 9 13 0 6 3 21 6 32 3 11 -1 29 -9 39 -14 19 -15 19 -21 -2z"/> <path d="M5035 5011 c-8 -14 5 -62 16 -55 12 7 12 51 0 59 -5 3 -12 1 -16 -4z"/> <path d="M8635 4218 c-9 -22 -2 -63 10 -63 14 0 18 41 6 62 -9 17 -10 17 -16 1z"/> <path d="M17265 4047 c-7 -26 1 -137 10 -146 20 -19 34 91 19 147 -8 29 -22 28 -29 -1z"/> <path d="M2792 3048 c5 -32 28 -35 28 -4 0 17 -5 26 -16 26 -10 0 -14 -7 -12 -22z"/> <path d="M16992 2346 c2 -15 8 -26 13 -26 15 0 12 43 -3 48 -10 3 -13 -4 -10 -22z"/> <path d="M15493 14287 c-15 -26 -108 -49 -223 -57 -120 -9 -148 -18 -246 -82 -42 -27 -114 -106 -114 -125 0 -6 -10 -23 -21 -38 -18 -22 -23 -45 -27 -119 -4 -88 -3 -94 26 -146 37 -66 107 -136 143 -145 32 -8 69 36 69 82 0 15 7 39 15 53 8 14 18 34 24 46 36 79 183 194 248 194 16 0 42 7 58 16 40 21 246 20 308 -1 43 -15 107 -20 107 -9 0 7 -58 80 -97 122 -13 14 -23 28 -23 31 0 11 -125 140 -161 167 -36 26 -74 31 -86 11z"/> <path d="M14329 14117 c-23 -10 -70 -49 -141 -113 -11 -11 -40 -16 -95 -17 -72 -2 -83 -5 -119 -34 -33 -26 -122 -118 -179 -185 -15 -19 -47 -89 -42 -94 5 -5 72 20 97 37 46 30 125 67 160 74 19 4 44 14 55 21 11 8 29 14 40 14 33 0 164 73 258 143 48 36 92 67 98 69 6 2 11 18 12 36 2 30 -2 35 -38 48 -47 16 -71 17 -106 1z"/> <path d="M16304 13830 c-40 -4 -72 -14 -89 -28 -15 -12 -33 -22 -40 -22 -7 0 -19 -9 -26 -20 -22 -31 -64 -36 -86 -10 -10 12 -46 35 -81 52 -61 29 -69 30 -165 26 -151 -6 -246 -57 -369 -198 -10 -11 -20 -32 -24 -47 -3 -16 -13 -39 -21 -51 -25 -40 4 -229 36 -240 29 -10 60 9 69 41 21 75 129 201 182 214 14 3 35 12 48 20 17 10 74 16 213 20 190 6 190 6 235 -38 112 -109 194 -225 269 -379 26 -52 55 -112 66 -132 10 -20 19 -43 19 -51 0 -23 24 -39 38 -25 20 20 15 156 -8 207 -11 24 -20 48 -20 55 -2 45 -110 212 -185 284 -64 63 -67 78 -20 98 48 20 296 20 328 0 12 -8 38 -17 58 -20 20 -4 44 -15 54 -26 10 -11 24 -20 31 -20 22 0 143 -124 159 -164 26 -62 94 -82 95 -27 0 14 -32 90 -51 121 -5 8 -17 31 -28 50 -56 102 -262 270 -331 270 -9 0 -25 6 -36 14 -11 8 -64 19 -117 25 -104 12 -111 12 -203 1z"/> <path d="M16599 13523 c-18 -21 -14 -134 5 -171 8 -15 17 -46 21 -67 4 -22 13 -50 21 -62 8 -12 14 -28 14 -36 0 -27 112 -150 165 -182 50 -29 68 -31 85 -10 11 13 7 23 -21 58 -18 23 -39 46 -46 50 -7 4 -13 13 -13 20 0 7 -9 29 -20 49 -11 21 -23 55 -26 77 -4 23 -13 46 -20 52 -8 6 -14 24 -14 39 0 15 -8 38 -19 51 -10 13 -22 39 -25 56 -4 18 -12 36 -17 39 -6 3 -14 17 -19 30 -11 29 -50 33 -71 7z"/> <path d="M13907 13504 c-4 -4 -7 -23 -7 -43 0 -20 -8 -49 -17 -66 -26 -44 -26 -269 0 -305 9 -13 17 -30 17 -38 0 -27 52 -122 66 -122 23 0 54 19 54 33 0 7 11 28 25 47 33 44 36 153 6 191 -10 13 -21 42 -25 64 -4 21 -14 52 -22 67 -8 15 -14 49 -14 75 0 61 -18 97 -51 101 -13 2 -28 0 -32 -4z"/> <path d="M15941 13496 c-8 -10 -5 -20 17 -42 42 -44 96 -115 122 -159 21 -34 24 -54 25 -125 0 -83 -1 -86 -37 -136 -60 -82 -49 -99 56 -88 67 7 116 29 159 69 25 24 27 32 27 103 0 48 -6 86 -15 102 -7 14 -21 40 -30 59 -8 19 -48 66 -88 105 -103 102 -204 150 -236 112z"/> <path d="M14212 13076 c-12 -6 -26 -24 -31 -41 -5 -16 -20 -50 -34 -75 -43 -76 -87 -168 -87 -181 0 -7 -7 -20 -16 -30 -11 -13 -17 -46 -21 -118 -6 -100 -6 -100 27 -150 17 -28 35 -51 39 -51 4 0 34 -20 65 -45 32 -25 65 -45 73 -45 8 0 26 -9 40 -20 14 -11 39 -20 56 -20 17 0 39 -8 50 -17 31 -29 342 -33 394 -6 21 11 50 23 66 27 30 7 36 30 11 40 -9 3 -53 6 -98 6 -52 0 -89 5 -101 14 -11 7 -37 16 -58 20 -60 11 -156 65 -207 116 -36 36 -80 102 -80 121 0 9 -7 33 -15 53 -16 38 -16 42 14 176 19 86 14 154 -16 199 -28 43 -34 45 -71 27z"/> <path d="M12697 12818 c-29 -29 -66 -70 -82 -92 -17 -21 -40 -50 -52 -64 -13 -14 -23 -29 -23 -34 0 -4 -15 -30 -34 -56 -18 -27 -37 -59 -41 -73 -4 -13 -13 -33 -19 -44 -7 -11 -16 -33 -20 -50 -4 -16 -13 -37 -21 -45 -7 -8 -16 -33 -19 -54 -4 -21 -14 -48 -21 -60 -8 -12 -17 -41 -21 -66 -4 -25 -13 -57 -20 -71 -7 -15 -16 -57 -20 -95 -4 -38 -12 -84 -20 -101 -7 -18 -16 -76 -19 -130 -4 -54 -13 -116 -20 -139 -8 -22 -17 -96 -21 -165 -3 -68 -11 -129 -16 -136 -5 -7 -14 -63 -19 -125 -6 -62 -17 -125 -25 -140 -19 -34 -18 -157 0 -200 8 -18 18 -54 21 -80 3 -25 13 -52 20 -58 8 -7 15 -23 15 -36 0 -13 9 -32 20 -41 11 -10 20 -24 20 -32 0 -36 112 -176 192 -240 101 -81 116 -91 134 -91 10 0 27 -9 38 -19 20 -19 24 -19 86 -5 156 37 811 45 876 11 16 -8 54 -18 84 -22 30 -4 62 -13 70 -20 8 -7 32 -15 54 -18 21 -3 46 -13 55 -20 9 -8 27 -18 41 -22 14 -4 32 -13 40 -20 8 -8 27 -17 43 -20 15 -4 30 -11 33 -17 3 -5 16 -13 28 -18 13 -4 59 -33 103 -63 44 -30 90 -58 102 -62 11 -3 21 -11 21 -16 0 -5 8 -13 18 -16 27 -10 96 -56 105 -70 9 -14 57 -18 57 -5 0 4 -8 19 -18 33 -40 62 -97 144 -102 149 -3 3 -27 32 -55 65 -123 147 -258 271 -362 332 -24 13 -43 29 -43 33 0 5 -13 11 -29 15 -16 3 -37 15 -47 26 -9 10 -26 19 -36 19 -11 0 -31 9 -45 20 -14 11 -36 20 -48 20 -12 0 -28 6 -34 14 -6 7 -31 16 -56 19 -25 4 -56 14 -69 23 -19 12 -56 16 -167 17 -152 2 -167 7 -131 47 11 12 24 26 29 31 63 71 258 233 292 244 24 7 54 52 47 71 -8 21 -89 18 -136 -6 -21 -11 -64 -23 -94 -26 -35 -4 -68 -16 -88 -30 -37 -28 -56 -30 -84 -10 -19 14 -18 15 6 41 14 15 43 39 65 54 22 15 77 53 123 84 45 31 85 57 88 57 3 0 19 13 35 29 30 30 37 55 18 66 -10 7 -181 -42 -245 -70 -18 -8 -49 -17 -70 -20 -22 -4 -48 -13 -59 -20 -11 -7 -41 -16 -65 -20 -25 -4 -54 -13 -66 -20 -12 -8 -38 -17 -58 -20 -20 -4 -53 -16 -73 -26 -21 -11 -47 -19 -59 -19 -12 0 -33 -9 -47 -20 -38 -30 -122 -28 -138 3 -7 12 -17 25 -22 29 -6 3 -13 39 -16 80 -4 40 -12 83 -19 95 -7 13 -17 93 -22 180 -6 87 -15 191 -21 230 -8 57 -7 100 5 195 8 68 17 170 21 227 3 58 12 113 19 125 8 11 16 49 19 84 3 34 12 73 20 86 9 12 18 44 22 69 4 25 13 52 21 58 8 6 14 21 14 33 0 19 32 96 66 156 7 14 20 39 29 57 8 17 19 34 25 38 5 3 10 15 10 26 0 35 -39 21 -93 -33z m-307 -1794 c6 -14 9 -33 8 -42 -2 -9 5 -18 14 -20 15 -3 17 2 12 26 -4 18 -1 32 5 37 17 10 41 -14 41 -41 0 -27 93 -124 119 -124 10 0 26 -7 37 -15 21 -16 194 -22 194 -6 0 11 55 31 87 31 14 0 31 7 40 16 9 9 28 14 47 12 31 -3 31 -3 28 -119 -4 -114 -3 -116 24 -148 23 -27 26 -37 18 -59 -9 -27 -9 -27 -221 -30 -208 -2 -212 -2 -218 19 -5 16 -13 20 -32 16 -19 -3 -27 1 -35 19 -6 13 -22 31 -35 39 -12 9 -23 23 -23 33 0 23 -19 42 -42 42 -19 0 -25 25 -8 35 16 10 12 23 -10 30 -15 5 -20 15 -20 42 0 31 -3 35 -22 31 -22 -4 -23 -1 -20 42 3 33 -1 50 -12 59 -24 20 -19 101 5 101 5 0 14 -12 19 -26z m748 -488 c-2 -12 -10 -21 -18 -21 -16 0 -25 28 -16 52 9 23 38 -4 34 -31z"/> <path d="M14751 12816 c-14 -17 -5 -108 15 -148 8 -15 14 -38 14 -51 0 -13 9 -32 20 -42 11 -10 20 -25 20 -32 0 -19 107 -123 126 -123 8 0 28 -9 43 -21 26 -19 42 -21 150 -20 144 0 161 4 161 36 0 30 -20 41 -85 48 -103 11 -214 90 -325 231 -38 48 -70 91 -70 95 0 4 -13 14 -29 24 -24 14 -30 15 -40 3z"/> <path d="M11356 13234 c-7 -26 -1 -44 15 -44 12 0 12 57 0 64 -5 3 -12 -6 -15 -20z"/> <path d="M11310 13111 c0 -22 5 -43 10 -46 6 -4 10 12 10 39 0 25 -4 46 -10 46 -5 0 -10 -18 -10 -39z"/> <path d="M5172 10935 c-27 -30 -32 -43 -32 -89 0 -29 -7 -75 -16 -102 -21 -66 -31 -338 -14 -414 6 -30 16 -100 21 -154 10 -107 19 -126 54 -126 47 0 48 3 48 460 1 376 -1 432 -14 446 -14 14 -19 12 -47 -21z"/> <path d="M3410 4943 c0 -52 21 -187 30 -198 6 -7 13 -37 17 -66 10 -92 65 -116 109 -49 47 71 21 176 -71 282 -42 50 -85 65 -85 31z"/> <path d="M2972 4916 c-12 -6 -27 -26 -33 -44 -6 -19 -17 -46 -25 -60 -8 -15 -14 -34 -14 -43 0 -9 -9 -36 -20 -60 -56 -125 10 -211 108 -139 37 28 42 36 43 73 0 23 2 92 3 152 4 134 -4 150 -62 121z"/> <path d="M10194 8576 c-4 -9 -2 -22 5 -29 8 -8 14 -8 23 1 10 10 8 16 -5 29 -15 15 -17 15 -23 -1z"/> <path d="M4434 10628 c7 -37 11 -42 25 -33 6 3 11 19 11 36 0 23 -4 29 -21 29 -19 0 -21 -4 -15 -32z"/> <path d="M11350 8206 c0 -7 -10 -20 -22 -28 -12 -8 -18 -19 -14 -26 12 -20 36 -13 46 14 13 33 13 54 0 54 -5 0 -10 -6 -10 -14z"/> <path d="M11896 7494 c-4 -9 -4 -19 -2 -22 10 -9 36 8 36 23 0 20 -26 19 -34 -1z"/> <path d="M9994 5206 c-8 -21 3 -49 16 -41 5 3 10 15 10 25 0 25 -18 36 -26 16z"/> <path d="M13022 7523 c2 -10 10 -18 18 -18 8 0 16 8 18 18 2 12 -3 17 -18 17 -15 0 -20 -5 -18 -17z"/> <path d="M5192 7378 c-8 -8 -9 -15 -1 -25 16 -19 29 -16 29 6 0 25 -13 34 -28 19z"/> <path d="M14957 19393 c-13 -12 -7 -43 7 -43 16 0 25 19 18 38 -5 13 -15 16 -25 5z"/> <path d="M15503 15448 c2 -7 12 -13 22 -13 10 0 20 6 23 13 2 7 -6 12 -23 12 -17 0 -25 -5 -22 -12z"/> <path d="M18820 12564 c0 -34 43 -31 48 4 3 18 -1 22 -22 22 -21 0 -26 -5 -26 -26z"/> <path d="M17834 10486 c-7 -20 2 -46 16 -46 13 0 13 47 0 55 -6 3 -13 -1 -16 -9z"/> <path d="M16870 9236 c0 -16 26 -46 40 -46 18 0 18 16 0 38 -21 25 -40 29 -40 8z"/> <path d="M18665 8101 c-9 -16 3 -31 26 -31 14 0 19 6 17 17 -4 20 -33 29 -43 14z"/> <path d="M2582 6243 c5 -26 38 -29 38 -4 0 15 -6 21 -21 21 -14 0 -19 -5 -17 -17z"/> </g> </svg>